<svg xmlns="http://www.w3.org/2000/svg" viewBox="0 0 320.44 43.35"><path d="M151.51 8.5h-9.43l-7.26 27.24h6.84l1.62-5.81h7.03l1.62 5.81h6.84zm-6.89 15.59 2.17-8.89 2.18 8.89zM176.25 24.93l4.39-4.6v-7.94l-4.28-3.89h-16.11v27.24h6.72v-9.26h1.99l5.71 9.26h7.19zm-2.32-4.9h-6.96V15.2h6.96zM231.69 8.5h-12.48l-4.28 3.89v19.47l4.28 3.88h12.48l4.32-3.88V12.39zm-2.4 20.53h-7.65V15.2h7.65zM260.45 35.7V8.5h-6.66v14.29L246.44 8.5h-7.19v27.24h6.68V21.47l7.33 14.27h7.21zM263.71 8.5v6.7h6.65v20.54h6.73V15.2h6.66V8.5zM293.69 28.92v-3.34h9.17v-6.93h-9.17V15.2h10.65V8.5h-17.36v27.24h17.5v-6.82zM124.39 8.49l-6.77 13.17-6.77-13.17h-7.19v27.25h6.68V21.46l3.68 7.18 3.55 7.1h.1l3.55-7.1 3.68-7.18v14.28h6.68V8.49zM204.48 8.49l-6.77 13.17-6.78-13.17h-7.18v27.25h6.68V21.46l3.68 7.18 3.55 7.1h.09l3.55-7.1 3.69-7.18v14.28h6.68V8.49zM309.41.27v1.05h1.78V6.2h1.25V1.32h1.77V.27zM318.66.27l-1.07 4.66-1.08-4.66h-1.8V6.2h1.15V1.23l1.12 4.97h1.2l1.12-4.97V6.2h1.16V.27h-1.78ZM70.78 3.07s1.35 2.16-13.49 2.97c-14.73.81-40.65-2.97-40.65-2.97S42.56-.64 57.29.1c14.84.74 13.49 2.97 13.49 2.97M70.78 40.27s1.35 2.16-13.49 2.97c-14.73.81-40.65-2.97-40.65-2.97s25.92-3.71 40.65-2.97c14.84.74 13.49 2.97 13.49 2.97M87.41 15.46c0 .62-9.85 3.3-24.61 3.3S0 15.46 0 15.46s48.05-3.3 62.81-3.3 24.61 2.36 24.61 3.3ZM87.41 27.86c0 .62-9.85 3.3-24.61 3.3S0 27.86 0 27.86s48.05-3.3 62.81-3.3 24.61 2.36 24.61 3.3Z"/></svg>