<svg xmlns="http://www.w3.org/2000/svg" id="Capa_1" viewBox="0 0 174.82 89.25"><defs><style>.st0{fill:#303488}.st1{fill:#0eb8ec}.st2{fill:#ef91bc}</style></defs><path d="M63.9 77.37c0 .52-.44.96-1.04.96l-6.93-.03c-.64 0-1.08-.45-1.08-.97 0-1.08 1.08-.68 1.1-4.2l.03-8.61c0-2.12-1.35-3.05-2.75-3.05-1.56 0-3.25 1.15-3.26 3.03l-.03 8.61c-.01 3.52 1.07 3.13 1.07 4.21 0 .52-.44.96-1.09.96l-6.93-.03c-.6 0-1.04-.45-1.04-.97 0-1.08 1.08-.68 1.1-4.2l.06-16.98c.01-3.52-1.07-3.13-1.07-4.21 0-.56.44-.96 1.04-.96 2.72.01 3.61-2.31 5.7-2.3.68 0 1.24.57 1.24 1.25l-.04 10.85c1.73-1.92 4.18-3.11 6.54-3.1 3.48.01 6.36 2.35 6.34 8.19l-.03 7.33c-.01 3.52 1.07 3.13 1.07 4.21Z" class="st0"/><path d="M83.78 72.92c-.16-.16-.72-.49-1.24.07-.28.32-1.69 2.12-4.93 2.39-2.61.19-4.45-.94-5.64-2.75-3.55-5.34 12.86-1.63 11.05-8.61-.91-3.48-5.31-6.3-9.75-6.32-5.93-.02-9.91 4.73-9.93 10.62-.03 5.88 4.96 10.67 11.13 10.69 4.73.02 8.22-2.65 9.51-5.05.12-.24.16-.68-.2-1.04m-13.16-3.29c-1.15-3.93-.28-10.02 2.64-10.01 3.12.01 5.3 6.11 1.33 7.66-1.76.67-3.25 1.19-3.97 2.35" class="st0"/><path d="M92.5 77.48c0 .52-.44.96-1.05.96l-6.93-.03c-.64 0-1.08-.45-1.08-.97 0-1.08 1.08-.68 1.09-4.2l.06-16.94c.01-3.57-1.07-3.17-1.06-4.25 0-.56.44-.96 1.08-.96.18 0 .36 0 .52-.03q-.36.705-.36 1.56c-.01 2.73 2.73 4.92 6.7 5.63l-.06 15.02c-.01 3.52 1.07 3.13 1.07 4.2Z" class="st0"/><path d="M113.05 76.19c0 1.12-2.05 2.31-4.41 2.31s-4.28-1.42-4.27-3.9l.03-9.05c-.56.64-1.41 1.28-2.49 2.07-2.01 1.39-2.7 3.31-2.7 5.04-.05 2.32 1.19 4.33 2.95 3.09.4-.28.92-.04.92.44 0 .2-.04.4-.16.56-.93 1.28-2.53 2.35-5.17 2.34-3.24-.01-5.44-2.22-5.43-5.47.01-3.8 4.07-5.83 6.95-7.14 2.85-1.27 4.54-2.67 4.54-4.63 0-1.16-.95-2.13-2.52-2.13-2.16 0-3.25 1.35-3.26 3.19 0 1.52-1.09 1.92-2.09 1.91s-2-.69-2-2.01c0-2.32 3.02-5.03 7.35-5.02 6.05.02 10 3.68 9.98 8.97l-.03 7.53c0 .72.16 1.2.84 1.08.56-.12.96.2.96.8Z" class="st0"/><path d="m133.45 73.42.08-23.23c0-.68-.55-1.24-1.23-1.24-2.13-.01-2.98 2.31-5.7 2.3-.6 0-1.04.4-1.04.96-.01 1.08 1.08.68 1.06 4.21v2.44c-.77-.52-1.77-.97-3.13-.97-6.16-.03-11.19 4.08-11.21 10.57-.02 6.45 5.09 10.71 10.25 10.73 1.85.01 3.29-.87 4.01-1.75v.28c0 .44.36.84.84.85l6.05.02c.64 0 1.08-.44 1.08-.96.01-1.08-1.08-.68-1.06-4.21m-6.89-.1c-.01 2.72-1.42 3.96-2.9 3.95-2.72-.01-4.27-3.74-4.25-8.79.02-5.2 1.59-8.64 4.04-8.63 1.76.01 3.15 1.21 3.15 3.45zM145.6 57.97c-6.21-.02-11.23 4.72-11.25 10.61s4.97 10.67 11.17 10.69c6.17.03 11.19-4.72 11.22-10.61.02-5.88-4.97-10.67-11.14-10.69m2.17 19.07c-2.12.55-4.83-2.74-6.06-7.39-1.22-4.65-.52-8.89 1.6-9.45 2.17-.55 4.88 2.74 6.1 7.39 1.23 4.65.49 8.9-1.64 9.45" class="st0"/><path d="M165.39 79.35c-4.73-.02-9.48-2.6-9.47-5.68a2.76 2.76 0 0 1 2.77-2.75c1.72 0 2.4 1.29 2.56 1.81.67 2.08 2.02 4.69 4.99 4.7 1.36 0 2.77-.63 2.77-1.83.01-4.01-12.2-5.01-12.17-12.02.02-4.61 4.83-5.55 7.99-5.54 3 .01 8.48 1.59 8.47 4.24 0 1.2-.97 2.16-2.17 2.16-.76 0-1.52-.41-1.84-1.05-.91-1.85-1.91-3.41-4.31-3.42-1.16 0-2.49.39-2.49 1.71-.01 3.44 12.36 4.49 12.33 11.18-.02 4.21-3.75 6.51-9.44 6.49ZM46.89 26.6c-.03.1-.05.19-.08.29-.87 3.2-2.29 7.83-4.03 13.25-.15.48-.31.96-.46 1.45-.16.48-.31.97-.47 1.46-.15.48-.31.96-.47 1.44s-.31.96-.47 1.44-.32.96-.47 1.45c-.16.47-.31.95-.47 1.43l-.48 1.44c-3.97 12.09-8.59 25.84-11.93 36.32-1.14 3.58-6.21 3.56-7.33-.03-.35-1.11-.71-2.27-1.09-3.48-.07-.2-.13-.41-.19-.62-.68-2.21-1.42-4.56-2.18-7.01-.02-.05-.03-.1-.05-.15-.2-.65-.4-1.31-.61-1.97-.22-.71-.44-1.43-.67-2.16q-.63-1.995-1.26-4.05c-.02-.06-.04-.13-.06-.19-.28-.92-.57-1.84-.86-2.76-.18-.59-.36-1.17-.55-1.76-1.27-4.1-2.54-8.19-3.74-12.08-.15-.49-.3-.97-.45-1.45l-.45-1.44c-.15-.49-.3-.97-.45-1.45-.15-.49-.3-.97-.45-1.45-.15-.49-.3-.97-.45-1.45-.15-.5-.3-.98-.45-1.46-.15-.49-.3-.97-.45-1.45-.2-.66-.4-1.31-.59-1.94h.26c5.12-.22 4.76-6.97 4.79-7.72 0-.23.03-.45.07-.66 0-.07.02-.14.03-.21 4.51.98 9.12 1.46 13.73 1.37 7.8-.1 15.49-1.76 22.75-4.42Z" class="st0"/><path d="M6.38 14.72c.11-.96.5-1.87.9-2.75.43-.87.93-1.7 1.48-2.51 1.1-1.61 2.41-3.08 3.86-4.42 1.48-1.31 3.12-2.48 4.95-3.38S21.43.17 23.54.03c2.11-.16 4.24.16 6.22.82 1.99.65 3.82 1.65 5.5 2.8 3.36 2.33 6.1 5.32 8.38 8.58 1.13 1.64 2.15 3.36 3.02 5.17.43.91.83 1.84 1.17 2.81.17.49.33.98.47 1.5.07.26.13.52.19.79.03.13.05.27.08.41l.02.1v.05l.02.11c.01.15.03.28.03.44 0 1.19-.85 2.63-2.51 2.79-.4.04-.83-.04-1.19-.2-.18-.08-.36-.18-.5-.28-.15-.11-.28-.23-.39-.34l-.16-.18-.05-.07-.1-.13-.21-.26a31 31 0 0 0-1.77-2c-1.26-1.27-2.61-2.44-4.09-3.4-1.47-.96-3.08-1.66-4.74-2.01s-3.4-.24-5.04.33c-1.66.55-3.2 1.58-4.59 2.79-1.39 1.23-2.63 2.67-3.79 4.19.8-1.74 1.78-3.41 3.03-4.92 1.24-1.52 2.77-2.86 4.62-3.79 1.85-.92 4.03-1.29 6.13-1.09 2.11.19 4.1.95 5.9 1.91 1.81.97 3.45 2.18 4.93 3.54.74.68 1.46 1.39 2.13 2.16l.25.29.12.15.06.07s-.02-.04-.04-.05c-.1-.14-.47-.34-.81-.3-.68.08-.84.54-.86.79v.1-.04l-.02-.07c-.02-.09-.04-.19-.07-.29-.05-.19-.1-.39-.16-.59-.12-.4-.26-.81-.41-1.21-.31-.81-.68-1.62-1.08-2.42-.8-1.6-1.73-3.16-2.77-4.64a37.4 37.4 0 0 0-3.38-4.22 29 29 0 0 0-3.95-3.58c-2.81-2.11-6.08-3.55-9.48-3.59-3.39-.04-6.85 1.38-9.84 3.47-1.52 1.03-2.92 2.26-4.21 3.6-.65.67-1.26 1.38-1.82 2.14-.56.75-1.08 1.54-1.41 2.44Z" class="st2"/><path d="M3 26.97C1.49 26.34.37 24.83.12 23c-.06-.46-.06-1.74 0-2.21.04-.46.18-.97.3-1.28.24-.72.52-1.43.85-2.12.64-1.4 1.48-2.75 2.56-3.98 1.08-1.22 2.44-2.29 4.04-2.96 1.59-.67 3.37-.9 5.04-.67s3.22.86 4.53 1.78c2.62 1.84 4.26 4.57 4.89 7.4-1.77-2.26-3.88-4.13-6.19-5.1-1.14-.5-2.35-.74-3.5-.75-1.15 0-2.25.25-3.23.75-1.98.99-3.55 2.94-4.75 5.21-.15.28-2.42 3.89-1.65 7.9Z" class="st2"/><path d="M41.85 43.04c-.15.48-.31.96-.47 1.44-.83-.16-1.67-.34-2.51-.53-1.03-.23-2.8.12-3.87.77-.56.35-1.14.69-1.71 1.03-1.44.85-3.72 1.07-5.18.48-.57-.23-1.15-.46-1.73-.7-1.07-.44-2.88-.44-3.95 0-.59.24-1.18.48-1.77.71-.56.22-1.23.33-1.94.32-1.13 0-2.34-.29-3.22-.81-.57-.33-1.14-.67-1.7-1.03-1.07-.65-2.85-1.01-3.88-.77-.9.21-1.81.41-2.72.59h-.01c-.15-.49-.3-.97-.45-1.45.95-.18 1.89-.38 2.84-.61 1.4-.32 3.6.1 5.01.96.56.35 1.12.68 1.68 1.02 1.05.62 2.8.8 3.84.39.59-.23 1.17-.46 1.75-.7 1.44-.59 3.68-.59 5.1 0 .57.24 1.14.47 1.7.69 1.05.41 2.81.24 3.85-.38.56-.33 1.13-.67 1.69-1.01 1.4-.86 3.59-1.27 5-.96.88.21 1.76.39 2.64.56Z" class="st1"/><path d="M40.91 45.93c-.16.48-.32.96-.47 1.45-.52-.11-1.04-.23-1.56-.35-1.03-.23-2.81.12-3.87.77-.56.35-1.14.69-1.71 1.03-1.43.85-3.71 1.07-5.18.48-.57-.23-1.15-.46-1.73-.7-1.07-.44-2.87-.44-3.95 0-.59.24-1.18.48-1.77.71-.56.22-1.23.33-1.94.32-1.14 0-2.34-.29-3.23-.81-.57-.33-1.14-.67-1.7-1.03-1.07-.65-2.85-1.01-3.88-.77-.61.14-1.22.28-1.83.41l-.45-1.45h.01c.64-.13 1.29-.27 1.94-.42 1.4-.32 3.6.1 5.01.96.56.35 1.12.68 1.68 1.02 1.05.62 2.8.8 3.84.39.59-.23 1.17-.46 1.75-.7 1.44-.59 3.68-.59 5.1 0 .57.24 1.14.47 1.7.69 1.05.41 2.81.24 3.86-.38.56-.33 1.12-.67 1.68-1.01 1.4-.86 3.59-1.27 5-.96.57.13 1.13.25 1.7.37ZM42.78 40.14c-.15.48-.31.96-.46 1.45-1.14-.21-2.3-.44-3.45-.71-1.03-.23-2.8.12-3.87.77-.56.35-1.14.69-1.71 1.03-1.44.85-3.71 1.07-5.18.48-.57-.23-1.15-.46-1.73-.7-1.07-.44-2.88-.44-3.95 0-.59.24-1.18.48-1.77.71-.56.22-1.23.33-1.94.32-1.13 0-2.34-.29-3.22-.81-.57-.33-1.14-.67-1.7-1.03-1.07-.65-2.85-1.01-3.88-.77-1.21.28-2.43.54-3.62.75h-.01c-.15-.5-.3-.98-.45-1.45 1.23-.21 2.49-.47 3.74-.77 1.4-.32 3.6.1 5.01.96.56.35 1.12.68 1.69 1.02 1.05.62 2.8.8 3.84.39.59-.23 1.17-.46 1.75-.7 1.43-.59 3.68-.59 5.1 0 .57.24 1.14.47 1.7.69 1.05.41 2.81.24 3.85-.38.56-.33 1.13-.67 1.69-1.01 1.4-.86 3.59-1.27 4.99-.96 1.2.28 2.4.52 3.58.73Z" class="st2"/><path d="m39.97 48.81-.48 1.44c-.21-.05-.41-.09-.62-.14-1.03-.23-2.8.12-3.87.77-.56.35-1.14.69-1.71 1.03-1.43.85-3.71 1.07-5.18.48-.57-.23-1.15-.46-1.73-.7-1.07-.44-2.88-.44-3.95 0-.59.24-1.18.48-1.77.71-.56.22-1.23.33-1.94.32-1.14 0-2.34-.29-3.23-.82-.57-.33-1.14-.67-1.7-1.03-1.07-.65-2.85-1.01-3.88-.77l-.94.21h-.01c-.15-.49-.3-.97-.45-1.45h.01c.35-.07.7-.15 1.04-.24 1.4-.32 3.6.1 5.01.96.56.35 1.12.68 1.68 1.02 1.05.62 2.8.8 3.84.39.59-.23 1.17-.46 1.75-.7 1.44-.59 3.68-.59 5.1 0 .57.24 1.14.47 1.7.69 1.05.42 2.81.24 3.86-.38.56-.33 1.12-.67 1.68-1.01 1.4-.86 3.59-1.27 5-.96.25.06.51.11.76.17Z" class="st1"/><path d="M17.82 26.62c-1.39-.16-2.82-.13-4.13.24-.65.18-1.26.47-1.74.89-.48.41-.79.96-.97 1.55-.07.3-.13.61-.13.93 0 .17-.02.3.03.48l.09.54c.11.73.15 1.48.1 2.25-.04.76-.17 1.55-.45 2.33-.27.78-.71 1.56-1.35 2.22-.65.66-1.52 1.15-2.41 1.37-.44.12-.88.18-1.32.19-.45 0-.92-.02-1.39-.13-.94-.2-1.84-.73-2.46-1.42C1.05 37.38.66 36.58.4 35.8c-.49-1.57-.5-3.13-.25-4.61.28-1.46.78-2.92 1.76-4.03-.31 1.41-.33 2.77-.21 4.1.13 1.32.41 2.61.93 3.67.26.52.57.98.93 1.29.18.16.36.28.55.38.2.08.4.16.62.2.22.05.46.05.71.05.26-.02.52-.04.76-.1.47-.12.89-.3 1.25-.62.75-.61 1.31-1.72 1.69-2.96.19-.62.35-1.27.48-1.94l.1-.51c.04-.18.06-.39.08-.57.04-.38.14-.76.27-1.13.27-.74.77-1.41 1.41-1.84.63-.45 1.36-.69 2.08-.81 1.44-.24 2.88-.08 4.24.27Z" class="st2"/><path d="M63.16 46.66c0 .52-.44.96-1.04.96l-6.93-.03c-.64 0-1.08-.44-1.08-.97 0-1.08 1.08-.68 1.1-4.2l.06-16.94c.01-3.56-1.07-3.17-1.07-4.25 0-.56.44-.96 1.08-.96 2.68 0 3.57-2.31 5.66-2.3.68 0 1.24.57 1.24 1.25l-.09 23.23c-.01 3.52 1.07 3.13 1.07 4.21" class="st0"/><path d="M83.71 45.37c0 1.12-2.05 2.32-4.41 2.31-2.36 0-4.28-1.42-4.27-3.9l.03-9.05c-.56.64-1.41 1.28-2.49 2.07-2.01 1.39-2.7 3.31-2.7 5.04-.05 2.32 1.19 4.33 2.95 3.09.4-.28.92-.04.92.44 0 .2-.04.4-.16.56-.93 1.28-2.53 2.35-5.17 2.34-3.24-.01-5.44-2.22-5.43-5.47.01-3.8 4.07-5.83 6.96-7.14 2.85-1.27 4.54-2.67 4.54-4.63 0-1.16-.95-2.13-2.52-2.13-2.16 0-3.25 1.35-3.26 3.19 0 1.52-1.09 1.92-2.09 1.91-.96 0-2-.69-1.99-2.01 0-2.32 3.02-5.03 7.35-5.02 6.05.02 10 3.68 9.98 8.97l-.03 7.53c0 .72.16 1.2.84 1.08.56-.12.96.2.96.8Z" class="st0"/><path d="M101.75 26.45c.72-.32.88.56 1.76 1.45.92.92 2.36.89 3.24.01.85-.84.89-2.16.17-3.08-1.59-2.01-4.71-2.14-6.36-.51-.89.88-1.53 2.24-1.5 3.8-1.56-.72-3.4-1.05-5.36-1.06-5.73-.02-10.35 3.45-10.36 7.89-.01 2.57 1.46 4.81 3.78 6.31-1.92.39-3.52 1.57-3.54 3.61v.02c0 .26.03.5.09.74.38 1.66 2.08 2.71 3.7 2.71 4.21.02 10.42-1.08 10.4 4.13-.01 1.64-1.01 3.32-2.77 3.31-1.65 0-2.72-1.13-2.72-2.73 0-1.08-.55-3.13-2.87-3.14-1.52 0-2.73 1.2-2.73 2.72 0 2.68 3.46 5.06 8.71 5.08s9.86-2.05 9.88-6.7c0-3.52-3.67-6.06-7.87-6.07-4.29-.02-10.26 2.56-10.25-.68 0-1.4 1.33-2.12 3.49-1.55.68.16 1.76.37 3 .37 5.69.02 10.35-3.56 10.36-8.05 0-1.76-.75-3.45-1.98-4.73-1.32-1.41-.95-3.57-.27-3.85m-6.22 14.36c-1.6.31-3.72-1.66-4.87-5.11-1.1-3.49-.45-6.09 1.15-6.44 1.64-.36 3.8 1.61 4.91 5.06 1.11 3.37.41 6.13-1.19 6.49" class="st0"/><path d="M115.66 27.14c-6.21-.02-11.23 4.73-11.26 10.61-.02 5.89 4.97 10.68 11.18 10.7 6.17.02 11.19-4.73 11.21-10.61.02-5.89-4.96-10.67-11.13-10.7m2.17 19.07c-2.13.56-4.84-2.74-6.06-7.39s-.53-8.89 1.6-9.44c2.16-.56 4.87 2.74 6.1 7.39 1.22 4.65.48 8.89-1.64 9.44" class="st0"/><path d="M135.44 48.53c-4.73-.02-9.48-2.6-9.47-5.68a2.76 2.76 0 0 1 2.77-2.75c1.72 0 2.4 1.29 2.56 1.81.67 2.08 2.02 4.69 4.99 4.7 1.36 0 2.77-.63 2.77-1.83.01-4.01-12.2-5.01-12.17-12.02.02-4.61 4.83-5.55 7.99-5.54 3 .01 8.48 1.59 8.47 4.24 0 1.2-.97 2.16-2.17 2.15-.76 0-1.52-.41-1.84-1.05-.91-1.85-1.91-3.41-4.31-3.42-1.16 0-2.48.39-2.49 1.71-.01 3.44 12.36 4.49 12.33 11.18-.02 4.2-3.75 6.51-9.44 6.49Z" class="st0"/><path d="M166.52 35.19c-1.79-.29-3.59-.46-5.4-.15-.54.09-.92.5-.97 1.1-.04.54.27.88.71 1.16 1.8 1.17 2.31 2.71 1.54 4.69-.09.22-.14.5-.41.56-.32.06-.37-.23-.48-.44-.95-1.73-2.16-3.28-3.39-4.82-1.58-1.98-3.41-3.77-4.41-6.16-.55-1.31-.97-2.64-.59-4.1.42-1.59 1.68-2.28 3.24-1.69.79.3 1.49.75 2.04 1.45a11.2 11.2 0 0 1 1.89 3.61c.26.81.76 1.27 1.61 1.06.92-.22.98-.95.84-1.72-.32-1.75-.61-3.49-.95-5.22-.25-1.24-1.09-1.66-2.11-.98-.59.4-.99.32-1.52 0-2.2-1.33-4.51-1.3-6.85-.43-2.74 1.02-4.13 2.96-4.24 5.56-.08 2.01.58 3.73 1.79 5.25.64.81.43 1.19-.35 1.66-1.54.92-2.93 2.02-3.58 3.78-.12.34-.22.68-.31 1.05-.02.05-.04.11-.05.17-.17.71-.22 1.45-.1 2.18.04.21.08.43.13.66v.02l.06.21c.11.4.24.78.38 1.15.02.04.04.1.06.15.04.09.08.18.13.27s.03.07.04.1c.25.51.56.97.97 1.39 3.05 3.17 6.85 3.32 10.85 2.77.77-.11 1.73-.91 2.22-.29.48.59-.43 1.42-.74 2.14-.27.66-.36 1.29.35 1.69.68.39 1.14-.11 1.5-.61 1.03-1.46 1.84-3.03 2.09-4.83.11-.82.4-1.53.91-2.19 1.42-1.83 2.03-3.94 1.71-6.23-.15-1.06-.07-1.68 1.17-1.76.56-.04.91-.52.94-1.1.04-.54-.2-1.02-.73-1.11Zm-8.76 10.97c-3.9.73-6.83-1.67-6.8-5.56 0-.9.2-1.75.57-2.57.22-.48.5-.73 1-.27 2.17 2.01 4.52 3.86 6.12 6.42.82 1.33.65 1.7-.89 1.98" class="st2"/></svg>