<svg xmlns="http://www.w3.org/2000/svg" xmlns:xlink="http://www.w3.org/1999/xlink" id="Capa_1" viewBox="0 0 145.27 122.24"><defs><radialGradient id="radial-gradient" cx="-358.76" cy="-291.54" r="16.78" fx="-358.76" fy="-291.54" gradientTransform="matrix(1.09 0 0 1 446.57 378.82)" gradientUnits="userSpaceOnUse"><stop offset=".04" stop-color="#316eb1"/><stop offset=".48" stop-color="#0896d3"/><stop offset=".61" stop-color="#0f8ecc"/><stop offset=".8" stop-color="#247abb"/><stop offset=".9" stop-color="#316eb1"/></radialGradient><radialGradient xlink:href="#radial-gradient" id="radial-gradient1" cx="-341.61" cy="-304.24" r="13.31" fx="-341.61" fy="-304.24"/><radialGradient xlink:href="#radial-gradient" id="radial-gradient2" cx="-328.38" cy="-302.58" r="10.93" fx="-328.38" fy="-302.58"/><radialGradient xlink:href="#radial-gradient" id="radial-gradient3" cx="-309.36" cy="-306.56" r="12.61" fx="-309.36" fy="-306.56"/><radialGradient xlink:href="#radial-gradient" id="radial-gradient4" cx="-288.96" cy="-310.8" r="12.78" fx="-288.96" fy="-310.8"/><radialGradient xlink:href="#radial-gradient" id="radial-gradient5" cx="-357.37" cy="-346.94" r="25.82" fx="-357.37" fy="-346.94"/><radialGradient xlink:href="#radial-gradient" id="radial-gradient6" cx="-334.2" cy="-342.25" r="13.47" fx="-334.2" fy="-342.25"/><radialGradient xlink:href="#radial-gradient" id="radial-gradient7" cx="-312.17" cy="-348.85" r="17.55" fx="-312.17" fy="-348.85"/><radialGradient xlink:href="#radial-gradient" id="radial-gradient8" cx="-288.95" cy="-355.98" r="16.11" fx="-288.95" fy="-355.98"/><radialGradient id="radial-gradient9" cx="-3000.07" cy="-3681.44" r="11.51" fx="-3000.07" fy="-3681.44" gradientTransform="matrix(0 1 -1.09 0 -3985.41 3040.83)" gradientUnits="userSpaceOnUse"><stop offset="0" stop-color="#fff"/><stop offset=".76" stop-color="#0896d3"/><stop offset=".81" stop-color="#1489c8"/><stop offset=".9" stop-color="#316eb1"/></radialGradient><radialGradient xlink:href="#radial-gradient9" id="radial-gradient10" cx="-3048.47" cy="-3660.51" r="14.86" fx="-3048.47" fy="-3660.51" gradientTransform="matrix(0 1 -1.09 0 -3974.97 3108.55)"/><radialGradient xlink:href="#radial-gradient9" id="radial-gradient11" cx="-393.36" cy="-359.64" r="10.38" fx="-393.36" fy="-359.64" gradientTransform="matrix(1.09 0 0 1 446.57 378.82)"/><radialGradient id="radial-gradient12" cx="-385.22" cy="-295.61" r="17.26" fx="-385.22" fy="-295.61" gradientTransform="matrix(1.09 0 0 1 446.57 378.82)" gradientUnits="userSpaceOnUse"><stop offset="0" stop-color="#fff"/><stop offset=".6" stop-color="#e23b54"/><stop offset=".67" stop-color="#d53a54"/><stop offset=".81" stop-color="#b43755"/><stop offset=".9" stop-color="#9c3656"/></radialGradient><radialGradient xlink:href="#radial-gradient12" id="radial-gradient13" cx="-335.71" cy="-369.87" r="7.24" fx="-335.71" fy="-369.87"/><style>.st5{fill:#316eb1}.st6{fill:#fff}</style></defs><path d="M68.78 88.52c-.33-.15-.66-.2-.98-.13-.29.06-.51.2-.65.4a.7.7 0 0 0-.09.17c-.61 1.33-1.38 2.73-2.3 4.21-.92 1.47-1.93 2.85-3.04 4.14-1.1 1.28-2.24 2.39-3.43 3.32-1.19.94-2.37 1.54-3.56 1.8-1.18.26-2.25.12-3.19-.4-1.06-.54-1.83-1.46-2.3-2.77-.47-1.3-.7-2.82-.7-4.56 0-1.54.16-3.19.49-4.94s.77-3.5 1.32-5.27c.55-1.76 1.2-3.45 1.96-5.08s1.55-3.11 2.39-4.43 1.72-2.42 2.64-3.27q1.38-1.29 2.73-1.59c2 .04 2.24 2.06 2.31 2.83.16 1.65 5.47-.7 5.22-2.18-.08-.45-.36-.83-.63-1.18a5.8 5.8 0 0 0-2.24-1.73c-.9-.4-1.89-.64-2.97-.71-1.09-.07-2.1 0-3.04.2-2.37.52-4.58 1.8-6.62 3.83-2.05 2.03-3.82 4.44-5.31 7.24a42.7 42.7 0 0 0-3.53 8.93c-.85 3.16-1.28 6.13-1.28 8.91 0 1.77.2 3.41.61 4.92.41 1.52 1.02 2.78 1.84 3.8a6.53 6.53 0 0 0 3.16 2.14c1.29.41 2.81.42 4.57.04 1.8-.4 3.54-1.21 5.24-2.45s3.28-2.71 4.75-4.4c1.48-1.7 2.82-3.51 4.02-5.46a56 56 0 0 0 1.96-3.39q.585-1.095 1.08-2.16c.04-.05.06-.11.06-.19 0-.23-.17-.43-.49-.59" style="fill:url(#radial-gradient)"/><path d="M81.03 77.47c-.31-.2-.69-.26-1.14-.16-.24.06-.41.19-.49.4-.1.28-.21.55-.33.82q-.585 1.53-1.26 2.97c-.58 1.23-1.14 2.31-1.69 3.27-.55.94-1.08 1.72-1.6 2.31-.51.6-.95.93-1.31 1.01-.33.08-.56-.11-.68-.54q-.18-.66-.18-1.47c0-.77.08-1.65.24-2.65.17-1 .35-1.95.55-2.84.17-.74.44-1.79.83-3.17.39-1.37.83-2.92 1.32-4.63.49-1.7.58-1.8 1.11-3.6q.795-2.685 1.47-5.01.675-2.31 1.2-3.99c.35-1.12.56-1.82.64-2.11.04-.09.07-.21.07-.36 0-.43-.24-.67-.71-.74s-1.01-.04-1.63.09c-.9.2-1.8.55-2.72 1.06-.92.52-1.45 1.05-1.57 1.62-.08.33-.25 1.03-.52 2.11s-.6 2.37-1.01 3.87-.83 3.1-1.26 4.82c-.43 1.71-.43 1.73-.83 3.36-.41 1.64-.76 3.12-1.05 4.46-.28 1.33-.49 2.36-.61 3.08q0 .12-.03.27t-.03.27c-.17 1-.32 2.04-.46 3.14-.14 1.09-.22 2.1-.22 3.02 0 .22.01.44.02.64.08 1.28.4 2.16.98 2.67.06.06.13.11.2.16.8.54 1.65.71 2.55.52 1.06-.24 2.14-.81 3.25-1.73 1.1-.92 2.02-1.9 2.76-2.95.36-.5.74-1.13 1.13-1.87.33-.62.66-1.27.99-1.96.08-.14.14-.27.21-.41a104 104 0 0 0 2.27-5.1c0-.23-.16-.45-.46-.65" style="fill:url(#radial-gradient1)"/><path d="M98.11 73.69q-.495-.21-1.05-.09h-.01q-.48.105-.54.36a141 141 0 0 1-1.78 3.92c-.53 1.12-1.07 2.07-1.62 2.87s-1.14 1.42-1.75 1.89c-.61.46-1.33.78-2.15.96-1.47.32-2.66.04-3.55-.84-.9-.88-1.35-2.14-1.35-3.76 1.22-.34 2.5-.85 3.83-1.53s2.53-1.49 3.62-2.44c1.08-.95 1.98-2.04 2.7-3.26.71-1.21 1.07-2.58 1.07-4.08 0-.89-.21-1.61-.64-2.17-.43-.57-.98-.99-1.66-1.29-.67-.29-1.41-.46-2.21-.5a9 9 0 0 0-2.36.2c-1.39.31-2.68 1.06-3.86 2.27-1.19 1.2-2.22 2.63-3.1 4.29s-1.57 3.46-2.09 5.41c-.24.9-.42 1.77-.54 2.63-.15.99-.22 1.95-.22 2.89 0 .78.05 1.51.16 2.21q.09.6.24 1.17.39 1.53 1.32 2.49c.61.64 1.38 1.07 2.33 1.31.94.24 2.08.21 3.43-.09 1.63-.35 3.1-1.01 4.39-1.97 1.28-.96 2.42-2.09 3.4-3.41.86-1.15 1.63-2.39 2.27-3.72q.15-.27.27-.54a76 76 0 0 0 1.94-4.5c0-.31-.17-.54-.49-.68m-12.64-.41q.555-1.65 1.29-3.12c.49-.97 1.03-1.81 1.62-2.49.6-.69 1.2-1.11 1.81-1.24.33-.07.58.02.74.27.16.26.25.6.25 1.02 0 .58-.15 1.3-.43 2.15-.29.85-.71 1.7-1.26 2.56-.55.85-1.23 1.65-2.03 2.38-.79.73-1.72 1.28-2.79 1.63.17-1 .43-2.06.8-3.16" style="fill:url(#radial-gradient2)"/><path d="M121.96 68.49c-.27-.11-.53-.16-.78-.14-.09-.01-.17 0-.26.02-.29.06-.47.2-.55.41-.49 1.3-1 2.53-1.54 3.69a38 38 0 0 1-1.56 3.07c-.51.88-.99 1.59-1.44 2.14q-.675.81-1.23.93c-.45.1-.75-.13-.92-.7-.16-.56-.24-1.13-.24-1.72 0-1.19.22-2.67.67-4.41s.95-3.45 1.51-5.12c.55-1.67 1.06-3.14 1.53-4.43.47-1.28.7-2.09.7-2.44 0-.43-.22-.67-.67-.73-.45-.05-1-.01-1.66.14-.9.19-1.8.55-2.7 1.05-.89.51-1.41 1.04-1.53 1.61l-.12.43a6.3 6.3 0 0 0-2.33-.93c-.86-.16-1.78-.13-2.76.08q-2.4.645-4.23 2.55c-1.23 1.27-2.24 2.75-3.04 4.43a24 24 0 0 0-1.76 5.18c-.02.06-.04.13-.05.19-.41 1.9-.61 3.68-.61 5.34v.28q.09 6.885 4.35 5.94c.74-.16 1.46-.45 2.18-.88.71-.43 1.4-.91 2.05-1.46.66-.55 1.28-1.15 1.87-1.8.6-.65 1.12-1.28 1.57-1.88.2 1.58.68 2.63 1.44 3.16s1.56.7 2.42.51c.62-.14 1.21-.38 1.78-.73.57-.36 1.1-.77 1.59-1.24.5-.47.96-.96 1.39-1.47s.82-1.02 1.19-1.52c.25-.34.5-.72.76-1.13v-.02c.48-.79.95-1.71 1.42-2.76.71-1.61 1.42-3.26 2.11-4.95 0-.31-.18-.54-.55-.69m-12.23-.57c-.23.84-.51 1.8-.86 2.89q-.525 1.62-1.17 3.36t-1.38 3.24c-.49.99-1 1.84-1.53 2.54s-1.06 1.1-1.59 1.22c-.37.08-.7.02-.99-.19-.28-.13-.49-.42-.61-.86-.12-.43-.18-.96-.18-1.58 0-1.32.17-2.73.52-4.24.34-1.51.8-2.91 1.35-4.22.55-1.3 1.15-2.4 1.81-3.3.65-.9 1.28-1.41 1.9-1.55.57-.12 1.14-.09 1.72.09q.855.285 1.47.78c-.08.37-.24.97-.46 1.82" style="fill:url(#radial-gradient3)"/><path d="M144.72 63.44q-.555-.225-1.05-.12c-.28.07-.47.2-.55.41q-.735 1.905-1.5 3.6c-.51 1.14-1 2.13-1.47 2.99-.47.85-.91 1.54-1.32 2.05-.41.52-.78.81-1.11.88-.12.02-.22.01-.3-.05v-.29c0-.85.1-1.87.3-3.08.21-1.2.44-2.45.71-3.77.27-1.31.5-2.6.7-3.86.21-1.25.31-2.39.31-3.39 0-1.46-.34-2.54-1.01-3.22s-1.83-.84-3.47-.48c-.69.15-1.34.4-1.93.77q-.885.54-1.68 1.26c-.54.49-1.07 1.01-1.6 1.57s-1.08 1.11-1.65 1.66c.08-.52.15-1.04.21-1.58q.09-.795.09-1.26c0-.465-.17-.5-.52-.58s-.77-.07-1.26.04-.97.27-1.44.49q-.705.33-1.32.78c-.41.31-.73.63-.98.97-.24.34-.36.71-.36 1.09 0 1.05-.18 2.45-.53 4.23-.24 1.23-.51 2.5-.81 3.8-.13.57-.27 1.15-.41 1.73-.47 1.92-.95 3.77-1.44 5.56-.12.44-.24.86-.35 1.25v.02c-.33 1.21-.6 2.23-.82 3.06a.9.9 0 0 0-.06.36c0 .42.24.67.7.74.48.07 1.02.04 1.63-.09.86-.19 1.7-.5 2.51-.93.82-.43 1.27-.87 1.35-1.31.08-.29.16-.83.22-1.64.06-.8.17-1.63.34-2.47.36-1.94.81-3.81 1.34-5.62.53-1.82 1.15-3.44 1.84-4.86.7-1.43 1.43-2.6 2.21-3.52.78-.93 1.6-1.48 2.46-1.67.32-.07.57 0 .73.21.16.22.25.75.25 1.6s-.08 2-.22 3.34c-.14 1.35-.31 2.7-.52 4.05-.2 1.36-.41 2.61-.61 3.76-.21 1.14-.37 1.96-.49 2.45q-.12.315-.12.57v.55c0 1.01.33 1.65 1.01 1.92.67.28 1.44.32 2.3.13 1.96-.43 3.73-1.72 5.3-3.88s3.2-5.33 4.88-9.52q0-.06.03-.09c.02-.02.03-.06.03-.09 0-.2-.19-.37-.55-.52" style="fill:url(#radial-gradient4)"/><path d="M73.72.81C71.84-.1 69.47-.25 66.61.38c-2.67.58-5.48 1.77-8.43 3.56a45.4 45.4 0 0 0-8.11 6.29c-2.46 2.4-4.48 4.97-6.06 7.72s-2.37 5.36-2.37 7.82c0 2.06.47 3.76 1.42 5.1.94 1.34 2.12 2.51 3.55 3.51 1.43 1.01 2.96 1.89 4.6 2.64 1.64.76 3.18 1.54 4.6 2.34 1.43.8 2.62 1.7 3.56 2.7q1.41 1.485 1.41 3.72c0 1.09-.29 2.18-.86 3.28-.58 1.1-1.33 2.12-2.24 3.07-.91.94-1.96 1.76-3.14 2.45-1.19.69-2.39 1.16-3.6 1.43-.97.21-1.91.25-2.83.1-.91-.14-1.71-.51-2.41-1.1s-1.26-1.46-1.69-2.6c-.42-1.14-.64-2.57-.64-4.29 0-.57.03-1.18.1-1.82.06-.64.09-1.31.09-2 0-.74-.22-1.07-.64-.98-.49.11-1.04.53-1.64 1.27-.61.73-1.17 1.67-1.69 2.82q-.765 1.71-1.32 3.9a18.6 18.6 0 0 0-.55 4.5q0 2.67.78 4.35c.51 1.12 1.23 1.96 2.14 2.54.91.57 1.99.91 3.24 1.01 1.24.1 2.56-.01 3.96-.31 2.43-.54 4.92-1.53 7.47-2.98a38.2 38.2 0 0 0 7.02-5.1c2.13-1.96 3.87-4.03 5.24-6.23 1.37-2.19 2.05-4.31 2.05-6.38 0-1.95-.47-3.62-1.41-5.02s-2.11-2.62-3.51-3.66-2.92-1.95-4.56-2.74-3.16-1.53-4.55-2.23c-1.4-.69-2.57-1.41-3.51-2.15-.95-.74-1.42-1.57-1.42-2.48.19-1.94.82-3.88 1.92-5.84 1.09-1.96 2.38-3.75 3.87-5.36 1.49-1.62 3.05-3 4.7-4.13 1.64-1.13 3.06-1.83 4.28-2.1.67-.15 1.29-.12 1.87.06.57.19.86.63.86 1.32 0 .63.81 1.68 1.9 1.46 2.85-.58 6.49-1.55 6.49-3.56 0-2.73-.95-4.55-2.83-5.47" style="fill:url(#radial-gradient5)"/><path d="M87.73 37.2c-.83 1.73-1.49 3.3-2.19 4.65-.7 1.36-1.37 2.45-2 3.28-.64.83-1.21 1.3-1.69 1.4-.67.15-1.16-.26-1.46-1.22q-.45-1.455-.45-2.91c0-1.72.27-3.77.82-6.16.54-2.38 1.18-4.74 1.91-7.08s.45-1.76 1.14-3.75c.7-1.99 1.2-3.44 1.51-4.37 0-.12 0-.2.04-.27.03-.06.05-.15.05-.27 0-.57-6.24-.05-7.61.68s-1.94 2.06-2.42 3.86c-.49 1.8-.97 3.75-1.46 5.86-.49 2.12-.91 4.29-1.28 6.52q-.54 3.345-.54 6.09c0 3.1.45 5.54 1.36 7.31.92 1.78 2.59 2.4 5.02 1.87 2.91-.64 5.48-2.71 7.7-6.2 2.22-3.5 3.72-13.84 1.55-9.29" style="fill:url(#radial-gradient6)"/><path d="M122.48 24.88c-.61-.18-1.13-.22-1.55-.13-.36.08-.61.28-.73.59a98 98 0 0 1-1.63 3.93c-.84 1.94-1.68 3.68-2.52 5.23-1.36 2.54-2.56 4.06-3.6 4.58.25-1.78.64-3.82 1.19-6.13.55-2.3 1.15-4.63 1.82-6.99.67-2.37 1.32-4.62 1.96-6.78.64-2.15 1.2-3.94 1.69-5.37.06-.18.09-.45.09-.79 0-.52-.15-.95-.46-1.28-.3-.34-.7-.6-1.18-.78a5.1 5.1 0 0 0-1.6-.3c-.57 0-1.11.03-1.59.14-.67.14-1.19.43-1.55.85-.37.43-.67 1.01-.91 1.76-.25.74-.47 1.62-.69 2.65-.21 1.02-.5 2.21-.86 3.55-.67 2.51-1.32 5.12-1.96 7.85s-1.72 5.29-3.24 7.7a31.6 31.6 0 0 1-3.55 4.66c-1.28 1.37-2.34 2.15-3.19 2.34q-.915.195-1.23-.6c-.21-.52-.32-1.22-.32-2.08 0-1.1.15-2.41.46-3.94.3-1.53.69-3.17 1.18-4.92.49-1.74.99-3.48 1.5-5.2.52-1.72 1.02-3.31 1.51-4.77.48-1.46.88-2.73 1.18-3.8.31-1.07.46-1.78.46-2.13 0-.57-.32-.92-.96-1.04s-1.41-.08-2.32.12q-.915.21-1.92.6c-.67.26-1.3.57-1.91.93s-1.12.75-1.55 1.16c-.42.41-.67.82-.73 1.23-.18.9-.52 2.28-1 4.14-.49 1.85-.99 3.9-1.5 6.13-.52 2.23-.96 4.54-1.33 6.91q-.54 3.555-.54 6.57 0 4.125 1.41 6.27c.94 1.42 2.69 1.86 5.24 1.3 1.58-.35 2.93-1.06 4.06-2.14a65 65 0 0 0 3.41-3.54c.12-.14.23-.27.32-.37.09-.11.2-.23.32-.37-.06.18-.09.48-.09.88 0 1.43.41 2.33 1.23 2.69.82.37 1.81.42 2.96.17.97-.21 1.95-.58 2.92-1.11q1.455-.78 2.46-1.77c1.76-1.68 3.42-4.02 4.97-7.02.02-.03.03-.07.05-.1 1.53-2.97 3.11-6.44 4.73-10.43 0-.52-.3-.86-.91-1.05" style="fill:url(#radial-gradient7)"/><path d="M145.06 7q-.135-1.005-.6-1.77c-.3-.5-2.84-2.02-7.13-1.36-2.12.47-3.82 1.37-5.1 2.71s-1.91 3.01-1.91 5.02q0 .945.54 2.97l1.23 4.51c.46 1.65.87 3.39 1.23 5.23.37 1.84.55 3.56.55 5.17 0 1.83-.32 3.44-.96 4.81s-1.81 2.24-3.51 2.62q-1.725.375-2.64-1.23c-.61-1.07-.91-2.35-.91-3.84 0-1.32.26-2.66.77-4.04.52-1.37 1.36-2.47 2.51-3.3.24-.23.37-.48.37-.77 0-.4-.16-.84-.46-1.32-.31-.47-.72-.92-1.23-1.32-.52-.4-1.09-.7-1.73-.91-.64-.2-1.26-.24-1.87-.1-.73.16-1.44.63-2.14 1.41q-1.05 1.185-1.92 3c-.57 1.22-1.04 2.55-1.41 4.01-.06.25-.12.51-.17.77-.25 1.21-.37 2.46-.37 3.73 0 1.15.15 2.28.46 3.36.03.16.08.31.13.47.39 1.23 1.05 2.28 1.96 3.14s2.11 1.45 3.6 1.79c1.48.33 3.32.26 5.51-.22q2.28-.51 4.47-1.8a17 17 0 0 0 3.91-3.18c1.16-1.26 2.1-2.68 2.83-4.28.73-1.59 1.09-3.27 1.09-5.05 0-1.15-.07-2.43-.22-3.86-.16-1.43-.35-2.83-.6-4.22a38 38 0 0 0-.86-3.8q-.51-1.74-.96-2.76c-2.18-3.38 5.37-1.53 5.49-1.93s.18-.97.18-1.72c0-.63-.04-1.28-.13-1.94" style="fill:url(#radial-gradient8)"/><path d="M35.11 42.3c0-3.37-2.02-6.44-5.26-8.02-4.81-2.33-10.79-.64-13.33 3.78a8.46 8.46 0 0 0-1.14 4.22c0 3.37 2.02 6.44 5.26 8.02 4.81 2.33 10.79.64 13.33-3.78a8.46 8.46 0 0 0 1.14-4.22" style="fill:url(#radial-gradient9)"/><path d="M23.54 37.98c.15.63.74 1.13 1.45 1.12 1.36-.02 2.72.45 3.74 1.41.26.25.48.51.67.79.25.38.77.51 1.19.29l1.1-.6c.72-.39.92-1.26.46-1.91a8.1 8.1 0 0 0-3.1-2.6 9 9 0 0 0-4.29-.88c-.91.04-1.57.8-1.38 1.62l.18.76Z" class="st6"/><path d="M23.98 62.43c0-1.15-.2-2.3-.59-3.41-2.05-5.77-8.83-8.93-15.11-7.05C3.33 53.45 0 57.65 0 62.43c0 1.15.2 2.3.59 3.41.99 2.79 3.11 5.07 5.97 6.4a12.9 12.9 0 0 0 9.15.65c4.95-1.48 8.28-5.68 8.28-10.46Z" style="fill:url(#radial-gradient10)"/><path d="M13.81 55.06c.15-.77-.56-1.45-1.41-1.37-.65.06-1.31.19-1.95.38-4.61 1.38-7.33 5.66-6.54 9.92.13.69.92 1.1 1.65.89l1.52-.45c.54-.16.92-.63.88-1.15-.09-1.11.22-2.34 1.51-3.74.81-.88 1.87-1.59 3.08-1.87.49-.12.86-.47.95-.92l.33-1.68Z" class="st6"/><path d="M18.76 28.3c-4.62.95-9.21-1.72-10.25-5.96s1.87-8.45 6.5-9.41c4.62-.95 9.21 1.72 10.25 5.96s-1.87 8.45-6.5 9.41" style="fill:url(#radial-gradient11)"/><path d="M22.54 19.9c-.68-2.79-3.48-4.64-6.5-4.46-.51.03-.87.48-.75.94l.22.9c.09.35.42.58.81.59.69.02 1.43.24 2.21.89.87.72 1.48 1.72 1.41 2.8-.02.25-.06.49-.13.73-.12.39.15.8.56.93l.91.29c.43.14.91-.08 1.06-.47.37-.97.46-2.04.2-3.12Z" class="st6"/><path d="M24.55 74.01c-1.52 0-3.03.22-4.49.66-7.58 2.27-11.74 9.78-9.27 16.73 1.95 5.48 7.47 9.16 13.75 9.16 1.52 0 3.03-.22 4.49-.66 3.67-1.1 6.66-3.45 8.41-6.61s2.06-6.76.86-10.13C36.35 77.68 30.83 74 24.55 74Z" style="fill:url(#radial-gradient12)"/><path d="M25.29 77.76c.17-.85-.61-1.6-1.55-1.51-.72.07-1.44.21-2.15.42-5.07 1.52-8.05 6.21-7.19 10.9.14.76 1.01 1.21 1.81.97l1.67-.5c.59-.18 1.01-.7.96-1.27-.1-1.22.24-2.57 1.66-4.11.89-.97 2.06-1.74 3.38-2.06.53-.13.94-.52 1.04-1.01l.36-1.84Z" class="st6"/><path d="M82.56 6.66c-.51 0-1.02.07-1.51.22-2.55.76-3.95 3.29-3.12 5.63.66 1.84 2.51 3.08 4.63 3.08.51 0 1.02-.07 1.51-.22 1.24-.37 2.24-1.16 2.83-2.22s.69-2.27.29-3.41c-.66-1.84-2.51-3.08-4.63-3.08" style="fill:url(#radial-gradient13)"/><path d="M81.96 8.05c.05-.26-.19-.48-.47-.46-.22.02-.44.06-.65.13-1.54.46-2.44 1.88-2.18 3.31.04.23.31.37.55.3l.51-.15c.18-.05.31-.21.29-.38-.03-.37.07-.78.5-1.25.27-.29.62-.53 1.02-.62.16-.04.29-.16.32-.31l.11-.56Z" class="st6"/><path d="m61.75 118.87.33-3.62c.03-.44 0-.82-.12-1.15s-.32-.57-.61-.73-.67-.2-1.13-.12c-.36.06-.72.19-1.08.37-.36.19-.71.42-1.04.69-.19.15-.37.32-.55.49-.13.12-.26.26-.39.39l-.15 1.73c.19-.34.42-.67.69-.96.02-.02.04-.05.06-.07.29-.31.6-.57.91-.77.31-.21.59-.33.85-.37.31-.06.55.01.69.19q.225.285.15 1.08l-.34 3.83c-.03.33.01.56.13.71.12.14.35.18.68.13.2-.04.39-.1.58-.2.19-.09.36-.2.49-.31-.09-.16-.14-.35-.16-.58-.01-.23-.01-.47 0-.73Zm-4.18-4.03s-.01-.03-.02-.04c-.12-.31-.32-.54-.6-.68-.3-.16-.68-.2-1.15-.12-.36.07-.72.2-1.08.4s-.7.45-1.03.75c-.09.08-.19.17-.27.27-.22.21-.43.44-.62.7l-.13 1.51c.17-.33.38-.64.64-.92a4.602 4.602 0 0 1 .95-.83c.32-.21.61-.34.88-.39q.48-.075.69.21c.15.19.19.55.15 1.08l-.42 4.71c.11 0 .24-.01.39-.02l.44-.06.44-.09c.15-.04.28-.08.4-.12l.47-5.22v-.02c.03-.42-.01-.8-.13-1.12m-4.3-.05c-.12-.17-.35-.23-.7-.17l-.62.11-.12.12-.66 7.39c.12 0 .25-.01.4-.03.14-.01.29-.03.44-.06q.225-.03.45-.09c.14-.03.27-.07.38-.11l.47-5.24.1-1.14v-.15q0-.42-.15-.63ZM69.36 108.58a1.6 1.6 0 0 0-.66-.28l-2.54 2.79c.05.13.14.25.26.34.13.1.27.15.42.17l2.94-2.48q-.105-.3-.42-.54m.47 9.26c-.04-.21-.05-.45-.02-.73l.27-3.08c.05-.58 0-1.03-.2-1.37a1.38 1.38 0 0 0-.84-.67c-.38-.11-.84-.12-1.37-.03-.37.06-.75.16-1.16.29q-.615.195-1.2.45c-.585.255-.74.34-1.05.51 0 .2.02.4.09.61.07.2.16.35.28.46.44-.23.89-.44 1.33-.63s.86-.32 1.27-.39c.42-.07.73-.02.94.15.22.17.3.49.26.96l-.05.58-.1 1.05-.13 1.44-.03.32q0 .39.12.72c.07.24.21.4.41.54.19.13.46.2.79.21q.21-.15.42-.42c.13-.18.22-.34.28-.49a.72.72 0 0 1-.32-.48Zm-2.98-1.66c.31-.06.65-.1 1-.15.15-.02.29-.03.43-.03.19-.01.37-.02.54-.01l.09-1.04c-.17-.01-.34-.01-.53 0-.17 0-.34.01-.53.03-.38.05-.71.09-1.01.14-.59.1-1.12.28-1.6.53-.49.26-.88.59-1.18 1.01-.31.41-.49.91-.54 1.49-.03.35.02.68.17.99.14.31.38.55.71.71s.77.19 1.3.1c.47-.08.91-.24 1.3-.47.39-.24.73-.5 1.04-.79.07-.07.14-.13.21-.2q.33-.315.57-.6l-.15-1.14c-.16.26-.34.49-.52.69q-.315.36-.69.63c-.46.33-.89.52-1.28.59q-.525.09-.78-.18c-.17-.18-.24-.42-.21-.73.03-.41.2-.75.49-1.03q.435-.42 1.17-.54M74.85 111.87c.41-.07.79-.09 1.16-.05s.69.1.96.17q.165-.15.3-.36t.21-.45c.05-.15.08-.29.08-.41-.32-.1-.72-.15-1.21-.18-.48-.02-.94.01-1.38.08-.53.1-1.03.27-1.48.52s-.81.57-1.09.94-.44.79-.48 1.25c-.04.38.03.69.19.93q.24.36.69.57c.29.13.62.23.98.29l.91.17q.48.075.72.3c.15.16.22.34.2.55-.03.27-.18.52-.45.74-.28.22-.64.37-1.08.44-.4.07-.78.07-1.16 0s-.73-.17-1.05-.28q-.225.225-.42.57c-.12.23-.2.44-.23.61.34.14.74.24 1.21.31.46.07.98.06 1.55-.04.95-.16 1.73-.49 2.35-.99.61-.5.95-1.1 1.02-1.79q.075-.87-.45-1.32c-.34-.3-.81-.49-1.4-.6l-.97-.16c-.32-.06-.56-.15-.71-.26s-.22-.27-.2-.48c.02-.27.15-.5.37-.69.22-.2.51-.32.86-.38M85.19 115.29l-.6.1c-.42.07-.62-.11-.58-.55l.74-8.25c.03-.34 0-.58-.12-.72q-.165-.21-.69-.12l-.63.11-.12.12-.84 9.48c-.05.52.05.88.3 1.09.25.22.63.28 1.15.19.22-.04.46-.09.72-.16s.48-.13.67-.19c.02-.05.04-.11.05-.17 0-.06 0-.12.02-.18.01-.14.01-.27 0-.4 0-.13-.04-.25-.07-.35M89.37 106.09a.9.9 0 0 0-.08-.31c-.08-.03-.21-.06-.38-.06-.18 0-.34 0-.49.03-.16.03-.32.07-.49.14a2 2 0 0 0-.41.19c-.06.1-.11.22-.14.35-.04.13-.06.25-.07.36-.01.1-.01.21.01.34 0 .12.04.22.08.3.08.04.21.06.38.07.17 0 .33-.01.49-.03.15-.03.32-.08.5-.15.19-.06.32-.13.4-.19.06-.1.11-.22.14-.35.04-.12.06-.24.07-.35.01-.1.01-.22 0-.34Zm-.45 2.7c-.21-.2-.52-.26-.93-.2l-.22.04q-.165.03-.45.09c-.18.04-.37.09-.58.15-.03.11-.06.21-.08.3-.02.1-.03.19-.04.28-.02.19-.01.37.02.54l.18-.03q.405-.075.54.09c.09.12.12.3.09.57l-.49 5.51c.12 0 .25-.01.39-.02l.45-.06c.15-.03.3-.06.44-.09.15-.04.28-.07.39-.11l.55-6.15c.04-.41-.05-.71-.26-.91M101.87 108.46c.04-.44 0-.82-.11-1.15-.12-.33-.32-.57-.61-.73q-.435-.24-1.14-.12c-.35.06-.71.19-1.07.38-.37.18-.71.41-1.04.68-.19.16-.37.32-.55.49-.13.13-.26.26-.39.4l-.16 1.73c.19-.35.42-.66.69-.95-.01-.01 0-.01 0-.01.02-.03.05-.05.07-.08.29-.31.59-.57.9-.77.32-.2.6-.33.85-.37.32-.05.55.01.7.2.14.18.19.54.15 1.07l-.35 3.84c-.03.32.02.56.14.7s.34.18.67.13c.2-.04.4-.1.59-.19.19-.1.35-.2.49-.32-.09-.16-.14-.35-.16-.58-.02-.22 0-.47 0-.73l.32-3.62Zm-4.5-.41s-.01-.03-.02-.04c-.13-.31-.32-.54-.61-.68-.29-.16-.67-.19-1.14-.11q-.54.09-1.08.39a5.2 5.2 0 0 0-1.3 1.02c-.22.21-.43.45-.62.7l-.14 1.51c.17-.33.39-.63.65-.92.01-.02.03-.04.05-.06.28-.3.58-.56.9-.77s.61-.34.88-.38c.32-.06.55.01.69.2s.19.55.14 1.08l-.42 4.71c.12 0 .25-.01.39-.02l.45-.06c.14-.03.29-.06.44-.09.14-.04.28-.07.4-.11l.46-5.23v-.01c.04-.43 0-.8-.12-1.13m-4.3-.05c-.12-.17-.36-.23-.7-.17l-.62.11-.12.12-.66 7.39c.12 0 .25-.01.39-.02.15-.02.3-.04.45-.07.15-.02.3-.05.44-.09.15-.03.28-.07.39-.11l.47-5.24.1-1.14c.01-.06.01-.1.01-.15q0-.42-.15-.63M110.5 106.41c-.16-.53-.43-.93-.81-1.18-.39-.25-.89-.33-1.5-.22-.51.08-.97.27-1.41.54-.33.22-.63.46-.89.73l-.21.24c-.31.37-.53.73-.67 1.08l.24 1.09c.15-.4.34-.75.57-1.04.04-.06.08-.11.12-.16.28-.33.57-.59.88-.77.31-.19.6-.31.87-.35.26-.05.5 0 .7.13.21.13.36.37.47.72.1.34.13.81.07 1.41-.05.61-.17 1.13-.35 1.56-.19.42-.41.75-.67.99-.27.23-.55.38-.85.43-.4.07-.79.03-1.15-.11-.15-.06-.29-.12-.42-.19-.2-.09-.39-.18-.56-.29l-.29 1.26c.23.13.48.24.74.33.13.06.26.1.4.14.42.13.88.15 1.4.06.51-.09 1.02-.31 1.52-.67.5-.37.93-.86 1.28-1.5.35-.63.57-1.4.65-2.29.07-.75.02-1.4-.13-1.94m-4.61-.13a.8.8 0 0 0-.16-.41c-.15-.19-.4-.25-.75-.19l-.51.09-.12.11-.93 10.54.09.08.63-.11c.35-.06.6-.18.74-.36s.22-.44.26-.78l.24-2.64.11-1.3.33-3.66.08-.92q.015-.255 0-.45ZM114.73 101.76c0-.12-.04-.22-.08-.3-.08-.04-.21-.06-.38-.07-.18 0-.34.01-.49.04-.16.02-.32.07-.49.13-.18.07-.31.13-.41.2-.06.1-.11.21-.14.34-.04.13-.06.25-.07.36v.34c.02.12.04.22.08.3.09.04.22.07.39.07.17.01.33 0 .49-.03.15-.02.32-.07.5-.14.19-.07.32-.14.4-.2.06-.1.11-.21.14-.34.04-.13.06-.25.07-.35 0-.11 0-.22-.01-.35m-.45 2.7c-.22-.2-.52-.26-.93-.19l-.22.04a9 9 0 0 0-1.03.24c-.04.1-.06.2-.08.3-.02.09-.04.19-.04.28-.02.18 0 .36.02.53l.18-.03c.27-.04.45-.01.54.1.08.11.12.3.09.56l-.49 5.52q.18 0 .39-.03.225-.015.45-.06c.15-.02.3-.05.44-.09.15-.03.28-.07.39-.11l.55-6.14c.04-.41-.05-.72-.26-.92M122.54 104.12c-.2-.44-.53-.77-.98-.97s-1.03-.25-1.73-.13c-.74.13-1.38.41-1.91.83-.53.43-.95.96-1.25 1.59-.31.64-.49 1.33-.56 2.08-.04.5-.03.98.04 1.43.07.44.21.83.43 1.16.21.32.53.55.94.69s.93.15 1.57.04q.855-.135 1.68-.51c.55-.24 1.03-.53 1.43-.85-.01-.16-.05-.32-.13-.5a1 1 0 0 0-.31-.41c-.35.23-.72.42-1.11.6-.38.17-.78.29-1.18.36-.5.08-.87.04-1.12-.13s-.41-.44-.49-.8c-.05-.27-.07-.57-.05-.9l4.72-.8c.06-.22.11-.42.14-.6.04-.17.06-.38.08-.62.06-.6 0-1.12-.21-1.56m-1.38 1.71-.02.19-3.24.55c.09-.62.26-1.14.53-1.55.32-.47.75-.76 1.3-.85.39-.07.69-.04.91.1s.37.34.45.62c.07.27.1.59.07.94M130.1 101.99c-.03-.13-.07-.3-.14-.5l-5.41.92c-.04.12-.07.25-.1.38-.02.13-.04.24-.05.34v.23c0 .1 0 .18.02.25l1.7-.29c.22-.04.47-.08.74-.13.28-.05.54-.11.8-.17.25-.06.46-.1.61-.15l.04.05c-.22.26-.45.54-.71.83-.26.3-.49.58-.7.84l-2.94 3.79c-.1.13-.18.26-.23.36-.04.11-.07.21-.08.3-.01.1 0 .21.02.32.03.12.07.28.14.49l4.82-.82c.4-.07.68-.18.84-.34s.25-.35.27-.58q.015-.165 0-.33t-.09-.33c-.2.11-.46.21-.76.29s-.63.15-1 .21l-.77.14c-.19.03-.42.07-.7.13-.27.06-.53.12-.79.18l-.04-.05c.21-.24.44-.52.69-.82.25-.31.48-.59.68-.85l2.92-3.76a1 1 0 0 0 .19-.3c.05-.1.07-.18.08-.26.01-.11 0-.24-.03-.37ZM137.25 106.34c-.04-.21-.05-.45-.02-.73l.27-3.08c.05-.58 0-1.03-.2-1.37-.19-.33-.47-.56-.84-.67-.38-.11-.84-.12-1.37-.03-.37.06-.75.16-1.16.29q-.615.195-1.2.45c-.585.255-.74.34-1.06.51 0 .2.03.4.1.61.07.2.16.35.28.46.44-.23.89-.44 1.33-.63s.86-.32 1.27-.39c.42-.07.73-.02.94.15s.3.49.26.96l-.05.58-.1 1.05-.13 1.44-.03.32q0 .39.12.72c.07.24.21.4.41.54.19.13.46.2.79.21a2.1 2.1 0 0 0 .69-.91.74.74 0 0 1-.31-.48Zm-2.98-1.66c.31-.06.64-.1 1-.15.15-.02.29-.03.43-.03.19-.01.37-.02.54-.01l.09-1.04c-.17-.01-.34-.01-.53 0-.17 0-.35.01-.53.03-.38.05-.71.09-1.01.14-.59.1-1.12.28-1.61.53-.48.26-.87.59-1.18 1.01-.3.41-.48.91-.53 1.49-.03.35.02.68.17.99.14.31.38.55.71.71s.77.19 1.3.1c.47-.08.9-.24 1.3-.47.39-.24.73-.5 1.04-.79.07-.07.14-.13.21-.2q.33-.315.57-.6l-.15-1.14c-.16.26-.34.49-.52.69q-.315.36-.69.63c-.46.33-.89.52-1.28.59q-.525.09-.78-.18c-.17-.18-.24-.42-.21-.73.03-.41.2-.75.49-1.03q.435-.42 1.17-.54M142.04 96.16c-.27.02-.53.07-.8.13s-.49.13-.68.21l-.14 1.52c-.1 1.13-.16 2.25-.18 3.35-.03 1.11-.05 2.22-.08 3.32.11.02.23.02.37.01.13-.01.25-.02.35-.04.11 0 .23-.04.36-.08.12-.03.25-.08.37-.13.17-1.14.34-2.27.52-3.4s.32-2.25.42-3.37l.14-1.54a3 3 0 0 0-.65.02m-.27 9.88c-.25-.09-.59-.1-1.01-.03-.19.03-.38.08-.56.15-.19.07-.35.14-.49.23-.05.08-.09.21-.14.39-.04.17-.07.32-.08.44-.01.11-.01.25 0 .41 0 .16.04.27.07.35.12.04.27.06.46.06.18.01.36 0 .55-.04a3 3 0 0 0 .57-.15c.19-.07.35-.14.48-.22.05-.09.1-.22.14-.39s.07-.31.08-.43v-.42a.8.8 0 0 0-.08-.35Z" class="st5"/></svg>