<svg xmlns="http://www.w3.org/2000/svg" viewBox="0 0 102.86 150.83"><defs><style>.st2{fill-rule:evenodd}.st3{fill:#fff}</style></defs><g style="isolation:isolate"><g id="Capa_1" style="mix-blend-mode:multiply"><path d="M71.34 105.64h-4.11v-2.88h-7.14v-1.24h-6.45v-1.41h-3.55v-2.88h.95V83.75h1.3v-5.36h6.67l.04-4h4.09l.03-2.77h1.41v-2.65h1.97l-.04-5.77h-2.07v-1.39h-3.05v-1.13h-2.23l.02-1.07h-.87v-2.65h.76v-6.72h-2.81v-6.69H49.1v-2.59h.76v-3.58H39.54v1.73h-2.43v2.32h-2.66v2.12h-5.11v-1.99h-5.42v1.3h-2.25l-.08 9.97-2.39.04v4.53h-2.23v3.71h-2.84l-.02 4.23h-2.3v3.79h-1.38v6.67l4.06.03v2.83l6.75-.02v6.69h2.75v14.87h.86v2.78h-1.57v10.76h2.04v9.54h2.77v5.42h-1.46v-2.72h-6.77v-1.37l.05-1.33-1.4-.04H15.8v-2.69h-2.69v-2.07h-2.66v2.01H8.59v2.81h-.87v9.92h2.75v2.16h5.59v-2.6h-1.38v-4.13h2.52v1.34h2.72l-.02 1.33v1.4h1.36l1.41.03.04 3.99 3.67.02v2.35l4.36.01v1.74h8.12v-1.67h1.33v-3.77h1.35v-6.81h3.22V117.8h.78v-1.46h9.28v-2.53h3.2v2.79H55.2v5.37h-2.83l.03 2.67v2.62h-2.65v4.12l-2.75.02v2.67h-1.27v2.67h1.36v1.35h17.53v-3.98H59.1v-2.18h-2.62v-4.63h2.7v-2.76h1.36l1.33.02.02-1.49h1.31l-.01-1.3v-1.35h2.84l-.02-1.53v-1.12h2.64v-4.12h2.71v-2.6l.01-4.12v-1.29ZM26.45 43.77h2.23V45h-1.39v1.75h-.84zm6.99 22.72h-7.88v1.65h-5.77v-2.8h1.54v-6.01h2.52v-4.45l3.44-.02v7.45h2.9v1.25h2.5v1.81h.75zm10.18-6.34-.02-.91h-1.52v-1.18h-1.46v-1.5h-1.49v-6.88h1.44v-1.97h1.97v-1.17h1.68l.06-1.16h4.45v1.66h2.37v1.57h1.36v1.47h.7v5.56h-1.34v2.07h-1.75v1.12h-1.82v1.32h-4.62Zm3.79 7.58-.03-2.36h2.14v-1.81h5.02v-1.25h2.43l-.02 2.57 2.21-.02v2.87z" class="st2"/><path d="M48.25 54.65h-1.38v1.81l-2.31.02-.03 1.13h-.01v1.38h2.68l.04-1.08h1.55v-1.1h1.84v-1.84h1.35v-4.92h-1.39v-1.4h-1.38v-1.1h-1.42v-.86h-2.83l.01 2.16 1.87.01v2.05l1.41.01v3.73" class="st2"/><path d="M4.99 140.86c-2.75 0-4.99 2.24-4.99 4.99s2.24 4.98 4.99 4.98 4.98-2.24 4.98-4.98-2.23-4.99-4.98-4.99m0 8.81c-2.11 0-3.82-1.72-3.82-3.82s1.71-3.83 3.82-3.83 3.82 1.72 3.82 3.83-1.71 3.82-3.82 3.82"/><path d="M6.06 146.23c.65-.3.97-.66.97-1.39 0-.94-.79-1.52-1.68-1.52H3.36v4.91h.91v-1.82h.84l.98 1.82h1.04zm-.83-.58h-.96v-1.54h.8c.53 0 1.01.18 1.01.79 0 .46-.42.75-.85.75"/><circle cx="79.88" cy="22.98" r="22.98" transform="rotate(-45 79.888 22.98)"/><path d="M68.5 36.12c-.01-.2-.02-.4-.05-.54a.8.8 0 0 0-.32-.49.87.87 0 0 0-.57-.21h-.13c-.2 0-.4.07-.57.21-.16.13-.28.3-.32.49-.06.34-.06.9 0 1.24.04.18.16.36.32.49.17.13.37.2.57.2h.13c.21 0 .4-.07.57-.2s.29-.31.32-.49l-.25-.05c-.04.26-.34.49-.64.49h-.13c-.3 0-.59-.23-.64-.49a2 2 0 0 1-.04-.39l1.75-.15zm-1.76.01c.01-.19.02-.36.05-.51.05-.26.34-.49.64-.49h.13c.3 0 .6.23.64.49.03.11.04.25.05.39zM70.51 36.43c-.08-.09-.25-.22-.54-.41-.18-.13-.43-.31-.47-.37-.15-.19.03-.38.05-.4.08-.09.17-.12.37-.12s.39.16.43.33l.24-.04a.63.63 0 0 0-.24-.38.7.7 0 0 0-.43-.16c-.23 0-.4.04-.55.19-.17.19-.26.48-.07.73.07.09.24.22.53.41.19.14.43.31.49.38.1.12.09.33-.02.47-.07.08-.2.19-.42.19-.44 0-.52-.3-.53-.36l-.25.05c.06.26.29.56.78.56.24 0 .46-.1.61-.29.09-.11.14-.25.14-.39a.52.52 0 0 0-.12-.39M72.22 35.34v-.24h-.45v-1.48h-.25v1.48h-.24v.24h.24v1.86c0 .17.14.3.29.42l.16-.19c-.1-.08-.2-.17-.2-.23v-1.86zM74.49 34.87v1.84c0 .36-.36.55-.62.55h-.04c-.26 0-.62-.19-.62-.55v-1.84h-.25v1.84c0 .23.1.45.29.59.17.13.37.21.58.21h.04c.21 0 .42-.08.58-.21.18-.14.29-.36.29-.59v-1.84zM77.37 37.06v-3.44h-.25v1.52s-.05-.04-.07-.06a.94.94 0 0 0-.57-.2h-.12c-.21 0-.41.07-.58.2-.16.14-.27.31-.32.5-.06.34-.06.89 0 1.23.05.18.16.36.32.49.17.12.37.2.58.2h.12c.2 0 .4-.08.57-.2.03-.03.07-.06.11-.1.04.11.15.2.26.28l.15-.19c-.1-.09-.2-.17-.2-.23m-.25-.27c-.07.26-.35.46-.64.46h-.12c-.3 0-.6-.22-.65-.49-.06-.31-.06-.83 0-1.14.05-.26.35-.49.65-.49h.12c.29 0 .57.21.64.47zM78.53 34.85v2.66h.25v-2.66zm0-.97v.42h.25v-.42zM81.69 35.58a.8.8 0 0 0-.32-.5.9.9 0 0 0-.57-.2h-.13c-.19 0-.4.07-.57.2a.94.94 0 0 0-.32.5c-.06.34-.06.9 0 1.24.04.18.16.36.32.49.17.13.38.2.57.2h.13a.9.9 0 0 0 .57-.2c.18-.13.29-.31.32-.49.07-.34.07-.9 0-1.24m-.24 1.19c-.05.26-.35.49-.65.49h-.13c-.29 0-.59-.23-.64-.49-.06-.31-.06-.83 0-1.15.05-.26.35-.49.64-.49h.13c.3 0 .6.23.65.49.06.32.06.84 0 1.15M69.4 8.93c-.13-.02-.28-.05-.46-.07h-.24c-.13 0-.29.02-.47.06-.84.27-1.26.81-1.26 1.64v.7h-.39s-.07.02-.08.06v.99s.03.06.08.06h.39v7.52s.03.06.08.06h1.77c.05 0 .08-.02.08-.06v-7.52h1.06c.05 0 .08-.02.08-.06v-.99s-.03-.05-.08-.06H68.9v-.67c0-.2.14-.39.43-.56h.07zM75.61 12.35q-.84-1.41-2.43-1.41h-.32c-.19 0-.42.02-.7.08-1.23.44-1.85 1.06-1.85 1.87v5.06q0 .225.12.54c.56.95 1.37 1.42 2.43 1.42h.32c.19 0 .42-.03.71-.09 1.23-.43 1.84-1.06 1.84-1.87v-5.06q0-.21-.12-.54M74 17.56c0 .11-.01.25-.04.42q-.285.54-.9.54c-.56 0-.87-.26-.94-.78v-4.66c.08-.53.38-.79.9-.79.66 0 .98.32.98.97zM76.97 9.61h1.77c.05 0 .08.02.08.06v1.66h.96c.05 0 .08.02.08.06v1.05s-.03.06-.08.06h-.96v5.3c0 .16.12.26.35.32.16 0 .39-.09.71-.26h.04v1.37c-.49.41-.92.64-1.3.67h-.31c-.56 0-.99-.38-1.3-1.14-.08-.15-.12-.36-.12-.64V12.5h-.75c-.05 0-.08-.02-.08-.06v-1.05s.03-.06.08-.06h.75V9.67s.03-.06.08-.06M80.37 12.88v.05h.03s.05-.02.05-.05zM80.37 15.34v.08s.06-.03.08-.03v-.05zM80.45 15.63v-.05s-.04 0-.08-.03v.08zM80.45 18.1s-.02-.05-.05-.05h-.03v.05zM80.4 13.83s.04.05.11.07v-.05l-.06-.07s-.05.02-.05.05M80.45 13.97h-.05l.08.1.06-.02c-.03-.05-.06-.08-.09-.08M80.4 14.6v.07c.05-.03.08-.05.08-.07zM80.48 16.37s-.03-.04-.08-.07v.07zM80.54 16.92l-.06-.02-.08.1h.05s.06-.03.09-.08M80.45 17.2l.06-.07v-.05c-.07.02-.11.05-.11.07 0 .03.02.05.05.05M80.48 13.58h-.03s.02.05.06.05h.03s-.02-.05-.06-.05M80.45 14.17v.05s.05-.02.06-.05zM80.51 16.8s-.03-.05-.06-.05v.05zM80.54 17.34h-.03s-.06.02-.06.05h.03s.06-.02.06-.05M80.57 13.8v.05h.08v-.02s-.05 0-.08-.03M80.65 17.15v-.02h-.08v.05s.06-.03.08-.03M80.6 12.5h.05v.02h-.05zM80.6 18.45h.05v.02h-.05zM80.62 14.53h.06v.02h-.06zM80.62 16.42h.06v.02h-.06zM80.7 14.15s-.01.04-.03.07v.03h.06v-.1zM80.73 15.38v-.07h-.03s-.01.04-.03.07zM80.68 15.59s.03.06.03.07h.03v-.07zM80.73 16.83v-.1h-.06v.03s.03.06.03.07z" class="st3"/><path d="M85.46 12.35c-.56-.94-1.38-1.41-2.44-1.41h-.31c-.19 0-.43.02-.71.08-1.23.44-1.85 1.06-1.85 1.87v5.06q0 .225.12.54c.56.95 1.38 1.42 2.44 1.42h.31c.19 0 .43-.03.71-.09 1.23-.43 1.85-1.06 1.85-1.87v-5.06q0-.21-.12-.54m-2.55 6.17c-.56 0-.88-.26-.95-.78v-4.66c.09-.53.39-.79.91-.79.65 0 .98.32.98.97v4.3c0 .11-.01.25-.04.42q-.285.54-.9.54" class="st3"/><path d="m83.86 19.57.02-.05a.3.3 0 0 0-.15-.05v.05s.08.02.13.05M83.96 19.52h.02v.05h-.02zM92.4 19.25s-.04.02-.06.06h-.04l.01-.04.1-.07-.02-.06.19.02s-.02.05-.06.08v.06h.03c.01-.03.11-.07.31-.13 0-.03 0-.08-.05-.15q-.165.03-.18.12h-.08s.02-.04.05-.03c0-.02 0-.06-.02-.1l.05-.05s-.04-.02-.03-.04c-.03 0-.04.01-.04.03l-.08-.04s.06-.06.14-.05l-.03-.05v-.03s.07 0 .13-.02c.01-.05-.05-.08-.17-.11v-.03c.08.01.12 0 .14-.04-.06 0-.11-.05-.13-.13h.04l.07.04s.03-.02.09-.02c0-.04-.04-.06-.11-.07v-.03l.06-.05h-.07v-.07l.11.02s-.02-.07-.09-.08v-.03l.05-.05s-.04-.04-.04-.12c.02 0 .04-.01.04-.03v-.09a.35.35 0 0 0-.18.01c-.26-.04-.37-.11-.35-.23h-.03l-.08.02s-.02-.03-.04-.04c.38-.14.59-.3.65-.5l-.07-.05.05-.05V17l-.08.02c0-.01.03-.04.07-.08-.05-.08-.09-.13-.13-.13h-.04l-.09.01v-.03l-.08.02h-.04l.03-.09c.02-.06-.2-.17-.64-.35l-.18-.03-.14.04-.19-.03s-.03-.1-.11-.19c-.03 0-.07 0-.12.01-.07-.04-.11-.07-.1-.1h.12l.01-.02c-.05-.08-.09-.12-.13-.13h-.04l-.09.02.02-.09h.08l.02-.05c-.05-.01-.09-.06-.12-.16l-.14.03h-.03v-.05s.05-.06.1-.06c.02-.08-.05-.2-.22-.35l.05-.05s-.02-.07-.1-.08c-.02-.08-.06-.12-.13-.13l.1-.08h-.04l-.09.02-.02-.07v-.03c.09.02.13 0 .14-.04-.03-.06-.06-.09-.1-.1.14-.26.27-.38.37-.36l-.02-.07.02-.12c.09.02.19-.02.32-.1l-.03-.06q.15-.075.6-.63v-.06l-.11-.01.03-.09h.04l.07.04.1-.1v-.1c.03.01.1-.04.2-.17-.04-.01-.07-.03-.07-.07v-.03h.09l.03-.12s-.05-.06-.19-.08v-.03c.11.02.19 0 .26-.02v-.15s.03-.08.07-.11c0-.1-.04-.16-.08-.16h-.04l-.09.01q.015-.03-.03-.03l.05-.05c.06.01.11.02.15.05.05 0 .08-.01.1-.05 0-.05-.04-.08-.14-.1v-.03H92l.02-.09s-.04.02-.05.03c-.05-.03-.08-.04-.11-.05v-.02c.1.01.16.01.21 0-.05-.28-.1-.42-.13-.43.07-.06.11-.13.13-.22v-.02s-.18-.2-.38-.56c-.02.09-.06.13-.14.12l-.24-.02-.07-.05.05-.05s.08.03.07.07c.05.01.08-.01.09-.05l.07.04c.08-.05.13-.07.17-.06v-.03c-.27-.35-.51-.58-.69-.69l-.2-.03-.02.09s-.07-.04-.06-.1c0-.04-.1-.1-.3-.19h-.04l-.09.01c0-.05-.06-.08-.21-.12-.08.02-.13.05-.14.07l-.25-.09c-.58.06-.87.11-.88.15-.62.25-1.02.48-1.21.69l.03.06s-.13.07-.26.21c-.03 0-.04-.02-.03-.04l-.09.03s.03.05.11.07v.03l-.09.14c.03 0 .04.01.04.03l-.09.02v.14l-.17.4.07.03-.07.14h.08s-.03.04-.05.04c-.01.02 0 .05.02.09l-.06.05c-.02.22 0 .33.08.34 0 .45.3 1.17.94 2.18l-.02.08s-.11.13-.3.35c-.54.59-.9 1.03-1.09 1.33l.03.07c-.13.15-.25.34-.34.58q.045 0 .03.03l-.08.16-.02.09s0 .06.06.07c-.01.02-.02.02-.04.02v.36l-.07.05.03.06-.06.05.11.08s-.05.05-.1.04c.15.44.27.73.36.86 0 .1.19.3.57.61.02 0 .06-.01.11-.02l.02-.08h-.04v.05c-.09-.04-.13-.1-.1-.19h.19c0 .07.03.12.09.12l.12.02.03-.14s.07.02.07.06c.05.01.08 0 .09-.04.02 0 .03.01.02.03h.04c.08-.12.14-.18.21-.17l-.02.08c-.14.14-.24.21-.29.2l-.07-.04s-.07.01-.09.04q.15.21.15.24c-.19-.05-.3-.09-.34-.11l-.03.09c.24.07.57.19.99.37l.08-.02v.03s.16 0 .33-.02v.03c.42.01.76-.01 1-.04.13-.1.22-.14.27-.13.09-.07.15-.1.18-.1l.77-.52-.02-.06c.07.03.19.09.35.16l-.05.06s.08.08.25.15h.08c.15.12.22.21.21.25-.02 0-.06.02-.09.08l.02.06s-.2.09-.52.28h.04l.09-.01c0 .02 0 .03.03.03h.04s.08.01.09-.03v-.03l-.01-.07c.03.01.06 0 .12-.01.02 0 .06.02.1.04l-.18.12s.01.07.06.08h.15c.14.03.2.02.21-.02.39-.3.67-.49.83-.57h-.21c.01-.05-.02-.08-.09-.1Zm-3.53-7.85v-.02l.09-.17s-.02-.09-.01-.15l.03-.09c.24-.17.43-.26.58-.27.34.05.5.11.48.19 0 .01.07.08.23.21q-.045.375.06.39c-.01.02-.03.05-.06.08-.01.02 0 .05.02.09l-.06.05s.03.06.11.07v.03c-.26.61-.45.9-.59.88 0 .02 0 .05.02.09-.08.16-.18.24-.3.22v.03l.02.07c-.02-.01-.04 0-.05.02-.12-.03-.18-.06-.16-.11l-.16-.02h-.09c.11.11.16.17.16.18h-.08c-.05-.09-.1-.14-.16-.15v-.03l.1-.08s.07.02.12.05c.05.01.07-.01.09-.05 0 0-.07-.12-.2-.35l.06-.05-.07-.04s.01-.03.04-.02c.01-.04 0-.06-.06-.07.01-.02.03-.05.06-.08-.03-.06-.06-.1-.1-.1q.015-.045.06-.09c0-.02-.07-.13-.2-.32l.05-.05s0-.06-.06-.07c.01-.02.03-.05.06-.08-.03-.07-.04-.13-.03-.19m1.36 6.13h-.08v-.07l-.19-.03s-.07.02-.09.05v.03c.05.01.1.05.15.14l-.27.17v.03l.02.06c.05.02.1.01.15 0l.07.03c.06.01.09 0 .09-.04.02-.03 0-.06-.06-.06.03-.1.07-.15.12-.14l-.04.29-.29.05v-.09c-.22 0-.34.04-.36.13-.21.07-.42.11-.62.12l.05.1h-.07c.02-.1-.12-.19-.42-.28l-.17.04v-.03s-.06 0-.11.01l-.16-.02V18c.06 0 .11 0 .17-.01 0-.02 0-.03-.03-.04l.05-.05.13.1c.06.01.09 0 .09-.04v-.03q-.18-.03-.24-.27H88s0 .03.02.07c-.03.04-.05.06-.06.08-.12-.01-.29.03-.51.11v.06l.07.01-.02.06c-.07-.01-.12 0-.13.04l-.07-.04h-.08l.01.11c.06.01.14.05.25.12v.06l-.09-.01-.19-.06-.02.09.03.07s-.05.04-.08.14c-.03-.01-.06-.05-.08-.14h.04l-.07-.18.05-.05.06.04.16.02-.18-.24.02-.08h.03V18h.19l.03-.09h-.08l.01-.07c.03.01.06.02.11.05h.04v-.03c-.13-.09-.19-.15-.19-.17v-.03l.08.04.08-.02s.02.06.07.07l.12.02s.02-.05.06-.08c0-.02-.05-.04-.15-.05v-.03c.18.02.28 0 .3-.08.06.01.11.03.15.05h.04a.4.4 0 0 0-.05-.3c-.03 0-.04.01-.04.02-.04 0-.07-.02-.07-.06.11.01.16 0 .17-.04v-.09c.02 0 .03-.01.04-.03l.02-.05-.13-.14c.11.02.16.01.17-.03v-.03l-.02-.07c.05.01.09-.05.13-.19l-.02-.06h.04c.18-.26.31-.39.37-.38.01-.03 0-.06-.02-.1l.18-.09c.05.03.09.04.11.04.03.01.15.21.37.61-.03.13.17.4.6.83h.07s.03-.03.06-.07l.25.13v.05ZM71.84 21.8h-1.65s-.08.02-.08.06v.42c-.8-.38-1.43-.56-1.89-.56h-.23c-.14 0-.32.04-.55.14-.63.47-.95 1-.95 1.58v5.74c0 .13.05.31.16.54.57.69 1.28 1.04 2.12 1.04h.36c.28 0 .6-.09.94-.27h.04v1.43c-.13.16-.32.24-.55.24h-.36c-.39-.05-.59-.21-.59-.48v-.32s-.02-.06-.07-.07h-1.62s-.07.03-.07.07v.15c0 .26.04.54.11.83.57.77 1.31 1.16 2.21 1.16h.47l.39-.03c1.26-.32 1.89-.84 1.89-1.58V21.86s-.03-.05-.08-.06m-1.73 6.95c0 .39-.12.59-.36.59h-.07l-.4-.03c-.7-.17-1.06-.66-1.06-1.48v-3.81c0-.55.24-.82.71-.82h.27c.61.1.91.52.91 1.25zM72.63 22.06h1.69s.08.03.12.09v.73h.04c.9-.55 1.52-.82 1.85-.82.7 0 1.15.53 1.34 1.58v.47c0 .07-.55.18-1.65.35l-.04-.06v-.38c-.03-.31-.13-.47-.31-.47q-.615 0-1.26 1.08v5.9s-.03.06-.08.06h-1.69c-.05 0-.08-.02-.08-.06v-8.41s.03-.06.08-.06ZM83.21 22.73c-.57-.68-1.27-1.02-2.12-1.02h-.47c-.28 0-.61.07-.98.2-.89.29-1.34.81-1.34 1.54 0 .06.51.19 1.54.39.05 0 .07-.02.07-.06v-.47c0-.23.21-.36.63-.4h.32c.47 0 .7.12.7.38v1.06c-.41.15-.76.22-1.06.22-2.22.6-3.08 2.14-2.55 4.61 0 .02.01.03.04.03.34.92.83 1.38 1.45 1.38h.24c.46 0 1.08-.19 1.88-.56l.2.48s.03.06.08.06h1.45c.06 0 .08-.02.08-.06v-7.25c0-.13-.05-.3-.16-.53m-1.66 3.86c0 1.13-.09 1.81-.27 2.05-.18.23-.47.35-.87.35-.26 0-.48-.08-.64-.24s-.24-.38-.24-.65c0-.96.16-1.57.49-1.82.32-.25.83-.47 1.53-.64zM86.74 19.61c-.13-.02-.28-.05-.46-.07h-.24c-.13 0-.29.02-.47.06-.84.27-1.26.81-1.26 1.64v.7h-.39s-.07.02-.08.06v.99s.03.06.08.06h.39v7.52s.03.06.08.06h1.77c.05 0 .08-.02.08-.06v-7.52h1.06c.05 0 .08-.02.08-.06V22s-.03-.05-.08-.06h-1.06v-.67c0-.2.14-.39.43-.56h.07zM88.12 29.8h.08v.05h-.08z" class="st3"/><path d="M90.2 22.17c-.07-.06-.12-.1-.16-.1h-.86l-.12.04c0 .07.05.17.16.28.21.06.31.11.31.15 0 .03-.01.07-.04.1-.13.05-.2.09-.2.14h-.12c-.12-.14-.21-.21-.28-.23l-.08.02s.08.07.12.07c0 .02-.03.06-.08.12 0 .05.03.07.08.07 0 .09-.09.14-.28.16.03.17.1.26.24.26v.02s-.16.07-.47.12l.04.04h.16l-.04.05s.03.04.08.04c-.01.06-.08.11-.2.17 0 .03.03.04.08.04-.16.23-.24.36-.24.4.05 0 .08.02.08.05h-.08v.04c.11.11.19.17.24.17h.04l.08-.02v.1h-.39v.04h.08s-.03.05-.08.05c0 .01.01.04.04.07l-.04.05.24.23c-.16 0-.24.02-.24.07V25h.12v.03l-.08.06v.03l.43.23s.07-.03.12-.1v-.02l-.12-.1v-.02l.08.02.08-.02v.02l.2-.02v.12h.04c.05 0 .08-.02.08-.05q.075.03.12.03v.02l-.12.09s-.04 0-.04-.03c-.03 0-.09.05-.16.12l-.28-.03-.2.07c-.05-.02-.08-.06-.08-.1l-.08.02s.01.03.04.03l-.04.12.12.14q-.27.06-.27.09v.05h.12v-.05h.08l-.04.17h.08v.02l-.16.1h.16v.03q-.24.105-.24.21c0 .04.05.07.16.07v.15c-.05 0-.13-.02-.24-.05l-.08.03.04.14h.27c.01.06.05.1.12.1-.18.13-.31.19-.39.19 0 .11.06.17.2.17v.07c-.08 0-.12.02-.12.05l.12.09v.02c-.16 0-.24.02-.24.07l.12.1s-.03.04-.08.04l.04.15-.08.07s.03.04.08.04l-.04.04v.03l.08.07.12-.04c0 .06.03.12.08.17 0 .06-.1.11-.31.14 0 .03.05.05.16.05v.07c-.11 0-.16.03-.16.07v.02l.04.05s-.04 0-.04.02v.1s.03.04.08.04l.08-.02s.06.02.2.02v.05c-.11 0-.16.02-.16.07-.06 0-.11 0-.16-.03l-.08.03.08.12s.06 0 .12-.02c.08.02.12.05.12.07 0 .04-.03.05-.08.05h-.2v.17l.04.16-.08.03.04.37h.24l.08.03-.04.12v.04s.2.02.47.07v.05l-.28.04h-.04s-.09-.11-.27-.19c-.09.01-.14.02-.16.02v.05c.1.04.16.07.16.1.17 0 .31.06.43.17.11-.08.18-.12.2-.12h.08s-.01.07-.04.09l.04.05s-.05.03-.16.04c-.13-.03-.22-.04-.27-.04.14.11.24.16.27.16l.08-.02.04.05s-.05.04-.16.04v.07h.08c.05 0 .08-.02.08-.05l.2.03c.13-.06.21-.1.24-.1l-.08-.07v-.02h.04c.1.04.16.07.16.1v.04l-.04.05s.04 0 .04.02c.02 0 .16-.03.43-.09h.08l-.04.04v.03h.08v-.07l.12.04h.08v-.02l-.12-.09s-.07.02-.08.05c-.05 0-.07-.02-.08-.05l-.12.05h-.16v-.03l.04-.04c.18-.08.27-.14.27-.17.06 0 .11 0 .16.03.05 0 .08-.02.08-.05 0-.02-.03-.04-.08-.04l.04-.24v-.07c-.09-.11-.16-.16-.2-.16v-.03c.09 0 .15 0 .2-.02l-.04-.04s-.04 0-.04.02l-.08-.02s.07-.06.2-.12v-7.27ZM88.16 30.23s-.07.01-.08.04v.17s.08.07.12.07h.12v-.07h-.08s.04-.06.04-.07h.04l.12.04h.04l.08-.02-.04-.04a.64.64 0 0 1-.35-.12Z" class="st3"/><path d="M88.39 30.18v-.04c-.07 0-.15-.02-.24-.05l-.04.05s.03.04.08.04zM96.09 22.73c-.57-.68-1.28-1.02-2.12-1.02h-.47c-.28 0-.61.07-.99.2-.89.29-1.33.81-1.33 1.54q0 .09 1.53.39c.05 0 .08-.02.08-.06v-.47c0-.23.21-.36.63-.4h.31c.47 0 .71.12.71.38v1.06c-.41.15-.77.22-1.06.22-2.23.6-3.08 2.14-2.56 4.61 0 .02.02.03.04.03.35.92.84 1.38 1.46 1.38h.23c.46 0 1.09-.19 1.89-.56l.2.48s.02.06.08.06h1.45s.08-.02.08-.06v-7.25c0-.13-.05-.3-.16-.53m-1.66 3.86c0 1.13-.09 1.81-.27 2.05-.18.23-.47.35-.87.35-.27 0-.48-.08-.64-.24s-.24-.38-.24-.65c0-.96.16-1.57.48-1.82.33-.25.84-.47 1.54-.64z" class="st3"/></g></g></svg>