<svg xmlns="http://www.w3.org/2000/svg" id="Capa_1" viewBox="0 0 112.41 83.73"><defs><style>.st0{fill:#030404}</style></defs><g id="D6L68v"><path d="M0 44.92c.51-1.33 1.49-2.08 2.84-2.51 4.28-1.36 8.55-2.78 12.82-4.16.63-.21 1.21-.49 1.75-.89 11.52-8.47 23.03-16.93 34.57-25.37.65-.48.78-.93.5-1.65-.29-.74-.59-1.52-.52-2.34.14-1.62 1.01-2.74 2.54-3.24 4.68-1.54 9.37-3.08 14.07-4.55 2.2-.69 3.97.38 4.72 2.7 2.2 6.77 4.4 13.55 6.6 20.32l13.98 43.05c.89 2.75.05 4.47-2.67 5.36-4.37 1.43-8.75 2.85-13.13 4.26-2.54.82-4.36-.05-5.1-2.6-.37-1.25-.96-1.69-2.24-1.59-1.42.11-2.85.07-4.27 0-1-.06-1.44.27-1.79 1.26-2.11 5.89-6.26 9.55-12.45 10.58-7.52 1.24-14.83-3.43-17.11-10.77-.32-1.02-.78-1.2-1.76-1.27-4.09-.3-7.97.4-11.79 1.86-2.49.95-5.05 1.71-7.6 2.51-2.89.91-4.54.05-5.47-2.81C5.8 64.8 3.11 56.54.42 48.27c-.12-.38-.28-.75-.42-1.13v-2.19ZM63.2 64.6c1.94 0 3.88-.04 5.81.02.93.03 1.02-.25.75-1.07-1.15-3.43-2.24-6.87-3.36-10.31-3.63-11.18-7.28-22.36-10.89-33.55-.28-.86-.49-1.16-1.37-.51-10.29 7.59-20.61 15.16-30.93 22.71-.6.44-.76.83-.52 1.55 2.19 6.62 4.35 13.25 6.48 19.9.26.8.63 1.08 1.47 1.08 10.85 0 21.71-.05 32.56.2Zm3.86-56.43c-.14.04-.31.1-.49.15-1.81.58-3.6 1.23-5.43 1.73-1.02.28-1.09.7-.79 1.62 2.99 9.09 5.93 18.2 8.88 27.3 3.04 9.38 6.1 18.76 9.12 28.15.27.85.6 1.11 1.48.78 1.71-.63 3.45-1.21 5.2-1.71.98-.28 1.15-.67.83-1.63-4.42-13.5-8.8-27.02-13.19-40.54-1.61-4.97-3.22-9.94-4.84-14.9-.13-.39-.14-.91-.78-.96ZM15.62 45.76c-.14.04-.25.06-.35.09-2.22.72-4.44 1.46-6.67 2.15-.75.23-.58.69-.41 1.2a3527 3527 0 0 1 5.91 18.23c.23.73.56.77 1.2.54 2.11-.72 4.22-1.41 6.35-2.06.65-.2.78-.48.56-1.11-.72-2.11-1.38-4.23-2.07-6.35-1.29-3.96-2.57-7.91-3.87-11.87-.11-.35-.11-.85-.66-.84Zm34.33 25.79c-2.27 0-4.53.01-6.8-.02-.77 0-.92.22-.52.87 1.66 2.72 4.12 4.19 7.25 4.2s5.61-1.43 7.29-4.13c.41-.66.35-.95-.53-.94-2.23.04-4.46.01-6.69.01ZM96.56 44.86c.68 0 1.29.22 1.88.52 3.85 1.95 7.7 3.9 11.53 5.88 1.95 1.01 2.65 2.99 1.76 4.79-.88 1.8-2.93 2.51-4.86 1.56-3.99-1.98-7.96-4.01-11.92-6.07-1.55-.81-2.22-2.39-1.81-3.95.43-1.65 1.77-2.72 3.41-2.72ZM86.34 19.54c-3-.04-4.62-2.69-3.42-5.18 1.46-3.03 3.03-6 4.55-9 .51-1.01 1.01-2.03 1.57-3.01C90.04.61 92.03 0 93.76.87c1.64.82 2.42 2.85 1.56 4.58-2.01 4.1-4.1 8.16-6.21 12.21-.63 1.22-1.73 1.85-2.79 1.87ZM112.41 26.54c-.02 1.57-.79 2.72-2.22 3.21-4.28 1.47-8.59 2.89-12.92 4.22-2.15.66-3.94-.39-4.56-2.43-.56-1.85.45-3.64 2.52-4.33 4.23-1.4 8.46-2.8 12.73-4.09 2.37-.72 4.46.98 4.45 3.42" class="st0"/></g></svg>