<svg xmlns="http://www.w3.org/2000/svg" id="Capa_1" viewBox="0 0 105.88 125.01"><defs><style>.st0{fill:#030404}</style></defs><g id="jmRoHE"><path d="M52.82 96.07c-3.81 0-7.62-.02-11.43 0-1.66.01-2.89-.44-2.83-2.47.18-6.13-2.75-11.09-5.61-16.06-2.12-3.67-4.39-7.26-5.94-11.25-4.83-12.46-1.26-26.42 8.8-34.35 10.37-8.18 24.24-8.11 34.4.16s13.57 22.2 8.46 34.7c-1.62 3.96-3.83 7.58-5.99 11.23-2.83 4.77-5.38 9.67-5.35 15.51.01 1.98-1.05 2.56-2.77 2.54-3.91-.04-7.83-.01-11.74-.02Zm-.36-5.61h1.36q7.18 0 9.75-6.87c1.99-5.33 5.24-9.94 7.93-14.88 3.07-5.64 4.79-11.5 3.51-18.13-2.1-10.97-11.61-19.01-22.65-18.85-10.59.15-19.78 8.58-21.59 19.36-1.21 7.18 1.18 13.25 4.47 19.2 2.31 4.17 4.95 8.14 6.83 12.58 1.02 2.41.56 5.84 2.9 7.16 2.29 1.29 5.26.23 7.48.43ZM62.93 98.7c1.79-.08 3.47.14 3.72 2.41.26 2.39-1.37 3.07-3.28 3.35-6.71 1-13.42 2.04-20.14 3.02-1.87.27-3.67.03-4.01-2.36-.31-2.19 1.19-3.07 2.96-3.34 6.91-1.06 13.83-2.05 20.75-3.07ZM42.32 116.38c-1.58 0-2.84-.61-3.09-2.41-.28-2 .94-3.05 2.62-3.31 7.22-1.13 14.44-2.18 21.68-3.17 1.59-.22 2.89.58 3.13 2.38.3 2.21-1.15 3.12-2.91 3.4-4.77.77-9.56 1.41-14.35 2.1-2.34.34-4.69.67-7.07 1.01ZM9.16 58.05c-2.05 0-4.1.07-6.14-.02-1.71-.07-3.03-.84-3.02-2.87.01-1.83 1.15-2.61 2.78-2.76 4.19-.39 8.39-.36 12.58-.06 1.64.12 2.72 1.06 2.71 2.85-.01 1.81-1.19 2.71-2.78 2.81-2.04.13-4.09.03-6.14.03v.03ZM96.78 58.04c-2.05 0-4.1.09-6.14-.03-1.58-.09-2.78-.95-2.84-2.75-.05-1.79 1.01-2.75 2.66-2.89 4.29-.36 8.59-.38 12.88.01 1.52.14 2.5 1.06 2.54 2.68.04 1.79-1.04 2.8-2.65 2.91-2.14.14-4.3.04-6.44.04v.03ZM29.05 27.4c-.04 2.3-2.01 3.79-3.61 2.58-3.97-3.02-7.45-6.66-10.45-10.73-.76-1.04-.32-2.3.58-3.19.81-.8 1.97-1.17 2.84-.47 3.9 3.14 7.35 6.78 10.43 10.8.23.3.19.81.23 1.02ZM17.43 94.96c-2.15-.09-3.53-2.17-2.39-3.86 2.77-4.1 6.33-7.5 10.05-10.67.89-.76 2.18-.59 3.13.31s1.25 2.26.55 3.2c-2.99 4.06-6.59 7.53-10.36 10.79-.28.24-.78.19-.98.23M91.22 92.07c0 2.45-2.46 3.91-4.2 2.38-3.51-3.09-6.83-6.43-9.71-10.19-.83-1.08-.69-2.47.34-3.49.91-.9 2.19-1.12 3.12-.35 3.75 3.14 7.16 6.65 10.13 10.61.23.31.26.79.33 1.03ZM79.67 30.32c-2.37-.02-3.71-2.5-2.27-4.4 2.84-3.77 6.17-7.11 9.74-10.15.99-.84 2.17-.61 3.11.24.93.84 1.46 2.11.7 3.14-3 4.06-6.59 7.54-10.33 10.85-.28.25-.76.26-.94.31ZM55.59 9.66c0 2.14.08 4.28-.03 6.41-.09 1.73-1.04 2.8-2.8 2.71-1.6-.08-2.44-1.16-2.46-2.73-.07-4.38-.08-8.76 0-13.14.03-1.69.89-2.93 2.64-2.91 1.72.02 2.58 1.23 2.64 2.93.08 2.24.02 4.49.02 6.73ZM53.53 125c-3.6.06-5.89-.59-7.23-3.19-.8-1.55-.64-2.78 1.35-2.83 3.17-.07 6.35-.07 9.52 0 2.18.05 2.29 1.35 1.4 3.01-1.32 2.48-3.61 2.91-5.05 2.99Z" class="st0"/><path d="M33.57 53.81c.42-10.14 9.18-18.91 18.5-18.96 1.86 0 3.36.65 3.43 2.8.07 2.19-1.52 2.76-3.28 3.04-7.87 1.23-11.81 5.19-13.14 13.36-.31 1.93-.61 3.83-2.94 3.64-2.49-.2-2.59-2.3-2.57-3.88" class="st0"/></g></svg>