<svg xmlns="http://www.w3.org/2000/svg" viewBox="0 0 139.78 79.45"><path d="M69.93 41.94c-11.2-.04-20.86-9.65-20.97-20.85C48.85 9.72 58.62.01 70.16 0c11.41-.01 21.05 9.3 21.21 20.48.17 11.77-9.56 21.5-21.45 21.46Zm.54-35.02c-8.15-.11-14.38 5.77-14.56 13.73-.17 7.9 5.97 14.21 13.97 14.34 8.02.13 14.45-5.91 14.64-13.76S78.47 7.02 70.47 6.92M46.78 25.44c-.12 9.89-8.69 18.12-18.8 18.06-9.81-.06-18.28-8.74-18.21-18.67.07-9.64 9.03-18.29 18.79-18.13 9.79.16 18.34 8.96 18.22 18.74M28.04 36.69c5.96.15 11.68-5.27 11.83-11.2.15-6.2-4.88-11.57-11.09-11.82-6.5-.27-12.05 4.95-12.05 11.35 0 6.15 5.2 11.52 11.32 11.67ZM93.35 24.57c.18-9.85 8.45-17.98 18.18-17.87 10.03.11 18.4 8.51 18.33 18.42-.07 10.27-8.77 18.71-18.92 18.35-10.32-.37-17.78-8.38-17.59-18.89Zm29.55.47c.03-6.24-4.99-11.28-11.33-11.37-6.39-.09-11.17 4.67-11.31 11.29-.14 6.39 4.75 11.62 10.95 11.74 6.49.13 11.65-5.02 11.68-11.66ZM70.18 47.09c14.95-.06 29.1 11.21 32.29 25.95.46 2.14 2.4 5.33-1.61 6.27-3.77.88-4.39-2.15-5.09-4.87-2.73-10.68-9.48-17.32-20.23-19.7-9.94-2.2-18.2 1.11-25.12 8.23-3.38 3.49-5.18 7.86-6.18 12.53-.58 2.7-1.74 4.46-4.75 3.81-3.25-.7-2.26-3.15-1.89-5.24 2.69-15 17.09-26.92 32.57-26.98ZM111.3 53.89c-3.11-.14-6.45.62-9.56 2.21-2.97 1.52-4.65-.33-5.65-2.45-1.14-2.42 1.42-2.94 2.88-3.72 15.56-8.35 36.58 1.45 40.3 18.8.47 2.17 1.53 4.91-2.04 5.66-3.12.65-3.89-1.45-4.63-3.97-3.05-10.37-10.9-16.49-21.29-16.53ZM28.77 46.92c4.66-.07 8.95 1.27 12.97 3.51 1.32.73 3.39 1.45 2.08 3.6-1.02 1.68-2.27 3.35-4.81 2.4-2.36-.89-4.74-1.95-7.21-2.32-11.32-1.68-20.81 4.36-24.4 15.29-.23.69-.43 1.39-.57 2.1-.5 2.43-2.06 3.28-4.38 2.92-2.89-.45-2.54-2.55-2.24-4.59 1.84-12.48 15.07-23.08 28.57-22.92Z"/></svg>