<svg xmlns="http://www.w3.org/2000/svg" viewBox="0 0 230.18 74.28"><defs><style>.st2{fill:#00c590}.st3{fill:#404ba4}</style></defs><g style="isolation:isolate"><g id="Capa_1"><path d="M32.92 70.7c-2.36 0-3.55-1.69-3.55-5.09s1.19-5.09 3.55-5.09c1.19.02 2.29.16 3.3.4l.09-.37c-1.05-.23-2.18-.38-3.39-.43-2.64 0-3.95 1.83-3.95 5.49s1.31 5.5 3.95 5.5c1.21-.05 2.34-.2 3.39-.44l-.09-.37c-1.01.25-2.11.38-3.3.4" class="st3"/><path d="M36.2 70.23c-1 .25-2.1.38-3.28.4-2.31 0-3.47-1.69-3.47-5.02s1.16-5.01 3.47-5.01c1.18.02 2.28.15 3.28.39l.07.02.13-.51-.08-.02c-1.04-.23-2.19-.38-3.4-.43-2.67 0-4.03 1.87-4.03 5.56s1.36 5.57 4.03 5.57c1.21-.05 2.35-.2 3.4-.44h.08l-.13-.52h-.07ZM32.92 60.2c1.17.04 2.28.18 3.3.41l-.05.23c-1-.24-2.09-.37-3.25-.39-2.4 0-3.62 1.74-3.62 5.16s1.22 5.17 3.62 5.17c1.16-.02 2.25-.15 3.25-.39l.05.23c-1.02.23-2.13.36-3.3.41-2.58 0-3.88-1.82-3.88-5.42s1.3-5.41 3.88-5.41M41.75 63.14h-.31c-2.19 0-3.28 1.22-3.28 3.66v.7c0 2.42 1.09 3.63 3.28 3.63h.31q3.33 0 3.33-3.63v-.7q0-3.66-3.33-3.66m0 7.59h-.31c-1.92 0-2.87-1.07-2.87-3.23v-.7c0-2.18.95-3.26 2.87-3.26h.31c1.94 0 2.92 1.08 2.92 3.26v.7c0 2.16-.98 3.23-2.92 3.23" class="st3"/><path d="M41.75 63.46h-.31c-1.95 0-2.95 1.13-2.95 3.34v.7c0 2.19 1 3.31 2.95 3.31h.31c1.98 0 2.99-1.12 2.99-3.31v-.7c0-2.21-1.01-3.34-2.99-3.34m2.85 4.04c0 2.13-.94 3.16-2.85 3.16h-.31c-1.88 0-2.8-1.03-2.8-3.16v-.7c0-2.15.92-3.19 2.8-3.19h.31c1.91 0 2.85 1.04 2.85 3.19zm-2.85-4.04h-.31c-1.95 0-2.95 1.13-2.95 3.34v.7c0 2.19 1 3.31 2.95 3.31h.31c1.98 0 2.99-1.12 2.99-3.31v-.7c0-2.21-1.01-3.34-2.99-3.34m2.85 4.04c0 2.13-.94 3.16-2.85 3.16h-.31c-1.88 0-2.8-1.03-2.8-3.16v-.7c0-2.15.92-3.19 2.8-3.19h.31c1.91 0 2.85 1.04 2.85 3.19zm-2.85-4.44h-.31c-2.22 0-3.35 1.26-3.35 3.74v.7c0 2.46 1.13 3.71 3.35 3.71h.31c2.25 0 3.4-1.25 3.4-3.71v-.7c0-2.48-1.15-3.74-3.4-3.74m3.26 4.44c0 2.4-1.07 3.56-3.26 3.56h-.31c-2.16 0-3.21-1.16-3.21-3.56v-.7c0-2.42 1.05-3.59 3.21-3.59h.31c2.19 0 3.26 1.17 3.26 3.59zm-3.26-4.04h-.31c-1.95 0-2.95 1.13-2.95 3.34v.7c0 2.19 1 3.31 2.95 3.31h.31c1.98 0 2.99-1.12 2.99-3.31v-.7c0-2.21-1.01-3.34-2.99-3.34m2.85 4.04c0 2.13-.94 3.16-2.85 3.16h-.31c-1.88 0-2.8-1.03-2.8-3.16v-.7c0-2.15.92-3.19 2.8-3.19h.31c1.91 0 2.85 1.04 2.85 3.19zM50.79 63.14c-1.04 0-2.07.49-3.09 1.46v-1.46h-.41v7.97h.41v-5.96c1.02-1.06 2.05-1.6 3.09-1.61 1.44 0 2.16 1.04 2.16 3.11v4.46h.41v-4.46c0-2.34-.86-3.51-2.57-3.51" class="st3"/><path d="M50.79 63.06c-1.02 0-2.03.47-3.02 1.38v-1.38h-.55v8.12h.55v-6c.99-1.03 2.01-1.56 3.02-1.57 1.4 0 2.09.99 2.09 3.04v4.53h.55v-4.53c0-2.38-.89-3.59-2.64-3.59m2.5 7.97h-.27v-4.38c0-2.11-.75-3.19-2.24-3.19-1.05.01-2.11.57-3.14 1.65l-.02.02v5.9h-.26v-7.82h.26v1.56l.13-.11c1-.96 2.02-1.45 3.04-1.45 1.68 0 2.5 1.12 2.5 3.44zM59.46 66.98l-1.83-.22c-.94-.16-1.43-.61-1.49-1.35v-.43c0-.96.72-1.44 2.14-1.44.95 0 1.9.08 2.85.25l.07-.4c-1.01-.17-1.98-.25-2.92-.25-1.69 0-2.53.61-2.54 1.84v.43c.07.96.67 1.54 1.81 1.73l1.84.23c1.11.18 1.67.67 1.68 1.46v.33c0 .99-.65 1.5-1.94 1.53a23 23 0 0 1-3.18-.27l-.09.42c.98.15 2.07.23 3.27.25 1.56 0 2.34-.64 2.34-1.93v-.33c-.02-1.05-.69-1.67-2.01-1.85" class="st3"/><path d="m59.47 66.91-1.83-.22c-.91-.16-1.37-.58-1.42-1.28v-.43c0-.92.67-1.37 2.06-1.37.94 0 1.89.08 2.83.25h.07l.11-.53h-.08c-1.01-.18-1.99-.27-2.93-.27-1.73 0-2.61.65-2.62 1.92v.43c.08.99.71 1.6 1.88 1.8l1.83.23c1.08.18 1.61.64 1.62 1.39v.33c0 .95-.61 1.43-1.86 1.46-1.11-.02-2.18-.11-3.17-.27h-.07l-.12.55h.08c.98.16 2.08.24 3.28.26 1.6 0 2.42-.67 2.42-2v-.33c-.02-1.09-.72-1.74-2.08-1.92m1.93 2.25c0 1.25-.74 1.86-2.27 1.86-1.16-.02-2.23-.1-3.18-.24l.05-.28c.99.16 2.04.24 3.13.26 1.33-.03 2.01-.57 2.01-1.6v-.33c-.01-.82-.6-1.34-1.75-1.54l-1.82-.22c-1.12-.19-1.69-.74-1.76-1.66v-.43c0-1.19.82-1.77 2.47-1.77.91 0 1.86.08 2.84.24l-.05.26c-.93-.16-1.86-.25-2.79-.25-1.46 0-2.21.51-2.21 1.52v.43c.06.78.58 1.25 1.55 1.42l1.83.22c1.29.18 1.93.76 1.95 1.78zM68.94 63.14v5.95c-1.02 1.06-2 1.6-2.94 1.61-1.34 0-2.01-1.03-2.01-3.11v-4.45h-.41v4.45c0 2.34.81 3.52 2.42 3.52.94 0 1.92-.5 2.94-1.47v1.47h.41v-7.97z" class="st3"/><path d="M68.87 63.06v6c-1 1.03-1.96 1.56-2.87 1.57-1.3 0-1.94-.99-1.94-3.04v-4.53h-.55v4.53c0 2.38.84 3.59 2.49 3.59.92 0 1.88-.47 2.87-1.38v1.38h.55v-8.12zm.41 7.97h-.27v-1.56l-.12.11c-1 .97-1.97 1.45-2.89 1.45-1.58 0-2.35-1.12-2.35-3.44v-4.38h.27v4.38c0 2.11.7 3.19 2.08 3.19.96-.01 1.96-.57 2.99-1.64l.02-.02v-5.91h.27zM74.48 70.72h-.42c-1.06 0-1.59-.53-1.59-1.6v-9.29h-.41v9.26c0 1.32.67 1.98 2 1.98h.45z" class="st3"/><path d="M74.55 70.65h-.49c-1.02 0-1.52-.5-1.52-1.53v-9.37h-.55v9.34c0 1.36.69 2.06 2.07 2.06h.53zM72.13 59.9h.27v9.22c0 1.11.56 1.67 1.66 1.67h.36V71h-.36c-1.3 0-1.93-.62-1.93-1.91zM79.75 70.51c-.39.11-.7.16-.94.16-.83 0-1.26-.55-1.27-1.67v-5.46h2.27v-.4h-2.27v-2.05h-.41v2.05h-1.66v.4h1.66V69c0 1.38.56 2.07 1.67 2.07.27 0 .62-.06 1.06-.19z" class="st3"/><path d="m79.8 70.42-.07.02c-.38.11-.69.16-.92.16-.8 0-1.19-.52-1.2-1.6v-5.39h2.27v-.55h-2.27v-2.04h-.55v2.04h-1.67v.55h1.67V69c0 1.42.58 2.15 1.74 2.15.28 0 .64-.07 1.08-.2l.07-.02zm-1 .58c-1.07 0-1.6-.65-1.6-2v-5.54h-1.66v-.25h1.66v-2.05h.27v2.05h2.27v.25h-2.27V69c0 1.16.46 1.75 1.34 1.75.23 0 .53-.05.89-.15l.07.23c-.4.12-.72.17-.97.17M84.88 63.14h-.3c-2.19 0-3.28 1.22-3.28 3.66v.7c0 2.42 1.09 3.63 3.28 3.63h.3c2.23 0 3.34-1.21 3.34-3.63v-.7c0-2.44-1.11-3.66-3.34-3.66m-.3.4h.3c1.95 0 2.93 1.08 2.93 3.26v.7c0 2.16-.98 3.23-2.93 3.23h-.3c-1.92 0-2.87-1.07-2.87-3.23v-.7c0-2.18.95-3.26 2.87-3.26" class="st3"/><path d="M84.89 63.46h-.31c-1.95 0-2.95 1.13-2.95 3.34v.7c0 2.19 1 3.31 2.95 3.31h.31c1.98 0 2.99-1.12 2.99-3.31v-.7c0-2.21-1.01-3.34-2.99-3.34m2.84 4.04c0 2.13-.93 3.16-2.84 3.16h-.31c-1.89 0-2.8-1.03-2.8-3.16v-.7c0-2.15.91-3.19 2.8-3.19h.31c1.91 0 2.84 1.04 2.84 3.19zm-2.84-4.04h-.31c-1.95 0-2.95 1.13-2.95 3.34v.7c0 2.19 1 3.31 2.95 3.31h.31c1.98 0 2.99-1.12 2.99-3.31v-.7c0-2.21-1.01-3.34-2.99-3.34m2.84 4.04c0 2.13-.93 3.16-2.84 3.16h-.31c-1.89 0-2.8-1.03-2.8-3.16v-.7c0-2.15.91-3.19 2.8-3.19h.31c1.91 0 2.84 1.04 2.84 3.19zm-2.84-4.44h-.31c-2.23 0-3.36 1.26-3.36 3.74v.7c0 2.46 1.13 3.71 3.36 3.71h.31c2.25 0 3.4-1.25 3.4-3.71v-.7c0-2.48-1.15-3.74-3.4-3.74m3.25 4.44c0 2.4-1.06 3.56-3.25 3.56h-.31c-2.16 0-3.21-1.16-3.21-3.56v-.7c0-2.42 1.05-3.59 3.21-3.59h.31c2.19 0 3.25 1.17 3.25 3.59zm-3.25-4.04h-.31c-1.95 0-2.95 1.13-2.95 3.34v.7c0 2.19 1 3.31 2.95 3.31h.31c1.98 0 2.99-1.12 2.99-3.31v-.7c0-2.21-1.01-3.34-2.99-3.34m2.84 4.04c0 2.13-.93 3.16-2.84 3.16h-.31c-1.89 0-2.8-1.03-2.8-3.16v-.7c0-2.15.91-3.19 2.8-3.19h.31c1.91 0 2.84 1.04 2.84 3.19zM93.47 63.14c-1.24 0-2.12.63-2.63 1.91v-1.91h-.41v7.97h.41V65.9c.51-1.57 1.39-2.35 2.63-2.36.38 0 .73.04 1.03.12l.12-.38c-.38-.09-.77-.14-1.15-.14" class="st3"/><path d="M94.64 63.21q-.585-.15-1.17-.15c-1.16 0-2.02.56-2.56 1.65v-1.65h-.56v8.12h.56v-5.27c.5-1.52 1.36-2.29 2.56-2.3.37 0 .72.04 1.01.12h.07l.16-.5zm-1.17.25c-1.27.01-2.18.82-2.7 2.41v5.16h-.27v-7.82h.26v2.21l.14-.34c.51-1.26 1.35-1.87 2.57-1.87.35 0 .71.04 1.06.13l-.08.23c-.29-.07-.62-.11-.98-.11M96.59 63.14v7.99H97v-7.99zm.27-3.02h-.13c-.15 0-.22.11-.22.33v.64c0 .22.07.33.22.33h.13q.21 0 .21-.33v-.64q0-.33-.21-.33" class="st3"/><path d="M96.86 60.05h-.13c-.11 0-.29.05-.29.4v.64c0 .35.18.4.29.4h.13c.11 0 .29-.05.29-.4v-.64c0-.35-.18-.4-.29-.4m.14 1.04c0 .25-.1.25-.14.25h-.13s-.14 0-.14-.25v-.64c0-.25.09-.25.14-.25h.13s.14 0 .14.25zm-.48 1.97v8.15h.55v-8.15zm.41 8h-.27v-7.85h.27zM102.69 63.14h-.3c-2.19 0-3.29 1.22-3.29 3.66v.7c0 2.42 1.1 3.63 3.29 3.63h.3q3.33 0 3.33-3.63v-.7q0-3.66-3.33-3.66m0 7.59h-.3c-1.92 0-2.88-1.07-2.88-3.23v-.7c0-2.18.96-3.26 2.88-3.26h.3c1.95 0 2.92 1.08 2.92 3.26v.7c0 2.16-.97 3.23-2.92 3.23" class="st3"/><path d="M102.69 63.46h-.3c-1.96 0-2.95 1.13-2.95 3.34v.7c0 2.19.99 3.31 2.95 3.31h.3c1.99 0 3-1.12 3-3.31v-.7c0-2.21-1.01-3.34-3-3.34m2.85 4.04c0 2.13-.93 3.16-2.85 3.16h-.3c-1.89 0-2.81-1.03-2.81-3.16v-.7c0-2.15.92-3.19 2.81-3.19h.3c1.92 0 2.85 1.04 2.85 3.19zm-2.85-4.04h-.3c-1.96 0-2.95 1.13-2.95 3.34v.7c0 2.19.99 3.31 2.95 3.31h.3c1.99 0 3-1.12 3-3.31v-.7c0-2.21-1.01-3.34-3-3.34m2.85 4.04c0 2.13-.93 3.16-2.85 3.16h-.3c-1.89 0-2.81-1.03-2.81-3.16v-.7c0-2.15.92-3.19 2.81-3.19h.3c1.92 0 2.85 1.04 2.85 3.19zm-2.85-4.44h-.3c-2.23 0-3.36 1.26-3.36 3.74v.7c0 2.46 1.13 3.71 3.36 3.71h.3c2.26 0 3.41-1.25 3.41-3.71v-.7c0-2.48-1.15-3.74-3.41-3.74m3.26 4.44c0 2.4-1.06 3.56-3.26 3.56h-.3c-2.16 0-3.21-1.16-3.21-3.56v-.7c0-2.42 1.05-3.59 3.21-3.59h.3c2.2 0 3.26 1.17 3.26 3.59zm-3.26-4.04h-.3c-1.96 0-2.95 1.13-2.95 3.34v.7c0 2.19.99 3.31 2.95 3.31h.3c1.99 0 3-1.12 3-3.31v-.7c0-2.21-1.01-3.34-3-3.34m2.85 4.04c0 2.13-.93 3.16-2.85 3.16h-.3c-1.89 0-2.81-1.03-2.81-3.16v-.7c0-2.15.92-3.19 2.81-3.19h.3c1.92 0 2.85 1.04 2.85 3.19zM116.56 60.12h-.71c-2.46 0-3.69 1.66-3.69 4.96v1.02c0 3.32 1.23 4.97 3.69 4.97h.71c2.46 0 3.7-1.65 3.7-4.97v-1.02c0-3.3-1.24-4.96-3.7-4.96m0 10.55h-.71c-2.19 0-3.29-1.52-3.29-4.57v-1.02c0-3.04 1.1-4.56 3.29-4.56h.71c2.19 0 3.29 1.52 3.29 4.56v1.02c0 3.05-1.1 4.57-3.29 4.57" class="st3"/><path d="M116.56 60.45h-.71c-2.23 0-3.36 1.56-3.36 4.63v1.02c0 3.08 1.13 4.65 3.36 4.65h.71c2.23 0 3.36-1.57 3.36-4.65v-1.02c0-3.07-1.13-4.63-3.36-4.63m3.22 5.65c0 3.03-1.06 4.5-3.22 4.5h-.71c-2.16 0-3.21-1.47-3.21-4.5v-1.02c0-3.02 1.05-4.48 3.21-4.48h.71c2.16 0 3.22 1.46 3.22 4.48zm-3.22-5.65h-.71c-2.23 0-3.36 1.56-3.36 4.63v1.02c0 3.08 1.13 4.65 3.36 4.65h.71c2.23 0 3.36-1.57 3.36-4.65v-1.02c0-3.07-1.13-4.63-3.36-4.63m3.22 5.65c0 3.03-1.06 4.5-3.22 4.5h-.71c-2.16 0-3.21-1.47-3.21-4.5v-1.02c0-3.02 1.05-4.48 3.21-4.48h.71c2.16 0 3.22 1.46 3.22 4.48zm-3.22-6.05h-.71c-2.5 0-3.77 1.69-3.77 5.03v1.02c0 3.35 1.27 5.05 3.77 5.05h.71c2.5 0 3.77-1.7 3.77-5.05v-1.02c0-3.34-1.27-5.03-3.77-5.03m3.62 6.05c0 3.3-1.18 4.9-3.62 4.9h-.71c-2.44 0-3.62-1.6-3.62-4.9v-1.02c0-3.29 1.18-4.88 3.62-4.88h.71c2.44 0 3.62 1.59 3.62 4.88zm-3.62-5.65h-.71c-2.23 0-3.36 1.56-3.36 4.63v1.02c0 3.08 1.13 4.65 3.36 4.65h.71c2.23 0 3.36-1.57 3.36-4.65v-1.02c0-3.07-1.13-4.63-3.36-4.63m3.22 5.65c0 3.03-1.06 4.5-3.22 4.5h-.71c-2.16 0-3.21-1.47-3.21-4.5v-1.02c0-3.02 1.05-4.48 3.21-4.48h.71c2.16 0 3.22 1.46 3.22 4.48zM127.99 60.03v4.38c-.87-.78-1.8-1.17-2.78-1.17-2.02 0-3.03 1.16-3.03 3.49v.89q0 3.51 3.03 3.51c.98 0 1.9-.48 2.77-1.46v1.46h.42v-11.1zm-2.78 10.7c-1.76 0-2.64-1.04-2.64-3.11v-.89q0-3.12 2.64-3.12c.98 0 1.91.45 2.78 1.34v4.17c-.87 1.07-1.8 1.61-2.78 1.61" class="st3"/><path d="M128.05 64.9c-.89-.9-1.85-1.36-2.84-1.36-1.8 0-2.71 1.07-2.71 3.19v.89c0 2.11.91 3.19 2.71 3.19.99 0 1.95-.56 2.84-1.65l.02-.02v-4.22zm-.13 4.19c-.85 1.04-1.77 1.57-2.71 1.57-1.73 0-2.56-.99-2.56-3.04v-.89c0-2.05.83-3.05 2.56-3.05.94 0 1.86.44 2.71 1.3zm.13-4.19c-.89-.9-1.85-1.36-2.84-1.36-1.8 0-2.71 1.07-2.71 3.19v.89c0 2.11.91 3.19 2.71 3.19.99 0 1.95-.56 2.84-1.65l.02-.02v-4.22zm-.13 4.19c-.85 1.04-1.77 1.57-2.71 1.57-1.73 0-2.56-.99-2.56-3.04v-.89c0-2.05.83-3.05 2.56-3.05.94 0 1.86.44 2.71 1.3zm0-9.13v4.29c-.85-.72-1.76-1.08-2.71-1.08-2.06 0-3.1 1.2-3.1 3.56v.89c0 2.38 1.04 3.59 3.1 3.59.95 0 1.85-.46 2.7-1.36v1.36h.57V59.96zm.41 11.1h-.28v-1.58l-.12.14c-.85.96-1.77 1.44-2.72 1.44-1.99 0-2.96-1.12-2.96-3.44v-.89c0-2.3.97-3.42 2.96-3.42.95 0 1.88.39 2.74 1.16l.12.1v-4.46h.26zm-3.12-7.52c-1.8 0-2.71 1.07-2.71 3.19v.89c0 2.11.91 3.19 2.71 3.19.99 0 1.95-.56 2.84-1.65l.02-.02v-4.22l-.02-.02c-.89-.9-1.85-1.36-2.84-1.36m2.71 5.55c-.85 1.04-1.77 1.57-2.71 1.57-1.73 0-2.56-.99-2.56-3.04v-.89c0-2.05.83-3.05 2.56-3.05.94 0 1.86.44 2.71 1.3zM134.52 63.14h-.3c-2.19 0-3.29 1.22-3.29 3.66v.7c0 2.42 1.1 3.63 3.29 3.63h.3q3.33 0 3.33-3.63v-.7q0-3.66-3.33-3.66m0 7.59h-.3c-1.92 0-2.88-1.07-2.88-3.23v-.7c0-2.18.96-3.26 2.88-3.26h.3c1.95 0 2.92 1.08 2.92 3.26v.7c0 2.16-.97 3.23-2.92 3.23" class="st3"/><path d="M134.52 63.46h-.3c-1.96 0-2.95 1.13-2.95 3.34v.7c0 2.19.99 3.31 2.95 3.31h.3c1.99 0 2.99-1.12 2.99-3.31v-.7c0-2.21-1-3.34-2.99-3.34m2.85 4.04c0 2.13-.93 3.16-2.85 3.16h-.3c-1.89 0-2.81-1.03-2.81-3.16v-.7c0-2.15.92-3.19 2.81-3.19h.3c1.92 0 2.85 1.04 2.85 3.19zm-2.85-4.04h-.3c-1.96 0-2.95 1.13-2.95 3.34v.7c0 2.19.99 3.31 2.95 3.31h.3c1.99 0 2.99-1.12 2.99-3.31v-.7c0-2.21-1-3.34-2.99-3.34m2.85 4.04c0 2.13-.93 3.16-2.85 3.16h-.3c-1.89 0-2.81-1.03-2.81-3.16v-.7c0-2.15.92-3.19 2.81-3.19h.3c1.92 0 2.85 1.04 2.85 3.19zm-2.85-4.44h-.3c-2.23 0-3.36 1.26-3.36 3.74v.7c0 2.46 1.13 3.71 3.36 3.71h.3c2.26 0 3.4-1.25 3.4-3.71v-.7c0-2.48-1.14-3.74-3.4-3.74m3.26 4.44c0 2.4-1.07 3.56-3.26 3.56h-.3c-2.16 0-3.22-1.16-3.22-3.56v-.7c0-2.42 1.06-3.59 3.22-3.59h.3c2.19 0 3.26 1.17 3.26 3.59zm-3.26-4.04h-.3c-1.96 0-2.95 1.13-2.95 3.34v.7c0 2.19.99 3.31 2.95 3.31h.3c1.99 0 2.99-1.12 2.99-3.31v-.7c0-2.21-1-3.34-2.99-3.34m2.85 4.04c0 2.13-.93 3.16-2.85 3.16h-.3c-1.89 0-2.81-1.03-2.81-3.16v-.7c0-2.15.92-3.19 2.81-3.19h.3c1.92 0 2.85 1.04 2.85 3.19zM143.56 63.14c-1.04 0-2.07.49-3.09 1.46v-1.46h-.41v7.97h.41v-5.96c1.02-1.06 2.05-1.6 3.09-1.61 1.44 0 2.17 1.04 2.17 3.11v4.46h.4v-4.46c0-2.34-.85-3.51-2.57-3.51" class="st3"/><path d="M143.56 63.06c-1.01 0-2.03.47-3.02 1.38v-1.38h-.55v8.12h.55v-6c1-1.03 2.01-1.56 3.02-1.57 1.41 0 2.09.99 2.09 3.04v4.53h.56v-4.53c0-2.38-.89-3.59-2.65-3.59m2.5 7.97h-.26v-4.38c0-2.11-.75-3.19-2.24-3.19-1.05.01-2.11.57-3.14 1.65l-.02.02v5.9h-.27v-7.82h.27v1.56l.12-.11c1-.96 2.03-1.45 3.04-1.45 1.68 0 2.5 1.12 2.5 3.44zM152.13 70.51c-.39.11-.71.16-.94.16-.84 0-1.26-.55-1.27-1.67v-5.46h2.27v-.4h-2.27v-2.05h-.41v2.05h-1.67v.4h1.67V69c0 1.38.56 2.07 1.67 2.07.27 0 .62-.06 1.06-.19z" class="st3"/><path d="m152.18 70.42-.07.02c-.38.11-.69.16-.92.16-.8 0-1.19-.52-1.2-1.6v-5.39h2.27v-.55h-2.27v-2.04h-.55v2.04h-1.67v.55h1.67V69c0 1.42.58 2.15 1.74 2.15.28 0 .64-.07 1.08-.2l.06-.02zm-1 .58c-1.08 0-1.6-.65-1.6-2v-5.54h-1.66v-.25h1.66v-2.05h.27v2.05h2.27v.25h-2.27V69c0 1.16.46 1.75 1.34 1.75.23 0 .53-.05.89-.15l.07.23c-.4.12-.72.17-.97.17M157.26 63.14h-.3c-2.19 0-3.28 1.22-3.28 3.66v.7c0 2.42 1.09 3.63 3.28 3.63h.3c2.22 0 3.34-1.21 3.34-3.63v-.7c0-2.44-1.12-3.66-3.34-3.66m0 7.59h-.3c-1.92 0-2.88-1.07-2.88-3.23v-.7c0-2.18.96-3.26 2.88-3.26h.3c1.95 0 2.93 1.08 2.93 3.26v.7c0 2.16-.98 3.23-2.93 3.23" class="st3"/><path d="M157.26 63.46h-.3c-1.96 0-2.95 1.13-2.95 3.34v.7c0 2.19.99 3.31 2.95 3.31h.3c1.99 0 3-1.12 3-3.31v-.7c0-2.21-1.01-3.34-3-3.34m2.85 4.04c0 2.13-.93 3.16-2.85 3.16h-.3c-1.89 0-2.8-1.03-2.8-3.16v-.7c0-2.15.91-3.19 2.8-3.19h.3c1.92 0 2.85 1.04 2.85 3.19zm-2.85-4.04h-.3c-1.96 0-2.95 1.13-2.95 3.34v.7c0 2.19.99 3.31 2.95 3.31h.3c1.99 0 3-1.12 3-3.31v-.7c0-2.21-1.01-3.34-3-3.34m2.85 4.04c0 2.13-.93 3.16-2.85 3.16h-.3c-1.89 0-2.8-1.03-2.8-3.16v-.7c0-2.15.91-3.19 2.8-3.19h.3c1.92 0 2.85 1.04 2.85 3.19zm-2.85-4.44h-.3c-2.23 0-3.36 1.26-3.36 3.74v.7c0 2.46 1.13 3.71 3.36 3.71h.3c2.26 0 3.41-1.25 3.41-3.71v-.7c0-2.48-1.15-3.74-3.41-3.74m3.26 4.44c0 2.4-1.06 3.56-3.26 3.56h-.3c-2.16 0-3.21-1.16-3.21-3.56v-.7c0-2.42 1.05-3.59 3.21-3.59h.3c2.2 0 3.26 1.17 3.26 3.59zm-3.26-4.04h-.3c-1.96 0-2.95 1.13-2.95 3.34v.7c0 2.19.99 3.31 2.95 3.31h.3c1.99 0 3-1.12 3-3.31v-.7c0-2.21-1.01-3.34-3-3.34m2.85 4.04c0 2.13-.93 3.16-2.85 3.16h-.3c-1.89 0-2.8-1.03-2.8-3.16v-.7c0-2.15.91-3.19 2.8-3.19h.3c1.92 0 2.85 1.04 2.85 3.19zM165.32 70.72h-.43c-1.05 0-1.59-.53-1.59-1.6v-9.29h-.4v9.26c0 1.32.66 1.98 1.99 1.98h.46z" class="st3"/><path d="M165.39 70.65h-.5c-1.02 0-1.51-.5-1.51-1.53v-9.37h-.56v9.34c0 1.36.7 2.06 2.07 2.06h.54zm-2.42-10.75h.26v9.22c0 1.11.56 1.67 1.66 1.67h.36l.02.21h-.38c-1.29 0-1.92-.62-1.92-1.91zM171.51 60.42l-1.97 1.6.26.32 1.97-1.61zm-.95 2.72h-.3c-2.19 0-3.29 1.22-3.29 3.66v.7c0 2.42 1.1 3.63 3.29 3.63h.3q3.33 0 3.33-3.63v-.7q0-3.66-3.33-3.66m0 7.59h-.3c-1.92 0-2.88-1.07-2.88-3.23v-.7c0-2.18.96-3.26 2.88-3.26h.3c1.95 0 2.92 1.08 2.92 3.26v.7c0 2.16-.97 3.23-2.92 3.23" class="st3"/><path d="m171.52 60.32-2.08 1.69.35.43 2.08-1.7zm-.02.2.17.2-1.86 1.51-.16-.2zm-.94 2.94h-.3c-1.96 0-2.95 1.13-2.95 3.34v.7c0 2.19.99 3.31 2.95 3.31h.3c1.99 0 2.99-1.12 2.99-3.31v-.7c0-2.21-1-3.34-2.99-3.34m2.85 4.04c0 2.13-.93 3.16-2.85 3.16h-.3c-1.89 0-2.81-1.03-2.81-3.16v-.7c0-2.15.92-3.19 2.81-3.19h.3c1.92 0 2.85 1.04 2.85 3.19zm-2.85-4.04h-.3c-1.96 0-2.95 1.13-2.95 3.34v.7c0 2.19.99 3.31 2.95 3.31h.3c1.99 0 2.99-1.12 2.99-3.31v-.7c0-2.21-1-3.34-2.99-3.34m2.85 4.04c0 2.13-.93 3.16-2.85 3.16h-.3c-1.89 0-2.81-1.03-2.81-3.16v-.7c0-2.15.92-3.19 2.81-3.19h.3c1.92 0 2.85 1.04 2.85 3.19zm-2.85-4.44h-.3c-2.23 0-3.36 1.26-3.36 3.74v.7c0 2.46 1.13 3.71 3.36 3.71h.3c2.26 0 3.4-1.25 3.4-3.71v-.7c0-2.48-1.14-3.74-3.4-3.74m3.26 4.44c0 2.4-1.07 3.56-3.26 3.56h-.3c-2.17 0-3.22-1.16-3.22-3.56v-.7c0-2.42 1.05-3.59 3.22-3.59h.3c2.19 0 3.26 1.17 3.26 3.59zm-3.26-4.04h-.3c-1.96 0-2.95 1.13-2.95 3.34v.7c0 2.19.99 3.31 2.95 3.31h.3c1.99 0 2.99-1.12 2.99-3.31v-.7c0-2.21-1-3.34-2.99-3.34m2.85 4.04c0 2.13-.93 3.16-2.85 3.16h-.3c-1.89 0-2.81-1.03-2.81-3.16v-.7c0-2.15.92-3.19 2.81-3.19h.3c1.92 0 2.85 1.04 2.85 3.19zM182.91 63.28h-2.31c-.2-.09-.67-.14-1.4-.14h-.48c-1.82 0-2.73.72-2.73 2.18v.2c0 .88.4 1.5 1.19 1.89-.59.21-.88.6-.88 1.17.02.62.31 1 .86 1.15-1.05.7-1.58 1.39-1.58 2.09v.21c0 1.45 1.18 2.18 3.52 2.18 2.17 0 3.25-.73 3.25-2.18v-.21q0-1.41-1.74-1.83l-3.06-.61c-.52-.07-.8-.33-.84-.8.02-.45.29-.8.81-1.04.39.1.79.16 1.2.17h.48c1.83 0 2.75-.73 2.75-2.19v-.2c-.02-.76-.3-1.33-.85-1.71h1.81zm-5.23 6.55 2.78.56c.99.24 1.49.72 1.49 1.43v.21c0 1.18-.95 1.78-2.85 1.78-2.07 0-3.11-.6-3.11-1.78v-.21c.05-.68.62-1.34 1.69-1.99m3.86-4.31c0 1.19-.78 1.79-2.34 1.79h-.48c-1.54 0-2.32-.6-2.32-1.79v-.2c0-1.19.78-1.78 2.32-1.78h.48c1.56 0 2.34.59 2.34 1.78z" class="st3"/><path d="M179.2 63.46h-.48c-1.59 0-2.39.63-2.39 1.86v.2c0 1.23.8 1.86 2.39 1.86h.48c1.6 0 2.41-.63 2.41-1.86v-.2c0-1.23-.81-1.86-2.41-1.86m2.26 2.06c0 1.15-.74 1.71-2.26 1.71h-.48c-1.51 0-2.25-.56-2.25-1.71v-.2c0-1.15.74-1.71 2.25-1.71h.48c1.52 0 2.26.56 2.26 1.71zm-.98 4.8-2.82-.57-.02.02c-1.09.66-1.67 1.35-1.72 2.05v.2c0 1.23 1.07 1.86 3.18 1.86 1.94 0 2.92-.63 2.92-1.86v-.2c0-.75-.52-1.25-1.54-1.5m1.39 1.7c0 1.15-.9 1.71-2.77 1.71-2.01 0-3.04-.57-3.04-1.71v-.2c.05-.64.6-1.28 1.63-1.92l2.75.56c.97.23 1.43.68 1.43 1.36zm-1.39-1.7-2.82-.57-.02.02c-1.09.66-1.67 1.35-1.72 2.05v.2c0 1.23 1.07 1.86 3.18 1.86 1.94 0 2.92-.63 2.92-1.86v-.2c0-.75-.52-1.25-1.54-1.5m1.39 1.7c0 1.15-.9 1.71-2.77 1.71-2.01 0-3.04-.57-3.04-1.71v-.2c.05-.64.6-1.28 1.63-1.92l2.75.56c.97.23 1.43.68 1.43 1.36zm-3.15-4.64h.48c1.6 0 2.41-.63 2.41-1.86v-.2c0-1.23-.81-1.86-2.41-1.86h-.48c-1.59 0-2.39.63-2.39 1.86v.2c0 1.23.8 1.86 2.39 1.86m-2.25-2.06c0-1.15.74-1.71 2.25-1.71h.48c1.52 0 2.26.56 2.26 1.71v.2c0 1.15-.74 1.71-2.26 1.71h-.48c-1.51 0-2.25-.56-2.25-1.71zm6.52-2.11h-2.38c-.22-.1-.68-.15-1.41-.15h-.48c-1.86 0-2.8.76-2.8 2.26v.2c0 .85.36 1.48 1.08 1.88-.51.23-.77.63-.77 1.19 0 .59.27.98.77 1.16-.99.69-1.49 1.38-1.49 2.07v.2c0 1.5 1.21 2.26 3.59 2.26 2.21 0 3.33-.76 3.33-2.26v-.2c0-.98-.61-1.61-1.8-1.9l-3.07-.61c-.49-.06-.74-.3-.78-.72.02-.43.26-.74.75-.97.38.1.78.15 1.19.16h.48c1.87 0 2.82-.76 2.82-2.26v-.2c0-.7-.25-1.25-.71-1.64h1.68zm-.15.33h-1.98l.2.13c.54.37.8.91.81 1.65v.2c0 1.42-.87 2.11-2.67 2.11h-.48c-.41-.01-.8-.06-1.18-.16h-.05c-.55.26-.83.63-.86 1.12.05.5.35.79.91.86l3.06.61c1.13.27 1.68.85 1.68 1.76v.2c0 1.42-1.04 2.11-3.18 2.11-2.32 0-3.44-.69-3.44-2.11v-.2c0-.67.52-1.35 1.54-2.03l.13-.09-.15-.04c-.53-.14-.79-.5-.81-1.08 0-.54.27-.9.83-1.1l.16-.06-.15-.08c-.77-.37-1.15-.97-1.15-1.82v-.2c0-1.42.87-2.11 2.66-2.11h.48c.72 0 1.17.05 1.36.14h2.28zm-6.92 8.28v.2c0 1.23 1.07 1.86 3.18 1.86 1.94 0 2.92-.63 2.92-1.86v-.2c0-.75-.52-1.25-1.54-1.5l-2.82-.57-.02.02c-1.09.66-1.67 1.35-1.72 2.05m4.52-1.36c.97.23 1.43.68 1.43 1.36v.2c0 1.15-.9 1.71-2.77 1.71-2.01 0-3.04-.57-3.04-1.71v-.2c.05-.64.6-1.28 1.63-1.92zm-1.72-7c-1.59 0-2.39.63-2.39 1.86v.2c0 1.23.8 1.86 2.39 1.86h.48c1.6 0 2.41-.63 2.41-1.86v-.2c0-1.23-.81-1.86-2.41-1.86zm2.74 2.06c0 1.15-.74 1.71-2.26 1.71h-.48c-1.51 0-2.25-.56-2.25-1.71v-.2c0-1.15.74-1.71 2.25-1.71h.48c1.52 0 2.26.56 2.26 1.71zM184.99 63.14v7.99h.41v-7.99zm.27-3.02h-.14q-.21 0-.21.33v.64q0 .33.21.33h.14q.21 0 .21-.33v-.64q0-.33-.21-.33" class="st3"/><path d="M185.26 60.05h-.14c-.12 0-.28.07-.28.4v.64c0 .33.16.4.28.4h.14c.13 0 .29-.07.29-.4v-.64c0-.33-.16-.4-.29-.4m.14 1.04c0 .25-.1.25-.14.25h-.14s-.13 0-.13-.25v-.64c0-.25.09-.25.13-.25h.14s.14 0 .14.25zm-.48 1.97v8.15h.55v-8.15zm.41 8h-.27v-7.85h.27zM190.74 70.75c-1.82 0-2.72-1.2-2.72-3.61s.9-3.62 2.72-3.62q1.38 0 2.85.45l.12-.42c-.99-.27-1.99-.41-3.01-.43q-3.09 0-3.09 4.02c0 4.02 1.03 4.01 3.09 4.01.95 0 1.95-.17 3.01-.5l-.12-.39c-.97.33-1.92.49-2.85.49" class="st3"/><path d="M193.57 70.19c-.96.32-1.91.49-2.83.49-1.78 0-2.65-1.16-2.65-3.54s.87-3.55 2.65-3.55c.91 0 1.86.15 2.83.45l.07.02.16-.56-.07-.02c-.99-.26-2.01-.41-3.03-.43-2.1 0-3.16 1.38-3.16 4.09s1.06 4.08 3.16 4.08c.95 0 1.97-.17 3.03-.51l.07-.02-.16-.52zm-2.87.89c-2.03 0-3.02-1.29-3.02-3.94s.99-3.95 3.02-3.95c.98.02 1.97.16 2.92.41l-.08.28c-.96-.29-1.9-.43-2.8-.43-1.85 0-2.79 1.24-2.79 3.69s.94 3.68 2.79 3.68c.91 0 1.85-.16 2.8-.47l.08.25c-1.02.32-2.01.48-2.92.48M199.05 63.14h-.3c-2.19 0-3.28 1.22-3.28 3.66v.7c0 2.42 1.09 3.63 3.28 3.63h.3c2.23 0 3.34-1.21 3.34-3.63v-.7c0-2.44-1.11-3.66-3.34-3.66m0 7.59h-.3c-1.92 0-2.87-1.07-2.87-3.23v-.7c0-2.18.95-3.26 2.87-3.26h.3c1.95 0 2.93 1.08 2.93 3.26v.7c0 2.16-.98 3.23-2.93 3.23" class="st3"/><path d="M199.05 63.46h-.3c-1.95 0-2.95 1.13-2.95 3.34v.7c0 2.19 1 3.31 2.95 3.31h.3c1.99 0 3-1.12 3-3.31v-.7c0-2.21-1.01-3.34-3-3.34m2.86 4.04c0 2.13-.94 3.16-2.86 3.16h-.3c-1.89 0-2.8-1.03-2.8-3.16v-.7c0-2.15.91-3.19 2.8-3.19h.3c1.92 0 2.86 1.04 2.86 3.19zm-2.86-4.04h-.3c-1.95 0-2.95 1.13-2.95 3.34v.7c0 2.19 1 3.31 2.95 3.31h.3c1.99 0 3-1.12 3-3.31v-.7c0-2.21-1.01-3.34-3-3.34m2.86 4.04c0 2.13-.94 3.16-2.86 3.16h-.3c-1.89 0-2.8-1.03-2.8-3.16v-.7c0-2.15.91-3.19 2.8-3.19h.3c1.92 0 2.86 1.04 2.86 3.19zm-2.86-4.44h-.3c-2.23 0-3.36 1.26-3.36 3.74v.7c0 2.46 1.13 3.71 3.36 3.71h.3c2.26 0 3.41-1.25 3.41-3.71v-.7c0-2.48-1.15-3.74-3.41-3.74m3.26 4.44c0 2.4-1.06 3.56-3.26 3.56h-.3c-2.16 0-3.21-1.16-3.21-3.56v-.7c0-2.42 1.05-3.59 3.21-3.59h.3c2.2 0 3.26 1.17 3.26 3.59zm-3.26-4.04h-.3c-1.95 0-2.95 1.13-2.95 3.34v.7c0 2.19 1 3.31 2.95 3.31h.3c1.99 0 3-1.12 3-3.31v-.7c0-2.21-1.01-3.34-3-3.34m2.86 4.04c0 2.13-.94 3.16-2.86 3.16h-.3c-1.89 0-2.8-1.03-2.8-3.16v-.7c0-2.15.91-3.19 2.8-3.19h.3c1.92 0 2.86 1.04 2.86 3.19z" class="st3"/><g style="mix-blend-mode:multiply"><path d="M18.72 13.88a12 12 0 0 0-4.44-3.05c-1.73-.69-3.67-1.04-5.83-1.04H.6c-.28 0-.42.17-.42.49v31.49q0 .48.42.48h7.62c2.26 0 4.28-.36 6.06-1.1 1.78-.73 3.29-1.8 4.52-3.21s2.17-3.11 2.83-5.12c.65-2.01.98-4.29.98-6.84 0-5.19-1.3-9.22-3.89-12.1m-10.5 27.4H1.03V10.76h7.42c4.26 0 7.54 1.32 9.85 3.96s3.46 6.39 3.46 11.26c0 2.4-.3 4.55-.92 6.44s-1.51 3.5-2.67 4.82c-1.17 1.32-2.59 2.32-4.27 3.01-1.69.69-3.58 1.03-5.68 1.03" class="st2"/><path d="M18.44 14.6c-2.34-2.67-5.7-4.02-9.99-4.02H.85v30.88h7.37c2.12 0 4.05-.35 5.74-1.04 1.7-.7 3.16-1.73 4.34-3.06 1.18-1.34 2.09-2.98 2.71-4.88s.93-4.09.93-6.5c0-4.89-1.18-8.72-3.5-11.38M8.22 41.1H1.21V10.94h7.24c4.19 0 7.45 1.31 9.72 3.9 2.26 2.59 3.41 6.34 3.41 11.14 0 2.37-.3 4.52-.91 6.39-.61 1.85-1.49 3.45-2.64 4.75a11.2 11.2 0 0 1-4.2 2.96c-1.65.68-3.54 1.02-5.61 1.02m10.22-26.5c-2.34-2.67-5.7-4.02-9.99-4.02H.85v30.88h7.37c2.12 0 4.05-.35 5.74-1.04 1.7-.7 3.16-1.73 4.34-3.06 1.18-1.34 2.09-2.98 2.71-4.88s.93-4.09.93-6.5c0-4.89-1.18-8.72-3.5-11.38M8.22 41.1H1.21V10.94h7.24c4.19 0 7.45 1.31 9.72 3.9 2.26 2.59 3.41 6.34 3.41 11.14 0 2.37-.3 4.52-.91 6.39-.61 1.85-1.49 3.45-2.64 4.75a11.2 11.2 0 0 1-4.2 2.96c-1.65.68-3.54 1.02-5.61 1.02m10.64-27.34c-1.25-1.36-2.76-2.4-4.51-3.1-1.75-.69-3.73-1.05-5.9-1.05H.6c-.38 0-.6.25-.6.67v31.49c0 .42.22.66.6.66h7.62c2.27 0 4.33-.37 6.13-1.11s3.34-1.84 4.59-3.26c1.24-1.42 2.2-3.16 2.86-5.19.66-2.01.99-4.33.99-6.89 0-5.21-1.32-9.32-3.93-12.22M8.22 42.07H.6c-.13 0-.24-.02-.24-.3V10.28c0-.28.11-.31.24-.31h7.85c2.12 0 4.06.35 5.76 1.02 1.7.68 3.17 1.69 4.38 3.01 2.55 2.83 3.84 6.86 3.84 11.98 0 2.52-.33 4.8-.97 6.78-.65 1.98-1.59 3.68-2.79 5.06a11.9 11.9 0 0 1-4.46 3.17c-1.75.72-3.77 1.08-5.99 1.08m12.79-9.59c.62-1.9.93-4.09.93-6.5 0-4.89-1.18-8.72-3.5-11.38-2.34-2.67-5.7-4.02-9.99-4.02H.85v30.88h7.37c2.12 0 4.05-.35 5.74-1.04 1.7-.7 3.16-1.73 4.34-3.06 1.18-1.34 2.09-2.98 2.71-4.88M8.22 41.1H1.21V10.94h7.24c4.19 0 7.45 1.31 9.72 3.9 2.26 2.59 3.41 6.34 3.41 11.14 0 2.37-.3 4.52-.91 6.39-.61 1.85-1.49 3.45-2.64 4.75a11.2 11.2 0 0 1-4.2 2.96c-1.65.68-3.54 1.02-5.61 1.02M41 22.48c-1.77-2.04-4.26-3.05-7.46-3.05s-5.55.98-7.33 2.94c-1.79 1.97-2.72 4.69-2.79 8.18v.97c.07 3.49 1 6.2 2.77 8.14 1.77 1.93 4.2 2.9 7.31 2.9s5.54-.98 7.31-2.95l-.58-.66c-1.62 1.76-3.86 2.64-6.73 2.64s-5.11-.87-6.72-2.61c-1.6-1.75-2.44-4.23-2.52-7.46h18.97q.42 0 .42-.48v-.05c0-3.63-.88-6.47-2.65-8.51m-7.46-2.09q4.335 0 6.75 2.64c1.6 1.76 2.44 4.27 2.52 7.52H24.26c.08-3.25.92-5.76 2.52-7.52 1.61-1.76 3.86-2.64 6.76-2.64" class="st2"/><path d="M40.42 22.91c-1.63-1.79-3.95-2.7-6.88-2.7s-5.26.91-6.89 2.7c-1.62 1.78-2.49 4.35-2.57 7.64v.18h18.91v-.18c-.08-3.29-.94-5.86-2.57-7.64m-15.97 7.46c.1-3.1.93-5.53 2.47-7.22 1.56-1.71 3.78-2.58 6.62-2.58s5.05.87 6.62 2.58c1.53 1.69 2.36 4.12 2.46 7.22zm15.97-7.46c-1.63-1.79-3.95-2.7-6.88-2.7s-5.26.91-6.89 2.7c-1.62 1.78-2.49 4.35-2.57 7.64v.18h18.91v-.18c-.08-3.29-.94-5.86-2.57-7.64m-15.97 7.46c.1-3.1.93-5.53 2.47-7.22 1.56-1.71 3.78-2.58 6.62-2.58s5.05.87 6.62 2.58c1.53 1.69 2.36 4.12 2.46 7.22zm16.69-8.01c-1.8-2.07-4.36-3.11-7.6-3.11s-5.66 1.01-7.47 3c-1.8 1.99-2.76 4.78-2.83 8.3v.97c.07 3.52 1.02 6.3 2.81 8.26 1.8 1.96 4.31 2.96 7.45 2.96s5.64-1.01 7.44-3.01l.11-.12-.82-.93-.13.15c-1.57 1.71-3.8 2.58-6.6 2.58s-5.02-.86-6.58-2.56c-1.54-1.67-2.37-4.07-2.47-7.15h18.78c.39 0 .61-.24.61-.71 0-3.66-.91-6.56-2.7-8.63m2.09 8.98H24.08v.18c.08 3.26.95 5.81 2.57 7.58 1.63 1.77 3.94 2.67 6.85 2.67s5.09-.86 6.73-2.55l.34.39c-1.72 1.84-4.1 2.77-7.07 2.77s-5.45-.96-7.18-2.84c-1.73-1.9-2.65-4.6-2.72-8.02v-.96c.07-3.43 1-6.14 2.74-8.07 1.74-1.91 4.16-2.88 7.2-2.88s5.6 1 7.32 2.99c1.74 2 2.61 4.82 2.61 8.44 0 .28-.11.3-.24.3m-9.69-11.13c-2.94 0-5.26.91-6.89 2.7-1.62 1.78-2.49 4.35-2.57 7.64v.18h18.91v-.18c-.08-3.29-.94-5.86-2.57-7.64-1.63-1.79-3.95-2.7-6.88-2.7m-9.09 10.16c.1-3.1.93-5.53 2.47-7.22 1.56-1.71 3.78-2.58 6.62-2.58s5.05.87 6.62 2.58c1.53 1.69 2.36 4.12 2.46 7.22zM60.49 22.5c-1.53-2.05-3.65-3.07-6.37-3.07s-4.84 1.01-6.35 3.05-2.27 4.88-2.27 8.51v11.26h.85V30.99c0-3.37.67-5.97 2.02-7.8 1.34-1.84 3.26-2.75 5.75-2.75s4.41.91 5.77 2.75q2.04 2.745 2.04 7.8v11.26h.85V30.99c0-3.6-.77-6.43-2.29-8.49" class="st2"/><path d="M60.63 22.4c-1.55-2.09-3.75-3.15-6.51-3.15s-4.95 1.05-6.49 3.12c-1.53 2.06-2.31 4.96-2.31 8.62v11.44h1.21V30.99c0-3.31.67-5.91 1.98-7.7 1.31-1.77 3.19-2.67 5.61-2.67s4.31.9 5.63 2.67c1.33 1.8 2 4.39 2 7.7v11.44h1.21V30.99c0-3.63-.79-6.52-2.33-8.59m1.97 19.67h-.49V30.99c0-3.39-.7-6.06-2.07-7.91-1.39-1.87-3.38-2.82-5.92-2.82s-4.52.95-5.9 2.82c-1.36 1.85-2.05 4.52-2.05 7.91v11.08h-.49V30.99c0-3.58.75-6.4 2.24-8.4 1.47-1.98 3.55-2.98 6.2-2.98s4.74 1.01 6.22 3c1.5 2.01 2.26 4.83 2.26 8.38zM70.86 19.73V8.52h-.85v11.21h-5.62v.97h5.62v21.55h.85V20.7h5.57v-.97z" class="st2"/><path d="M71.04 19.55V8.34h-1.21v11.21h-5.62v1.33h5.62v21.55h1.21V20.88h5.58v-1.33zm5.21.97h-5.57v21.55h-.49V20.52h-5.62v-.61h5.62V8.7h.49v11.21h5.57zM94.82 22.46c-1.77-2.02-4.25-3.03-7.46-3.03-2.64 0-4.83.73-6.58 2.19l.54.8c1.51-1.35 3.53-2.03 6.04-2.03 2.72 0 4.87.79 6.46 2.36 1.59 1.56 2.51 3.8 2.74 6.7h-9.58c-1.49 0-2.85.06-4.06.18-1.22.12-2.26.39-3.12.83q-1.29.66-1.98 2.01c-.46.89-.69 2.11-.69 3.67 0 1.08.18 1.99.55 2.73.38.73.86 1.33 1.45 1.8s1.26.83 2.02 1.1q1.125.39 2.25.57c.74.12 1.46.18 2.15.2.69.01 1.27.02 1.73.02q6.12 0 8.43-2.64c.46-.53.81-1.1 1.06-1.71.24-.62.41-1.27.52-1.96.1-.69.16-1.4.17-2.13.01-.74.02-1.47.02-2.2v-.93c0-3.66-.89-6.51-2.66-8.53m-7.54 19.13c-1.07 0-2.17-.06-3.29-.17q-1.665-.18-3-.75c-.88-.38-1.61-.93-2.17-1.65-.57-.72-.85-1.68-.85-2.88s.16-2.18.46-2.93a3.5 3.5 0 0 1 1.54-1.73q1.08-.615 2.79-.84c1.14-.15 2.55-.22 4.22-.22h9.65v1.5c0 .7 0 1.4-.02 2.09 0 .68-.06 1.34-.15 1.97-.09.64-.24 1.22-.44 1.76-.21.55-.5 1.04-.89 1.48-1.38 1.58-4 2.37-7.85 2.37" class="st2"/><path d="M86.98 30.24c-1.67 0-3.09.07-4.24.22-1.16.15-2.12.44-2.86.86-.75.43-1.29 1.04-1.61 1.82-.32.77-.48 1.78-.48 3s.3 2.24.89 2.99a5.6 5.6 0 0 0 2.24 1.7c.9.39 1.93.65 3.06.77 1.11.11 2.22.17 3.3.17 1.94 0 3.59-.2 4.92-.61 1.34-.41 2.36-1.01 3.07-1.82.4-.46.7-.97.92-1.53.2-.55.36-1.16.45-1.8.09-.63.14-1.31.15-2 .02-.69.02-1.39.02-2.09v-1.68zm9.47 1.68c0 .7 0 1.39-.02 2.08-.01.68-.06 1.34-.15 1.96a8.2 8.2 0 0 1-.43 1.72c-.2.52-.48 1-.85 1.42-1.35 1.53-3.94 2.31-7.72 2.31-1.06 0-2.16-.06-3.27-.17-1.09-.12-2.08-.36-2.95-.74a5.2 5.2 0 0 1-2.1-1.59c-.54-.68-.81-1.62-.81-2.77s.15-2.14.45-2.86c.29-.7.78-1.26 1.46-1.65.7-.39 1.61-.67 2.73-.81 1.13-.15 2.54-.22 4.19-.22h9.47zm-9.47-1.68c-1.67 0-3.09.07-4.24.22-1.16.15-2.12.44-2.86.86-.75.43-1.29 1.04-1.61 1.82-.32.77-.48 1.78-.48 3s.3 2.24.89 2.99a5.6 5.6 0 0 0 2.24 1.7c.9.39 1.93.65 3.06.77 1.11.11 2.22.17 3.3.17 1.94 0 3.59-.2 4.92-.61 1.34-.41 2.36-1.01 3.07-1.82.4-.46.7-.97.92-1.53.2-.55.36-1.16.45-1.8.09-.63.14-1.31.15-2 .02-.69.02-1.39.02-2.09v-1.68zm9.47 1.68c0 .7 0 1.39-.02 2.08-.01.68-.06 1.34-.15 1.96a8.2 8.2 0 0 1-.43 1.72c-.2.52-.48 1-.85 1.42-1.35 1.53-3.94 2.31-7.72 2.31-1.06 0-2.16-.06-3.27-.17-1.09-.12-2.08-.36-2.95-.74a5.2 5.2 0 0 1-2.1-1.59c-.54-.68-.81-1.62-.81-2.77s.15-2.14.45-2.86c.29-.7.78-1.26 1.46-1.65.7-.39 1.61-.67 2.73-.81 1.13-.15 2.54-.22 4.19-.22h9.47zm-1.49-9.58c-1.8-2.05-4.35-3.09-7.6-3.09-2.67 0-4.93.75-6.69 2.24l-.13.1.75 1.1.15-.14c1.47-1.31 3.46-1.98 5.92-1.98 2.66 0 4.79.78 6.34 2.3 1.51 1.5 2.41 3.65 2.66 6.4h-9.38c-1.49 0-2.86.06-4.08.18-1.24.12-2.31.41-3.18.85-.89.46-1.58 1.16-2.06 2.08-.47.92-.71 2.18-.71 3.76 0 1.11.19 2.05.57 2.81.39.75.89 1.38 1.49 1.86.61.48 1.3.86 2.08 1.13.76.27 1.53.46 2.28.58s1.48.18 2.18.2c.69.01 1.27.02 1.73.02 4.12 0 7-.91 8.56-2.7.48-.54.84-1.13 1.09-1.77.25-.62.43-1.3.54-2 .1-.69.16-1.42.17-2.15 0-.73.02-1.47.02-2.2v-.93c0-3.69-.91-6.6-2.7-8.65m2.34 9.58c0 .73 0 1.46-.02 2.19 0 .72-.07 1.43-.17 2.11-.1.67-.27 1.32-.51 1.92-.24.59-.58 1.15-1.03 1.66-1.49 1.71-4.28 2.58-8.29 2.58-.46 0-1.03-.01-1.72-.02-.68-.02-1.4-.08-2.13-.2-.73-.11-1.48-.3-2.22-.56s-1.4-.62-1.97-1.07-1.04-1.04-1.4-1.75c-.35-.7-.53-1.59-.53-2.64 0-1.52.22-2.73.67-3.59.44-.86 1.08-1.51 1.9-1.92.84-.43 1.86-.71 3.05-.82 1.22-.12 2.58-.18 4.05-.18h9.77v-.19c-.25-2.93-1.18-5.23-2.8-6.82-1.62-1.6-3.84-2.41-6.59-2.41-2.46 0-4.48.65-6.01 1.94l-.33-.49c1.69-1.36 3.82-2.05 6.34-2.05 3.14 0 5.6 1 7.33 2.97 1.73 1.98 2.61 4.81 2.61 8.41zm-14.56-1.46c-1.16.15-2.12.44-2.86.86-.75.43-1.29 1.04-1.61 1.82-.32.77-.48 1.78-.48 3s.3 2.24.89 2.99a5.6 5.6 0 0 0 2.24 1.7c.9.39 1.93.65 3.06.77 1.11.11 2.22.17 3.3.17 1.94 0 3.59-.2 4.92-.61 1.34-.41 2.36-1.01 3.07-1.82.4-.46.7-.97.92-1.53.2-.55.36-1.16.45-1.8.09-.63.14-1.31.15-2 .02-.69.02-1.39.02-2.09v-1.68h-9.83c-1.67 0-3.09.07-4.24.22m13.71 1.46c0 .7 0 1.39-.02 2.08-.01.68-.06 1.34-.15 1.96a8.2 8.2 0 0 1-.43 1.72c-.2.52-.48 1-.85 1.42-1.35 1.53-3.94 2.31-7.72 2.31-1.06 0-2.16-.06-3.27-.17-1.09-.12-2.08-.36-2.95-.74a5.2 5.2 0 0 1-2.1-1.59c-.54-.68-.81-1.62-.81-2.77s.15-2.14.45-2.86c.29-.7.78-1.26 1.46-1.65.7-.39 1.61-.67 2.73-.81 1.13-.15 2.54-.22 4.19-.22h9.47zM100.17 8.52v33.73h.85V8.52z" class="st2"/><path d="M99.99 8.34v34.09h1.21V8.34zm.85 33.73h-.49V8.7h.49z" class="st2"/></g><path d="M229.01 24.32h.99v2.57h-.99z" class="st2"/><path d="M228.83 24.14v2.93h1.35v-2.93zm.99 2.57h-.63V24.5h.63zM229.01 28.77h.99v13.48h-.99z" class="st2"/><path d="M228.83 28.59v13.84h1.35V28.59zm.99 13.48h-.63V28.95h.63z" class="st2"/><path d="M186.78 30.05c-.3-.96-.71-1.82-1.24-2.6a8.6 8.6 0 0 0-1.86-2c-.72-.56-1.5-.97-2.35-1.23 1.18-.59 2.14-1.5 2.87-2.73s1.09-2.62 1.09-4.18c0-1.02-.17-1.99-.51-2.9-.35-.91-.83-1.71-1.43-2.4-.6-.68-1.3-1.23-2.09-1.62-.8-.4-1.65-.6-2.54-.6h-12.39c-.29 0-.43.17-.43.49v31.49c0 .32.14.48.43.48h13a7.1 7.1 0 0 0 3.06-.77q1.44-.72 2.52-1.98c.72-.83 1.28-1.8 1.69-2.9s.62-2.28.62-3.54c0-1.06-.15-2.06-.44-3.01m-8.06-6.18h-11.97V10.76h11.97c.79 0 1.53.18 2.23.53.69.35 1.29.82 1.81 1.41.51.58.92 1.27 1.23 2.06.3.8.46 1.65.46 2.55s-.16 1.76-.46 2.56c-.31.79-.72 1.48-1.23 2.08-.52.61-1.12 1.07-1.81 1.41-.7.34-1.44.51-2.23.51m-11.97.97h12.43c1 0 1.93.21 2.81.63.87.43 1.63 1.01 2.29 1.76.65.75 1.16 1.62 1.53 2.62.38 1 .56 2.07.56 3.21s-.18 2.21-.56 3.21c-.37 1-.88 1.87-1.53 2.62-.66.75-1.42 1.33-2.29 1.76-.88.42-1.81.63-2.81.63h-12.43z" class="st3"/><path d="M184.15 14.7c-.31-.81-.73-1.52-1.26-2.12-.52-.6-1.15-1.09-1.86-1.45-.72-.36-1.49-.55-2.31-.55h-12.15v13.47h12.15c.81 0 1.59-.18 2.31-.53.71-.34 1.34-.83 1.86-1.45.53-.61.95-1.33 1.26-2.14.32-.81.48-1.69.48-2.62s-.16-1.8-.48-2.61m-5.43 8.99h-11.79V10.94h11.79c.76 0 1.48.17 2.15.51.66.34 1.25.8 1.75 1.36.5.57.9 1.25 1.2 2.02s.45 1.6.45 2.48-.15 1.72-.45 2.49-.71 1.46-1.2 2.04c-.5.58-1.08 1.03-1.75 1.36-.67.32-1.39.49-2.15.49m7.26 6.1a8.7 8.7 0 0 0-1.57-2.68 7.4 7.4 0 0 0-2.35-1.8c-.89-.43-1.86-.66-2.88-.66h-12.61v16.81h12.61c1.02 0 1.99-.22 2.88-.65.89-.44 1.68-1.04 2.35-1.8s1.19-1.66 1.57-2.68c.38-1.01.57-2.11.57-3.27s-.19-2.26-.57-3.27m-6.8 11.31h-12.25V25.02h12.25c.96 0 1.88.2 2.73.61.84.42 1.6 1 2.23 1.72.63.73 1.14 1.59 1.51 2.56q.54 1.47.54 3.15c0 1.68-.18 2.17-.54 3.15-.37.97-.87 1.83-1.51 2.56-.64.72-1.39 1.3-2.23 1.71-.85.42-1.77.62-2.73.62m6.8-11.31a8.7 8.7 0 0 0-1.57-2.68 7.4 7.4 0 0 0-2.35-1.8c-.89-.43-1.86-.66-2.88-.66h-12.61v16.81h12.61c1.02 0 1.99-.22 2.88-.65.89-.44 1.68-1.04 2.35-1.8s1.19-1.66 1.57-2.68c.38-1.01.57-2.11.57-3.27s-.19-2.26-.57-3.27m-6.8 11.31h-12.25V25.02h12.25c.96 0 1.88.2 2.73.61.84.42 1.6 1 2.23 1.72.63.73 1.14 1.59 1.51 2.56q.54 1.47.54 3.15c0 1.68-.18 2.17-.54 3.15-.37.97-.87 1.83-1.51 2.56-.64.72-1.39 1.3-2.23 1.71-.85.42-1.77.62-2.73.62m1.85-17.58c.71-.34 1.34-.83 1.86-1.45.53-.61.95-1.33 1.26-2.14.32-.81.48-1.69.48-2.62s-.16-1.8-.48-2.61c-.31-.81-.73-1.52-1.26-2.12-.52-.6-1.15-1.09-1.86-1.45-.72-.36-1.49-.55-2.31-.55h-12.15v13.47h12.15c.81 0 1.59-.18 2.31-.53m-14.1-12.58h11.79c.76 0 1.48.17 2.15.51.66.34 1.25.8 1.75 1.36.5.57.9 1.25 1.2 2.02s.45 1.6.45 2.48-.15 1.72-.45 2.49-.71 1.46-1.2 2.04c-.5.58-1.08 1.03-1.75 1.36-.67.32-1.39.49-2.15.49h-11.79zm20.02 19.05c-.3-.96-.72-1.85-1.26-2.64a8.8 8.8 0 0 0-1.9-2.04 7.7 7.7 0 0 0-2.01-1.13c1.04-.6 1.91-1.47 2.57-2.6.75-1.25 1.12-2.69 1.12-4.27 0-1.04-.17-2.04-.53-2.96-.35-.93-.84-1.75-1.45-2.45a6.9 6.9 0 0 0-2.15-1.67c-.82-.41-1.7-.62-2.62-.62h-12.39c-.39 0-.61.24-.61.67v31.49c0 .42.22.66.61.66h13.01c1.09-.03 2.15-.29 3.13-.79a8.3 8.3 0 0 0 2.58-2.02 9.8 9.8 0 0 0 1.72-2.96c.42-1.11.63-2.33.63-3.6 0-1.07-.15-2.1-.45-3.07m-20.87 11.78V10.28c0-.28.12-.31.25-.31h12.39c.86 0 1.69.2 2.45.58.77.38 1.46.92 2.05 1.58.58.67 1.05 1.46 1.39 2.35.33.88.5 1.83.5 2.83 0 1.52-.36 2.89-1.07 4.09s-1.65 2.09-2.79 2.66l-.4.2.43.13c.82.26 1.59.66 2.29 1.2.7.55 1.31 1.21 1.83 1.96.51.76.91 1.62 1.2 2.55s.44 1.93.44 2.96c0 1.23-.2 2.4-.61 3.48-.4 1.07-.96 2.03-1.66 2.85-.7.81-1.53 1.46-2.46 1.93-.94.47-1.94.72-3.02.75h-12.96c-.13 0-.25-.02-.25-.3m15.98-.96c.89-.44 1.68-1.04 2.35-1.8s1.19-1.66 1.57-2.68c.38-1.01.57-2.11.57-3.27s-.19-2.26-.57-3.27a8.7 8.7 0 0 0-1.57-2.68 7.4 7.4 0 0 0-2.35-1.8c-.89-.43-1.86-.66-2.88-.66h-12.61v16.81h12.61c1.02 0 1.99-.22 2.88-.65m-15.13-15.79h12.25c.96 0 1.88.2 2.73.61.84.42 1.6 1 2.23 1.72.63.73 1.14 1.59 1.51 2.56q.54 1.47.54 3.15c0 1.68-.18 2.17-.54 3.15-.37.97-.87 1.83-1.51 2.56-.64.72-1.39 1.3-2.23 1.71-.85.42-1.77.62-2.73.62h-12.25zm14.1-1.5c.71-.34 1.34-.83 1.86-1.45.53-.61.95-1.33 1.26-2.14.32-.81.48-1.69.48-2.62s-.16-1.8-.48-2.61c-.31-.81-.73-1.52-1.26-2.12-.52-.6-1.15-1.09-1.86-1.45-.72-.36-1.49-.55-2.31-.55h-12.15v13.47h12.15c.81 0 1.59-.18 2.31-.53m-14.1-12.58h11.79c.76 0 1.48.17 2.15.51.66.34 1.25.8 1.75 1.36.5.57.9 1.25 1.2 2.02s.45 1.6.45 2.48-.15 1.72-.45 2.49-.71 1.46-1.2 2.04c-.5.58-1.08 1.03-1.75 1.36-.67.32-1.39.49-2.15.49h-11.79zM206.19 22.48c-1.77-2.04-4.26-3.05-7.47-3.05s-5.69 1.01-7.46 3.05-2.66 4.88-2.66 8.51.89 6.51 2.66 8.53c1.77 2.03 4.25 3.04 7.46 3.04s5.7-1.01 7.47-3.04c1.77-2.02 2.65-4.86 2.65-8.53s-.88-6.47-2.65-8.51m-7.47 19.11c-2.95 0-5.23-.92-6.85-2.77-1.61-1.85-2.42-4.46-2.42-7.83s.81-5.98 2.42-7.83c1.62-1.84 3.9-2.77 6.85-2.77s5.23.93 6.85 2.77c1.62 1.85 2.42 4.46 2.42 7.83s-.8 5.98-2.42 7.83-3.9 2.77-6.85 2.77" class="st3"/><path d="M205.71 23.04c-1.65-1.87-4-2.83-6.99-2.83s-5.34.96-6.98 2.83c-1.64 1.88-2.47 4.55-2.47 7.95s.83 6.08 2.47 7.95c1.64 1.88 3.99 2.83 6.98 2.83s5.34-.95 6.99-2.83c1.63-1.87 2.46-4.55 2.46-7.95s-.83-6.07-2.46-7.95m-6.99 18.37c-2.88 0-5.14-.91-6.71-2.71-1.58-1.8-2.38-4.4-2.38-7.71s.8-5.9 2.38-7.71c1.57-1.8 3.83-2.71 6.71-2.71s5.14.91 6.71 2.71c1.58 1.81 2.38 4.4 2.38 7.71s-.8 5.91-2.38 7.71c-1.57 1.8-3.83 2.71-6.71 2.71m6.99-18.37c-1.65-1.87-4-2.83-6.99-2.83s-5.34.96-6.98 2.83c-1.64 1.88-2.47 4.55-2.47 7.95s.83 6.08 2.47 7.95c1.64 1.88 3.99 2.83 6.98 2.83s5.34-.95 6.99-2.83c1.63-1.87 2.46-4.55 2.46-7.95s-.83-6.07-2.46-7.95m-6.99 18.37c-2.88 0-5.14-.91-6.71-2.71-1.58-1.8-2.38-4.4-2.38-7.71s.8-5.9 2.38-7.71c1.57-1.8 3.83-2.71 6.71-2.71s5.14.91 6.71 2.71c1.58 1.81 2.38 4.4 2.38 7.71s-.8 5.91-2.38 7.71c-1.57 1.8-3.83 2.71-6.71 2.71m7.6-19.05c-1.8-2.07-4.35-3.11-7.6-3.11s-5.8 1.04-7.6 3.11c-1.79 2.07-2.7 4.97-2.7 8.63s.91 6.61 2.7 8.65c1.8 2.06 4.36 3.1 7.6 3.1s5.8-1.04 7.6-3.1c1.79-2.04 2.7-4.95 2.7-8.65s-.91-6.56-2.7-8.63m-7.6 20.02c-3.14 0-5.6-1-7.33-2.97-1.73-1.98-2.61-4.81-2.61-8.42s.88-6.4 2.61-8.39 4.2-2.99 7.33-2.99 5.6 1 7.33 2.99c1.73 2 2.61 4.82 2.61 8.39s-.88 6.44-2.61 8.42c-1.73 1.97-4.19 2.97-7.33 2.97m6.99-19.34c-1.65-1.87-4-2.83-6.99-2.83s-5.34.96-6.98 2.83c-1.64 1.88-2.47 4.55-2.47 7.95s.83 6.08 2.47 7.95c1.64 1.88 3.99 2.83 6.98 2.83s5.34-.95 6.99-2.83c1.63-1.87 2.46-4.55 2.46-7.95s-.83-6.07-2.46-7.95m-6.99 18.37c-2.88 0-5.14-.91-6.71-2.71-1.58-1.8-2.38-4.4-2.38-7.71s.8-5.9 2.38-7.71c1.57-1.8 3.83-2.71 6.71-2.71s5.14.91 6.71 2.71c1.58 1.81 2.38 4.4 2.38 7.71s-.8 5.91-2.38 7.71c-1.57 1.8-3.83 2.71-6.71 2.71M218.46 30.46l6.46-10.73h-1.04l-5.96 9.86-5.92-9.86h-1.04l6.46 10.73-7.12 11.79h1.04l6.58-10.95 6.62 10.95h1.04z" class="st3"/><path d="m218.67 30.46 6.57-10.91h-1.46l-5.86 9.69-5.82-9.69h-1.46l6.57 10.91-7.23 11.97h1.46l6.48-10.78 6.46 10.69.06.09h1.46zm-8.05 11.61 6.95-11.51.06-.1-6.35-10.55h.61l6.03 10.02 6.06-10.02h.62l-6.35 10.55 7.01 11.61h-.62l-6.72-11.12-6.68 11.12z" class="st3"/><path d="M127.61 25.34c-4.51-7.64-.46-16.81 6.7-21.37-2.03-1.17-4.56-2.56-7.23-3 0 0-16.5-3.97-17.53 8.31l-4.06 35.05a6.886 6.886 0 0 0 5.59 7.98c3.21.57 11.37-2.61 16.93-8.7.99-1.09 1.85-2.3 2.6-3.57l5.08-7.73c-2.78-1.63-6.18-3.77-8.07-6.98Z" class="st2"/><path d="m163 43.88-6.57-35.54c-1.44-5.75-6.32-9.47-12.07-8.03l-5.47 1.36c-1.09.28-2.15.67-3.16 1.15 2.16 3.29 7.88 4.51 7.88 4.51-4.22.33-8.83-2.95-9.64-3.56-.48.29-.95.61-1.4.94-7.12 5.14-10.13 14.63-4.9 22.03 2.06 2.91 5.42 4.77 8.3 6.19.61.66 1.08 8.06 2.78 10.53 0 0 5.24 11.07 19.24 8.78 3.69-.92 5.94-4.66 5.01-8.35Z" class="st3"/></g></g></svg>