<svg xmlns="http://www.w3.org/2000/svg" viewBox="0 0 179.51 145.25"><defs><style>.st0{fill:#49e474}.st2{mix-blend-mode:multiply}.st3{fill:#8da5ba}</style></defs><g style="isolation:isolate"><g id="Capa_1"><g class="st2"><path d="M116.8 17.54q-.735-.75-1.5-1.47-.66-.6-1.35-1.17c-.58-.49-1.17-.95-1.78-1.39-3.37-2.47-7.2-4.35-11.33-5.48-.75-.21-1.5-.39-2.26-.55-2.3-.47-4.68-.72-7.11-.72s-4.7.24-6.94.69c-.76.15-1.52.33-2.26.54a34.6 34.6 0 0 0-11.46 5.5c-.61.44-1.21.9-1.79 1.38-.46.38-.9.77-1.34 1.18-.51.47-1.02.96-1.51 1.47-6.11 6.32-9.88 14.94-9.88 24.42 0 10.34 4.48 19.65 11.6 26.1.53.48 1.08.94 1.64 1.38.71.58 1.45 1.12 2.2 1.63a34.92 34.92 0 0 0 15.42 5.82c.72.08 1.45.15 2.18.19.36.03.73.04 1.09.05.08.01.16.01.24.01.27.01.54.01.81.01.35 0 .71-.01 1.06-.02.08 0 .16 0 .24-.01.37-.01.73-.03 1.1-.05.73-.05 1.46-.12 2.18-.22 4.75-.62 9.2-2.19 13.16-4.51.62-.36 1.23-.74 1.82-1.14.76-.51 1.49-1.04 2.2-1.61.57-.44 1.11-.9 1.65-1.38 7.23-6.45 11.78-15.83 11.78-26.25a35 35 0 0 0-9.86-24.4m-2.44 49.7a35.365 35.365 0 0 1-4.08 3.17c-.6.4-1.21.78-1.84 1.13-3.68 2.12-7.8 3.58-12.18 4.2-.72.1-1.44.18-2.18.23-.44.03-.88.06-1.32.08h-.23c-.35.01-.71.02-1.06.02-.27 0-.55 0-.82-.01-.08 0-.15 0-.23-.01-.44-.01-.87-.03-1.3-.06a33.923 33.923 0 0 1-14.8-4.55c-.63-.37-1.23-.75-1.83-1.15a32 32 0 0 1-2.43-1.8c-.56-.44-1.1-.91-1.63-1.4-6.81-6.24-11.09-15.2-11.09-25.15 0-9.19 3.65-17.53 9.57-23.67.49-.51.99-1 1.51-1.47q.765-.705 1.56-1.35c.59-.48 1.19-.94 1.81-1.37 3.11-2.21 6.61-3.91 10.38-4.98.7-.2 1.42-.38 2.14-.53 2.31-.5 4.7-.76 7.16-.76s4.96.27 7.32.79c.72.16 1.43.34 2.14.55 3.72 1.07 7.18 2.76 10.26 4.95q.93.645 1.8 1.38c.54.42 1.06.88 1.57 1.35q.78.705 1.5 1.47c5.91 6.13 9.55 14.47 9.55 23.64 0 10.02-4.34 19.05-11.25 25.3" class="st0"/></g><g class="st2"><path d="M84.54 49.97c-.28 0-.55-.11-.75-.32L70.65 36.16c-.38-.39-.4-1-.05-1.41L82 21.28c.17-.2.4-.33.66-.36l9.07-1.26.29 2.08-8.67 1.21-10.52 12.43 8.38 8.61-3.19-7.21c-.2-.45-.06-.98.34-1.28l6.3-4.58 1.24 1.7-5.61 4.09 5.22 11.8a1.052 1.052 0 0 1-.96 1.48Z" class="st3"/></g><g class="st2"><path d="M91.87 94.43h-.09c-.54-.05-.95-.5-.96-1.04l-.39-40.82 2.1-.02.29 30.1 6.71-35.66-2.74-15.03 2.07-.38 2.77 15.23c.02.13.02.26 0 .38L92.9 93.58c-.09.5-.53.86-1.03.86Z" class="st3"/></g><path d="m114.36 67.24-1.71-3.11-.66-1.2-9.23-16.82-1.39-2.52-.26-3.04-.48-5.44-.08-.94.98-1.01 3.68-3.76 1.48-1.51 6.04-6.19.93-.94 2.4-2.46.74-.76L133.06.9l-20.89 12.61-.98.59-3.23 1.96-1.26.76-6.69 4.03-2.82 1.71-3.27 1.97-2.46.49-2.26-.49-3.24-1.95-2.87-1.72-6.79-4.07-1.26-.76-3.25-1.95-.98-.59L49.87.92l16.3 16.6.74.75 2.41 2.45.92.94 6.15 6.25 1.47 1.51 3.69 3.75.98 1-.08.95-.46 5.43-.25 2.9-1.46 2.6-9.45 16.77-.66 1.18-1.74 3.09-.54.95-12.72 22.59 18.38-18.42.77-.77 2.52-2.53.97-.97 6.34-6.35 1.79-1.8 4.48-4.49.03-.02 1-1.01 1.08 1.1.03.03 4.52 4.59 1.8 1.83 6.1 6.2.96.98 2.5 2.54.77.78 17.97 18.27-12.3-22.4zm3.66 11.04-6.99-7.1-.75-.77-2.46-2.5-.95-.96-7.52-7.65-1.79-1.82-6.1-6.2-6.01 6.02-1.79 1.8-7.74 7.75-.95.96-3.24 3.24-7.16 7.18 4.96-8.81.53-.93 1.71-3.04.66-1.17 9.08-16.12.3-.54 1.85-3.28.14-.25.9-10.61v-.09l-.68-.7-.75-.77-4.04-4.11-1.48-1.51-6-6.11-.92-.94-2.41-2.45-.74-.75-4.74-4.83 6.08 3.65.96.58 3.15 1.89 1.23.74 6.86 4.12 1.83 1.1 5.36 3.22 3.03.65 3.25-.65 5.35-3.23 1.83-1.1 6.75-4.08 1.24-.74 3.13-1.89.96-.58 6.08-3.67-4.73 4.84-.74.76-2.4 2.45-.92.95-5.91 6.04-1.48 1.52-4.04 4.12-.75.77-.69.71v.08l.94 10.74.1.18 1.81 3.3.23.42 8.94 16.28.65 1.18 1.68 3.06.51.94z" class="st0"/><g class="st2"><path d="M98.55 49.97a1.049 1.049 0 0 1-.96-1.48l5.22-11.8-6.52-4.75 1.24-1.7 7.21 5.25c.4.29.54.82.34 1.28l-3.19 7.22 8.38-8.61-10.52-12.44-8.04-1.2.31-2.08 8.43 1.26c.25.04.48.17.65.36l11.4 13.47c.35.41.33 1.03-.05 1.41L99.31 49.65c-.2.21-.48.32-.75.32Z" class="st3"/></g><path d="M100.93 9.15c0-.38-.03-.75-.09-1.12C100.18 3.49 96.27 0 91.55 0s-8.61 3.47-9.28 7.99c-.06.36-.09.73-.1 1.11v.29a9.3 9.3 0 0 0 1.07 4.35c.12.24.26.47.4.7.15.23.3.45.46.66.64.82 1.4 1.53 2.26 2.11 1.49.99 3.28 1.57 5.2 1.57s3.71-.58 5.2-1.57c.86-.58 1.62-1.29 2.26-2.11.11-.15.22-.3.33-.46.18-.28.35-.56.51-.86a9.09 9.09 0 0 0 1.05-3.6c.03-.26.04-.52.04-.79 0-.08 0-.16-.01-.24Zm-15.58 4.06c-.24-.38-.45-.79-.59-1.22a6.8 6.8 0 0 1-.5-2.6c0-.28.02-.55.05-.82.04-.39.11-.76.22-1.12.84-3.08 3.67-5.35 7.02-5.35s6.19 2.28 7.03 5.38c.1.36.18.73.21 1.12.04.26.05.52.05.79v.11c0 .25-.01.49-.04.72a6.4 6.4 0 0 1-.46 1.8c-.15.43-.35.84-.6 1.22a7.272 7.272 0 0 1-12.38-.03Z" class="st0"/><g class="st2"><path d="M91.47 94.43c-.5 0-.93-.35-1.03-.85l-9.12-46.39a.9.9 0 0 1 0-.4l2.92-15.23 2.07.4-2.88 15.03 7 35.59V52.56h2.1v40.82c0 .54-.41.99-.95 1.05h-.1Z" class="st3"/></g><g class="st2"><path d="M86.39 17.21h-4.03a1.05 1.05 0 0 1-1.04-1.19l.85-6.77 2.09.26-.7 5.58h2.83v2.1Z" class="st3"/></g><g class="st2"><path d="M100.59 17.21h-4.03v-2.1h2.83l-.7-5.58 2.09-.26.85 6.77c.04.3-.06.6-.25.83-.2.23-.49.36-.79.36Z" class="st3"/></g><g class="st2"><path d="M99.04 12.19c-.24-.06-.47-.11-.71-.17-.15.43-.35.84-.6 1.22.5.1.99.22 1.48.36zm14.62 8.57c-.48-.51-.98-1-1.5-1.48a33 33 0 0 0-2.3-1.91c-.62-.45-1.25-.89-1.9-1.31a30.7 30.7 0 0 0-6.73-3.22c-.28-.1-.56-.18-.84-.27-.45-.14-.9-.26-1.35-.38-.24-.06-.47-.11-.71-.17-2.21-.5-4.5-.77-6.86-.77s-4.55.26-6.71.74c-.29.06-.57.13-.85.2-.41.11-.81.22-1.21.34-.33.1-.66.2-.98.31-2.37.79-4.61 1.87-6.68 3.19-.65.41-1.29.85-1.91 1.31-.8.6-1.57 1.24-2.3 1.91-.52.47-1.02.96-1.51 1.47-5.28 5.52-8.53 12.99-8.53 21.22 0 8.65 3.6 16.48 9.38 22.06.51.51 1.05.99 1.6 1.45 1.01.85 2.08 1.64 3.2 2.36.61.39 1.23.75 1.87 1.1a30.5 30.5 0 0 0 9.39 3.27c.72.13 1.46.23 2.2.3.66.07 1.32.11 1.99.13.07 0 .13.01.2.01.28.01.57.01.85.01.36 0 .71-.01 1.06-.02.06 0 .13 0 .19-.01.68-.02 1.35-.07 2.02-.14.74-.08 1.47-.19 2.19-.32 3.2-.57 6.24-1.65 9.01-3.14.64-.34 1.27-.71 1.88-1.09 1.12-.71 2.2-1.49 3.22-2.34.55-.46 1.09-.94 1.61-1.44 5.86-5.59 9.52-13.47 9.52-22.19 0-8.21-3.24-15.67-8.51-21.18m-1.67 42.17c-.51.52-1.05 1-1.6 1.46-1.11.94-2.28 1.8-3.52 2.56-.61.38-1.24.74-1.89 1.07-2.42 1.26-5.03 2.2-7.79 2.74-.72.14-1.46.26-2.2.34-.75.1-1.51.16-2.28.19q-.09.015-.18 0c-.35.02-.7.03-1.06.03-.29 0-.58 0-.87-.02-.06.01-.12 0-.18-.01-.76-.02-1.51-.07-2.25-.16-.75-.08-1.48-.19-2.21-.34-2.89-.54-5.63-1.51-8.15-2.85-.65-.33-1.28-.7-1.89-1.09-1.23-.76-2.39-1.62-3.49-2.57-.55-.45-1.09-.94-1.6-1.46-5.39-5.32-8.74-12.72-8.74-20.88s3.1-15 8.15-20.28c.48-.52.99-1.01 1.51-1.47.83-.76 1.7-1.47 2.61-2.11a28.287 28.287 0 0 1 7.18-3.78 24 24 0 0 1 2.2-.7c.53-.15 1.07-.28 1.61-.39 1.97-.43 4.02-.65 6.12-.65s4.24.23 6.26.68c.5.1.99.22 1.48.36.22.05.43.11.64.18.53.15 1.05.33 1.56.52 1.86.66 3.63 1.51 5.29 2.52q.99.6 1.92 1.29a28 28 0 0 1 2.62 2.12c.52.46 1.03.96 1.49 1.47 5.04 5.27 8.13 12.4 8.13 20.24s-3.4 15.67-8.87 20.99" class="st3"/></g><path d="M36.73 133.6c-.16-.15-.4-.22-.73-.22h-6.01c-.31 0-.54.07-.71.21-.16.14-.24.32-.24.56s.08.42.24.56c.15.14.39.21.71.21h2.07v6.66c0 .38.08.67.26.86.18.18.4.28.68.28s.51-.1.68-.28c.17-.19.26-.47.26-.86v-6.66H36c.32 0 .57-.07.73-.21s.24-.33.24-.56-.08-.41-.24-.55M45.34 140.37c-.17 0-.3.04-.39.11-.21.2-.39.36-.52.48q-.21.165-.45.33c-.16.1-.33.17-.5.22s-.36.07-.57.07c-.31 0-.59-.07-.85-.22s-.46-.38-.62-.67c-.15-.3-.23-.64-.23-1.03h3.39c.46 0 .81-.06 1.06-.19s.38-.41.38-.84c0-.46-.12-.91-.37-1.36-.24-.45-.6-.81-1.09-1.09-.48-.28-1.07-.43-1.75-.43-.52 0-.99.09-1.42.25-.43.17-.79.4-1.08.71-.3.31-.52.68-.67 1.11-.15.44-.23.9-.23 1.41q0 1.605.93 2.55c.62.62 1.49.94 2.6.94.49 0 .92-.07 1.3-.19.37-.13.68-.28.93-.47s.44-.39.56-.6.18-.39.18-.54c0-.18-.05-.31-.16-.41a.67.67 0 0 0-.43-.14m-3.63-2.98c.28-.3.63-.45 1.07-.45s.82.15 1.1.44c.27.29.43.73.48 1.31h-3.15c.06-.58.22-1.01.5-1.3M54.35 136.04c-.34-.18-.7-.27-1.06-.27s-.66.09-.88.27c-.21.18-.43.44-.64.79-.01-.35-.08-.61-.21-.79-.12-.18-.33-.27-.62-.27-.56 0-.85.38-.85 1.15v4.76c0 .34.08.6.25.77.16.18.36.27.61.27s.47-.09.63-.26c.17-.18.25-.44.25-.78v-1.43c0-.51.02-.95.05-1.31.04-.35.1-.66.19-.92s.21-.45.37-.58c.16-.14.37-.2.63-.2.18 0 .4.04.64.11.25.08.4.12.46.12.17 0 .33-.07.48-.2a.7.7 0 0 0 .22-.52c0-.3-.17-.53-.52-.71M64.23 141.35c-.11-.35-.16-.68-.16-1.01s.01-.65.01-.93v-1.02q0-.945-.27-1.53-.27-.57-.93-.84-.645-.27-1.8-.27c-.68 0-1.25.1-1.71.28s-.79.42-1.01.7c-.22.29-.32.58-.32.88 0 .19.07.35.21.47s.31.19.5.19c.22 0 .36-.04.43-.12.06-.08.18-.24.33-.48.16-.24.36-.42.58-.54s.55-.19.99-.19c.52 0 .86.11 1.02.32s.25.54.28.99q-.555.165-1.02.27c-.31.07-.69.15-1.12.24-.44.09-.71.14-.82.17-.53.11-.94.33-1.24.66-.31.33-.46.73-.46 1.2 0 .34.09.67.28.96.18.3.44.53.78.71.33.17.73.26 1.17.26.49 0 .93-.08 1.32-.25.39-.16.8-.4 1.22-.72.19.32.38.55.55.72.18.16.35.25.53.25.21 0 .4-.08.57-.22s.25-.3.25-.48c0-.1-.05-.32-.16-.67m-1.85-1.83c0 .6-.08 1.02-.24 1.28-.14.23-.35.43-.64.57-.29.15-.61.23-.95.23-.32 0-.58-.09-.78-.28q-.3-.27-.3-.66c0-.39.08-.44.25-.58s.35-.24.54-.28c.18-.05.52-.13 1-.23.49-.1.86-.2 1.12-.29zM74.64 137.38c-.26-.53-.61-.92-1.06-1.19s-.95-.41-1.48-.41c-.45 0-.84.09-1.2.28-.35.18-.69.48-1.02.87v-.2c0-.31-.07-.55-.23-.71-.15-.17-.35-.25-.6-.25s-.45.08-.59.24c-.15.16-.22.4-.22.73v7.37c0 .37.06.66.16.85.11.19.32.29.65.29.56 0 .83-.37.83-1.12v-2.57c.31.38.63.67.97.86.34.2.75.3 1.25.3.41 0 .8-.08 1.15-.25.36-.16.67-.39.94-.68.26-.3.47-.67.62-1.11s.22-.92.22-1.45c0-.71-.13-1.33-.39-1.85m-1.57 3.03c-.15.33-.35.57-.6.74-.24.16-.51.25-.8.25-.48 0-.89-.19-1.21-.57-.33-.38-.49-.91-.49-1.59 0-.72.16-1.27.49-1.64s.73-.56 1.21-.56c.3 0 .58.09.83.26.25.18.44.43.58.75s.21.71.21 1.16-.08.87-.22 1.2M80.52 136.02c-.16-.17-.37-.25-.63-.25s-.46.08-.62.25c-.16.18-.24.43-.24.77v4.89c0 .33.08.59.24.77s.37.27.62.27.47-.09.63-.27c.17-.17.25-.43.25-.77v-4.94c0-.31-.08-.54-.25-.72m-.01-2.51q-.255-.21-.6-.21c-.345 0-.44.08-.61.24-.18.15-.27.35-.27.59 0 .27.09.48.26.62.17.15.38.22.62.22s.44-.07.61-.22.25-.35.25-.62-.09-.47-.26-.62M91.31 141.35c-.11-.35-.17-.68-.17-1.01.01-.34.01-.65.01-.93s.01-.62.01-1.02q0-.945-.27-1.53-.27-.57-.93-.84t-1.8-.27c-.68 0-1.26.1-1.71.28-.46.18-.8.42-1.02.7-.21.29-.32.58-.32.88 0 .19.07.35.21.47s.31.19.51.19q.33 0 .42-.12c.07-.08.18-.24.34-.48s.35-.42.57-.54.56-.19 1-.19c.51 0 .85.11 1.01.32.17.21.26.54.28.99-.36.11-.7.2-1.01.27-.32.07-.69.15-1.13.24s-.71.14-.82.17c-.53.11-.94.33-1.24.66s-.45.73-.45 1.2c0 .34.09.67.27.96.18.3.44.53.78.71.34.17.73.26 1.18.26.48 0 .92-.08 1.32-.25.39-.16.79-.4 1.21-.72.2.32.38.55.56.72.17.16.35.25.53.25.21 0 .4-.08.57-.22.16-.14.25-.3.25-.48 0-.1-.06-.32-.16-.67m-1.86-1.83c0 .6-.08 1.02-.24 1.28-.13.23-.34.43-.64.57-.29.15-.6.23-.95.23-.32 0-.58-.09-.78-.28q-.3-.27-.3-.66c0-.39.09-.44.26-.58s.34-.24.53-.28c.19-.05.52-.13 1.01-.23s.86-.2 1.11-.29zM107.09 134.82c.3 0 .52-.07.67-.2.14-.13.22-.31.22-.52s-.08-.39-.22-.52c-.15-.13-.37-.2-.67-.2h-4.46c-.26 0-.49.04-.66.12s-.29.2-.38.37c-.08.17-.12.38-.12.65v7.06c0 .38.09.67.27.86.17.18.4.28.68.28s.5-.1.68-.28c.18-.19.26-.47.26-.86v-3.02h3.12c.28 0 .49-.06.64-.19.14-.12.22-.29.22-.51s-.08-.38-.22-.51c-.14-.12-.35-.19-.64-.19h-3.12v-2.34zM113.36 136.02c-.17-.17-.38-.25-.63-.25s-.46.08-.62.25c-.16.18-.24.43-.24.77v4.89c0 .33.08.59.24.77s.36.27.62.27.46-.09.63-.27c.16-.17.25-.43.25-.77v-4.94c0-.31-.09-.54-.25-.72m.81-2.71h-.86c-.25 0-.44.05-.56.13-.13.08-.27.28-.44.58l-.28.53c-.11.17-.17.3-.17.37 0 .1.09.15.28.15.27 0 .53-.06.77-.18.1-.04.26-.18.51-.39.24-.22.48-.45.71-.69.24-.23.36-.37.36-.4 0-.07-.11-.1-.32-.1M123.34 139.65c-.18-.25-.44-.46-.78-.64s-.78-.33-1.32-.46c-.45-.11-.81-.2-1.07-.28-.26-.07-.46-.17-.62-.28a.55.55 0 0 1-.22-.45c0-.19.1-.35.31-.49.21-.13.47-.19.78-.19s.55.05.73.15c.17.1.33.23.46.4.16.2.31.35.43.45.13.1.28.15.46.15.24 0 .43-.06.57-.19.13-.12.2-.28.2-.48 0-.18-.07-.36-.19-.55-.13-.19-.31-.36-.55-.52q-.36-.225-.9-.36c-.36-.1-.76-.14-1.21-.14q-.855 0-1.47.27c-.4.18-.71.42-.92.73-.2.3-.31.63-.31.97 0 .38.11.71.34.97.22.26.53.47.9.64.38.16.86.31 1.46.46q.795.18 1.14.39c.23.14.35.36.35.66 0 .19-.11.37-.33.52-.23.15-.51.23-.86.23-.43 0-.77-.08-1.01-.23-.25-.15-.47-.37-.64-.68-.09-.16-.19-.28-.28-.37-.1-.09-.24-.13-.43-.13-.2 0-.37.07-.51.2a.62.62 0 0 0-.2.48c0 .29.1.57.31.85.22.28.55.52.99.71.45.18.98.28 1.6.28.66 0 1.21-.09 1.67-.26.45-.18.8-.43 1.03-.77.24-.33.35-.74.35-1.21 0-.31-.08-.59-.26-.83M129.17 136.02c-.17-.17-.38-.25-.63-.25s-.46.08-.62.25c-.16.18-.24.43-.24.77v4.89c0 .33.08.59.24.77s.37.27.62.27.46-.09.63-.27c.17-.17.25-.43.25-.77v-4.94c0-.31-.08-.54-.25-.72m-.01-2.51q-.27-.21-.6-.21c-.33 0-.44.08-.62.24-.17.15-.26.35-.26.59 0 .27.09.48.26.62.17.15.38.22.62.22s.43-.07.6-.22.26-.35.26-.62-.09-.47-.26-.62M139.84 140.09a.67.67 0 0 0-.53-.23c-.18 0-.33.05-.45.16s-.24.26-.34.45c-.19.32-.41.57-.66.73-.25.15-.55.23-.9.23-.25 0-.49-.05-.71-.14-.22-.1-.4-.25-.55-.44-.16-.19-.27-.42-.35-.68a3.1 3.1 0 0 1-.12-.89c0-.68.15-1.22.47-1.62.31-.39.73-.59 1.24-.59.35 0 .65.08.88.24s.45.39.66.71c.12.16.23.28.33.35.09.08.21.11.36.11.22 0 .41-.07.56-.21s.23-.31.23-.52-.07-.41-.2-.65c-.14-.23-.34-.45-.6-.65s-.58-.37-.96-.5c-.37-.13-.79-.2-1.24-.2-.72 0-1.35.15-1.87.45-.52.29-.92.71-1.19 1.24q-.42.81-.42 1.86c0 1.04.3 1.86.91 2.48.6.62 1.44.92 2.51.92.51 0 .96-.06 1.36-.2.41-.13.74-.31 1.01-.52.26-.22.46-.46.59-.7s.19-.47.19-.68q0-.27-.21-.51M150.31 141.35c-.11-.35-.17-.68-.17-1.01.01-.34.01-.65.01-.93.01-.28.01-.62.01-1.02q0-.945-.27-1.53-.27-.57-.93-.84t-1.8-.27c-.68 0-1.26.1-1.71.28-.46.18-.8.42-1.01.7-.22.29-.33.58-.33.88 0 .19.07.35.21.47.15.12.31.19.51.19q.33 0 .42-.12c.07-.08.18-.24.34-.48s.35-.42.57-.54c.23-.12.56-.19 1-.19.51 0 .85.11 1.01.32.17.21.26.54.28.99-.36.11-.7.2-1.01.27-.32.07-.69.15-1.13.24s-.71.14-.82.17c-.52.11-.94.33-1.24.66s-.45.73-.45 1.2c0 .34.09.67.27.96.18.3.44.53.78.71.34.17.73.26 1.18.26.48 0 .92-.08 1.32-.25.39-.16.8-.4 1.22-.72.19.32.37.55.55.72.17.16.35.25.53.25.21 0 .4-.08.57-.22.16-.14.25-.3.25-.48 0-.1-.06-.32-.16-.67m-1.86-1.83c0 .6-.08 1.02-.23 1.28-.14.23-.35.43-.64.57-.29.15-.61.23-.96.23-.32 0-.58-.09-.78-.28q-.3-.27-.3-.66c0-.39.09-.44.26-.58s.34-.24.53-.28c.19-.05.52-.13 1.01-.23s.86-.2 1.11-.29z" class="st3"/><path d="M17.34 121.14c-.05-.11-.1-.2-.16-.29l-1.8-2.71c-.16-.25-.31-.41-.46-.49a1.18 1.18 0 0 0-.81-.07c-.14.03-.28.1-.43.2-.48.33-.99.61-1.52.82-.54.22-1.11.32-1.72.32q-1.02 0-1.86-.39c-.57-.26-1.06-.62-1.46-1.07s-.71-.98-.94-1.6q-.33-.915-.33-1.98c0-1.065.11-1.34.33-1.96.23-.62.54-1.17.94-1.64s.89-.84 1.46-1.11c.56-.28 1.18-.41 1.86-.41.61 0 1.18.1 1.72.29.55.2 1.05.46 1.52.77.17.11.33.2.47.25.14.04.26.07.35.07.43 0 .79-.26 1.09-.79l1.43-2.42c.13-.21.2-.41.2-.6 0-.28-.07-.51-.21-.7-.14-.18-.33-.35-.57-.49l.05.05a9.9 9.9 0 0 0-2.78-1.38c-.99-.31-2.07-.46-3.24-.46q-1.44 0-2.79.36-1.335.375-2.49 1.05c-1.155.675-1.48.99-2.12 1.63-.65.64-1.19 1.34-1.64 2.12-.45.77-.8 1.62-1.05 2.53S0 112.89 0 113.88s.13 1.93.38 2.83c.25.91.6 1.75 1.05 2.53.45.79.99 1.49 1.64 2.13.64.64 1.35 1.19 2.12 1.64q1.155.69 2.49 1.05c.9.25 1.83.37 2.79.37 1.17 0 2.27-.18 3.32-.55q1.56-.555 2.88-1.47c.18-.12.35-.26.51-.41.15-.16.23-.36.23-.6 0-.07-.03-.15-.07-.26M37.68 109.73c-.55-1.28-1.3-2.39-2.24-3.34a10.46 10.46 0 0 0-7.45-3.04c-.98 0-1.93.12-2.83.36-.91.25-1.75.6-2.53 1.05s-1.49.99-2.13 1.63-1.18 1.34-1.64 2.12a10.638 10.638 0 0 0-1.44 5.37c0 .99.13 1.93.38 2.83.25.91.61 1.75 1.06 2.53.46.79 1 1.49 1.64 2.13s1.35 1.19 2.13 1.64c.78.46 1.62.81 2.53 1.05.9.25 1.85.37 2.83.37s1.91-.12 2.8-.37q1.35-.36 2.52-1.05a10.287 10.287 0 0 0 3.76-3.77c.46-.78.81-1.62 1.06-2.53.26-.9.38-1.84.38-2.83 0-1.49-.27-2.87-.83-4.15m-5.52 6.13c-.21.62-.51 1.15-.9 1.6s-.87.81-1.43 1.07q-.84.39-1.89.39c-1.05 0-1.36-.13-1.93-.39s-1.06-.62-1.46-1.07-.71-.98-.93-1.6q-.33-.915-.33-1.98c0-1.065.11-1.34.33-1.96s.53-1.17.93-1.64.89-.84 1.46-1.11c.57-.28 1.22-.41 1.93-.41s1.33.13 1.89.41c.56.27 1.04.64 1.43 1.11s.69 1.02.9 1.64.31 1.27.31 1.96-.1 1.37-.31 1.98M54.68 105.38c-.47-.34-.9-.64-1.31-.89-.4-.26-.8-.47-1.21-.64s-.84-.29-1.29-.38c-.46-.08-.97-.12-1.55-.12s-1.05.08-1.49.24c-.43.17-.83.39-1.19.65-.37.27-.71.58-1.02.92-.32.34-.64.69-.96 1.04-.12-.28-.22-.56-.3-.86-.09-.3-.19-.58-.3-.82-.11-.25-.25-.45-.41-.61s-.38-.24-.64-.24h-2.43a1.444 1.444 0 0 0-.87.28c-.13.1-.23.22-.3.37-.08.15-.11.33-.11.53v17.98c0 .82.41 1.23 1.25 1.23h3.61c.46 0 .79-.1.99-.31s.3-.52.3-.92V111.2c.22-.37.45-.7.67-1 .23-.3.47-.55.73-.77.25-.21.54-.38.85-.5.32-.11.69-.17 1.1-.17.62 0 1.16.11 1.63.33.48.22.95.55 1.41 1q.405.18.72.18.645 0 1.08-.63l1.46-2.49c.18-.31.27-.58.27-.82 0-.36-.23-.68-.69-.95M75.93 109.73c-.5-1.28-1.2-2.39-2.1-3.34-.89-.95-1.96-1.69-3.19-2.23-1.24-.54-2.59-.81-4.06-.81-.83 0-1.54.1-2.12.32a5.3 5.3 0 0 0-1.49.81c-.42.32-.78.69-1.09 1.09-.3.4-.6.79-.9 1.18l-.68-1.94c-.05-.18-.11-.33-.17-.48-.05-.14-.13-.27-.21-.38-.09-.12-.2-.2-.33-.27q-.195-.09-.51-.09h-2.42c-.14 0-.29.01-.44.04-.15.04-.29.11-.43.23-.12.12-.22.25-.3.38-.08.14-.12.32-.12.53v24.4c0 .18.05.34.13.49.09.14.19.26.32.36s.27.17.42.23c.15.05.29.08.42.08h3.68c.4 0 .7-.12.89-.34.2-.23.29-.5.29-.82v-7.48c.29.32.59.64.89.96s.64.61 1.03.88.84.49 1.34.65c.51.17 1.11.25 1.8.25 1.47 0 2.82-.27 4.06-.82 1.23-.54 2.3-1.29 3.19-2.24.9-.95 1.6-2.06 2.1-3.35q.75-1.92.75-4.14c0-2.22-.25-2.87-.75-4.15m-5.48 6.14c-.22.62-.54 1.16-.94 1.62q-.615.675-1.47 1.08c-.56.27-1.19.4-1.87.4s-1.36-.13-1.98-.4q-.93-.405-1.62-1.08c-.46-.46-.83-1-1.09-1.62-.27-.62-.41-1.28-.41-1.99v-.24c.04-.66.19-1.29.48-1.88q.42-.885 1.11-1.53a4.9 4.9 0 0 1 1.59-1.03c.6-.25 1.24-.38 1.92-.38s1.31.13 1.87.4c.57.27 1.06.63 1.47 1.09.4.47.72 1 .94 1.62.23.61.34 1.26.34 1.95s-.11 1.37-.34 1.99M97.12 109.73a10.6 10.6 0 0 0-2.25-3.34c-.95-.95-2.06-1.69-3.34-2.23a10.45 10.45 0 0 0-4.1-.81c-.99 0-1.93.12-2.84.36-.9.25-1.74.6-2.53 1.05-.78.45-1.49.99-2.12 1.63-.64.64-1.19 1.34-1.64 2.12-.46.77-.81 1.62-1.06 2.53s-.38 1.85-.38 2.84.13 1.93.38 2.83c.25.91.6 1.75 1.06 2.53.45.79 1 1.49 1.64 2.13.63.64 1.34 1.19 2.12 1.64.79.46 1.63.81 2.53 1.05.91.25 1.85.37 2.84.37s1.91-.12 2.8-.37a10 10 0 0 0 2.51-1.05c.79-.45 1.5-1 2.13-1.64.64-.64 1.18-1.34 1.64-2.13.45-.78.81-1.62 1.06-2.53.25-.9.38-1.84.38-2.83 0-1.49-.28-2.87-.83-4.15m-5.52 6.13c-.21.62-.51 1.15-.9 1.6s-.87.81-1.43 1.07c-.57.26-1.19.39-1.89.39s-1.36-.13-1.94-.39c-.57-.26-1.05-.62-1.46-1.07-.4-.45-.71-.98-.93-1.6q-.33-.915-.33-1.98c0-1.065.11-1.34.33-1.96s.53-1.17.93-1.64c.41-.47.89-.84 1.46-1.11.58-.28 1.22-.41 1.94-.41s1.32.13 1.89.41c.56.27 1.04.64 1.43 1.11s.69 1.02.9 1.64a6.414 6.414 0 0 1 0 3.94" class="st0"/><path d="M116.55 108.83c-.29-1.08-.72-2.03-1.3-2.84a6.4 6.4 0 0 0-2.22-1.92c-.89-.47-1.95-.71-3.17-.71-.63 0-1.23.07-1.8.22-.57.14-1.08.33-1.55.56s-.88.49-1.24.78c-.36.3-.64.59-.84.89v-7.02c0-.16-.04-.33-.1-.51a.9.9 0 0 0-.32-.42c-.3-.17-.57-.26-.82-.26h-3.63c-.46 0-.79.12-.99.34-.21.23-.31.52-.31.88v24.01c0 .37.1.67.31.89.2.23.53.34.99.34h3.63c.16 0 .31-.01.43-.05.12-.03.25-.09.39-.17.14-.1.25-.24.32-.42.06-.18.1-.36.1-.55v-10.6c.03-.48.15-.92.34-1.31.2-.4.45-.74.74-1.02.3-.29.63-.51 1-.66.37-.16.75-.23 1.13-.23.45 0 .88.08 1.28.24.4.17.75.4 1.05.7.3.29.54.64.71 1.03q.27.6.27 1.29v10.61c0 .45.09.75.26.91.17.15.48.23.94.23h3.71c.39 0 .67-.1.85-.31.17-.21.26-.52.26-.92v-10.52c0-1.24-.14-2.39-.42-3.48M137.44 110.48c-.24-.81-.58-1.56-1.02-2.28-.44-.71-.96-1.37-1.57-1.96-.61-.6-1.29-1.12-2.02-1.55-.73-.42-1.52-.76-2.35-.99-.84-.24-1.7-.35-2.59-.35-.97 0-1.9.12-2.77.38-.88.26-1.7.62-2.45 1.08s-1.42 1.01-2.03 1.66c-.6.65-1.12 1.36-1.54 2.13a10.8 10.8 0 0 0-1.32 5.22c0 1.51.28 2.9.86 4.19.58 1.28 1.36 2.4 2.35 3.35.98.94 2.13 1.69 3.43 2.22 1.31.54 2.7.8 4.16.8 1.32 0 2.57-.24 3.75-.73 1.17-.48 2.23-1.16 3.18-2.03.16-.12.3-.25.41-.41.12-.15.18-.34.18-.55 0-.12-.02-.24-.05-.35s-.11-.24-.22-.38l-1.71-1.92q-.27-.27-.48-.42c-.15-.1-.29-.14-.43-.14s-.27.03-.39.1c-.13.07-.27.17-.45.31-.19.2-.44.38-.76.56-.31.17-.66.33-1.04.46-.38.14-.78.24-1.18.32-.41.08-.81.12-1.19.12a5.7 5.7 0 0 1-1.37-.17 4.7 4.7 0 0 1-1.36-.59c-.43-.27-.81-.64-1.13-1.1-.33-.46-.55-1.03-.65-1.72h11.56q1.005 0 1.53-.12c.525-.12.6-.22.75-.43s.23-.49.25-.84c.01-.36.02-.81.02-1.37 0-.86-.12-1.69-.36-2.5m-13.56.7c.17-.36.39-.72.67-1.07.27-.36.58-.67.92-.95s.71-.5 1.1-.67c.39-.16.79-.25 1.21-.25.58 0 1.09.08 1.52.23s.82.36 1.16.62c.33.27.63.58.89.94.27.35.51.73.74 1.15zM159.64 104.26a1 1 0 0 0-.32-.4.87.87 0 0 0-.42-.23c-.16-.03-.3-.04-.41-.04h-2.4c-.21 0-.38.01-.49.04a.55.55 0 0 0-.3.16c-.08.08-.16.2-.23.37-.07.16-.15.38-.26.65l-.47 1.46c-.29-.42-.62-.81-1.01-1.17-.38-.36-.82-.66-1.29-.92-.48-.26-1-.46-1.58-.61-.57-.15-1.19-.22-1.85-.22-1.46 0-2.82.27-4.1.81-1.27.54-2.38 1.28-3.32 2.23s-1.69 2.06-2.23 3.34c-.55 1.28-.82 2.66-.82 4.15 0 .99.12 1.93.37 2.83.24.91.59 1.75 1.05 2.53.45.79 1 1.49 1.63 2.13s1.34 1.19 2.11 1.64c.78.46 1.61.81 2.51 1.05.89.25 1.83.37 2.8.37.55 0 1.07-.07 1.58-.2s.99-.31 1.43-.53c.45-.22.85-.47 1.22-.75.37-.27.7-.56.99-.85l.21.73c.06.18.12.35.18.5.06.16.13.29.22.39.09.11.2.19.34.25s.32.09.54.09h3.17c.11 0 .25-.01.41-.05.16-.03.3-.1.42-.22.15-.1.26-.23.32-.39.07-.17.1-.34.1-.53v-18.1c0-.19-.03-.36-.1-.51m-6.4 11.6c-.26.62-.62 1.15-1.07 1.6a5.06 5.06 0 0 1-3.61 1.46c-.72 0-1.33-.13-1.9-.39a4.5 4.5 0 0 1-2.41-2.67q-.33-.915-.33-1.98c0-1.065.11-1.34.33-1.96s.53-1.17.94-1.64.9-.84 1.47-1.11c.57-.28 1.21-.41 1.9-.41s1.39.13 2 .41c.62.27 1.15.64 1.61 1.11.45.47.81 1.02 1.07 1.64.25.62.38 1.27.38 1.96s-.13 1.37-.38 1.98M167.18 98.33c-.07-.15-.15-.27-.25-.38-.11-.11-.22-.19-.33-.25a.75.75 0 0 0-.34-.09h-3.94c-.41 0-.71.12-.88.35-.17.24-.26.53-.26.87v24c0 .4.09.71.26.92s.47.31.88.31h3.73c.36 0 .66-.1.89-.31s.35-.52.35-.92v-24c0-.18-.04-.35-.11-.5" class="st3"/><path d="M179.19 103.95q-.33-.3-.84-.3h-2.2l.02-4.42c0-.37-.07-.67-.2-.9-.14-.23-.4-.35-.8-.35h-.13c-.05 0-.1.01-.16.02l-3.64 1.27c-.41.15-.72.3-.94.47s-.33.41-.33.75l-.02 3.16h-1.65c-.48 0-.82.14-1.01.41-.16.2-.23.47-.23.81v3.1c0 .37.07.66.23.87.19.29.53.43 1.01.43h1.65l.02 13.56c0 .82.41 1.23 1.24 1.23h3.63c.41 0 .74-.1.98-.31.23-.21.35-.52.35-.92l-.02-13.56h2.2c.34 0 .62-.1.84-.31.21-.21.32-.54.32-.99v-3.1c0-.41-.11-.71-.32-.92" class="st3"/></g></g></svg>