<svg xmlns="http://www.w3.org/2000/svg" xmlns:xlink="http://www.w3.org/1999/xlink" viewBox="0 0 230.78 105.83"><defs><linearGradient id="Degradado_sin_nombre_9" x1="172.48" x2="83.64" y1="-23.32" y2="95.32" data-name="Degradado sin nombre 9" gradientTransform="matrix(-1 0 0 -1 230.78 105.83)" gradientUnits="userSpaceOnUse"><stop offset=".11" stop-color="#0058ff"/><stop offset=".33" stop-color="#0642d3"/><stop offset=".76" stop-color="#101b87"/><stop offset=".95" stop-color="#150c6a"/></linearGradient><linearGradient id="Degradado_sin_nombre_166" x1="82.84" x2="107.51" y1="12.82" y2="96.51" data-name="Degradado sin nombre 166" gradientUnits="userSpaceOnUse"><stop offset="0" stop-color="#fff"/><stop offset=".04" stop-color="#d4d4d4"/><stop offset=".13" stop-color="#6b6b6b"/><stop offset=".18" stop-color="#909090"/><stop offset=".28" stop-color="#c9c9c9"/><stop offset=".32" stop-color="#e0e0e0"/><stop offset=".44" stop-color="#ebebeb"/><stop offset=".61" stop-color="#f9f9f9"/><stop offset=".65" stop-color="#d5d5d5"/><stop offset=".77" stop-color="#6c6c6c"/><stop offset=".8" stop-color="#6f6f6f"/><stop offset=".82" stop-color="#7a7a7a"/><stop offset=".85" stop-color="#8d8d8d"/><stop offset=".87" stop-color="#a8a8a8"/><stop offset=".9" stop-color="#c9c9c9"/><stop offset=".91" stop-color="#e0e0e0"/><stop offset=".94" stop-color="#e9e9e9"/><stop offset="1" stop-color="#f7f7f7"/></linearGradient><linearGradient xlink:href="#Degradado_sin_nombre_166" id="Degradado_sin_nombre_1661" x1="107.43" x2="132.11" y1="5.56" y2="89.28" data-name="Degradado sin nombre 166"/><linearGradient xlink:href="#Degradado_sin_nombre_166" id="Degradado_sin_nombre_1662" x1="138.33" x2="163" y1="-3.54" y2="80.16" data-name="Degradado sin nombre 166"/><linearGradient xlink:href="#Degradado_sin_nombre_166" id="Degradado_sin_nombre_1663" x1="166.16" x2="190.83" y1="-11.75" y2="71.97" data-name="Degradado sin nombre 166"/><linearGradient xlink:href="#Degradado_sin_nombre_166" id="Degradado_sin_nombre_1664" x1="38.3" x2="62.97" y1="25.94" y2="109.65" data-name="Degradado sin nombre 166"/><linearGradient xlink:href="#Degradado_sin_nombre_166" id="Degradado_sin_nombre_1665" x1="56.31" x2="80.99" y1="20.63" y2="104.34" data-name="Degradado sin nombre 166"/><linearGradient xlink:href="#Degradado_sin_nombre_166" id="Degradado_sin_nombre_1666" x1="31.21" x2="55.89" y1="28.03" y2="111.74" data-name="Degradado sin nombre 166"/><linearGradient xlink:href="#Degradado_sin_nombre_166" id="Degradado_sin_nombre_1667" x1="58.37" x2="83.05" y1="20.02" y2="103.73" data-name="Degradado sin nombre 166"/><linearGradient xlink:href="#Degradado_sin_nombre_166" id="Degradado_sin_nombre_1668" x1="48.09" x2="72.76" y1="23.05" y2="106.76" data-name="Degradado sin nombre 166"/><linearGradient xlink:href="#Degradado_sin_nombre_166" id="Degradado_sin_nombre_1669" x1="48.09" x2="72.76" y1="23.05" y2="106.76" data-name="Degradado sin nombre 166"/><linearGradient xlink:href="#Degradado_sin_nombre_166" id="Degradado_sin_nombre_16610" x1="58.37" x2="83.05" y1="20.02" y2="103.73" data-name="Degradado sin nombre 166"/><linearGradient xlink:href="#Degradado_sin_nombre_166" id="Degradado_sin_nombre_16611" x1="56.31" x2="80.99" y1="20.63" y2="104.34" data-name="Degradado sin nombre 166"/><linearGradient xlink:href="#Degradado_sin_nombre_166" id="Degradado_sin_nombre_16612" x1="31.21" x2="55.89" y1="28.03" y2="111.74" data-name="Degradado sin nombre 166"/><linearGradient xlink:href="#Degradado_sin_nombre_166" id="Degradado_sin_nombre_16613" x1="48.48" x2="73.15" y1="22.94" y2="106.65" data-name="Degradado sin nombre 166"/><linearGradient xlink:href="#Degradado_sin_nombre_166" id="Degradado_sin_nombre_16614" x1="38.3" x2="62.97" y1="25.94" y2="109.65" data-name="Degradado sin nombre 166"/><linearGradient xlink:href="#Degradado_sin_nombre_166" id="Degradado_sin_nombre_16615" x1="52.32" x2="77" y1="21.8" y2="105.52" data-name="Degradado sin nombre 166"/><linearGradient xlink:href="#Degradado_sin_nombre_166" id="Degradado_sin_nombre_16616" x1="176.73" x2="201.41" y1="-14.88" y2="68.85" data-name="Degradado sin nombre 166"/><linearGradient xlink:href="#Degradado_sin_nombre_166" id="Degradado_sin_nombre_16617" x1="176.69" x2="201.42" y1="-15.03" y2="68.86" data-name="Degradado sin nombre 166"/><radialGradient id="radial-gradient" cx="-4270.42" cy="-7025.01" r="43.34" fx="-4270.42" fy="-7025.01" gradientTransform="matrix(1.78 0 0 -.09 7735.16 -568.45)" gradientUnits="userSpaceOnUse"><stop offset=".02" stop-color="#0081cc"/><stop offset=".42" stop-color="#0043bc"/><stop offset=".51" stop-color="#00338f"/><stop offset=".63" stop-color="#00215c"/><stop offset=".74" stop-color="#001234"/><stop offset=".85" stop-color="#000817"/><stop offset=".93" stop-color="#000206"/><stop offset="1"/></radialGradient><style>.st12{fill:#fff}</style></defs><g style="isolation:isolate"><g id="Capa_1"><rect width="230.78" height="105.83" rx="15.81" ry="15.81" style="fill:url(#Degradado_sin_nombre_9)" transform="matrix(-1 0 0 -1 230.78 105.83)"/><path d="M195.53 82.64c0-2.22-34.61-4.02-77.31-4.02-42.69 0-77.31 1.8-77.31 4.02s34.61 4.02 77.31 4.02 77.31-1.8 77.31-4.02" style="fill:url(#radial-gradient);mix-blend-mode:screen"/><g style="mix-blend-mode:screen"><path d="M102.03 29.42H83.07c-.95 0-1.86.79-2.03 1.75L78.9 43.51l-.66 3.78-1.47 8.49c-.18 1.02.49 1.85 1.49 1.85h5.01c.96 0 1.85-.77 2.02-1.75l.89-5.11s.06-.08.1-.08h12.15c4.01-.01 7.85-3.35 8.57-7.45l1.09-6.29c.72-4.15-2-7.53-6.06-7.53m-3.41 12.65c-.11.63-.7 1.15-1.32 1.15h-9.8l1.08-6.25c0-.04.06-.09.1-.09h9.82c.28 0 .51.11.67.3.16.2.22.47.17.75z" style="fill:url(#Degradado_sin_nombre_166)"/><path d="M132.09 49.85h-12.23c-.16 0-.3-.06-.39-.17s-.12-.27-.09-.43l3.11-17.96c.19-1.01-.49-1.85-1.48-1.85h-5.02c-.96 0-1.85.77-2.02 1.76l-4.27 24.58c-.09.49.02.96.3 1.31s.71.55 1.19.55h19.64c.96 0 1.85-.78 2.02-1.76l.73-4.18c.17-1.01-.5-1.85-1.49-1.85" style="fill:url(#Degradado_sin_nombre_1661)"/><path d="M166.03 29.36h-4.86c-.96 0-1.85.77-2.02 1.76l-3.13 17.98c-.06.38-.43.7-.81.7h-10.48c-.17 0-.31-.06-.4-.17s-.12-.26-.09-.43l3.12-17.99c.18-1.01-.49-1.85-1.48-1.85h-4.77c-.95 0-1.86.79-2.03 1.76l-3.29 18.96c-.71 4.1 1.95 7.51 6.04 7.52l13.04.03h.8c4.01 0 7.84-3.32 8.55-7.43l3.31-18.99c.17-1.01-.5-1.85-1.5-1.85" style="fill:url(#Degradado_sin_nombre_1662)"/><path d="M196.07 29.45h-17.74c-4.02 0-7.86 3.34-8.57 7.44l-.49 2.82c-.35 2 .09 3.89 1.23 5.32 1.15 1.42 2.86 2.21 4.83 2.21h12c.16 0 .3.06.39.17s.13.27.1.43l-.23 1.31c-.06.38-.44.7-.81.7h-16.69c-.96 0-1.85.77-2.02 1.76l-.72 4.17c-.18 1.02.49 1.85 1.49 1.85h18.19c4.02.01 7.86-3.33 8.57-7.43l.45-2.59c.35-2-.09-3.89-1.23-5.32-1.15-1.42-2.86-2.21-4.83-2.21h-12c-.17 0-.31-.06-.4-.17s-.12-.27-.09-.43l.3-1.74c.07-.38.44-.71.81-.71h16.24c.96 0 1.85-.77 2.02-1.75l.7-3.97c.17-1.02-.5-1.86-1.5-1.86" style="fill:url(#Degradado_sin_nombre_1663)"/><path d="m124.48 61.45-1.12 7.31H125l1.12-7.31zM133.11 61.45l-.68 4.42-2.02-4.42h-1.29L128 68.76h1.64l.67-4.42 2.02 4.42h1.3l1.12-7.31zM137.32 61.45l-.24 1.53h1.83l-.88 5.78h1.64l.88-5.78h1.82l.24-1.53zM146.75 63.18c.09-.1.25-.15.45-.15h2.41l.22-1.44c-.49-.04-.98-.08-1.45-.1-.47-.03-.95-.04-1.42-.04-.32 0-.62.05-.9.17q-.405.165-.69.54c-.19.26-.31.61-.38 1.06l-.6 3.9c-.06.36-.04.65.05.87.08.23.21.4.38.52s.35.21.55.25.39.06.56.06c.52 0 1.01-.01 1.47-.05.46-.03.92-.07 1.36-.11l.22-1.43h-2.38c-.13 0-.23-.02-.32-.06a.32.32 0 0 1-.16-.2c-.03-.08-.03-.19-.02-.33l.12-.77 2.5-.09.2-1.35-2.46-.09.1-.69c.03-.21.09-.37.19-.47M157.41 62.46a1.45 1.45 0 0 0-1.01-.9c-.25-.07-.53-.11-.84-.11h-2.72l-1.12 7.31h1.64l.4-2.61h.91l.64 2.61h1.67l-.82-2.89c.1-.04.21-.1.34-.18.14-.08.27-.19.4-.33s.25-.33.35-.55c.11-.23.19-.51.23-.85.02-.12.03-.23.04-.33.01-.11.02-.21.02-.31 0-.33-.05-.62-.13-.86m-1.55 1.24c0 .05-.01.1-.02.16q-.045.345-.15.54c-.07.14-.17.24-.28.3-.13.07-.29.1-.49.1h-.96l.28-1.82h.99c.14 0 .26.02.35.06.1.04.17.11.21.19.05.09.07.2.07.34zM164.78 61.45l-.67 4.42-2.02-4.42h-1.3l-1.12 7.31h1.64l.67-4.42 2.02 4.42h1.3l1.12-7.31zM170.83 63.18c.09-.1.25-.15.45-.15h2.41l.22-1.44c-.49-.04-.98-.08-1.45-.1-.47-.03-.95-.04-1.42-.04-.32 0-.62.05-.9.17q-.405.165-.69.54c-.19.26-.31.61-.38 1.06l-.6 3.9c-.06.36-.04.65.05.87.09.23.21.4.38.52s.35.21.55.25.39.06.56.06c.52 0 1.01-.01 1.47-.05.47-.03.92-.07 1.36-.11l.22-1.43h-2.38c-.13 0-.23-.02-.31-.06a.3.3 0 0 1-.17-.2.6.6 0 0 1 0-.33l.11-.77 2.5-.09.2-1.35-2.46-.09.1-.69c.03-.21.09-.37.19-.47ZM176.57 61.45l-.24 1.53h1.83l-.88 5.78h1.64l.88-5.78h1.82l.24-1.53z" class="st12"/><path d="M47.41 48.78a42 42 0 0 1-3.48-3.97 38.5 38.5 0 0 0-4.27 7c2.55 2.19 5.29 4.1 8.19 5.69.29-.3.58-.6.87-.89 1.23-1.23 2.52-2.39 3.85-3.47a39.5 39.5 0 0 1-5.17-4.37Z" style="fill:url(#Degradado_sin_nombre_1664)"/><path d="M75.69 60.5c-5.58 0-10.98-1.14-15.95-3.3a40 40 0 0 0-3.82 3.82c4.75 1.56 9.78 2.37 14.93 2.37 2.59 0 5.16-.2 7.66-.61.64-.81 1.22-1.66 1.77-2.54-1.51.18-3.04.26-4.59.26" style="fill:url(#Degradado_sin_nombre_1665)"/><path d="M35.88 24.33a28.7 28.7 0 0 0-7.74 12.77c1.28 2.55 2.8 4.99 4.55 7.28q1.995-2.625 4.38-5.01c.74-.74 1.5-1.46 2.28-2.14-1.87-4.05-3.04-8.4-3.47-12.91Z" style="fill:url(#Degradado_sin_nombre_1666)"/><path d="M60.34 33.69c-.33-.33-.67-.67-.98-1.02A37.6 37.6 0 0 0 53.3 36c4.4 3.82 9.39 6.76 14.76 8.72a48 48 0 0 1 6.9-1.71c-5.43-1.97-10.4-5.12-14.61-9.32Z" style="fill:url(#Degradado_sin_nombre_1667)"/><path d="M50.28 16.86c-3.22.62-6.25 1.78-8.99 3.38 1.82 3.84 4.16 7.45 6.99 10.74 2.3-1.26 4.7-2.33 7.18-3.19a39.3 39.3 0 0 1-5.18-10.93" style="fill:url(#Degradado_sin_nombre_1668)"/><path d="M48.28 30.98a47.5 47.5 0 0 1-6.99-10.74c2.74-1.6 5.77-2.76 8.99-3.38 1.15 3.88 2.89 7.56 5.18 10.93-2.47.86-4.87 1.92-7.18 3.19" style="fill:url(#Degradado_sin_nombre_1669)"/><path d="M59.35 32.67c.32.35.65.69.98 1.02 4.21 4.21 9.18 7.36 14.61 9.32-2.35.4-4.66.97-6.9 1.71A47.6 47.6 0 0 1 53.28 36a37.6 37.6 0 0 1 6.06-3.33Z" style="fill:url(#Degradado_sin_nombre_16610)"/><path d="M75.69 60.5c1.55 0 3.08-.08 4.59-.26-.54.88-1.13 1.72-1.77 2.54-2.51.41-5.07.61-7.66.61-5.15 0-10.18-.81-14.93-2.37.58-.66 1.18-1.3 1.8-1.93.66-.66 1.33-1.28 2.02-1.89 4.97 2.16 10.37 3.3 15.95 3.3" style="fill:url(#Degradado_sin_nombre_16611)"/><path d="M32.68 44.38c-1.75-2.3-3.27-4.74-4.55-7.28 1.42-4.93 4.13-9.32 7.74-12.77.42 4.51 1.6 8.86 3.47 12.91-.78.68-1.54 1.4-2.28 2.14a49 49 0 0 0-4.38 5.01Z" style="fill:url(#Degradado_sin_nombre_16612)"/><path d="M79.42 28.68c-1.47-.17-2.95-.25-4.44-.25-5.72 0-11.26 1.19-16.32 3.46a38.3 38.3 0 0 0-6.13 3.42A40.4 40.4 0 0 0 38.9 51.12c-2.1 4.36-3.38 9.1-3.78 14.01-3.12-3.22-5.5-7.17-6.85-11.57a48 48 0 0 1 11.53-15.4c2.82-2.52 5.9-4.67 9.16-6.43 2.28-1.23 4.65-2.27 7.1-3.1a47.8 47.8 0 0 1 15.53-2.57c2.06 0 4.11.13 6.12.39.61.71 1.18 1.45 1.72 2.22Z" style="fill:url(#Degradado_sin_nombre_16613)"/><path d="M47.85 57.51c-2.9-1.59-5.64-3.5-8.19-5.69 1.16-2.47 2.59-4.81 4.27-7 1.06 1.39 2.22 2.71 3.48 3.97 1.61 1.61 3.34 3.08 5.17 4.37a48 48 0 0 0-3.85 3.47c-.3.3-.58.59-.87.89Z" style="fill:url(#Degradado_sin_nombre_16614)"/><path d="M84.57 45.11v.09c0 .5-.02.99-.04 1.47-2.07.04-4.11.23-6.11.58a39.58 39.58 0 0 0-19.66 9.49c-.59.52-1.17 1.07-1.73 1.63-.74.74-1.44 1.5-2.11 2.28a39.6 39.6 0 0 0-7.13 12.1 28.5 28.5 0 0 1-7.23-3.22 47.6 47.6 0 0 1 8.21-11.54c.22-.23.44-.45.66-.68 1.28-1.28 2.61-2.47 4-3.58a47.3 47.3 0 0 1 16.19-8.46c2.41-.72 4.89-1.24 7.42-1.56 2.04-.27 4.11-.4 6.21-.4.42 0 .84 0 1.26.02.04.59.06 1.19.06 1.78" style="fill:url(#Degradado_sin_nombre_16615)"/><path d="M199.23 58.5a2.949 2.949 0 1 0 0 5.9 2.949 2.949 0 1 0 0-5.9m0 5.03c-1.14 0-2.08-.94-2.08-2.08s.94-2.08 2.08-2.08 2.08.93 2.08 2.08-.93 2.08-2.08 2.08" style="fill:url(#Degradado_sin_nombre_16616)"/><path d="m200.03 61.94-.09-.13h-.81l.18.26.49.72h.81zm.38-1.37a.87.87 0 0 0-.41-.34 1.5 1.5 0 0 0-.63-.12h-1.22v2.68h.76v-.72h.46c.24 0 .45-.03.63-.11 0 0 .02-.01.03-.02.17-.07.3-.18.38-.32.1-.14.15-.32.15-.52s-.05-.38-.15-.53m-1.5 1.27-.05-.05-.29-.3h.34v-.78h-.34l.34-.35v.35h.41c.16 0 .28.03.36.1s.12.17.12.29-.04.22-.12.29-.2.1-.36.1h-.41z" style="fill:url(#Degradado_sin_nombre_16617)"/></g></g></g></svg>