<svg xmlns="http://www.w3.org/2000/svg" id="Capa_1" viewBox="0 0 139.28 139.28"><defs><style>.st0{fill:#fff}</style></defs><circle cx="69.64" cy="69.64" r="69.64"/><path d="M72.78 95.36c7.44-.13 11.53-1.34 13.15-1.65l1.19-.43-.26-1.01-1.03-.19c-1.57.3-5.65 1.25-12.89.78-7.43-.48-11.92-1.51-12.68-1.64l-.49.85-.66 2.47c.8.13 6.28.94 13.67.81Z" class="st0"/><path d="m86.96 95.19-.16.03c-1.93.32-6.16.96-13.84.96s-12.48-1.11-13.72-1.33c-.63-.11-.72.87-.83 1.55-.1.68-.16 1.3.47 1.41 1.28.23 6.19.97 13.81.97s12.49-.78 14.46-1.11l.16-.03.69-.2-.49-1.88-.56-.37ZM84.81 41.37l-1.46-1.22a.37.37 0 0 0-.22-.09l-2.05-.02-.44-.53c-.06-.06-.13-.11-.22-.11l-.75-.09h-.09s-.11.01-.27.05c-.3-.27-1.45-1.19-2.82-.93-.03 0-.05.03-.08.05-.01 0-.02-.01-.03-.01-.05.01-5.55.86-11.56 4.18-1.4.77-1.61 2.34-1.62 2.41 0 .02.01.03.01.04h-.01v.02c-.07.02-.11.04-.11.04-.05.04-.09.07-.12.13l-.1.14.37.06.05.02c.08.02.11.09.11.16 0 .08-.09.13-.14.11l-.06-.02h-.11l-.36-.07-1.47-.27c-.07.53-.33 2.19-.78 2.63-.35.31-.62.44-.86.4-.2-.03-.37-.16-.5-.42-.34-.57-.23-1.32-.16-1.63h-.06s.02-.09.02-.14v-.02s-.02-.06-.02-.11c-.07-.46-.36-2.32-1.02-3.82-.92-2.04-2.89-1.94-3.95-1.89h-.35c-.59 0-2.69-.82-3.97-1.37a.22.22 0 0 0-.22 0c-.15.04-.31.18-.37.44-.11.58.5 1.46 1.83 2.69 1.6 1.44 2.75 1.22 3.57 1.06.61-.13.9-.17 1.21.16.79.77.02 2.86-.35 3.61-.07.14-.02.35.15.42a.28.28 0 0 0 .25 0l.04-.02a.21.21 0 0 0 .13-.13c0-.02.02-.03.02-.05l.02-.02s.03-.11.07-.18l.16-.06.3-.07v-.02l.56-.15c-.55.28-.91.64-1.04.79l.53 1.13c.31-.11 1.24-.36 2.01.11.72.46.92 1.28.97 1.65l1.34-.49h.02s0-.04.02-.06l.42-.86v-.03c.05-.08.12-.1.18-.08.02 0 .04.02.05.04.04.02.06.07.04.11l-.2.91s-.06.08-.09.09l-.13.04v.02l-.31.11c0 .09.05.18.13.22.05.04.12.05.18.05.05 0 .13-.01.16-.03 10.78-6.31 23.26-8.46 23.39-8.47.12-.02.23-.11.27-.24a.43.43 0 0 0-.11-.37m-18.31 2.2 7.48-3.86c1.52-.41 2.48-.56 2.5-.56.04-.01.06-.04.09-.06.02 0 .03.01.04.01.72-.13 1.38.17 1.81.44-1.41.33-3.97.99-7.18 2.16-1.83.66-3.44 1.3-4.72 1.87zm15.44-2.85L71.6 43.58l-1.63.29 10.6-3.4.34-.11 2.22.03z" class="st0"/><path d="M66.74 62.28s-.03-.08-.06-.1l-.39-.35c-.05-.05-.11-.06-.16-.04s-.08.07-.07.12l.23 4.98c.19.3.31.61.36.94l1.08-.79zm23.12-2.64c-.75-1.45-1.08-3.62-2.67-4.26.16-.2.33-.42.46-.66.23-.39.62-.73.38-1.19-.37-.71-.73-1.45-1.1-2.16-.18-.37.26-1.26.3-1.76.07-.87-.43-1.92-1.16-2.37-.75-.48-1.46-.57-2.3-.57h-.72l-.05-.06c-.13-.18-.24-.36-.37-.55-1-1.48-3.07-1.48-4.61-1.07-1.09.27-1.95 1.29-2.7 2.19-1.52-.73-3.22-1.06-4.8-.04-1.17.77-2.29 1.67-3.42 2.51-.02.02-.05.04-.07.07-.02.02-.04.02-.06.04-.27.27-.56.55-.84.81-1.54.14-2.98.32-4.3.54-.15.02-.25.15-.27.32l-.24 2.98s0 .13.04.16h-.04c-.18.04-.31.22-.28.4.04.17.19.3.33.3.02 0 .06-.02.08-.02 3.46-.62 7.68-.95 12.57-.95 2.59 0 4.92.09 6.98.29.04.07.08.16.13.26.08.14.15.34.22.55-1.86-.17-4.26-.28-7.33-.28-6.88 0-11 .57-12.85.9-.64.13-1.06.75-.95 1.39.09.58.61.99 1.15.99.08 0 .15 0 .22-.02 1.43-.26 5.47-.86 12.43-.86 6.11 0 9.4.45 10.81.73.05.02.11.02.16.02-.09.31-.18.6-.29.88-.55-.08-1.44-.17-2.87-.3-1.52-.13-4.56-.36-7.61-.38-4.78-.04-9 .24-12.52.8-.18-.18-.44-.33-.78-.4-.09-.04-.61-.16-1.47-.29l-.38-1.85.04-5.34.09-.81v-.16c0-.31-.11-.6-.31-.84-.33-.44-.9-.75-1.49-.84-.12-.02-.25-.04-.38-.04s-.26.02-.37.04c-.03 0-.05.01-.09.01-.05.02-.11.04-.16.06-.04.02-.09.04-.13.05-.64.3-1.08.94-1.08 1.69 0 .03.02.6.13 1.08l-.84.86c-.09.07-.11.22-.08.33.06.12.17.2.3.2.05 0 1.44.05 1.84 2.38.42 2.32-1.17 2.87-1.22 2.89-.11.03-.2.12-.22.23 0 .02-.02.13-.06.31-2.26.75-4.75 2.68-5.5 5.62q-.12.465-.21.99c-.17.99-.26 2.15-.22 3.38.02.94.12 1.93.31 2.93.09.41.18.83.3 1.25.49 1.81 1.33 3.59 2.61 5.1.15.18.31.35.48.52.1.12.21.23.33.34 2.07 1.98 3.35 3.07 4.19 3.81.75.64 1.14.96 1.35 1.31.28.42 1.18 1.91 1.01 2.93-.15.9-.95 1.92-.95 1.92a.4.4 0 0 0-.07.17c-.08.31 0 1.02.69 1.39.28.14.68.33 1.1.33.05 0 .09 0 .13-.02v.05l.66.13c1.48.27 4.92.75 11.43.75 8.03 0 12.66-.77 13.5-.91l-.11-1.47c-.34 0-.67-.02-1.02-.02l.09-10.45v-.18l.1-12.58v-.6l.03-2.59c.6.26 1.57.35 2.01.35 1.15 0 2.03-.73 2.6-1.68s.47-.99-.02-1.96m-8.89-5.98c-.04.09-.07.16-.07.23-2.05-.18-4.34-.27-6.88-.27-2.02 0-3.9.06-5.68.15l12.32-1.87h.02c.31.13.6.26.91.37-.2.45-.42.93-.62 1.39m3.97 1.65c-.17-.09-.31-.18-.48-.27-.11-.07-.2-.13-.31-.18a4 4 0 0 1-.07-.33c0-.06-.04-.17-.06-.26 0-.13-.05-.26-.05-.26.25-.31.51-.62.77-.95.03-.03.02-.11-.02-.18-.09-.13-.29-.29-.48-.4-.16-.09-.33-.15-.42-.09a.1.1 0 0 0-.07.03c-.24.3-.49.61-.75.9-.11.15.02.55.09.82.02.09.04.17.06.22.03.2.14.37.29.51.4.41 1.08.68 1.5.9-.07.04-.15.04-.24.04-.16-.02-.35-.06-.53-.08-.02 0-.04-.01-.05-.01-.22-.08-.7-.13-.92-.21-.02 0-.04 0-.04-.01-.33-.09-.22-.22-.07-.11-.11-.2-.27-.42-.44-.63-.14-.23-.33-.45-.44-.69v-.04c-.05-.16.09-.25.09-.16.04-.17-.05-.33.02-.5.19-.43.64-.89.83-1.33.07-.17.09-.35-.11-.42-.04-.02-.1-.04-.13-.06l-.43-.18c.32.04.62.07.9.11l-2.05-.59h-.01c-.37-.14-.72-.29-1.08-.43-.17-.08-.33-.13-.5-.21-.33-.12-.71-.07-1.13.1h-.02l-.37-.02c-.12-.13-.27-.26-.4-.39.02-.14.02-.31.04-.47.02-.15.03-.62.03-.64.37-.26.74-.53 1.1-.79.15-.11-.77-.97-1.1-.73-.32.24-.65.49-1 .73-.24.17-.15.79-.17 1.06-.01.44.13.59.42.86.11.11.22.24.35.35.09.11.22.24.35.35 0 .01.02.03.05.05-.14.09-.29.18-.43.28l-.59-.02c-.18-.13-.35-.26-.53-.37h-.02c-.33-.2-.68-.35-.97-.35h-.02c-.44-.01-.87-.01-1.31-.01-1.72 0-3.37.03-4.96.12H69c-.36 0-.75.02-1.13.02.07-.07.13-.13.2-.22.02 0 .06-.03.07-.05.02-.02.04-.02.06-.06.8-.56 1.59-1.17 2.39-1.75.46-.35.92-.75 1.52-.85 1.03-.16 1.85.37 2.69.86.35.19.95.04 1.21-.23.57-.63 1.12-1.23 1.68-1.83.57-.62 1.23-.53 1.94-.53 1.06 0 1.56.91 2.07 1.66.38.57 2.2.15 2.84.42 1.06.46 1.31 1.8 1.08 2.78-.06.24-.39.77-.26 1.01.42.82.95 1.46 1.23 2.47v.02c-.17.27-.32.53-.48.78-.22.37-.46.63-.75.75-.09-.14-.29-.25-.42-.31M56.4 50.64c0-.4.31-.73.71-.73s.71.33.71.73-.32.73-.71.73-.71-.33-.71-.73m-5.34 12.09s0-.03.03-.05c.61-1.23 1.61-1.96 2.47-2.38 0 0 .02 0 .04-.02.58-.27 1.08-.42 1.3-.46.09-.03.13-.03.13-.03v.95c-.06.02-.13.03-.19.03v.02c-2.83.7-3.96 2.55-4.09 2.78.09-.3.18-.59.31-.84m10.36 20.19v-.01c-.36-.45-1.09-1.34-2.08-2.36a25 25 0 0 0-1.8-1.7c-.74-.64-2.5-2.3-3.74-4.79-.49-.98-.9-2.09-1.13-3.32-.13-.69-.21-1.41-.21-2.17v-.22c.03-3.09 1.84-4.76 3.03-5.51h3.59c1.17.99 1.55 2.89 1.68 4.17.11 1.08.79 1.16.99 1.16.04 0 .05 0 .09-.02l-.02.87-.05 1.67-.21 7.4-.02.77zm22.7 6.4c-4.12-.07-8.27-.2-11.86-.38l-4.28-20.65-.25-1.24-.99-4.76s-.03-.08-.06-.1l-.39-.35c-.05-.05-.11-.06-.16-.04s-.08.07-.07.12l.23 4.98.41 8.6.08 1.65.11 2.43.43 9.07c-.09 0-.17 0-.26-.02h-.01l-1.28-8.22-2.18-13.91-.72-4.64c2.8-.62 10.25-2.05 18.76-2.01.51 0 1.02 0 1.52.02l.06 1.69.6 18.32zm4.95-28.26c-.18.29-.38.57-.62.79a.8.8 0 0 0-.35-.11c-.34 0-.71 0-1.06.01-.07-.07-.13-.14-.2-.22 0-.01-.02-.01-.04-.03.06-.37.13-.75.19-1.12.05-.29-.92-.82-.97-.53-.06.37-.13.73-.18 1.1-.04.29.49.71.65.9.28.32.57.54.94.58-.3.06-.61.06-.95-.05-.15-.04-.33-.26-.46-.3v-.02c-.18-.36-.57-.67-.73-1.02-.21-.4-.24-.05-.08-.44.02-.05.06-.13.09-.18.08-.18.17-.39.24-.57.04-.07.08-.16.11-.24.04-.09.08-.16.11-.25.4-.9.73-1.98 1.01-2.97.91.75 1.35 2.34 1.85 3.3.16.33.34.65.51 1 .16.3.18-.02-.06.37" class="st0"/><path d="M83.86 48.7s.04-.02.07-.02.09.02.11.02l.02.02c.26.38-.09.84-.26 1.21-.15.26.81.84.93.6.11-.24.27-.48.35-.73.13-.48-.2-.91-.53-1.23-.4-.37-.95-.62-1.5-.57-.26.04-.53.05-.79.09-.2.02.18.38.2.4.18.15.42.31.64.27.16-.02.31-.04.46-.04.11-.02.2-.04.29-.04ZM123.79 64.23l.03-.03c.01-.04.98-2.76 1.63-3.86 0 0-.72 2.19-1.59 3.83.32-.29 1.61-1.45 1.92-2 .77-1.37.62-3.97.62-3.97s-2.15 1.9-2.59 2.83c-.35.74-.02 3.2-.02 3.2" class="st0"/><path d="m123.83 64.2.03-.02v-.01c-.03.02-.03.02-.04.03ZM122.15 61.23c-.73-.74-3.39-1.81-3.39-1.81s.72 2.5 1.91 3.53c.47.41 2.07 1.08 2.48 1.24-1.37-1.25-2.77-3.07-2.77-3.07.98.81 2.76 3.02 2.82 3.09.03.01.05.02.05.02s-.51-2.43-1.09-3.01ZM123.15 64.21l.04.02c-.02 0-.03-.01-.05-.02 0 0 0 .01.01.01ZM122.85 59.56l.03-.03c.01-.05.68-2.85 1.22-4.01 0 0-.48 2.25-1.18 3.97.29-.32 1.45-1.61 1.7-2.19.62-1.44.2-4.01.2-4.01s-1.94 2.11-2.28 3.09c-.27.77.32 3.19.32 3.19Z" class="st0"/><path d="m122.87 59.54.03-.03v-.01c-.02.03-.03.03-.04.04ZM120.85 56.76c-.81-.65-3.56-1.43-3.56-1.43s.99 2.41 2.27 3.31c.52.36 2.19.86 2.6.98-1.5-1.09-3.09-2.77-3.09-2.77 1.06.71 3.1 2.74 3.14 2.78.03 0 .04.01.04.01s-.76-2.36-1.4-2.88" class="st0"/><path d="M122.16 59.62h.04c-.01 0-.03 0-.05-.01h.01ZM119.33 89.06c-.54.24-.95 1.2-1.19 1.98-.03.1-.06.19-.08.28l-.01.01c-.13.48-.19.83-.16.77 0 0 2.66 0 3.69-.57 1.02-.57 2.78-3.73 2.78-3.73s-4.06.84-5.03 1.26m-1.36 3h-.04s2.33-1.61 3.47-2.11c0 0-1.82 1.32-3.43 2.11M118.51 88.86c-.32-.99-2.4-4.58-2.4-4.58s-1.19 3.41-.93 4.56c.26 1.14 2.03 3.13 2.03 3.13-.02.04.14-.16.37-.5q.15-.24.33-.54c.38-.67.77-1.54.6-2.07m-1.32 3.01c-.49-1.73-.71-3.96-.71-3.96.39 1.18.74 3.99.74 3.99zM122.43 82.93s.02 0 .05-.02c.07-.09 2.05-2.55 3.14-3.46 0 0-1.57 2.04-3.09 3.44.44-.18 2.23-.93 2.76-1.39 1.32-1.16 2.12-3.95 2.12-3.95s-2.96 1.2-3.78 2.02c-.65.65-1.21 3.36-1.21 3.36Z" class="st0"/><path d="m122.48 82.92.04-.02.01-.01c-.02 0-.04.01-.05.02ZM121.68 79.16c-.5-1.04-2.9-3.15-2.9-3.15s-.17 2.89.7 4.42c.35.62 1.79 1.92 2.15 2.23-.98-1.82-1.78-4.27-1.78-4.27.74 1.23 1.81 4.26 1.83 4.31.02.02.04.03.04.03s.37-2.75-.03-3.57Z" class="st0"/><path d="m121.64 82.67.04.03s-.03-.03-.05-.04ZM123.71 78.41c.42-.23 2.11-1.19 2.58-1.72 1.17-1.31 1.63-4.17 1.63-4.17s-2.8 1.55-3.51 2.46c-.56.72-.79 3.48-.79 3.48l.04-.02c.01-.02 1.72-2.77 2.71-3.82 0 0-1.31 2.22-2.66 3.79" class="st0"/><path d="M123.7 78.42v-.01c-.02.01-.04.02-.05.03s.04-.02.04-.02ZM122.42 74.81c-.62-.98-3.26-2.78-3.26-2.78s.19 2.89 1.23 4.31c.42.57 2 1.67 2.4 1.95-1.19-1.69-2.28-4.02-2.28-4.02.88 1.13 2.32 4.03 2.34 4.05s.04.03.04.03.03-2.77-.46-3.54Z" class="st0"/><path d="m122.79 78.3.05.02s-.03-.02-.05-.04v.01ZM124.79 70.21c-.52.75-.62 3.52-.62 3.52s.02-.01.04-.03c.02-.04 1.58-2.85 2.51-3.95 0 0-1.2 2.28-2.46 3.91.41-.26 2.04-1.3 2.48-1.84 1.11-1.37 1.42-4.25 1.42-4.25s-2.71 1.69-3.38 2.63ZM124.21 73.71l.05-.02v-.01c-.02.01-.04.02-.05.03M122.9 70.11c-.67-.95-3.4-2.61-3.4-2.61s.33 2.88 1.44 4.24c.44.55 2.07 1.57 2.49 1.83-1.27-1.63-2.48-3.9-2.48-3.9.93 1.08 2.5 3.87 2.53 3.93.03.02.05.03.05.03s-.11-2.77-.64-3.51Z" class="st0"/><path d="m123.45 73.58.05.02s-.03-.02-.05-.04c0 0 0 .01.01.01ZM124.71 65.21c-.46.75-.39 3.43-.39 3.43s.01-.01.04-.03c.01-.03 1.36-2.84 2.19-3.94 0 0-1.02 2.26-2.14 3.91.38-.27 1.89-1.37 2.29-1.92.98-1.38 1.12-4.17 1.12-4.17s-2.52 1.78-3.1 2.73Z" class="st0"/><path d="m124.35 68.62.04-.03v-.01c-.02.02-.03.03-.05.03ZM122.82 65.32c-.7-.87-3.42-2.32-3.42-2.32s.49 2.76 1.63 4c.46.5 2.09 1.39 2.51 1.61-1.32-1.49-2.62-3.61-2.62-3.61.96.99 2.64 3.59 2.67 3.64.03.01.04.02.04.02s-.26-2.66-.82-3.35Z" class="st0"/><path d="m123.55 68.63.05.02s-.03-.02-.05-.04c0 0 0 .01.01.02ZM120.67 87.38s.02 0 .05-.01c.05-.05 2.3-2.32 3.48-3.13 0 0-1.76 1.87-3.42 3.11.47-.14 2.31-.7 2.88-1.11 1.43-1.02 2.51-3.71 2.51-3.71s-3.06.9-3.96 1.63c-.7.58-1.54 3.22-1.54 3.22" class="st0"/><path d="M120.72 87.37h.05s.01-.02.02-.03c-.03 0-.04.02-.06.02ZM120.09 83.82c-.33-1.11-2.39-3.57-2.39-3.57s-.61 2.85.01 4.5c.25.66 1.47 2.16 1.79 2.53-.69-1.95-1.11-4.5-1.11-4.5.53 1.32 1.14 4.47 1.15 4.55.02.02.03.04.03.04s.78-2.67.52-3.55M119.5 87.3l.03.04s-.03-.04-.04-.06v.02ZM117.88 54.43c.52.36 2.18.86 2.59.98-1.49-1.09-3.09-2.76-3.09-2.76 1.07.71 3.13 2.76 3.14 2.78.02 0 .04.01.04.01s-.76-2.36-1.4-2.88c-.67-.54-2.67-1.17-3.34-1.37.02.05.04.09.06.14.02.04-.13.03-.14 0-.03-.06-.06-.12-.08-.19-.04 0-.06-.02-.06-.02s.98 2.41 2.27 3.31ZM120.48 55.42h.04-.05z" class="st0"/><path d="M112.6 45.12s-.17-.04-.14 0c1.25 1.9 2.33 3.93 3.21 6.03.04.01.09.03.16.05-.89-2.11-1.97-4.16-3.23-6.07Z" class="st0"/><path d="M115.9 51.33s-.04-.1-.06-.14c-.07-.02-.13-.04-.16-.05.03.06.06.12.08.19.02.04.16.05.14 0M122.94 49.13c-.41.52-1.73 2.22-1.97 3.05-.23.79.49 3.16.49 3.16s.01-.02.03-.04c.01-.08.52-2.89.99-4.07 0 0-.35 2.27-.95 4.02.28-.34 1.35-1.69 1.57-2.28.54-1.48-.03-4.01-.03-4.01s-.02.03-.05.07c0 .02.02.05.04.07.01.03-.06.03-.11.02Z" class="st0"/><path d="m121.48 55.31.03-.03v-.02c-.01.02-.03.03-.04.05ZM122.94 49.13s.05-.06.07-.09c-.99-2.08-2.19-4.09-3.54-5.95-.03-.04-.17-.04-.15 0 1.37 1.88 2.58 3.91 3.58 6.02 0 .01.02.02.04.03Z" class="st0"/><path d="M123.05 49.11s-.03-.05-.04-.07c-.02.02-.04.05-.07.09.05.01.12.01.11-.02M117.42 46.39c-.06-.11-.13-.22-.19-.33.02.46.14 2.87.53 3.72.35.74 2.46 2.05 2.46 2.05v-.04c-.01-.03-1.51-2.5-1.95-3.72 0 0 1.24 1.95 1.95 3.66-.02-.42-.1-2.17-.33-2.76-.47-1.21-1.98-2.46-2.5-2.86.06.1.12.19.17.29.02.03-.12.03-.15 0ZM120.22 51.78v-.04.05ZM117.23 46.06v-.08l.18.13c-1.11-1.94-2.38-3.81-3.82-5.52-.03-.03-.17-.04-.13 0 1.41 1.69 2.68 3.54 3.78 5.46Z" class="st0"/><path d="M117.23 46.06c.06.11.13.22.19.33.03.04.17.04.15 0-.06-.1-.11-.19-.17-.29-.11-.09-.18-.13-.18-.13v.08ZM111.31 101.92c3.36-4.51 6.5-10.93 6.54-11.02l.32.16c-.18.38-3.24 6.63-6.58 11.09l-.29-.22ZM15.49 64.23s-.03-.02-.04-.03c-.02-.04-.97-2.76-1.63-3.86 0 0 .72 2.19 1.59 3.83-.32-.29-1.61-1.45-1.92-2-.77-1.37-.62-3.97-.62-3.97s2.15 1.9 2.59 2.83c.35.74.02 3.2.02 3.2Z" class="st0"/><path d="m15.45 64.2-.03-.02v-.01c.02.02.03.02.04.03ZM17.13 61.23c.73-.74 3.39-1.81 3.39-1.81s-.72 2.5-1.91 3.53c-.47.41-2.07 1.08-2.48 1.24 1.37-1.25 2.78-3.07 2.78-3.07-.98.81-2.76 3.02-2.82 3.09a.1.1 0 0 0-.04.02s.51-2.43 1.09-3.01ZM16.13 64.21l-.04.02c.02 0 .03-.01.05-.02v.01ZM16.43 59.56l-.03-.03c-.01-.05-.68-2.85-1.22-4.01 0 0 .48 2.25 1.18 3.97-.29-.32-1.45-1.61-1.7-2.19-.62-1.44-.2-4.01-.2-4.01s1.93 2.11 2.28 3.09c.27.77-.32 3.19-.32 3.19Z" class="st0"/><path d="m16.4 59.54-.03-.03v-.01c.02.03.03.03.04.04ZM18.43 56.76c.81-.65 3.56-1.43 3.56-1.43s-.99 2.41-2.27 3.31c-.52.36-2.19.86-2.6.98 1.5-1.09 3.09-2.77 3.09-2.77-1.06.71-3.1 2.74-3.14 2.78-.03 0-.04.01-.04.01s.76-2.36 1.4-2.88" class="st0"/><path d="M17.12 59.62h-.04c.02 0 .03 0 .05-.01ZM21.18 91.21s-.01-.02-.01-.03c0-.04-.02-.09-.04-.14-.24-.78-.64-1.75-1.18-1.99-.97-.42-5.03-1.26-5.03-1.26s1.76 3.16 2.79 3.73c1.02.57 3.68.57 3.68.57 0-.04-.07-.41-.21-.88m-3.3-1.27c1.14.5 3.47 2.11 3.47 2.11h-.04c-1.61-.79-3.43-2.11-3.43-2.11M23.18 84.27s-2.09 3.59-2.41 4.58c-.17.53.21 1.39.6 2.07.1.16.19.32.29.45 0 .02 0 .04.03.06.23.35.41.58.39.53 0 0 1.76-1.99 2.02-3.13.26-1.15-.92-4.56-.92-4.56m-1.09 7.6-.03.03s.35-2.81.74-3.99c0 0-.22 2.23-.71 3.96M16.85 82.93s-.02 0-.05-.02c-.07-.09-2.06-2.55-3.15-3.46 0 0 1.57 2.04 3.09 3.44-.44-.18-2.23-.93-2.76-1.39-1.32-1.16-2.12-3.95-2.12-3.95s2.96 1.2 3.78 2.02c.65.65 1.21 3.36 1.21 3.36" class="st0"/><path d="m16.8 82.92-.05-.02-.02-.01c.02 0 .04.01.05.02ZM17.59 79.16c.5-1.04 2.9-3.15 2.9-3.15s.17 2.89-.7 4.42c-.35.62-1.79 1.92-2.15 2.23.98-1.82 1.78-4.27 1.78-4.27-.74 1.23-1.81 4.26-1.83 4.31-.02.02-.04.03-.04.03s-.37-2.75.03-3.57Z" class="st0"/><path d="m17.64 82.67-.04.03s.02-.03.04-.04ZM15.57 78.41c-.42-.23-2.1-1.19-2.58-1.72-1.17-1.31-1.63-4.17-1.63-4.17s2.8 1.55 3.51 2.46c.56.72.79 3.48.79 3.48l-.04-.02c-.02-.02-1.73-2.77-2.71-3.82 0 0 1.3 2.22 2.65 3.79Z" class="st0"/><path d="M15.58 78.42v-.01c.02.01.04.02.05.03s-.05-.02-.05-.02M16.86 74.81c.62-.98 3.26-2.78 3.26-2.78s-.19 2.89-1.23 4.31c-.41.57-2 1.67-2.4 1.95 1.19-1.69 2.28-4.02 2.28-4.02-.88 1.13-2.32 4.03-2.34 4.05s-.04.03-.04.03-.03-2.77.46-3.54Z" class="st0"/><path d="m16.49 78.3-.04.02s.03-.02.05-.04c0 0 0 .01-.01.01ZM14.49 70.21c.52.75.62 3.52.62 3.52s-.02-.01-.04-.03c-.02-.04-1.59-2.85-2.52-3.95 0 0 1.2 2.28 2.46 3.91-.41-.26-2.04-1.3-2.48-1.84-1.1-1.37-1.42-4.25-1.42-4.25s2.71 1.69 3.38 2.63Z" class="st0"/><path d="m15.07 73.71-.04-.02-.01-.01.06.03ZM16.38 70.11c.67-.95 3.39-2.61 3.39-2.61s-.33 2.88-1.44 4.24c-.44.55-2.07 1.57-2.49 1.83 1.27-1.63 2.48-3.9 2.48-3.9-.93 1.08-2.5 3.87-2.53 3.93-.03.02-.04.03-.04.03s.11-2.77.64-3.51Z" class="st0"/><path d="m15.83 73.58-.05.02s.03-.02.05-.04c0 0 0 .01-.01.01ZM14.58 65.21c.46.75.39 3.43.39 3.43s-.01-.01-.04-.03c-.01-.03-1.36-2.84-2.19-3.94 0 0 1.02 2.26 2.14 3.91-.38-.27-1.89-1.37-2.29-1.92-.98-1.38-1.12-4.17-1.12-4.17s2.52 1.78 3.1 2.73Z" class="st0"/><path d="m14.93 68.62-.04-.03v-.01c.02.02.03.03.05.03ZM16.46 65.32c.7-.87 3.42-2.32 3.42-2.32s-.49 2.76-1.63 4c-.46.5-2.09 1.39-2.51 1.61 1.32-1.49 2.61-3.61 2.61-3.61-.96.99-2.64 3.59-2.67 3.64a.1.1 0 0 0-.04.02s.27-2.66.82-3.35Z" class="st0"/><path d="m15.73 68.63-.05.02s.03-.02.05-.04c0 0 0 .01-.01.02ZM18.61 87.38s-.02 0-.05-.01c-.05-.05-2.3-2.32-3.48-3.13 0 0 1.76 1.87 3.42 3.11-.47-.14-2.31-.7-2.88-1.11-1.43-1.02-2.51-3.71-2.51-3.71s3.07.9 3.96 1.63c.7.58 1.54 3.22 1.54 3.22" class="st0"/><path d="M18.56 87.37h-.05s-.01-.02-.02-.03c.03 0 .04.02.06.02ZM19.19 83.82c.34-1.11 2.39-3.57 2.39-3.57s.6 2.85-.02 4.5c-.25.66-1.47 2.16-1.78 2.53.69-1.95 1.11-4.5 1.11-4.5-.54 1.32-1.14 4.47-1.15 4.55-.02.02-.03.04-.03.04s-.78-2.67-.52-3.55" class="st0"/><path d="m19.77 87.3-.03.04s.03-.04.04-.06v.02ZM21.4 54.43c-.51.36-2.18.86-2.59.98 1.5-1.09 3.09-2.76 3.09-2.76-1.07.71-3.12 2.76-3.14 2.78-.02 0-.04.01-.04.01s.76-2.36 1.4-2.88c.67-.54 2.67-1.17 3.34-1.37-.02.05-.04.09-.06.14-.01.04.13.03.15 0 .02-.06.05-.12.08-.19.03 0 .06-.02.06-.02s-.98 2.41-2.27 3.31ZM18.79 55.42h-.04.05z" class="st0"/><path d="M26.68 45.12s.17-.04.15 0c-1.25 1.9-2.33 3.93-3.21 6.03-.04.01-.09.03-.17.05.89-2.11 1.97-4.16 3.23-6.07Z" class="st0"/><path d="M23.38 51.33s.04-.1.06-.14c.07-.02.13-.04.17-.05-.03.06-.06.12-.08.19-.02.04-.16.05-.15 0M16.34 49.13c.41.52 1.74 2.22 1.98 3.05.23.79-.5 3.16-.5 3.16s-.01-.02-.03-.04c-.01-.08-.52-2.89-.99-4.07 0 0 .35 2.27.95 4.02-.28-.34-1.35-1.69-1.57-2.28-.54-1.48.03-4.01.03-4.01s.02.03.05.07c0 .02-.02.05-.03.07-.01.03.06.03.11.02Z" class="st0"/><path d="m17.79 55.31-.03-.03v-.02c.02.02.03.03.04.05ZM16.34 49.13s-.05-.06-.07-.09c1-2.08 2.19-4.09 3.54-5.95.03-.04.17-.04.15 0a38.4 38.4 0 0 0-3.58 6.02c0 .01-.02.02-.04.03Z" class="st0"/><path d="M16.24 49.11s.02-.05.03-.07c.02.02.05.05.07.09-.05.01-.12.01-.11-.02ZM21.86 46.39c.06-.11.13-.22.19-.33-.02.46-.14 2.87-.54 3.72-.35.74-2.46 2.05-2.46 2.05v-.04c.02-.03 1.51-2.5 1.95-3.72 0 0-1.24 1.95-1.95 3.66.02-.42.1-2.17.33-2.76.47-1.21 1.98-2.46 2.49-2.86-.06.1-.12.19-.17.29-.02.03.13.03.15 0ZM19.06 51.78v-.04.05Z" class="st0"/><path d="M22.06 46.06v-.08s-.07.05-.17.13c1.1-1.94 2.39-3.81 3.81-5.52.03-.03.17-.04.14 0-1.42 1.69-2.68 3.54-3.78 5.46Z" class="st0"/><path d="M22.06 46.06c-.06.11-.13.22-.19.33-.02.04-.17.04-.15 0 .06-.1.12-.19.17-.29.11-.09.17-.13.17-.13v.08ZM27.96 101.92c-3.36-4.51-6.5-10.93-6.54-11.02l-.32.16c.18.38 3.24 6.63 6.58 11.09l.29-.22ZM33.6 33.29l-.34-.33c-.32-.31-.62-.52-.9-.61s-.57-.09-.86.01a1.6 1.6 0 0 0 .01-.82c-.04-.13-.1-.27-.19-.41-.09-.13-.22-.28-.38-.44l-.22-.22a3 3 0 0 0-.65-.49c-.24-.13-.49-.2-.75-.22s-.52.02-.79.13c-.27.1-.54.29-.8.56l-1.2 1.22 6.08 5.95 1.11-1.14c.54-.55.79-1.08.74-1.61-.04-.53-.32-1.05-.86-1.58m-3.39-.39-.37.37-1.67-1.63.34-.35c.27-.28.53-.4.77-.38.24.03.5.18.77.45.28.27.44.52.49.76q.09.36-.33.78m3.01 2.21c-.04.15-.14.3-.31.47l-.35.36-1.95-1.9.36-.37c.15-.16.29-.26.42-.31.13-.06.26-.07.39-.05q.195.03.39.18c.13.09.27.22.42.37.15.14.28.28.4.41.11.14.19.27.23.41s.04.28 0 .43M45.45 27.4l1.07-.64-3.07-2.69q.315-.57.24-1.14c-.075-.57-.21-.78-.46-1.2-.85-1.44-1.86-1.8-3.05-1.1l-1.61.96 4.34 7.32 1-.6-1.85-3.12.6-.36zm-2.99-3.8c-.07.12-.2.23-.38.33l-.57.34-1.35-2.28.52-.31c.18-.11.35-.17.49-.19s.27 0 .39.07c.12.06.23.15.34.28.1.13.21.29.32.47.1.19.19.36.26.51q.09.225.09.42c0 .195-.03.25-.11.36M58.14 21.01l-2.22.64-.69-2.4 1.94-.55-.31-1.11-1.94.56-.69-2.4 2.23-.64-.32-1.1-3.35.96 2.34 8.18 3.35-.97zM72.52 12.21l-.54 5.53h-.02l-.98-5.53h-.9l-.88 5.41h-.03l-.61-5.39h-1.24l1.26 8.5h1.1l.85-5.53h.03l.92 5.52h1.1l1.17-8.52h-1.23ZM85.19 13.92l-2.09 8.24 1.14.29 2.08-8.24zM99.98 19.67l-2.41 4.52h-.02l.85-5.36-1-.53-3.99 7.51 1.03.55 2.4-4.52.02.02-.82 5.35.97.52 4-7.51zM112.55 28.99c-.11-.22-.26-.42-.43-.58a1.9 1.9 0 0 0-.6-.38c-.23-.1-.48-.15-.73-.15-.25-.01-.51.05-.77.16-.27.12-.52.3-.75.55l-3.07 3.28c-.24.25-.41.52-.5.78-.09.27-.13.53-.11.78.02.26.09.5.2.72s.25.42.42.58c.18.16.37.29.61.38q.345.15.72.15c.375 0 .52-.05.77-.16.26-.11.52-.3.75-.55l1.83-1.95-1.53-1.44-.73.79.67.63-1.09 1.17c-.2.22-.41.32-.62.31a.8.8 0 0 1-.54-.22.83.83 0 0 1-.27-.54c-.02-.21.07-.42.28-.63l3.06-3.28c.21-.22.41-.32.62-.32.21.01.39.09.55.23.16.15.24.33.26.53.02.21-.07.42-.27.64l-.3.31.86.8.29-.31c.24-.25.4-.51.5-.78a1.92 1.92 0 0 0-.08-1.5M35.33 105.77c-.1-.22-.25-.43-.45-.61-.21-.19-.43-.33-.67-.41-.24-.09-.48-.12-.72-.11s-.48.08-.71.19q-.345.165-.63.48l-3.17 3.44c-.27.29-.44.57-.53.83-.08.27-.11.52-.08.76s.11.46.23.66c.13.21.27.38.43.53.2.18.41.3.65.38.24.07.48.1.73.08.24-.01.48-.08.71-.19s.44-.26.62-.45l.35-.39-.86-.8-.28.31c-.11.13-.23.21-.33.26a.8.8 0 0 1-.31.08.8.8 0 0 1-.27-.07.7.7 0 0 1-.21-.13c-.2-.18-.28-.37-.24-.56.04-.2.14-.38.31-.57l2.94-3.19c.2-.21.39-.36.59-.43s.4-.01.62.19c.16.15.23.33.21.55-.03.22-.12.41-.28.59l-.28.3.86.79.33-.35c.2-.22.35-.45.45-.7s.15-.5.14-.74q0-.375-.15-.72M45.96 113.59c-.08-.24-.2-.46-.36-.65-.17-.19-.35-.34-.56-.45-.21-.12-.43-.19-.68-.23s-.49-.02-.74.04-.48.17-.71.35c-.23.17-.43.41-.59.71l-2.17 3.94c-.17.3-.26.6-.29.88q-.03.42.09.78c.08.24.2.46.36.65.17.19.35.34.56.45.2.12.43.19.68.23.25.03.49.02.74-.04s.48-.17.7-.35c.23-.16.43-.4.6-.71l2.17-3.93c.16-.31.26-.6.28-.89.03-.28 0-.54-.08-.78m-1.23 1.1-2.17 3.93c-.14.26-.31.41-.52.46-.2.05-.4.02-.58-.08a.84.84 0 0 1-.39-.46c-.07-.19-.03-.42.11-.68l2.16-3.93c.15-.26.32-.41.53-.46.2-.05.4-.02.58.08.19.11.32.26.39.46.07.19.03.42-.11.68M58.93 117.79l-2.54 4.02h-.02l-.37-4.74-1.09-.28-2.06 8.26 1.14.28 1.25-5.02h.02l.23 3.83.57.14 2.01-3.26h.02l-1.25 5.02 1.13.28 2.06-8.25zM72.58 120.33q-.12-.45-.42-.78c-.2-.22-.42-.37-.67-.46a2.8 2.8 0 0 0-.85-.12l-1.75.02.1 8.51 1.17-.02-.04-3.32h.6c.43-.01.78-.09 1.05-.25q.39-.24.63-.66c.14-.24.22-.49.26-.75.04-.27.06-.59.05-.96 0-.51-.05-.92-.13-1.21m-.98 1.81c0 .17-.04.32-.1.45-.06.12-.15.22-.28.29s-.31.11-.55.12h-.56l-.04-2.89h.61c.23-.01.4.03.53.1.12.08.21.18.27.31s.09.29.11.46c.01.18.02.37.02.57.01.22 0 .41 0 .59ZM83.13 117.32l-.94.23.27 8.7 1.14-.28-.11-1.86 1.55-.39.77 1.69 1.14-.28zm.29 5.62-.19-3.13h.02l1.3 2.84zM99.32 119.95l.97-.52-4-7.51-1.03.55 2.41 4.52h-.02l-3.97-3.68-.99.53 4 7.51 1.03-.55-2.4-4.51.02-.02zM108.52 108.92l-2.09-4.73-.92.83 1.56 3.14-.02.02-2.95-1.89-.93.83 4.48 2.58 2.4 2.67.87-.78zM40.24 83.03C38.08 81.68 35.76 81 33.35 81c-2.2 0-4.55.57-6.97 1.7l-.62-.78c1.66-2.14 3.4-3.57 5.17-4.26l-.64-7.81c-.05-.41-.07-.77-.07-1.13 0-.55.05-1.14.16-1.76.25-1.64.85-3.01 1.78-4.08-.55-.01-1.05-.07-1.54-.18a5.6 5.6 0 0 1-1.91-.79c-1.52-1-2.36-2.67-2.51-4.96l.97-.33c.46.86 1.17 1.47 2.19 1.86.39.16.82.25 1.35.3.36.04.85.06 1.48.06.47 0 1.14-.01 2.01-.04l1.02-.03 1.05-.02c1.63 0 3.03.17 4.16.49 1.51.43 2.52 1.17 3 2.17.31.6.47 1.29.47 2.06 0 .12-.01.24-.02.36-.03.83-.25 1.63-.64 2.36-.37.73-.93 1.57-1.66 2.5-.33.4-.66.78-.98 1.13 2.48.54 3.83 1.6 4.04 3.14v.28c0 1.88-1.19 5.03-3.66 9.6l-.73.19Zm-5.01-5.84c1.61.03 3.04.48 4.28 1.35.43-1.27.64-2.33.64-3.16 0-.99-.31-1.61-.96-1.87-.99-.38-1.92-.57-2.74-.57-.28 0-.55.02-.8.06v.42c0 1.2-.14 2.46-.41 3.77Zm.44-14.23c-.38.79-.57 1.84-.57 3.13 0 .24 0 .49.02.74l.23 2.69c.19-.07.42-.16.7-.3.59-.26 1.18-.59 1.81-1.01 1.39-.93 2.13-1.82 2.13-2.55 0-.83-.4-1.45-1.24-1.92-.67-.37-1.62-.62-2.83-.76l-.26-.03Z" class="st0"/><path d="M26.7 56.87c.51.96 1.32 1.66 2.46 2.1.42.17.91.28 1.49.33.36.04.87.06 1.52.06.47 0 1.15-.01 2.03-.04l1.02-.03 1.04-.02c1.6 0 2.93.16 4.01.47 1.36.39 2.26 1.02 2.68 1.9.28.54.42 1.16.42 1.84 0 .1-.01.21-.02.31-.03.77-.22 1.49-.58 2.16-.36.71-.9 1.52-1.61 2.42-.58.71-1.13 1.3-1.63 1.78 2.85.43 4.38 1.39 4.58 2.88v.21c0 1.79-1.2 4.9-3.6 9.36-2.26-1.41-4.65-2.11-7.16-2.11-2.31 0-4.7.59-7.19 1.75 1.73-2.23 3.5-3.63 5.31-4.22l-.67-8.2c-.04-.34-.07-.7-.07-1.09q0-.78.15-1.68c.32-2.07 1.19-3.63 2.59-4.7h-1.04l-.28.02c-.5-.01-.98-.07-1.43-.17-.65-.14-1.22-.38-1.74-.72q-2.07-1.365-2.28-4.56zm8.19 13.32c.33-.05.79-.21 1.38-.49.66-.29 1.28-.65 1.88-1.05 1.58-1.06 2.36-2.05 2.36-2.98q0-1.53-1.5-2.37c-.75-.41-1.76-.68-3.02-.82l-.61-.06c-.53.9-.79 2.13-.79 3.68 0 .27.01.55.02.83l.14 1.63zm-.3 7.52c.16-.01.32-.01.47-.01 1.83 0 3.39.56 4.7 1.68.61-1.65.91-2.98.91-4 0-1.21-.43-2-1.28-2.35-1.05-.4-2.03-.61-2.94-.61-.46 0-.9.05-1.33.16v.84q0 2.04-.54 4.29m-6.97-21.33-1.94.48v.12c.16 2.46 1.09 4.26 2.74 5.35.64.42 1.32.7 2.09.87.22.05.44.09.67.12-.66 1-1.1 2.19-1.31 3.57-.11.64-.16 1.26-.16 1.84 0 .37.02.76.08 1.21l.6 7.4c-1.74.77-3.43 2.2-5.03 4.27l1.25 1.57c2.35-1.1 4.63-1.65 6.75-1.65 2.31 0 4.54.66 6.61 1.95l1.45-.39c2.51-4.66 3.72-7.88 3.72-9.85v-.35c-.22-1.59-1.43-2.71-3.61-3.36.14-.17.29-.33.43-.51.77-.97 1.34-1.84 1.73-2.61.41-.77.65-1.64.69-2.55.01-.12.02-.26.02-.38 0-.85-.18-1.63-.54-2.31-.53-1.12-1.65-1.94-3.31-2.42-1.18-.34-2.62-.51-4.29-.51l-1.06.02-1.03.03c-.96.03-1.62.04-2 .04-.61 0-1.08-.02-1.41-.05-.5-.04-.89-.13-1.22-.26-.91-.35-1.54-.88-1.94-1.63Zm8.03 10.48c0-.28-.02-.53-.02-.77 0-1.04.13-1.91.38-2.58 1.07.13 1.92.36 2.52.69.85.48.96 1.03.96 1.47 0 .25-.19.97-1.9 2.12-.61.41-1.17.72-1.72.96-.02 0-.03.02-.05.02l-.03-.31zm.52 6.6h.29c.76 0 1.63.18 2.57.54.17.07.62.25.62 1.39 0 .63-.14 1.42-.42 2.36-1.01-.59-2.14-.93-3.37-1.04.2-1.12.3-2.2.31-3.24Z"/><path d="M50.05 81.23c-.14 0-.3-.03-.45-.05-.31-.05-.54-.1-.76-.16-.64-.19-1.19-.46-1.7-.81-1.44-1.01-2.37-2.66-2.75-4.91-.12-.62-.18-1.29-.18-2.04 0-.81.08-1.65.25-2.5.6-2.96 2.18-4.91 4.7-5.81.22-.09.48-.17.75-.24l.54.2 3.5 4.85-.1.71-5.44 4.18c.09.26.2.52.32.76.25.46.55.85.89 1.16.71.66 1.62.99 2.72 1 .42 0 .81-.04 1.22-.11l.41.92-3.57 2.73-.35.11ZM48.3 68.59c-.25.71-.38 1.55-.38 2.53 0 .33.02.69.05 1.1l1.9-1.45-1.58-2.17Z" class="st0"/><path d="m50.03 65.22 2.42 3.35 1.08 1.5-.09.07-.78.6L49.72 73l-1.92 1.47c.12.41.27.8.46 1.18.28.51.61.95 1 1.31.81.75 1.84 1.13 3.07 1.14h.06q.6 0 1.26-.12l-.84.64-2.73 2.09a8 8 0 0 1-.47-.05c-.22-.04-.43-.08-.64-.14-.56-.17-1.07-.41-1.54-.74-1.33-.93-2.18-2.46-2.54-4.57-.12-.63-.17-1.28-.17-1.95q0-1.17.24-2.4c.56-2.77 2.01-4.58 4.37-5.42.22-.09.46-.16.7-.22m-2.46 7.95 1.85-1.42 1.17-.89-1.48-2.04-.91-1.25c-.52.9-.79 2.08-.79 3.54 0 .63.06 1.32.16 2.06m2.21-8.95c-.33.08-.6.17-.84.27-2.66.95-4.35 3.03-4.99 6.17-.17.89-.26 1.76-.26 2.6 0 .78.06 1.48.19 2.14.4 2.37 1.4 4.13 2.96 5.22.55.39 1.15.67 1.83.88.27.08.51.12.75.17h.06c.18.03.36.05.53.06l.7-.21 2.73-2.09.84-.64-.81-1.83c-.38.07-.74.1-1.08.1h-.06c-.97 0-1.75-.29-2.37-.87-.3-.27-.56-.63-.8-1.05-.05-.1-.1-.21-.15-.32l1.33-1.02 2.94-2.26.78-.6.09-.07.2-1.42-1.08-1.5-2.42-3.35-1.09-.4Zm-1.34 6.99v-.09c0-.48.03-.92.09-1.33l.63.87-.37.28z"/><path d="M59.09 81.23c-.15 0-.3-.03-.46-.05-.31-.05-.54-.1-.76-.16-.64-.19-1.19-.46-1.7-.81-1.44-1.01-2.37-2.66-2.75-4.91-.08-.42-.13-.82-.15-1.21-.02-.26-.03-.54-.03-.83 0-.81.08-1.65.25-2.5.65-3.24 2.48-5.27 5.45-6.04l.55.2 2.75 3.8.75 1.05-.11.71-.8.62-4.65 3.56c.09.27.2.52.32.76.25.45.55.85.88 1.17.73.67 1.65 1 2.79 1h.13c.31-.01.66-.04 1.04-.11l.41.92-3.57 2.73-.35.11Zm-1.75-12.64c-.25.71-.38 1.55-.38 2.52 0 .33.02.7.05 1.1l1.9-1.45-1.58-2.17Z" class="st0"/><path d="m59.07 65.22 2.75 3.8.75 1.05-.09.07-.71.55-4.93 3.78c.12.41.27.8.46 1.18.28.51.61.95.99 1.31.83.76 1.88 1.14 3.14 1.14.04 0 .09 0 .13-.01.36 0 .74-.04 1.13-.11l-1.15.88-2.21 1.69-.21.16a8 8 0 0 1-.47-.05c-.22-.04-.43-.08-.64-.14-.56-.17-1.07-.41-1.54-.74-1.33-.93-2.18-2.46-2.54-4.57-.07-.38-.12-.76-.14-1.15-.02-.26-.03-.53-.03-.8q0-1.17.24-2.4.915-4.56 5.07-5.64m-2.46 7.95 3.02-2.31-2.39-3.29c-.52.9-.79 2.08-.79 3.54 0 .63.06 1.32.16 2.06m2.2-8.94c-3.17.82-5.13 2.99-5.82 6.44-.17.88-.26 1.76-.26 2.6 0 .3.01.6.03.88q.03.585.15 1.26c.4 2.37 1.4 4.14 2.96 5.23.55.39 1.15.67 1.83.88.27.08.51.12.75.17h.06c.18.03.36.05.53.06l.69-.21.21-.16 2.21-1.69 1.15-.88-.81-1.83c-.35.06-.67.09-.95.09l-.25.03c.08-.02.13-.02.14-.02-1.02 0-1.82-.28-2.46-.87a4.2 4.2 0 0 1-.78-1.05c-.05-.1-.1-.21-.14-.32l4.34-3.33.71-.55.09-.07.21-1.41-.75-1.05-2.75-3.81zm-1.33 6.98v-.1q0-.72.09-1.32l.63.87z"/><path d="m65.08 81.15-.26-.15-.09-.06c-.09-.07-.19-.13-.27-.2q-.195-.135-.39-.33c-.3-.29-.55-.62-.74-1-.24-.48-.35-.97-.35-1.49v-8.18c0-.54-.16-.99-.5-1.38-.18-.2-.35-.35-.49-.42l-.07-.87 2.6-1.93.31-.1.24.05-.1.53.23-.46.1.05s.25.16.3.2c.16.12.27.21.37.3.25.21.48.47.7.79l.05.1c.08.12.14.25.2.37l2.56-1.88.49-.07c1.14.44 1.99 1.11 2.52 1.98l-.13.68-2.65 1.96-.82-.39c0-.23-.17-.46-.46-.68l-1.21.88v7.02c0 .17.02.35.07.53.03.11.06.21.1.32.07.18.18.36.34.55.18.22.34.37.48.44l.07.87-2.61 1.93-.32-.07v.15l-.25-.06Z" class="st0"/><path d="M69.79 65.52c1.04.4 1.79.99 2.26 1.77l-2.65 1.96c-.02-.48-.35-.91-1-1.28l-.42.31-1.28.93v7.28a2.8 2.8 0 0 0 .2 1.03c.1.26.25.49.43.7.21.26.42.45.63.56l-1.07.79-1.12.83-.42.31v-.02h-.03l-.04-.02-.08-.05-.13-.07c-.1-.07-.2-.14-.29-.21q-.18-.135-.36-.3c-.26-.25-.47-.54-.63-.85a2.8 2.8 0 0 1-.29-1.25v-8.18c0-.67-.21-1.24-.63-1.72-.22-.25-.43-.43-.64-.54l1.36-1.01 1.24-.92.06.03.07.04.1.05c.09.06.17.12.27.18.1.08.2.16.29.24.25.21.45.45.62.7a.3.3 0 0 1 .04.08c.19.3.31.61.36.94l1.08-.79 2.06-1.52m-4.94-.98-.62.2-1.24.92-1.36 1.01.14 1.74c.05.03.16.1.35.31.25.29.37.62.37 1.04v8.18c0 .59.13 1.16.39 1.7q.345.66.84 1.14c.16.15.31.27.45.38.09.07.19.14.3.22l.12.08.1.05.05.03.09.05.5.13v-.34l.64.16.42-.31 1.12-.83 1.07-.79-.13-1.74s-.13-.07-.31-.29c-.14-.16-.22-.29-.27-.42a1.6 1.6 0 0 1-.13-.66v-6.75l.63-.46v.02l1.64.79 2.65-1.96.27-1.36c-.59-.98-1.52-1.72-2.77-2.2l-.98.13-2.06 1.52h-.02c-.25-.35-.51-.64-.81-.89-.08-.07-.19-.16-.31-.26l-.11-.08s-.08-.05-.12-.08l-.11-.07-.11-.06-.08-.04-.05-.03-.05-.03-.06-.03-.46-.11Z"/><path d="M74.51 81.23c-.6 0-1.27-.22-2-.67-1.28-.78-1.98-1.76-2.08-2.92l.21-.46 2.44-1.8.8.28c.06.23.18.47.35.71.45.66.99 1.07 1.6 1.24.08.02.16.03.22.03.16 0 .21-.05.27-.15 0 0 .02-.05.04-.14v-.12l.02-.15c0-.13 0-.2-.02-.26-.18-.9-.83-1.61-1.98-2.19-1.22-.61-2.12-1.11-2.52-1.39-1.03-.79-1.55-1.72-1.55-2.79v-.19c.07-1 .44-1.81 1.1-2.44l.2-.17 3.41-2.55.26-.1c.14-.01.26-.02.39-.02.81 0 1.63.29 2.43.87.91.65 1.51 1.4 1.83 2.28l-.18.59-2.51 1.87-.6-.3-.19.07s-.08-.14-.45-.62c-.35-.42-.65-.71-.92-.86-.23-.15-.54-.24-.9-.28-.16.1-.21.21-.21.37.01.06.02.15.06.25.03.07.06.14.11.23.08.12.56.63 2.63 1.82 1.76 1.02 2.7 2.04 2.87 3.12.1.51.15 1.03.15 1.53q0 .315-.03.6-.18 1.29-.93 2.07c-.12.11-1.09.84-2.88 2.19-.43.32-.91.47-1.44.47Z" class="st0"/><path d="M75.66 65.48c.71 0 1.42.26 2.13.77.81.58 1.36 1.25 1.65 2.04l-2.51 1.87s-.17-.3-.52-.75c-.39-.47-.74-.8-1.07-.99-.28-.18-.65-.3-1.1-.35h-.07c-.13 0-.23.03-.3.07l-.04.04a.93.93 0 0 0-.37.77v.04c.02.11.04.24.09.38.04.1.08.19.14.3.28.42 1.23 1.1 2.83 2.02 1.61.93 2.48 1.85 2.62 2.75.1.53.14 1.02.14 1.45 0 .19 0 .37-.03.54-.1.74-.36 1.33-.79 1.77-.07.06-1.01.78-2.82 2.14-.34.25-.72.37-1.13.37-.51 0-1.09-.2-1.73-.59-1.13-.69-1.75-1.54-1.84-2.53l2.44-1.8q.12.435.42.87c.53.77 1.17 1.25 1.89 1.44.13.03.24.05.35.05q.495 0 .72-.42c.03-.06.06-.14.09-.26v-.25c.02-.07.02-.14.02-.21 0-.1 0-.2-.03-.3q-.315-1.575-2.25-2.55c-1.28-.64-2.1-1.1-2.45-1.35-.89-.68-1.33-1.47-1.33-2.37v-.19c.06-.83.37-1.52.94-2.07l.18-.16 3.38-2.52c.11-.01.22-.02.34-.02m.01-1.03c-.15 0-.29.01-.43.02l-.52.2-3.38 2.52-.07.06-.18.16c-.78.75-1.2 1.67-1.28 2.77v.26c0 1.24.58 2.31 1.73 3.19.56.4 1.73 1.01 2.62 1.45 1 .5 1.55 1.1 1.7 1.83v.11s0-.04.02-.08l-.02.14c-.43-.14-.84-.47-1.2-1-.13-.19-.23-.38-.28-.56l-1.61-.56-2.44 1.8-.42.92c.08.91.55 2.23 2.33 3.32.81.49 1.57.74 2.27.74.64 0 1.23-.19 1.74-.57 1.33-1 2.74-2.07 2.88-2.19l.06-.06c.58-.6.94-1.39 1.07-2.35.03-.23.04-.45.04-.68 0-.53-.05-1.08-.16-1.64-.19-1.21-1.21-2.35-3.12-3.45-.28-.16-.53-.31-.75-.44l1.26.63 2.51-1.87.35-1.18c-.36-.97-1.04-1.82-2.02-2.52-.89-.64-1.81-.96-2.73-.96Zm-.34 5.28c-.34-.24-.54-.4-.65-.5.04.02.08.04.11.06l.04.03c.1.06.26.18.49.42Z"/><path d="m82.4 81.16-.15-.08-.13-.08c-.13-.1-.22-.16-.32-.22-.17-.14-.29-.25-.42-.37-.31-.28-.57-.62-.75-.99-.23-.46-.35-.94-.35-1.47V67.69h-.77l-.47-.72.7-1.64.47-.31h.08c-.03-.49-.09-.75-.15-.88q-.12-.3-.36-.57a2.2 2.2 0 0 0-.49-.42l-.05-.86 2.61-1.92.31-.1.24.05.3.17c.13.07.26.16.38.27.11.08.25.18.37.31l.14.14c.22.23.41.5.58.84.24.48.36.98.36 1.51v1.46h.97l.47.72-.26.6-.44 1.04-.47.32h-.27v8.84c0 .54.16.99.5 1.38.12.13.26.28.39.37l.16.92-2.6 1.93-.33-.02v.1l-.26-.05Z" class="st0"/><path d="M82.17 60.77h.02l.03.03.09.05.12.07q.165.09.3.21c.12.09.24.18.35.29l.13.13c.21.22.37.47.5.72.2.4.3.82.3 1.27v1.98h1.49l-.26.6-.44 1.04h-.79v9.36c0 .67.21 1.24.63 1.72.17.19.33.35.5.46.04.03.09.06.13.08l-.13.1-1.33.99-1.13.84-.02-.02h-.03l-.04-.02-.09-.05-.12-.07q-.135-.105-.3-.21a5 5 0 0 1-.33-.3c-.28-.25-.5-.54-.65-.85-.2-.39-.3-.8-.3-1.25V67.16h-1.29l.7-1.64h.61c0-.75-.07-1.28-.21-1.6a2.689 2.689 0 0 0-1.07-1.23l2.61-1.92zm0-1.03h-.02l-.61.2-2.61 1.92.1 1.73c.08.04.2.14.38.33.1.11.19.26.25.4.02.04.07.17.1.47l-.49.33-.7 1.64.95 1.44h.26v9.75c0 .61.14 1.19.41 1.72.2.41.49.79.86 1.13.13.13.26.24.39.35l.1.07c.08.05.15.1.22.15l.12.08.12.07.11.06.08.04.46.11v-.24l.67.06 1.13-.84 1.33-.99.14-.11-.17-1.74a2 2 0 0 1-.32-.31c-.25-.28-.37-.61-.37-1.03v-8.49l.71-.47.44-1.04.26-.59-.95-1.44h-.46v-.95c0-.61-.14-1.19-.41-1.73-.2-.39-.42-.7-.68-.97l-.07-.07-.08-.08c-.15-.15-.3-.27-.43-.36-.14-.12-.29-.22-.45-.31l-.09-.06-.11-.06-.07-.04-.48-.12Z"/><path d="M90.83 81.23c-.14 0-.3-.03-.45-.05-.3-.05-.53-.1-.75-.16-.65-.2-1.22-.47-1.7-.82-1.43-.99-2.36-2.64-2.76-4.9-.12-.68-.18-1.37-.18-2.04 0-.81.08-1.65.25-2.5.65-3.24 2.48-5.27 5.45-6.04l.55.2 3.5 4.85-.08.69-.08.07-5.39 4.13c.09.27.2.52.32.76.25.46.55.85.89 1.16.74.67 1.65 1 2.78 1 .37 0 .75-.04 1.18-.11l.4.92-3.58 2.73-.35.1Zm-1.74-12.64c-.25.7-.37 1.54-.37 2.53 0 .35.02.71.05 1.1l1.9-1.45-1.57-2.17Z" class="st0"/><path d="m90.81 65.22 3.5 4.85-.08.07-5.65 4.33c.12.41.27.8.46 1.18.28.51.61.95 1 1.31.83.76 1.87 1.14 3.13 1.14.4 0 .82-.04 1.27-.12l-3.58 2.73a8 8 0 0 1-.47-.05c-.21-.04-.42-.08-.63-.14-.56-.17-1.08-.41-1.54-.74-1.34-.93-2.18-2.46-2.55-4.57-.11-.63-.17-1.28-.17-1.95q0-1.17.24-2.4.915-4.56 5.07-5.64m-2.46 7.95 3.02-2.31-2.38-3.29c-.53.9-.79 2.08-.79 3.54 0 .63.05 1.32.15 2.06m2.2-8.94c-3.17.82-5.13 2.99-5.82 6.44-.17.89-.26 1.76-.26 2.6 0 .71.06 1.42.19 2.13.42 2.4 1.42 4.16 2.98 5.24.52.37 1.14.67 1.83.88.25.07.49.12.73.17h.07c.18.03.36.06.53.07l.69-.21 3.58-2.73-.81-1.83c-.39.07-.75.1-1.09.1-1 0-1.79-.28-2.43-.87a4 4 0 0 1-.94-1.37l5.06-3.88.05-.04.08-.07.16-1.38-3.5-4.85-1.1-.39Zm-1.32 6.97v-.09q0-.72.09-1.32l.62.86-.72.55Z"/><path d="m97.12 81.15-.26-.15c-.15-.1-.25-.17-.35-.25-.15-.12-.27-.23-.39-.35-.31-.29-.57-.63-.75-1-.23-.44-.35-.94-.35-1.47v-8.18c0-.54-.17-.99-.5-1.38-.17-.2-.34-.34-.5-.43l-.06-.86 2.59-1.93.31-.1.25.05.11.06.2.12c.12.08.24.16.36.25q.195.15.36.3c.33.32.59.65.77 1.01.23.47.35.97.35 1.49v8.19c0 .54.16.99.5 1.38.18.2.34.35.49.43l.06.87-2.61 1.93-.32-.02v.1z" class="st0"/><path d="m96.88 65.57.04.02.04.02.09.05.12.07q.135.09.3.21c.12.09.23.19.33.28.28.27.5.56.65.86q.3.6.3 1.26v8.18c0 .67.21 1.24.63 1.72.21.24.42.43.63.54l-2.61 1.93-.02-.02h-.02l-.04-.02-.09-.05-.12-.07c-.1-.07-.21-.14-.3-.21q-.18-.135-.33-.3c-.28-.26-.5-.54-.65-.86-.2-.39-.3-.8-.3-1.24v-8.19c0-.67-.21-1.24-.63-1.72-.21-.24-.42-.43-.63-.54l2.59-1.93h.02m0-1.02h-.02l-.62.2-2.59 1.93.11 1.73c.07.04.19.13.35.31.26.3.38.63.38 1.05v8.19c0 .61.14 1.19.41 1.72.19.4.49.8.87 1.14.1.1.24.23.39.34.13.1.25.18.37.26l.07.04.12.07.07.04.06.03.51.13v-.24l.65.05 2.61-1.93-.11-1.73c-.06-.03-.18-.11-.35-.31-.26-.3-.38-.63-.38-1.05v-8.18c0-.6-.14-1.18-.41-1.72-.21-.41-.5-.8-.86-1.14-.14-.13-.27-.23-.4-.34-.15-.12-.28-.21-.4-.28l-.16-.09-.07-.04-.06-.03-.06-.03z"/><path d="M96.65 65.74c-.84 0-1.68-.48-2.47-1.42l.09-.75 2.15-1.59.75.14c.06.1.13.19.21.28q.165.18.36.3c.21.13.46.19.73.19.16 0 .33-.02.5-.07l.59.73a4.4 4.4 0 0 1-1.43 1.69c-.48.33-.97.49-1.47.49Z" class="st0"/><path d="M96.72 62.4q.12.18.27.36c.14.15.3.28.46.39.31.18.64.27 1 .27q.3 0 .63-.09c-.31.63-.74 1.13-1.26 1.49-.39.27-.79.4-1.18.4-.69 0-1.38-.41-2.08-1.23l2.15-1.59m-.6-.83-2.15 1.59-.17 1.5c.9 1.06 1.87 1.6 2.87 1.6.6 0 1.19-.2 1.76-.58.67-.47 1.21-1.1 1.6-1.88l-1.19-1.46c-.13.03-.26.05-.37.05-.18 0-.33-.04-.48-.13-.06-.04-.15-.11-.23-.2-.05-.06-.11-.13-.15-.19l-1.49-.29Z"/><path d="M110.02 81.38c-1.43-1-2.15-2.29-2.15-3.85V62.06s-.01-.02-.07-.07l-2.9 2.63v12.19c0 .81.35 1.39 1.07 1.79l.04.88-2.88 1.92-.31-.03v.09l-.31-.09c-1.43-1-2.16-2.3-2.16-3.85V62.85c0-.53-.17-.96-.53-1.35-.19-.21-.36-.35-.53-.43l-.06-.88 2.76-1.91.29-.09.24.05.23.11.09.05c.07.04.13.09.21.13l.09.06.5.39c.22.17.47.36.65.59.39.35.5 1.09.54 2.02l3.61-3.32.52-.11c1.21.43 2.09 1.08 2.64 1.93.45.68.68 1.47.68 2.35v14.37c0 .81.35 1.39 1.07 1.79l.04.87-2.76 1.92-.31-.02v.1l-.31-.09Z" class="st0"/><path d="M108.8 58.65c1.09.39 1.89.96 2.38 1.72q.6.9.6 2.07v14.37c0 1 .45 1.75 1.34 2.24l-2.76 1.92-.02-.02h-.02c-1.29-.9-1.93-2.05-1.93-3.43V62.4c0-.48.07-.66-.64-1.06l-3.36 3.05v12.42c0 1 .45 1.75 1.34 2.24l-2.88 1.92-.02-.02h-.02c-1.29-.9-1.94-2.05-1.94-3.43V62.85c0-.66-.22-1.22-.67-1.7-.22-.24-.44-.42-.67-.54l2.76-1.91h.02l.06.03.07.04.11.05c.09.06.18.12.28.17.11.09.22.17.32.25.26.21.6.44.78.69.5.35.37 2.42.46 2.78zm-6.49-.98-.61.18-2.76 1.91.11 1.76c.12.06.24.17.39.32.28.3.4.6.4 1v14.67c0 1.71.82 3.19 2.38 4.28l.59.19v-.22l.61.07 2.88-1.92-.07-1.76c-.56-.31-.81-.71-.81-1.34V64.85l1.94-1.76v14.43c0 1.72.82 3.19 2.37 4.28l.59.19v-.23l.63.06 2.76-1.92-.09-1.75c-.57-.31-.81-.71-.81-1.34V62.44c0-.98-.26-1.87-.77-2.64-.6-.93-1.58-1.65-2.89-2.12l-1.05.21-2.84 2.62c-.09-.55-.26-.99-.59-1.3-.21-.26-.48-.46-.71-.64l-.17-.13-.15-.12c-.05-.04-.11-.08-.16-.13l-.19-.12c-.06-.03-.11-.07-.17-.1l-.15-.08-.07-.03-.03-.02-.05-.03-.06-.03-.46-.11Z"/></svg>