<svg xmlns="http://www.w3.org/2000/svg" id="Capa_1" viewBox="0 0 128.74 108.83"><defs><style>.st0{fill:#030404}</style></defs><g id="D6L68v"><path d="M30.47 45.64c.45-1.16 1.31-1.82 2.48-2.19 3.74-1.19 7.47-2.43 11.21-3.64a5.3 5.3 0 0 0 1.53-.78c10.07-7.4 20.14-14.8 30.22-22.18.57-.42.68-.81.44-1.45-.25-.65-.52-1.33-.45-2.04.12-1.42.88-2.39 2.22-2.84a881 881 0 0 1 12.3-3.98c1.92-.6 3.47.33 4.13 2.36 1.93 5.92 3.84 11.84 5.77 17.77 4.07 12.54 8.15 25.09 12.22 37.63.78 2.41.04 3.91-2.33 4.69-3.82 1.25-7.65 2.49-11.48 3.72-2.22.71-3.81-.04-4.46-2.27-.32-1.09-.84-1.48-1.96-1.39-1.24.1-2.49.06-3.74 0-.87-.05-1.26.24-1.57 1.1-1.85 5.15-5.48 8.35-10.89 9.24-6.57 1.08-12.97-2.99-14.95-9.41-.28-.89-.68-1.05-1.54-1.11-3.57-.26-6.97.35-10.3 1.63-2.17.83-4.42 1.49-6.64 2.19-2.53.79-3.97.05-4.78-2.46-2.36-7.23-4.7-14.45-7.06-21.68-.11-.33-.24-.66-.36-.99v-1.92Zm55.25 17.2c1.69 0 3.39-.03 5.08.02.81.02.9-.22.65-.94-1.01-3-1.96-6.01-2.94-9.01-3.18-9.78-6.36-19.55-9.52-29.33-.24-.75-.43-1.02-1.2-.45-9 6.64-18.01 13.25-27.04 19.86-.52.38-.66.72-.46 1.35 1.91 5.79 3.8 11.59 5.66 17.39.23.7.55.94 1.29.94 9.49 0 18.98-.05 28.47.17Zm3.37-49.33c-.12.04-.28.09-.43.14-1.58.51-3.15 1.07-4.75 1.51-.89.24-.95.61-.69 1.42 2.61 7.95 5.18 15.91 7.76 23.87 2.66 8.2 5.33 16.4 7.97 24.6.24.74.52.97 1.29.69 1.5-.55 3.01-1.06 4.55-1.5.85-.24 1-.58.73-1.42-3.86-11.81-7.69-23.62-11.53-35.44-1.41-4.34-2.82-8.69-4.23-13.03-.11-.34-.12-.79-.68-.84ZM44.12 46.37c-.12.03-.22.05-.31.08-1.94.63-3.88 1.27-5.83 1.88-.66.21-.51.6-.36 1.05 1.73 5.31 3.46 10.62 5.17 15.93.2.64.49.67 1.05.48q2.76-.945 5.55-1.8c.56-.17.68-.42.49-.97-.63-1.84-1.21-3.7-1.81-5.55-1.12-3.46-2.25-6.92-3.38-10.37-.1-.3-.09-.74-.57-.73m30.01 22.54c-1.98 0-3.96 0-5.95-.02-.67 0-.81.19-.46.76 1.45 2.38 3.6 3.66 6.34 3.68 2.73.01 4.9-1.25 6.37-3.61.36-.58.31-.83-.46-.82-1.95.03-3.9.01-5.85.01ZM114.88 45.59c.59 0 1.13.2 1.65.46 3.36 1.71 6.73 3.41 10.08 5.14 1.7.88 2.31 2.61 1.54 4.19-.77 1.57-2.56 2.2-4.25 1.36-3.49-1.73-6.96-3.51-10.42-5.31-1.36-.71-1.94-2.09-1.58-3.46.38-1.45 1.55-2.38 2.98-2.38M105.94 23.45c-2.62-.03-4.04-2.35-2.99-4.53 1.28-2.65 2.65-5.25 3.98-7.87.45-.88.88-1.77 1.37-2.63.87-1.52 2.61-2.05 4.13-1.29 1.43.72 2.11 2.49 1.37 4.01-1.76 3.58-3.59 7.14-5.43 10.68-.55 1.07-1.51 1.62-2.44 1.63ZM128.74 29.57c-.02 1.37-.69 2.37-1.94 2.8-3.74 1.29-7.51 2.53-11.29 3.69-1.88.58-3.45-.34-3.98-2.12-.49-1.61.39-3.18 2.2-3.78 3.7-1.22 7.4-2.45 11.13-3.58 2.07-.63 3.9.85 3.89 2.99Z" class="st0"/></g><path d="M67.54 21.3v-6.14c0-6.62-5.37-11.99-11.99-11.99H15.16c-6.62 0-11.99 5.37-11.99 11.99v78.52c0 6.62 5.37 11.99 11.99 11.99h40.4c6.62 0 11.99-5.37 11.99-11.99V82.26" style="fill:none;stroke:#000;stroke-miterlimit:10;stroke-width:6.34px"/><circle cx="35.36" cy="90.55" r="6.07" class="st0"/></svg>