<svg xmlns="http://www.w3.org/2000/svg" id="Capa_1" viewBox="0 0 291.3 63.09"><defs><style>.st1{fill:#b6b3b7}.st2{fill:#ff4c00}</style></defs><path d="M36.07 23.66v.03c.15.26.28.53.4.81l.17-.07h.01l1.44-.61.88 1.53.63-.36v-1.33h-3.54Zm3.54 7.41-.64-.36-.88 1.52-1.62-.68c-.12.29-.25.56-.4.82v5.45c1.07-.88 2-1.93 2.74-3.13l.8.46 9.47 5.47c-2.33 3.88-5.61 6.98-9.47 9.04-1.13.61-2.32 1.13-3.54 1.54v3.71c1.21-.36 2.4-.79 3.54-1.31 5.69-2.57 10.45-7.03 13.43-12.84l.76-1.49z" class="st1"/><path d="m53.8 16.82-12.25 7.07-.39.22-1.57.88-1.77 1-1.77-2.31v.03a9.1 9.1 0 0 0-8.02-4.79c-5.04 0-9.12 4.09-9.12 9.13s4.09 9.12 9.12 9.12c3.38 0 6.44-1.85 8.02-4.79v5.45a12.6 12.6 0 0 1-8.02 2.87c-6.98 0-12.66-5.68-12.66-12.66s5.67-12.66 12.66-12.66c4.44 0 8.48 2.31 10.76 6l10.28-5.93C44.64 8.06 36.72 3.52 28.04 3.52 14.52 3.53 3.53 14.53 3.53 28.05s11 24.52 24.52 24.52c2.78 0 5.49-.47 8.02-1.34v3.71c-2.56.77-5.26 1.17-8.02 1.17C12.58 56.1 0 43.52 0 28.05S12.58 0 28.05 0c6.92 0 13.41 2.52 18.42 6.9.89.77 1.73 1.61 2.51 2.5 1.58 1.76 2.94 3.74 4.06 5.92l.77 1.5Z" class="st1"/><path d="m41.17 24.08-1.57.91v-.02z" style="fill:#ff9b00"/><path d="M64.78.05c-6.8 0-13.23 2.41-18.32 6.83.89.77 1.73 1.61 2.51 2.49 4.42-3.75 9.96-5.78 15.81-5.78 13.51 0 24.51 11 24.51 24.51s-11 24.52-24.51 24.52c-3.54 0-6.96-.74-10.16-2.21l-2.5-1.14v12.35l3.53 1.47v-8.46c2.93 1.01 5.98 1.52 9.13 1.52 15.46 0 28.04-12.58 28.04-28.05S80.25.05 64.78.05M39.6 24.99l-.63.36-1.13.62-1.19-1.55-.58-.76v31.25l3.54 1.48v-31.4Zm25.18-9.55c-6.98 0-12.66 5.68-12.66 12.66s5.68 12.66 12.66 12.66 12.65-5.68 12.65-12.66-5.68-12.66-12.65-12.66m0 21.79c-5.03 0-9.13-4.1-9.13-9.13s4.1-9.13 9.13-9.13 9.12 4.1 9.12 9.13-4.09 9.13-9.12 9.13" class="st2"/><path d="M115.11 33.24c-.39 0-.69.07-.91.21s-.34.36-.36.67c-.04.36-.11.74-.21 1.16-.1.41-.27.8-.51 1.16s-.61.66-1.1.9c-.5.25-1.17.37-2.01.37-1.33 0-2.34-.35-3.05-1.04-.7-.7-1.05-1.78-1.05-3.25v-9.08c0-1.47.34-2.55 1.04-3.24.69-.7 1.68-1.04 2.97-1.04.84 0 1.52.12 2.03.36.52.24.91.55 1.18.92s.45.75.54 1.15c.09.39.15.74.17 1.04.02.26.14.47.35.63s.51.24.92.24.74-.09.95-.27.31-.55.31-1.12q0-1.47-.78-2.67c-.53-.79-1.27-1.42-2.23-1.88-.97-.46-2.14-.7-3.5-.69-1.17 0-2.25.21-3.23.64q-1.485.66-2.37 2.1c-.59.97-.89 2.24-.89 3.83v9.08c0 1.59.29 2.87.88 3.83.58.97 1.37 1.67 2.35 2.1a8 8 0 0 0 3.23.65c1.35 0 2.51-.24 3.48-.71.98-.47 1.73-1.12 2.27-1.93.53-.82.79-1.72.79-2.7 0-.56-.1-.94-.31-1.13s-.53-.29-.95-.29M131.27 20.49c-.57-.95-1.35-1.65-2.34-2.08-.98-.43-2.09-.65-3.32-.65s-2.32.22-3.3.65c-.98.44-1.75 1.13-2.32 2.08-.58.96-.86 2.24-.86 3.85v9.08c0 1.61.29 2.89.86 3.85.57.95 1.35 1.65 2.32 2.08.98.43 2.08.65 3.31.65s2.33-.22 3.32-.65c.98-.43 1.76-1.13 2.33-2.08.58-.96.86-2.24.86-3.85v-9.08c0-1.61-.29-2.89-.86-3.85m-1.67 12.93c0 1.47-.35 2.55-1.06 3.24-.7.7-1.68 1.04-2.92 1.04s-2.22-.34-2.91-1.04q-1.05-1.035-1.05-3.24v-9.08c0-1.47.35-2.55 1.04-3.24.7-.7 1.67-1.04 2.91-1.04s2.23.34 2.93 1.04c.7.69 1.06 1.77 1.06 3.24zM147.82 20.49c-.57-.95-1.35-1.65-2.34-2.08-.98-.43-2.09-.65-3.31-.65s-2.33.22-3.31.65c-.97.43-1.75 1.13-2.32 2.08-.57.96-.86 2.24-.86 3.85v9.08c0 1.61.29 2.89.86 3.85.58.95 1.35 1.64 2.33 2.08.97.43 2.07.64 3.3.64s2.33-.21 3.32-.64c.98-.44 1.76-1.13 2.33-2.09.58-.95.86-2.23.86-3.84v-9.08c0-1.61-.28-2.89-.86-3.85m-1.67 12.93c0 1.47-.35 2.55-1.06 3.24-.7.69-1.68 1.04-2.92 1.04s-2.22-.34-2.91-1.04c-.7-.69-1.04-1.77-1.04-3.24v-9.08c-.01-1.47.34-2.55 1.04-3.25.69-.69 1.66-1.04 2.91-1.04s2.22.35 2.92 1.04c.71.7 1.06 1.78 1.06 3.25zM164.73 20.47c-.56-.94-1.33-1.63-2.29-2.06-.97-.44-2.05-.65-3.26-.65h-5.7c-.3.02-.55.11-.74.27s-.29.36-.29.6v20.28c0 .3.14.53.41.68s.56.22.86.22c.32 0 .62-.07.88-.22.26-.16.39-.38.39-.68v-7.82h4.07c1.23 0 2.33-.21 3.32-.65.98-.43 1.76-1.12 2.34-2.08.57-.95.86-2.23.86-3.81v-.28c0-1.58-.29-2.85-.85-3.8m-1.68 4.23c0 1.44-.35 2.52-1.05 3.23-.71.7-1.68 1.05-2.93 1.05H155v-8.93h4.07c1.25 0 2.22.35 2.93 1.04q1.05 1.05 1.05 3.24z" class="st1"/><path d="M181.44 20.58c-.6-1-1.42-1.72-2.45-2.16-1.04-.44-2.2-.66-3.49-.66h-6.03c-.45 0-.81.12-1.09.36q-.42.36-.42.87v19.55c0 .43.21.74.62.95s.87.32 1.37.32.93-.11 1.33-.32.6-.52.6-.95v-6.97h3.38c1.33 0 2.53-.22 3.61-.68a5.4 5.4 0 0 0 2.54-2.18c.63-1.01.94-2.34.94-3.99v-.18c0-1.65-.3-2.97-.91-3.96m-3 4.45c0 1.18-.28 2.06-.85 2.62-.56.56-1.33.85-2.32.85h-3.38v-7.3h3.38c.99 0 1.76.28 2.32.86.57.57.85 1.45.85 2.63zM198.98 37.68c-.02-.09-.05-.18-.09-.26l-3.98-7.33c.76-.24 1.44-.61 2.04-1.1.59-.49 1.06-1.15 1.4-1.96q.51-1.215.51-2.97c0-1.61-.32-2.87-.96-3.79a5.27 5.27 0 0 0-2.58-1.94c-1.08-.38-2.28-.58-3.61-.58h-5.97c-.38.01-.69.13-.92.37s-.35.53-.35.87v19.55c0 .42.21.74.62.95s.86.32 1.34.32c.51 0 .96-.11 1.36-.32s.6-.53.6-.95V30.7h2.54l4.28 8.32c.14.3.34.54.59.7s.51.24.77.24c.4 0 .79-.1 1.16-.3.37-.21.68-.47.92-.79q.36-.48.36-.96c0-.06 0-.14-.03-.23m-7.27-10.06h-3.32v-6.43h3.32c.99 0 1.77.24 2.35.71.59.48.88 1.31.88 2.52s-.29 1.99-.87 2.48c-.59.48-1.37.72-2.36.72M214.31 20.63c-.63-1.01-1.48-1.75-2.55-2.2-1.08-.45-2.28-.68-3.61-.68s-2.52.23-3.59.68c-1.06.45-1.91 1.19-2.55 2.2-.63 1.02-.95 2.37-.95 4.06v8.36c0 1.69.32 3.04.96 4.06.63 1.01 1.48 1.75 2.55 2.2 1.06.45 2.26.68 3.58.68s2.53-.23 3.61-.68a5.38 5.38 0 0 0 2.55-2.21q.93-1.515.93-4.05v-8.36c0-1.69-.31-3.04-.93-4.06m-2.99 12.42c0 1.2-.28 2.09-.84 2.65-.57.57-1.34.85-2.33.85s-1.75-.28-2.3-.85c-.56-.56-.83-1.45-.83-2.65v-8.36c0-1.21.27-2.09.82-2.65.56-.57 1.33-.85 2.31-.85s1.76.28 2.33.85c.56.56.84 1.44.84 2.65zM231.55 20.63c-.64-1.01-1.49-1.75-2.57-2.2-1.07-.45-2.28-.68-3.6-.68h-5.34c-.53 0-.94.12-1.25.36-.32.24-.47.54-.47.88v19.58c0 .34.16.63.47.87s.73.36 1.25.36h5.34c1.33 0 2.53-.22 3.61-.68a5.4 5.4 0 0 0 2.56-2.2c.63-1.01.95-2.37.95-4.06v-8.17c0-1.69-.32-3.04-.95-4.06m-2.98 12.23c0 1.19-.28 2.07-.85 2.64-.56.58-1.34.86-2.32.86h-3.17V21.19h3.17c.98 0 1.76.29 2.32.86s.85 1.45.85 2.64zM249.92 18.98c0-.44-.2-.75-.61-.95-.42-.19-.86-.28-1.35-.28s-.95.09-1.35.28c-.41.2-.61.51-.61.95v14.06c0 1.19-.29 2.07-.89 2.64-.59.58-1.41.86-2.45.86s-1.83-.28-2.42-.86q-.87-.855-.87-2.64V18.99c0-.45-.21-.76-.62-.96-.42-.19-.86-.28-1.35-.28s-.95.09-1.35.29c-.41.19-.61.5-.61.95v14.05c.01 1.69.33 3.05.97 4.06.65 1.02 1.51 1.75 2.6 2.2 1.08.46 2.3.68 3.65.68s2.6-.22 3.69-.68c1.1-.45 1.97-1.18 2.61-2.2s.97-2.37.97-4.06V18.98ZM265.11 32.07c-.52 0-.97.09-1.33.26s-.56.5-.6.98c-.04.32-.1.67-.17 1.03s-.2.71-.39 1.04-.49.61-.89.83-.94.33-1.63.33q-1.56 0-2.4-.84c-.55-.57-.83-1.45-.83-2.66v-8.36c0-1.18.27-2.06.82-2.64.54-.57 1.32-.86 2.35-.86.72 0 1.29.12 1.71.34.41.22.71.49.92.81.2.32.33.65.4.98s.11.62.11.86c.02.44.21.76.59.95.37.19.83.29 1.37.29.66 0 1.16-.13 1.48-.38s.48-.77.48-1.55c0-1.19-.31-2.21-.92-3.05s-1.46-1.5-2.53-1.98c-1.08-.47-2.32-.7-3.73-.7-1.27 0-2.43.22-3.5.67a5.47 5.47 0 0 0-2.55 2.21c-.63 1.01-.95 2.37-.95 4.06v8.35c0 1.69.32 3.04.95 4.06.64 1.01 1.49 1.75 2.55 2.2 1.07.45 2.22.68 3.47.68 1.41 0 2.66-.24 3.74-.73 1.09-.48 1.94-1.17 2.55-2.08.62-.9.92-1.96.92-3.16 0-.77-.16-1.28-.48-1.54s-.83-.4-1.51-.4M273.4 18.98c0-.44-.2-.76-.6-.95s-.84-.29-1.33-.29-.96.1-1.37.29-.62.51-.62.95v19.55c0 .42.21.74.62.95.42.21.87.32 1.38.32.48 0 .92-.11 1.32-.32.41-.21.61-.53.61-.95V18.98ZM291.27 37.67c-.02-.09-.05-.18-.09-.26l-3.99-7.33c.77-.24 1.45-.61 2.04-1.1s1.06-1.15 1.4-1.96q.51-1.23.51-2.97c0-1.61-.32-2.87-.96-3.79a5.27 5.27 0 0 0-2.58-1.94c-1.08-.39-2.28-.58-3.61-.58h-5.97c-.38 0-.69.12-.92.37-.23.24-.35.53-.35.87v19.55c0 .42.21.74.62.95.42.21.86.32 1.35.32s.95-.11 1.35-.32c.41-.21.61-.53.61-.95v-7.85h2.53l4.29 8.33c.14.3.33.53.58.69.25.17.51.25.77.25.4 0 .79-.11 1.16-.31.38-.2.68-.46.92-.78.25-.32.37-.64.37-.97 0-.06-.01-.13-.03-.22m-7.29-10.06h-3.31v-6.43h3.31c.99 0 1.77.24 2.36.71q.87.705.87 2.52c0 1.815-.29 1.99-.87 2.47-.59.49-1.37.73-2.36.73" class="st2"/></svg>