<svg xmlns="http://www.w3.org/2000/svg" id="Capa_1" viewBox="0 0 756.29 137.15"><defs><style>.st0{stroke:#1d1e1c;stroke-miterlimit:10;stroke-width:.89px}</style></defs><path d="M639.81 48.17c-.62 0-1.19-.09-1.7-.28s-.94-.43-1.31-.72c-.36-.3-.65-.61-.87-.95h-.2v1.55h-3.12V29.63h3.32v4.97l-.2 1.82h.2a4.3 4.3 0 0 1 2.18-1.69c.51-.19 1.07-.28 1.7-.28q1.77 0 3.18.87c.94.58 1.68 1.39 2.23 2.42s.82 2.22.82 3.57-.27 2.54-.82 3.57-1.29 1.84-2.23 2.42q-1.41.87-3.18.87m-.58-3.06c.62 0 1.2-.16 1.74-.47.53-.31.96-.76 1.29-1.33s.49-1.24.49-2-.17-1.44-.49-2-.76-.99-1.29-1.31c-.53-.31-1.11-.47-1.74-.47s-1.18.16-1.71.47q-.795.465-1.29 1.32c-.33.57-.49 1.23-.49 1.99s.17 1.42.49 1.99.76 1.01 1.29 1.33q.795.48 1.71.48M648.53 47.77V34.85h3.12v1.72h.2q.33-.6.87-1.08c.36-.31.79-.56 1.28-.75a4.3 4.3 0 0 1 1.57-.28c.34 0 .64.03.91.08s.51.12.71.2v3.32c-.36-.14-.71-.25-1.05-.34-.35-.09-.71-.14-1.1-.14-.66 0-1.23.17-1.71.49-.48.33-.85.78-1.1 1.34-.25.57-.38 1.2-.38 1.91v6.44h-3.32ZM662.79 48.17c-.91 0-1.72-.18-2.42-.54a4.15 4.15 0 0 1-1.66-1.53c-.41-.66-.61-1.42-.61-2.28s.23-1.66.7-2.31 1.09-1.14 1.88-1.5c.79-.35 1.66-.53 2.62-.53.52 0 1 .03 1.43.09s.81.13 1.15.21.62.18.84.28v-.56c0-.69-.26-1.26-.79-1.71s-1.24-.67-2.15-.67c-.61 0-1.19.14-1.76.42s-1.03.65-1.41 1.1l-2.13-1.67q.63-.81 1.47-1.38c.56-.38 1.17-.67 1.85-.86a7.9 7.9 0 0 1 2.13-.29c1.98 0 3.48.46 4.51 1.37s1.55 2.25 1.55 4v7.96h-3.27v-1.32h-.2a4.515 4.515 0 0 1-2.13 1.48c-.47.16-1.01.24-1.6.24m.79-2.58c.68 0 1.25-.15 1.71-.44.46-.3.82-.68 1.06-1.15.25-.47.37-.97.37-1.49-.37-.19-.8-.33-1.27-.44s-.95-.17-1.44-.17c-.98 0-1.65.19-2.03.56-.37.37-.56.83-.56 1.37 0 .51.18.93.55 1.27.36.34.9.51 1.61.51ZM673 47.77V34.85h3.12v1.62h.2c.39-.63.94-1.12 1.65-1.48s1.48-.55 2.31-.55q2.385 0 3.57 1.44c.79.96 1.19 2.25 1.19 3.85v8.03h-3.32v-7.63c0-.84-.21-1.49-.65-1.94-.43-.45-1.02-.67-1.76-.67-.61 0-1.14.16-1.58.49-.45.33-.79.77-1.04 1.32s-.37 1.16-.37 1.84v6.59H673ZM693.68 48.17c-1.18 0-2.25-.29-3.19-.87-.95-.58-1.69-1.39-2.24-2.42s-.82-2.22-.82-3.57.27-2.54.82-3.57 1.3-1.84 2.24-2.42 2.01-.87 3.19-.87c.62 0 1.19.09 1.7.28s.95.43 1.32.73.66.63.86.96h.2l-.2-1.82v-4.97h3.29v18.14h-3.09v-1.55h-.2c-.2.34-.49.65-.86.95s-.81.54-1.32.72c-.51.19-1.07.28-1.7.28m.56-3.06q.93 0 1.74-.48c.53-.32.96-.76 1.29-1.33s.49-1.23.49-1.99-.16-1.42-.49-1.99q-.495-.855-1.29-1.32c-.53-.31-1.11-.47-1.74-.47s-1.18.16-1.71.47-.96.75-1.29 1.31-.49 1.23-.49 2 .17 1.43.49 2c.33.57.76 1.02 1.29 1.33s1.1.47 1.71.47M705.71 33.43c-.59 0-1.1-.21-1.52-.63s-.63-.93-.63-1.52.21-1.09.63-1.51c.42-.41.93-.62 1.52-.62s1.09.21 1.51.62c.41.42.62.92.62 1.51s-.21 1.1-.62 1.52-.92.63-1.51.63m-1.67 14.34V34.85h3.32v12.92zM710.55 47.77V34.85h3.12v1.62h.2c.39-.63.94-1.12 1.65-1.48s1.48-.55 2.31-.55q2.385 0 3.57 1.44c1.185 1.44 1.19 2.25 1.19 3.85v8.03h-3.32v-7.63c0-.84-.21-1.49-.65-1.94-.43-.45-1.02-.67-1.76-.67-.61 0-1.14.16-1.58.49-.45.33-.79.77-1.04 1.32s-.37 1.16-.37 1.84v6.59h-3.32ZM731.63 53.65c-1.17 0-2.18-.18-3.03-.55-.85-.36-1.55-.83-2.09-1.4s-.92-1.18-1.14-1.8l3.12-1.27c.27.63.68 1.13 1.23 1.51s1.19.57 1.91.57c1.03 0 1.86-.32 2.48-.95s.94-1.55.94-2.75V46h-.2c-.4.57-.94 1.01-1.6 1.32-.66.3-1.41.46-2.25.46-1.05 0-2.03-.27-2.95-.81s-1.67-1.31-2.23-2.31-.85-2.18-.85-3.55.28-2.57.85-3.56 1.31-1.75 2.23-2.29 1.9-.81 2.95-.81c.84 0 1.6.15 2.25.44.66.3 1.19.74 1.6 1.33h.2v-1.37h3.19v12.04c0 1.39-.27 2.58-.81 3.6a5.68 5.68 0 0 1-2.29 2.34c-.99.55-2.16.82-3.51.82m.05-8.9c.59 0 1.14-.14 1.66-.42.51-.28.93-.69 1.24-1.24s.47-1.21.47-1.99-.16-1.49-.47-2.03-.73-.95-1.24-1.22c-.52-.27-1.07-.4-1.66-.4s-1.15.13-1.67.4-.94.68-1.25 1.22-.47 1.22-.47 2.03.16 1.46.47 2.01.73.96 1.25 1.23 1.08.4 1.67.4ZM632.62 84.36v-18.4h3.12v1.57h.2a4.3 4.3 0 0 1 2.18-1.69 5 5 0 0 1 1.7-.28q1.77 0 3.18.87c.94.58 1.68 1.39 2.23 2.42s.82 2.22.82 3.57-.27 2.54-.82 3.57-1.29 1.84-2.23 2.42q-1.41.87-3.18.87c-.93 0-1.73-.2-2.39-.59-.67-.4-1.16-.85-1.48-1.36h-.2l.2 1.82v5.19h-3.32Zm6.61-8.13c.62 0 1.2-.16 1.74-.47.53-.31.96-.76 1.29-1.33s.49-1.24.49-2-.17-1.44-.49-2-.76-.99-1.29-1.31c-.53-.31-1.11-.47-1.74-.47s-1.18.16-1.71.47q-.795.465-1.29 1.32c-.495.855-.49 1.23-.49 1.99s.17 1.42.49 1.99.76 1.01 1.29 1.33q.795.48 1.71.48M653.19 79.29q-2.385 0-3.57-1.47c-.79-.98-1.19-2.31-1.19-4v-7.85h3.32v7.45c0 .88.22 1.57.65 2.07s.98.75 1.66.75 1.22-.17 1.67-.49.81-.77 1.05-1.33.37-1.17.37-1.85v-6.59h3.32V78.9h-3.12v-1.62h-.2c-.25.4-.58.76-.99 1.06s-.86.54-1.36.71-1.03.25-1.61.25ZM670.85 79.29c-.62 0-1.19-.09-1.7-.28s-.94-.43-1.31-.72c-.36-.3-.65-.61-.87-.95h-.2v1.55h-3.12V60.75h3.32v4.97l-.2 1.82h.2a4.3 4.3 0 0 1 2.18-1.69 5 5 0 0 1 1.7-.28q1.77 0 3.18.87c.94.58 1.68 1.39 2.23 2.42s.82 2.22.82 3.57-.27 2.54-.82 3.57-1.29 1.84-2.23 2.42q-1.41.87-3.18.87m-.58-3.06c.62 0 1.2-.16 1.74-.47.53-.31.96-.76 1.29-1.33s.49-1.24.49-2-.17-1.44-.49-2-.76-.99-1.29-1.31c-.53-.31-1.11-.47-1.74-.47s-1.18.16-1.71.47q-.795.465-1.29 1.32c-.33.57-.49 1.23-.49 1.99s.17 1.42.49 1.99.76 1.01 1.29 1.33q.795.48 1.71.48M679.57 78.89V60.75h3.32v18.14zM687.75 64.54c-.59 0-1.1-.21-1.52-.63s-.63-.93-.63-1.52.21-1.09.63-1.51c.42-.41.93-.62 1.52-.62s1.09.21 1.51.62c.41.42.62.92.62 1.51s-.21 1.1-.62 1.52-.92.63-1.51.63m-1.67 14.35V65.97h3.32v12.92zM698.67 79.29q-1.98 0-3.51-.87a6.3 6.3 0 0 1-2.41-2.43c-.58-1.04-.87-2.22-.87-3.56s.29-2.52.87-3.55a6.3 6.3 0 0 1 2.41-2.43c1.02-.59 2.19-.89 3.51-.89 1.44 0 2.67.3 3.7.91s1.77 1.49 2.23 2.64l-3.04 1.27c-.27-.59-.65-1.03-1.14-1.3-.49-.28-1.07-.42-1.75-.42s-1.25.16-1.77.47-.94.75-1.24 1.31-.46 1.23-.46 2 .15 1.45.46 2.01c.3.57.72 1.01 1.24 1.32s1.12.47 1.77.47c.74 0 1.36-.17 1.85-.49.49-.33.89-.78 1.19-1.36l2.96 1.32a6.2 6.2 0 0 1-2.31 2.61c-1.03.66-2.26.99-3.7.99ZM708.63 64.54c-.59 0-1.1-.21-1.52-.63s-.63-.93-.63-1.52.21-1.09.63-1.51c.42-.41.93-.62 1.52-.62s1.09.21 1.51.62c.41.42.62.92.62 1.51s-.21 1.1-.62 1.52-.92.63-1.51.63m-1.67 14.35V65.97h3.32v12.92zM719.02 79.29c-1.18 0-2.25-.29-3.19-.87-.95-.58-1.69-1.39-2.24-2.42s-.82-2.22-.82-3.57.27-2.54.82-3.57 1.3-1.84 2.24-2.42c.95-.58 2.01-.87 3.19-.87.62 0 1.19.09 1.7.28s.95.43 1.32.73.66.63.86.96h.2l-.2-1.82v-4.97h3.29v18.14h-3.09v-1.55h-.2c-.2.34-.49.65-.86.95s-.81.54-1.32.72-1.07.28-1.7.28m.55-3.06q.93 0 1.74-.48c.53-.32.96-.76 1.29-1.33s.49-1.23.49-1.99-.16-1.42-.49-1.99q-.495-.855-1.29-1.32c-.53-.31-1.11-.47-1.74-.47s-1.18.16-1.71.47-.96.75-1.29 1.31-.49 1.23-.49 2 .17 1.43.49 2c.33.57.76 1.02 1.29 1.33s1.1.47 1.71.47M733.36 79.29c-.91 0-1.72-.18-2.42-.54a4.15 4.15 0 0 1-1.66-1.53c-.41-.66-.61-1.42-.61-2.28s.23-1.66.7-2.31 1.09-1.14 1.88-1.5c.79-.35 1.66-.53 2.62-.53.52 0 1 .03 1.43.09s.81.13 1.15.21.62.18.84.28v-.56c0-.69-.26-1.26-.79-1.71-.52-.45-1.24-.67-2.15-.67-.61 0-1.19.14-1.76.42s-1.03.65-1.41 1.1l-2.13-1.67q.63-.81 1.47-1.38c.56-.38 1.17-.67 1.85-.86a7.9 7.9 0 0 1 2.13-.29c1.98 0 3.48.46 4.51 1.37s1.55 2.25 1.55 4v7.96h-3.27v-1.32h-.2a4.515 4.515 0 0 1-2.13 1.48c-.47.16-1.01.24-1.6.24m.78-2.58c.68 0 1.25-.15 1.71-.44.46-.3.82-.68 1.06-1.15.25-.47.37-.97.37-1.49-.37-.19-.8-.33-1.27-.44s-.95-.17-1.44-.17c-.98 0-1.65.19-2.03.56-.37.37-.56.83-.56 1.37 0 .51.18.93.55 1.27.36.34.9.51 1.61.51ZM749.12 79.29c-1.18 0-2.25-.29-3.19-.87-.95-.58-1.69-1.39-2.24-2.42s-.82-2.22-.82-3.57.27-2.54.82-3.57 1.3-1.84 2.24-2.42c.95-.58 2.01-.87 3.19-.87.62 0 1.19.09 1.7.28s.95.43 1.32.73.66.63.86.96h.2l-.2-1.82v-4.97h3.29v18.14h-3.09v-1.55h-.2c-.2.34-.49.65-.86.95s-.81.54-1.32.72-1.07.28-1.7.28m.55-3.06q.93 0 1.74-.48c.53-.32.96-.76 1.29-1.33s.49-1.23.49-1.99-.16-1.42-.49-1.99q-.495-.855-1.29-1.32c-.53-.31-1.11-.47-1.74-.47s-1.18.16-1.71.47-.96.75-1.29 1.31-.49 1.23-.49 2 .17 1.43.49 2c.33.57.76 1.02 1.29 1.33s1.1.47 1.71.47M632.62 110V97.08h3.12v1.62h.2c.27-.41.6-.76.99-1.06s.83-.54 1.33-.71 1.03-.25 1.61-.25c.95 0 1.75.22 2.42.66q1.005.66 1.41 1.62c.39-.62.94-1.16 1.66-1.61s1.61-.67 2.67-.67c1.5 0 2.63.46 3.38 1.37s1.13 2.13 1.13 3.65v8.31h-3.29v-7.7c0-.83-.19-1.46-.58-1.89s-.91-.65-1.57-.65c-.57 0-1.08.16-1.51.47s-.76.75-.99 1.31-.34 1.21-.34 1.95v6.51h-3.32v-7.7c0-.83-.2-1.46-.59-1.89-.4-.43-.96-.65-1.69-.65-.54 0-1.02.16-1.43.47s-.73.75-.95 1.31-.33 1.21-.33 1.95v6.51h-3.32ZM659.6 110.4c-.91 0-1.72-.18-2.42-.54a4.15 4.15 0 0 1-1.66-1.53c-.41-.66-.61-1.42-.61-2.28s.23-1.66.7-2.31 1.09-1.14 1.88-1.5c.79-.35 1.66-.53 2.62-.53.52 0 1 .03 1.43.09s.81.13 1.15.21.62.18.84.28v-.56c0-.69-.26-1.26-.79-1.71s-1.24-.67-2.15-.67c-.61 0-1.19.14-1.76.42s-1.03.65-1.41 1.1l-2.13-1.67q.63-.81 1.47-1.38c.56-.38 1.17-.67 1.85-.86a7.9 7.9 0 0 1 2.13-.29c1.98 0 3.48.46 4.51 1.37s1.55 2.25 1.55 4V110h-3.27v-1.32h-.2a4.515 4.515 0 0 1-2.13 1.48c-.47.16-1.01.24-1.6.24m.79-2.58c.68 0 1.25-.15 1.71-.44s.82-.68 1.06-1.15c.25-.47.37-.97.37-1.49-.37-.19-.8-.33-1.27-.44s-.95-.17-1.44-.17c-.98 0-1.65.19-2.03.56-.37.37-.56.83-.56 1.37 0 .51.18.93.55 1.27.36.34.9.51 1.61.51ZM669.81 110V97.08h3.12v1.72h.2q.33-.6.87-1.08c.36-.31.79-.56 1.28-.75a4.3 4.3 0 0 1 1.57-.28c.34 0 .64.03.91.08s.51.12.71.2v3.32c-.36-.14-.71-.25-1.05-.34-.35-.09-.71-.14-1.1-.14-.66 0-1.23.17-1.71.49-.48.33-.85.78-1.1 1.34-.25.57-.38 1.2-.38 1.91v6.44h-3.32ZM680.48 110V91.86h3.32V110zm1.95-2.71v-4.1l6.18-6.11h4.08v.2zm6.56 2.71-4.36-6.97 2.31-2.26 5.98 9.02v.2h-3.93ZM700.27 110.4c-1.3 0-2.46-.3-3.48-.89a6.46 6.46 0 0 1-2.41-2.43c-.58-1.03-.87-2.2-.87-3.52 0-1.23.29-2.37.86-3.42a6.7 6.7 0 0 1 2.36-2.52c1-.63 2.14-.95 3.42-.95 1.38 0 2.55.3 3.5.89s1.66 1.38 2.15 2.37.74 2.08.74 3.28c0 .27 0 .5-.03.7-.02.19-.03.33-.05.42h-11.1v-2.36h7.98c-.02-.29-.1-.58-.25-.89s-.36-.58-.63-.84-.59-.46-.98-.62c-.38-.16-.82-.24-1.31-.24a3.2 3.2 0 0 0-1.76.51c-.53.34-.95.81-1.25 1.41s-.46 1.31-.46 2.14.16 1.59.48 2.19.76 1.06 1.3 1.37c.55.31 1.16.47 1.84.47.79 0 1.46-.17 2-.52.54-.34.96-.78 1.27-1.3l2.69 1.32c-.61 1.06-1.4 1.9-2.38 2.52s-2.19.92-3.62.92ZM707.67 99.92v-2.84h2.38v2.84zm6.53 10.28c-1.33 0-2.38-.38-3.14-1.15q-1.14-1.155-1.14-3.18V93.43h3.32v11.83c0 .62.13 1.08.38 1.38s.67.44 1.24.44c.27 0 .52-.04.76-.11.24-.08.53-.22.89-.44v3.24c-.37.14-.75.24-1.13.32s-.77.11-1.18.11m-1.09-10.28v-2.84h3.29v2.84zM720.82 95.66c-.59 0-1.1-.21-1.52-.63s-.63-.93-.63-1.52.21-1.09.63-1.51c.42-.41.93-.62 1.52-.62s1.09.21 1.51.62c.41.42.62.92.62 1.51s-.21 1.1-.62 1.52-.92.63-1.51.63M719.14 110V97.08h3.32V110zM725.65 110V97.08h3.12v1.62h.2c.39-.63.94-1.12 1.65-1.48s1.48-.55 2.31-.55q2.385 0 3.57 1.44c1.185 1.44 1.19 2.25 1.19 3.85v8.03h-3.32v-7.63c0-.84-.21-1.49-.65-1.94-.43-.45-1.02-.67-1.76-.67-.61 0-1.14.16-1.58.49-.45.33-.79.77-1.04 1.32s-.37 1.16-.37 1.84v6.59h-3.32ZM746.73 115.88c-1.17 0-2.18-.18-3.03-.55-.85-.36-1.55-.83-2.09-1.4s-.92-1.18-1.14-1.8l3.12-1.27c.27.63.68 1.13 1.23 1.51s1.19.57 1.91.57c1.03 0 1.86-.32 2.48-.95s.94-1.55.94-2.75v-1.01h-.2c-.4.57-.94 1.01-1.6 1.32-.66.3-1.41.46-2.25.46-1.05 0-2.03-.27-2.95-.81s-1.67-1.31-2.23-2.31-.85-2.18-.85-3.55.28-2.57.85-3.56 1.31-1.75 2.23-2.29 1.9-.81 2.95-.81c.84 0 1.6.15 2.25.44.66.3 1.19.74 1.6 1.33h.2v-1.37h3.19v12.04c0 1.39-.27 2.58-.81 3.6a5.68 5.68 0 0 1-2.29 2.34c-.99.55-2.16.82-3.51.82m.06-8.9c.59 0 1.14-.14 1.66-.42.51-.28.93-.69 1.24-1.24s.47-1.21.47-1.99-.16-1.49-.47-2.03-.73-.95-1.24-1.22c-.52-.27-1.07-.4-1.66-.4s-1.15.13-1.67.4-.94.68-1.25 1.22-.47 1.22-.47 2.03.16 1.46.47 2.01.73.96 1.25 1.23 1.08.4 1.67.4ZM40.05 112.66c-7.7 0-14.58-1.75-20.63-5.25q-9.075-5.25-14.25-14.4C1.72 86.91-.01 79.96-.01 72.16q0-10.95 5.1-20.25c3.4-6.2 8.05-11.18 13.95-14.93s12.65-5.63 20.25-5.63q12.3 0 20.7 5.25c5.6 3.5 9.85 8.18 12.75 14.03s4.35 12.33 4.35 19.43c0 1.6-.05 2.98-.15 4.13s-.2 1.98-.3 2.48H10.95V62.72H58.2q-.15-2.55-1.5-5.25t-3.75-4.95c-1.6-1.5-3.53-2.72-5.78-3.68-2.25-.95-4.83-1.42-7.73-1.42-3.8 0-7.28 1-10.43 3s-5.63 4.78-7.43 8.33-2.7 7.78-2.7 12.68.95 9.43 2.85 12.98 4.47 6.25 7.73 8.1c3.25 1.85 6.88 2.77 10.88 2.77 4.7 0 8.65-1.02 11.85-3.07s5.7-4.62 7.5-7.73l15.9 7.8c-3.6 6.3-8.3 11.28-14.1 14.93s-12.95 5.48-21.45 5.48ZM147.61 137.15v-25.24l1.2-10.8h-1.2c-1.2 2-2.9 3.88-5.1 5.63s-4.8 3.18-7.8 4.28q-4.5 1.65-10.05 1.65c-7 0-13.3-1.73-18.9-5.17-5.6-3.45-10.03-8.23-13.28-14.33S87.6 80.02 87.6 72.02s1.62-15.05 4.88-21.15c3.25-6.1 7.67-10.88 13.28-14.33 5.6-3.45 11.9-5.18 18.9-5.18q5.55 0 10.05 1.65t7.8 4.35 5.1 5.7h1.2v-9.3h18.3v103.4h-19.5Zm-19.65-42.64c3.7 0 7.13-.95 10.28-2.85s5.7-4.52 7.65-7.88c1.95-3.35 2.93-7.28 2.93-11.78s-.98-8.42-2.93-11.78q-2.925-5.025-7.65-7.8c-3.15-1.85-6.58-2.77-10.28-2.77s-6.98.93-10.13 2.77c-3.15 1.85-5.7 4.43-7.65 7.73s-2.93 7.25-2.93 11.85.98 8.45 2.93 11.85 4.5 6.03 7.65 7.88 6.53 2.77 10.13 2.77ZM213.62 112.66q-14.1 0-21.15-8.7t-7.05-23.7v-46.5h19.65v44.1c0 5.2 1.27 9.28 3.83 12.23 2.55 2.95 5.82 4.42 9.83 4.42s7.2-.97 9.9-2.92 4.77-4.58 6.23-7.88c1.45-3.3 2.18-6.95 2.18-10.95v-39h19.65v76.51h-18.45v-9.6h-1.2q-2.25 3.6-5.85 6.3c-2.4 1.8-5.08 3.2-8.03 4.2s-6.13 1.5-9.53 1.5ZM285.47 25.35q-5.25 0-9-3.75t-3.75-9c0-5.25 1.25-6.47 3.75-8.93 2.5-2.45 5.5-3.68 9-3.68s6.47 1.23 8.93 3.68c2.45 2.45 3.68 5.43 3.68 8.93s-1.23 6.5-3.68 9-5.43 3.75-8.93 3.75m-9.9 84.91V33.75h19.65v76.51zM314.12 137.15V33.75h18.45v9.3h1.2c1.3-2 3.02-3.9 5.17-5.7s4.73-3.25 7.73-4.35q4.5-1.65 10.05-1.65c7 0 13.28 1.73 18.83 5.18s9.95 8.23 13.2 14.33 4.88 13.15 4.88 21.15-1.63 15.05-4.88 21.15-7.65 10.88-13.2 14.33-11.83 5.17-18.83 5.17c-5.5 0-10.23-1.18-14.18-3.53s-6.88-5.03-8.78-8.03h-1.2l1.2 10.8v25.24h-19.65Zm39.16-42.64c3.7 0 7.13-.92 10.28-2.77s5.7-4.47 7.65-7.88c1.95-3.4 2.92-7.35 2.92-11.85s-.98-8.55-2.92-11.85c-1.95-3.3-4.5-5.87-7.65-7.73-3.15-1.85-6.58-2.77-10.28-2.77s-6.98.93-10.13 2.77q-4.725 2.775-7.65 7.8c-1.95 3.35-2.93 7.28-2.93 11.78s.98 8.43 2.93 11.78 4.5 5.98 7.65 7.88 6.53 2.85 10.13 2.85ZM435.93 112.66q-14.1 0-21.15-8.7t-7.05-23.7v-46.5h19.65v44.1c0 5.2 1.27 9.28 3.83 12.23 2.55 2.95 5.82 4.42 9.83 4.42s7.2-.97 9.9-2.92 4.77-4.58 6.23-7.88c1.45-3.3 2.18-6.95 2.18-10.95v-39H479v76.51h-18.45v-9.6h-1.2q-2.25 3.6-5.85 6.3c-2.4 1.8-5.08 3.2-8.03 4.2s-6.13 1.5-9.53 1.5Z"/><path d="m558.61 112.92-2.39-1.12c-1.19-.56-29.08-13.93-29.08-37.61V42.48h62.93v31.71c0 23.68-27.89 37.05-29.08 37.61l-2.39 1.12Zm-19.64-58.51v19.87c0 12.74 14.01 22.12 19.64 25.37 5.66-3.24 19.62-12.52 19.62-25.37V54.41z" class="st0"/><path d="m558.61 135.42-2.42-1.14c-1.91-.9-46.83-22.42-46.83-59.95V24.66h98.5v49.66c0 37.53-44.92 59.05-46.83 59.95l-2.42 1.14Zm-37.87-99.37v38.28c0 25.97 29.15 43.68 37.86 48.39 8.7-4.73 37.87-22.5 37.87-48.39V36.05h-75.72Z" class="st0"/></svg>