<svg xmlns="http://www.w3.org/2000/svg" id="Capa_1" viewBox="0 0 92.22 108.88"><defs><style>.st0{fill:#030404}</style></defs><g id="jmRoHE"><path d="M46 83.68c-3.32 0-6.64-.02-9.96 0-1.45.01-2.52-.38-2.46-2.15.16-5.34-2.39-9.66-4.89-13.99-1.85-3.2-3.82-6.32-5.17-9.8-4.21-10.85-1.09-23.01 7.66-29.92 9.03-7.12 21.11-7.06 29.96.14 8.85 7.21 11.82 19.34 7.37 30.22-1.41 3.45-3.34 6.6-5.22 9.78-2.46 4.16-4.68 8.42-4.66 13.51 0 1.72-.92 2.23-2.41 2.21-3.41-.04-6.82-.01-10.23-.01Zm-.31-4.89h1.19q6.26 0 8.49-5.98c1.74-4.65 4.57-8.66 6.9-12.96 2.67-4.92 4.17-10.02 3.06-15.79C63.5 34.5 55.22 27.51 45.6 27.64c-9.22.13-17.23 7.47-18.81 16.86-1.05 6.26 1.03 11.54 3.9 16.72 2.01 3.63 4.31 7.09 5.95 10.96.89 2.1.49 5.09 2.53 6.24 2 1.13 4.58.2 6.52.37M54.81 85.96c1.56-.07 3.03.12 3.24 2.09.22 2.08-1.2 2.67-2.85 2.92-5.85.87-11.69 1.77-17.54 2.63-1.63.24-3.2.02-3.49-2.06-.27-1.91 1.04-2.68 2.58-2.91 6.02-.93 12.05-1.79 18.07-2.67ZM36.86 101.37c-1.37 0-2.47-.53-2.69-2.09-.25-1.75.82-2.66 2.28-2.88 6.29-.98 12.58-1.9 18.88-2.76 1.38-.19 2.51.51 2.72 2.07.26 1.92-1 2.71-2.53 2.96-4.16.67-8.33 1.23-12.5 1.83-2.04.29-4.08.58-6.16.88ZM7.98 50.57c-1.78 0-3.57.06-5.35-.02-1.49-.07-2.64-.74-2.63-2.51.01-1.59 1-2.27 2.43-2.4 3.65-.34 7.31-.32 10.96-.06 1.43.1 2.37.92 2.36 2.49 0 1.58-1.04 2.36-2.42 2.44-1.78.11-3.57.03-5.35.03v.02ZM84.29 50.56c-1.78 0-3.57.08-5.35-.02-1.38-.08-2.42-.83-2.47-2.4-.05-1.56.88-2.39 2.31-2.51 3.74-.31 7.48-.33 11.21.01 1.32.12 2.18.92 2.21 2.34.04 1.56-.91 2.44-2.31 2.54-1.86.12-3.74.03-5.61.03v.02ZM25.3 23.87c-.03 2-1.75 3.3-3.15 2.24-3.46-2.63-6.49-5.8-9.11-9.35-.67-.9-.28-2.01.5-2.78.7-.7 1.71-1.02 2.47-.41 3.4 2.74 6.4 5.91 9.08 9.4.2.26.16.71.2.89ZM15.18 82.71c-1.87-.08-3.07-1.89-2.08-3.36 2.41-3.57 5.51-6.53 8.75-9.3.78-.66 1.9-.51 2.72.27s1.09 1.97.48 2.79c-2.6 3.54-5.74 6.56-9.02 9.4-.24.21-.68.16-.85.2M79.45 80.19c0 2.14-2.14 3.41-3.66 2.07-3.05-2.69-5.95-5.6-8.46-8.87-.72-.94-.6-2.15.29-3.04.79-.79 1.91-.98 2.71-.3 3.27 2.73 6.24 5.8 8.82 9.25.2.27.23.69.29.89ZM69.39 26.41c-2.07-.01-3.23-2.18-1.98-3.83 2.47-3.28 5.37-6.19 8.48-8.84.86-.73 1.89-.53 2.71.21.81.73 1.27 1.84.61 2.73-2.61 3.53-5.74 6.57-9 9.45-.25.22-.66.22-.82.27ZM48.42 8.42c0 1.86.07 3.73-.02 5.58-.08 1.51-.91 2.44-2.43 2.36-1.39-.07-2.12-1.01-2.14-2.38-.06-3.81-.07-7.63 0-11.44.02-1.47.77-2.55 2.3-2.53 1.5.02 2.25 1.07 2.3 2.56.07 1.95.02 3.91.01 5.86ZM46.62 108.88c-3.14.05-5.13-.51-6.3-2.78-.7-1.35-.56-2.42 1.18-2.46 2.76-.06 5.53-.06 8.29 0 1.9.05 1.99 1.18 1.22 2.62-1.15 2.16-3.15 2.53-4.4 2.61Z" class="st0"/><path d="M29.24 46.87c.36-8.83 7.99-16.47 16.11-16.51 1.62 0 2.93.57 2.99 2.44.06 1.91-1.32 2.4-2.86 2.65-6.86 1.07-10.29 4.52-11.44 11.64-.27 1.69-.53 3.34-2.56 3.17-2.17-.18-2.26-2.01-2.23-3.38Z" class="st0"/></g></svg>