<svg xmlns="http://www.w3.org/2000/svg" id="Capa_1" viewBox="0 0 232.23 80.08"><defs><style>.st0{fill:#fd0100}.st1{fill:#fda902}</style></defs><path d="M117 57.76a2.9 2.9 0 0 0-1.15-1.4c-.53-.34-1.17-.52-1.92-.52h-11.95c-.75 0-1.5.18-2.23.52-.74.35-1.37.82-1.9 1.4-.54.58-.9 1.23-1.09 1.95l-1.02 3.7c-.19.72-.19 1.37.04 1.95.21.58.59 1.05 1.13 1.4.55.34 1.2.52 1.95.52h11.69l-.89 3.29h-11.5l.42-1.54h-4.37l-.48 1.75c-.19.7-.17 1.34.04 1.93q.315.885 1.14 1.41c.54.35 1.19.52 1.94.52h11.94c.76 0 1.49-.17 2.22-.52.72-.35 1.36-.82 1.9-1.41.55-.59.92-1.23 1.11-1.93l1.01-3.71c.2-.71.18-1.36-.05-1.95-.22-.58-.6-1.05-1.13-1.39-.54-.35-1.18-.53-1.93-.53h-11.76l.9-3.29h11.5l-.42 1.54h4.42l.48-1.74c.2-.72.18-1.37-.04-1.95M136.26 59.5h-4.34l-7.07 5.56h-2.19l2.87-10.53h-4.32l-5.48 20.11h4.31l1.52-5.56h2.19l4.04 5.56h4.34l.37-1.35-4.39-6.22 7.78-6.22zM149.72 59.55l-3.03 11.1h-7.98l3.03-11.1h-4.31l-3.09 11.31c-.18.68-.17 1.3.05 1.88.22.57.59 1.03 1.12 1.38.52.35 1.16.52 1.91.52h8.18l-.39 1.41h-9.69l-1.1 4.03h9.92c.75 0 1.48-.17 2.2-.51.71-.34 1.32-.8 1.85-1.38.52-.57.88-1.21 1.07-1.9l4.57-16.74z" class="st1"/><path d="m170.28 68.45-.2-.31h-5.72l.21.33 3.91 6.17h4.51l.38-1.38zm6.75-10.65c-.22-.6-.6-1.07-1.13-1.41-.54-.35-1.19-.52-1.96-.52h-16.09l-5.12 18.77h4.37l1.67-6.16h5.8l5.71-.03h.23c.77 0 1.51-.17 2.23-.52.73-.34 1.36-.81 1.91-1.41.55-.59.92-1.23 1.11-1.93l1.32-4.86c.2-.7.18-1.34-.05-1.93m-5.64 6.58H159.9l1.21-4.47h11.5zM195.21 61.4c-.21-.57-.57-1.04-1.1-1.38-.52-.35-1.16-.52-1.92-.52h-12.48l-1.09 3.99h12.26l-.43 1.57h-12.26l-1.58 5.8c-.18.68-.17 1.3.04 1.88.21.57.57 1.03 1.1 1.38.52.35 1.16.52 1.92.52h12.48l3.1-11.36c.18-.68.17-1.3-.04-1.88m-6.28 9.25h-7.95l.57-2.09h7.95zM213.42 63.49l1.09-3.99h-12.45c-.74 0-1.46.17-2.17.52a6.1 6.1 0 0 0-1.87 1.38c-.54.58-.9 1.2-1.08 1.88l-2.07 7.58c-.18.68-.17 1.3.05 1.88.22.57.59 1.03 1.12 1.38.52.35 1.15.52 1.89.52h12.48l1.09-3.99h-12.26l1.95-7.16zM232.07 61.4c-.21-.57-.58-1.04-1.1-1.38-.53-.35-1.17-.52-1.92-.52h-8.4c-.73 0-1.45.17-2.16.52-.72.34-1.34.81-1.88 1.38-.53.58-.89 1.2-1.07 1.88l-2.07 7.58c-.19.68-.17 1.3.05 1.88q.33.855 1.11 1.38c.53.35 1.16.52 1.89.52H229l1.09-3.99h-12.25l.42-1.57h12.27l1.58-5.8c.18-.68.16-1.3-.04-1.88m-4.9 4.18h-7.95l.57-2.09h7.95zM5.12 55.84 0 74.64h4.31l5.13-18.8zM26.3 61.4c-.21-.57-.57-1.04-1.09-1.38-.53-.35-1.17-.52-1.92-.52h-8.17l1.35-4.97h-4.31L6.67 74.64h12.48c.75 0 1.49-.17 2.2-.52q1.08-.525 1.86-1.38c.53-.58.88-1.2 1.06-1.88l2.07-7.58c.18-.68.18-1.3-.04-1.88m-6.28 9.25h-7.94l1.95-7.16h7.94zM44.48 61.4c-.21-.57-.58-1.04-1.1-1.38-.53-.35-1.17-.52-1.92-.52H28.98l-1.09 3.99h12.26l-.43 1.57H27.47l-1.59 5.8c-.18.68-.17 1.3.04 1.88.21.57.57 1.03 1.1 1.38.52.35 1.16.52 1.91.52h12.49l3.1-11.36c.18-.68.17-1.3-.04-1.88m-6.28 9.25h-7.95l.57-2.09h7.95zM51.61 59.5c-.75 0-1.48.17-2.2.52-.71.34-1.34.81-1.87 1.38-.53.58-.89 1.2-1.08 1.88l-3.1 11.36h4.31l3.04-11.15h8.82l1.1-3.99zM66.15 59.5c-.75 0-1.48.17-2.2.52-.71.34-1.34.81-1.87 1.38-.53.58-.89 1.2-1.08 1.88l-3.1 11.36h4.31l3.04-11.15h8.82l1.09-3.99zM92.64 61.4a2.73 2.73 0 0 0-1.11-1.38c-.52-.35-1.16-.52-1.91-.52H77.14l-1.09 3.99h12.26l-.43 1.57H75.62l-1.58 5.8c-.19.68-.17 1.3.03 1.88q.315.855 1.11 1.38c.52.35 1.16.52 1.91.52h12.48l3.11-11.36c.18-.68.16-1.3-.04-1.88m-6.28 9.25H78.4l.58-2.09h7.94z" class="st0"/><path d="M136.21 11.51c-.46-.2-.92-.39-1.38-.58-1.93-.82-3.88-1.6-5.85-2.4l-6-2.37-6.21-2.43c.78-1.13 1.57-2.16 2.28-3.17l1.92 1.37.25.18.25-.24 1.96-1.88 1.1.05 3.62 3.63 3.81 3.73 3.85 3.7c.14.13.27.27.42.4Z" class="st1"/><path d="m168.85 34.35-.16-.05-.12-.08zM59.75 37.85l-5.5 3.13 12.2-8.19c8.61-5.78 17.22-11.56 25.8-17.37l2.29 1.78-8.91 10.38-4.94-1.27-.3-.08-.25.14-20.38 11.48ZM101.82 43.39l.04-.01.07.01zM169.02 44.82l13.43 3.13-35.58-2.22-37.06-2.18 37.02-3.95 11.02 2.62zM64.22 48.75l.04-.01h.09z" class="st0"/><path d="m46.29 48.87 28.22-7.71c4.58.61 20.74 2.92 20.74 2.92l-30.99 4.67z" class="st0"/><path d="m186.72 46.87-17.27-3.93-11.18-2.55-11.19-2.49-.15-.03h-.14l-43.27 5.31-1.65.2-1.25-.12-12.43-1.16c-4.58-.43-9.14-1.04-13.69-1.43l-31.47 7.84-.94.23 3.09-1.68 15.15-8.19L80.6 27.81l16.3 4.49c5.53 1.53 11.07 2.99 16.61 4.49l.56.16.4-.44 14.16-15.53 19.8 6.61L158.65 31l10.07 3.32 18.03 12.57Z" class="st0"/><path d="m165.6 30.99-6.29-2.1-10.23-3.36-20.46-6.72-.63-.2-.44.49-14.13 15.66c-5.36-1.4-10.7-2.83-16.07-4.2L86.98 27.9l20.11-19.4 6.71-5.61 20.64 12.12h.03l.03.01 5.67.02-.08-.04 2.31.03h.95l22.28 15.95ZM191.52 49.01l-.14-.01.01-.02zM101.86 43.38h-.04l.11.01h-.07Zm.06-.29h-.08l-.09.01-1.14.17 1.25.11 1.65-.2zm-59.84 5.65.94-.23 2.15-1.44zM168.85 34.35l-.16-.05-.12-.08z" class="st0"/><path d="m101.82 43.39.04-.01.07.01z" class="st0"/><path d="m186.72 46.87-17.27-3.93-11.18-2.55-11.19-2.49-.15-.03h-.14l-43.27 5.31-1.65.2-1.25-.12-12.43-1.16c-4.58-.43-9.14-1.04-13.69-1.43l-31.47 7.84-.94.23 3.09-1.68 15.15-8.19L80.6 27.81l16.3 4.49c5.53 1.53 11.07 2.99 16.61 4.49l.56.16.4-.44 14.16-15.53 19.8 6.61L158.65 31l10.07 3.32 18.03 12.57Z" class="st0"/></svg>