<svg xmlns="http://www.w3.org/2000/svg" xmlns:xlink="http://www.w3.org/1999/xlink" viewBox="0 0 165.13 105.41"><defs><linearGradient id="a" x1="44.59" x2="99.22" y1="-9.01" y2="61.64" data-name="Degradado sin nombre 4" gradientUnits="userSpaceOnUse"><stop offset=".41" stop-color="#dd8606"/><stop offset=".53" stop-color="#fdc844"/><stop offset=".65" stop-color="#f6c455"/><stop offset=".77" stop-color="#dd8606"/><stop offset=".87" stop-color="#f2a93b"/><stop offset="1" stop-color="#dd8606"/></linearGradient><linearGradient xlink:href="#a" id="b" x1="54.19" x2="108.82" y1="-16.44" y2="54.22" data-name="Degradado sin nombre 4"/><linearGradient xlink:href="#a" id="c" x1="58.95" x2="113.58" y1="-20.11" y2="50.54" data-name="Degradado sin nombre 4"/><linearGradient xlink:href="#a" id="d" x1="62.54" x2="117.17" y1="-22.89" y2="47.76" data-name="Degradado sin nombre 4"/><linearGradient xlink:href="#a" id="e" x1="33.44" x2="88.07" y1="-.39" y2="70.26" data-name="Degradado sin nombre 4"/><linearGradient xlink:href="#a" id="f" x1="-19.05" x2="73.76" y1="68.48" y2="114.89" data-name="Degradado sin nombre 4"/><linearGradient xlink:href="#a" id="g" x1="-15.46" x2="77.3" y1="61.34" y2="107.73" data-name="Degradado sin nombre 4"/><linearGradient xlink:href="#a" id="h" x1="-9.6" x2="83.16" y1="49.63" y2="96" data-name="Degradado sin nombre 4"/><linearGradient xlink:href="#a" id="i" x1="-7.94" x2="84.91" y1="46.14" y2="92.57" data-name="Degradado sin nombre 4"/><linearGradient xlink:href="#a" id="j" x1="-5.13" x2="87.65" y1="40.65" y2="87.04" data-name="Degradado sin nombre 4"/><linearGradient xlink:href="#a" id="k" x1="-1.91" x2="90.84" y1="34.28" y2="80.65" data-name="Degradado sin nombre 4"/><linearGradient xlink:href="#a" id="l" x1="2.39" x2="95.14" y1="25.69" y2="72.07" data-name="Degradado sin nombre 4"/><linearGradient xlink:href="#a" id="m" x1="5.47" x2="98.28" y1="19.34" y2="65.75" data-name="Degradado sin nombre 4"/><linearGradient xlink:href="#a" id="n" x1="8.85" x2="101.66" y1="12.57" y2="58.98" data-name="Degradado sin nombre 4"/><linearGradient xlink:href="#a" id="o" x1="11.59" x2="104.39" y1="7.13" y2="53.52" data-name="Degradado sin nombre 4"/><linearGradient xlink:href="#a" id="p" x1="44.41" x2="109.44" y1="108.21" y2="137.72" data-name="Degradado sin nombre 4"/><linearGradient xlink:href="#a" id="q" x1="45.38" x2="110.42" y1="106.06" y2="135.57" data-name="Degradado sin nombre 4"/><linearGradient xlink:href="#a" id="r" x1="45.83" x2="110.81" y1="105.04" y2="134.53" data-name="Degradado sin nombre 4"/><linearGradient xlink:href="#a" id="s" x1="47.67" x2="112.66" y1="100.99" y2="130.48" data-name="Degradado sin nombre 4"/><linearGradient xlink:href="#a" id="t" x1="48.3" x2="113.43" y1="99.61" y2="129.16" data-name="Degradado sin nombre 4"/><linearGradient xlink:href="#a" id="u" x1="48.48" x2="113.45" y1="99.19" y2="128.67" data-name="Degradado sin nombre 4"/><linearGradient xlink:href="#a" id="v" x1="49.6" x2="114.67" y1="96.72" y2="126.24" data-name="Degradado sin nombre 4"/><linearGradient xlink:href="#a" id="w" x1="50.68" x2="115.69" y1="94.36" y2="123.86" data-name="Degradado sin nombre 4"/><linearGradient xlink:href="#a" id="x" x1="51.7" x2="116.71" y1="92.11" y2="121.61" data-name="Degradado sin nombre 4"/><linearGradient xlink:href="#a" id="y" x1="52.14" x2="117.08" y1="91.19" y2="120.66" data-name="Degradado sin nombre 4"/><linearGradient xlink:href="#a" id="z" x1="54.34" x2="119.36" y1="86.27" y2="115.77" data-name="Degradado sin nombre 4"/><linearGradient xlink:href="#a" id="A" x1="55.91" x2="120.87" y1="82.89" y2="112.37" data-name="Degradado sin nombre 4"/><linearGradient xlink:href="#a" id="B" x1="56.89" x2="121.96" y1="80.57" y2="110.1" data-name="Degradado sin nombre 4"/><linearGradient xlink:href="#a" id="C" x1="57.56" x2="122.54" y1="79.23" y2="108.72" data-name="Degradado sin nombre 4"/><linearGradient xlink:href="#a" id="D" x1="57.97" x2="122.92" y1="78.4" y2="107.88" data-name="Degradado sin nombre 4"/><linearGradient xlink:href="#a" id="E" x1="58.81" x2="123.78" y1="76.51" y2="106" data-name="Degradado sin nombre 4"/><linearGradient xlink:href="#a" id="F" x1="60.48" x2="125.45" y1="72.85" y2="102.33" data-name="Degradado sin nombre 4"/><linearGradient xlink:href="#a" id="G" x1="61.93" x2="126.9" y1="69.66" y2="99.14" data-name="Degradado sin nombre 4"/><linearGradient xlink:href="#a" id="H" x1="62.29" x2="127.26" y1="68.89" y2="98.37" data-name="Degradado sin nombre 4"/><linearGradient xlink:href="#a" id="I" x1="63.3" x2="128.25" y1="66.71" y2="96.18" data-name="Degradado sin nombre 4"/><linearGradient xlink:href="#a" id="J" x1="64.17" x2="129.16" y1="64.68" y2="94.18" data-name="Degradado sin nombre 4"/></defs><path d="M84.67 46.58s-10.87-.9-10.87-12.74c0-8.65 10.77-15.27 10.87-15.32-1.66.5-3.28 1.05-4.86 1.64-2.13.8-4.13 1.71-6.01 2.72-1.88 1.02-3.53 2.18-4.95 3.47q-2.13 1.95-3.36 4.44c-.81 1.66-1.22 3.52-1.22 5.59q0 2.535.87 4.74c.58 1.47 1.39 2.74 2.44 3.8s2.33 1.9 3.85 2.51 3.22.92 5.09.92c2.03 0 3.83-.23 5.37-.7.98-.3 1.91-.66 2.78-1.06Z" style="fill:url(#a)"/><path d="M71.03 13.18c2.16-1.1 3.42-4.05 3.78-6.44.28-1.89 1.23-4.44 4.08-6.19-.44.09-.88.19-1.31.31-2.27.59-4.29 1.45-6.08 2.56-1.78 1.11-6.35 4.19-6.35 7.92 0 0-.42 5.05 5.88 1.86Z" style="fill:url(#b)"/><path d="M98.91 40.74V12.67c0-1.91-.27-3.65-.82-5.23a9.05 9.05 0 0 0-2.75-4.01c-1.28-1.09-2.99-1.95-5.12-2.56C88.55.39 86.95.1 84.66 0c0 0 4.67 1.67 4.67 14.88v25.86c0 1.47.43 2.78 1.29 3.92 0 .01.02.02.03.03 2.58 4.44 11.54 4.74 11.54 4.74-1.25-.63-3.28-4.26-3.28-8.7Z" style="fill:url(#c)"/><path d="M87.71 61.06c11.73-4.34 13.45-7.18 15.53-9.8 2.39-3 2.2-13.36 2.2-14.83V12.81c0-1.91.27-3.65.82-5.23a9.05 9.05 0 0 1 2.75-4.01c1.28-1.09 2.99-1.95 5.12-2.56 1.67-.48 3.66-.77 5.95-.87 0 0-5.06 1.67-5.06 14.88V39s-.05 8.46-3.69 12.63c-2.74 3.15-15.2 9.11-23.61 9.43Z" style="fill:url(#d)"/><path d="M77.42 61.06c-11.73-4.34-13.45-7.18-15.53-9.8-2.39-3-2.2-13.36-2.2-14.83V12.81c0-1.91-.27-3.65-.82-5.23a9.05 9.05 0 0 0-2.75-4.01C54.84 2.48 53.13 1.62 51 1.01 49.33.53 47.34.24 45.05.14c0 0 5.06 1.67 5.06 14.88V39s.05 8.46 3.69 12.63c2.74 3.15 15.2 9.11 23.61 9.43Z" style="fill:url(#e)"/><path d="M6.36 72.76c-2.46 0-4.56 1.21-5.63 1.96l.64 1.04c1.02-.77 2.78-1.78 4.82-1.78 2.98 0 3.61 2.49 3.57 4.81-6.73.75-9.76 2.35-9.76 5.7 0 2.84 1.99 4.15 4.39 4.15 1.98 0 3.82-1.1 5.36-2.35h.07l.15 1.97h1.18V78.6c0-3.24-1.21-5.84-4.79-5.84M9.76 85c-1.87 1.59-3.4 2.43-5.13 2.43s-3.2-.84-3.2-3.01c0-2.41 2.12-3.85 8.33-4.57z" style="fill:url(#f)"/><path d="M25.51 72.76c-2.09 0-3.66 1.18-5.2 2.72h-.07l-.15-2.34h-1.18v15.12h1.39V76.85c1.84-1.89 3.14-2.84 4.94-2.84 2.43 0 3.45 1.53 3.45 4.73v9.52h1.39v-9.7c0-3.9-1.45-5.8-4.57-5.8" style="fill:url(#g)"/><path d="M47.95 65.61v6.23l.08 2.78c-1.51-1.17-2.75-1.86-4.56-1.86-3.61 0-6.71 3.09-6.71 7.97s2.46 7.91 6.26 7.91c2 0 3.69-1.1 4.93-2.34h.07l.15 1.96h1.17V65.61zm0 19.3c-1.58 1.62-3.06 2.49-4.73 2.49-3.21 0-5-2.66-5-6.68 0-3.79 2.32-6.73 5.32-6.73 1.49 0 2.82.53 4.41 1.95z" style="fill:url(#h)"/><path d="M63.21 72.76c-1.8 0-3.28 1.34-4.3 3.2h-.07l-.15-2.82h-1.18v15.12h1.4V77.97c1.15-2.86 2.76-3.89 4.12-3.89.58 0 .86.07 1.37.25l.31-1.26c-.5-.24-.95-.31-1.5-.31" style="fill:url(#i)"/><path d="M80.65 79.76c0-4.45-2.2-7-5.79-7-3.38 0-6.59 3.03-6.59 7.97s3.13 7.91 6.99 7.91c2.22 0 3.58-.75 4.77-1.49l-.58-1.06c-1.13.8-2.42 1.34-4.06 1.34-3.4 0-5.64-2.72-5.69-6.54h10.87c.07-.38.08-.76.08-1.13m-10.96-.02c.32-3.61 2.63-5.78 5.19-5.78 2.71 0 4.46 1.92 4.46 5.78z" style="fill:url(#j)"/><path d="M91.91 72.76c-2.45 0-4.55 1.21-5.62 1.96l.64 1.04c1.01-.77 2.78-1.78 4.82-1.78 2.97 0 3.61 2.49 3.56 4.81-6.72.75-9.75 2.35-9.75 5.7 0 2.84 1.99 4.15 4.38 4.15 1.98 0 3.82-1.1 5.37-2.35h.07l.15 1.97h1.17V78.6c0-3.24-1.21-5.84-4.79-5.84M95.31 85c-1.87 1.59-3.39 2.43-5.12 2.43s-3.21-.84-3.21-3.01c0-2.41 2.12-3.85 8.33-4.57z" style="fill:url(#k)"/><path d="m113.27 72.79-2.45 8.02c-.43 1.53-.88 3.11-1.31 4.66h-.13c-.43-1.55-.88-3.13-1.31-4.66l-2.45-8.02h-3.68l5.39 15.47h4.19l5.26-15.47z" style="fill:url(#l)"/><path d="M134.12 79.76c0-4.32-2.2-7.35-6.39-7.35-3.64 0-7.13 3.1-7.13 8.13s3.35 8.1 7.62 8.1c1.97 0 3.83-.68 5.31-1.68l-1.24-2.25c-1.13.7-2.26 1.12-3.59 1.12-2.49 0-4.25-1.56-4.56-4.31h9.82c.08-.38.16-1.07.16-1.76m-10.01-.71c.31-2.48 1.9-3.83 3.7-3.83 2.11 0 3.17 1.45 3.17 3.83z" style="fill:url(#m)"/><path d="M147.7 72.41c-1.66 0-3.3 1.12-4.4 3.14h-.1l-.28-2.76h-2.97v15.47h3.63v-9.44c.93-2.35 2.42-3.2 3.65-3.2.64 0 1.05.11 1.59.26l.63-3.15c-.47-.22-.97-.32-1.75-.32" style="fill:url(#n)"/><path d="M159.36 72.41c-2.46 0-4.65.96-6.35 2.03l1.34 2.42c1.36-.83 2.81-1.52 4.34-1.52 2.09 0 2.76 1.38 2.81 3.04-6.35.68-9.09 2.41-9.09 5.72 0 2.7 1.86 4.54 4.57 4.54 1.83 0 3.41-.91 4.8-2.1h.1l.28 1.72h2.97V79.1c0-4.31-1.9-6.69-5.77-6.69m2.14 11.7c-1.14 1.06-2.1 1.68-3.36 1.68s-2.23-.6-2.23-1.97c0-1.56 1.4-2.65 5.59-3.18z" style="fill:url(#o)"/><path d="M23.99 94.73h-1.86v8.03H24c2.47 0 3.65-1.61 3.65-4.04s-1.18-3.99-3.66-3.99m-.05 7.56h-1.25V95.2h1.25c2.17 0 3.12 1.42 3.12 3.52s-.95 3.57-3.12 3.57" style="fill:url(#p)"/><path d="M33.86 99.47c0-1.72-.85-2.71-2.24-2.71-1.31 0-2.56 1.18-2.56 3.09s1.22 3.06 2.71 3.06c.86 0 1.39-.29 1.85-.58l-.22-.41c-.44.31-.94.52-1.58.52-1.32 0-2.18-1.05-2.2-2.53h4.21c.02-.15.03-.29.03-.44m-4.24 0c.12-1.4 1.01-2.24 2-2.24 1.05 0 1.73.74 1.73 2.24z" style="fill:url(#q)"/><path d="M38.1 96.76c-.72 0-1.42.43-1.99.88h-.03l-.06-.73h-.45v8.5h.54v-3.22c.6.46 1.19.72 1.75.72 1.38 0 2.58-1.17 2.58-3.16 0-1.81-.77-2.99-2.34-2.99m-.27 5.67c-.44 0-1.06-.2-1.72-.75V98.2c.7-.62 1.32-.96 1.9-.96 1.35 0 1.86 1.07 1.86 2.51 0 1.59-.85 2.68-2.04 2.68" style="fill:url(#r)"/><path d="M42.32 96.91v5.85h.54v-5.85zm.28-2.37c-.26 0-.49.17-.49.48 0 .28.23.47.49.47s.49-.19.49-.47c0-.31-.22-.48-.49-.48" style="fill:url(#s)"/><path d="M46.25 102.41c-.12.02-.17.02-.22.02-.15 0-.26-.12-.26-.38v-8.06h-.54v7.99c0 .64.25.93.72.93.18 0 .28-.03.39-.06z" style="fill:url(#t)"/><path d="M50.29 96.76c-.95 0-1.77.47-2.18.76l.25.4c.39-.3 1.07-.69 1.86-.69 1.15 0 1.4.97 1.38 1.87-2.6.28-3.77.9-3.77 2.21 0 1.09.77 1.6 1.69 1.6.77 0 1.48-.43 2.08-.91h.03l.06.76h.45v-3.74c0-1.25-.47-2.26-1.85-2.26m1.31 4.74c-.72.62-1.31.94-1.98.94s-1.24-.32-1.24-1.16c0-.94.82-1.5 3.22-1.77z" style="fill:url(#u)"/><path d="M58.11 101.76c-.4.37-.94.67-1.57.67-1.27 0-2.11-1.04-2.11-2.58s.92-2.61 2.12-2.61c.57 0 1 .27 1.38.62l.32-.38c-.4-.37-.92-.72-1.71-.72-1.43 0-2.68 1.13-2.68 3.09s1.14 3.06 2.66 3.06c.74 0 1.37-.33 1.87-.77z" style="fill:url(#v)"/><path d="M59.95 96.91v5.85h.54v-5.85zm.28-2.37c-.27 0-.49.17-.49.48 0 .28.22.47.49.47s.49-.19.49-.47c0-.31-.23-.48-.49-.48" style="fill:url(#w)"/><path d="m65.99 93.57-1.64 1.92.3.28 1.75-1.84zM65 96.76c-1.41 0-2.63 1.13-2.63 3.09s1.22 3.06 2.63 3.06 2.63-1.13 2.63-3.06-1.23-3.09-2.63-3.09m0 5.67c-1.18 0-2.07-1.04-2.07-2.58s.89-2.61 2.07-2.61 2.06 1.07 2.06 2.61-.88 2.58-2.06 2.58" style="fill:url(#x)"/><path d="M72.06 96.76c-.81 0-1.42.46-2.01 1.05h-.03l-.06-.9h-.45v5.85h.53v-4.41c.72-.74 1.22-1.1 1.92-1.1.94 0 1.33.59 1.33 1.83v3.68h.54v-3.75c0-1.51-.56-2.25-1.77-2.25" style="fill:url(#y)"/><path d="m84.17 94.73-1.67 4.71c-.21.59-.4 1.19-.61 1.79h-.05c-.21-.6-.42-1.2-.63-1.79l-1.68-4.71h-.8v8.03h.52v-5.28c0-.65-.04-1.5-.07-2.17h.05l.63 1.79 1.75 4.79h.48l1.73-4.79.63-1.79h.05c-.03.67-.07 1.52-.07 2.17v5.28h.54v-8.03z" style="fill:url(#z)"/><path d="m90.45 93.57-1.64 1.92.3.28 1.75-1.84zm1.25 5.9c0-1.72-.85-2.71-2.24-2.71-1.31 0-2.55 1.18-2.55 3.09s1.21 3.06 2.71 3.06c.85 0 1.38-.29 1.84-.58l-.22-.41c-.44.31-.94.52-1.57.52-1.32 0-2.19-1.05-2.21-2.53h4.21c.03-.15.03-.29.03-.44m-4.24 0c.12-1.4 1.02-2.24 2.01-2.24 1.05 0 1.73.74 1.73 2.24z" style="fill:url(#A)"/><path d="M97.26 93.99v2.42l.03 1.07c-.59-.45-1.07-.72-1.77-.72-1.4 0-2.6 1.2-2.6 3.09s.96 3.06 2.43 3.06c.77 0 1.42-.43 1.9-.91h.03l.06.76h.46v-8.77zm0 7.47c-.62.63-1.19.97-1.84.97-1.24 0-1.93-1.03-1.93-2.59 0-1.46.9-2.6 2.06-2.6.58 0 1.09.2 1.71.75z" style="fill:url(#B)"/><path d="M100.16 96.91v5.85h.54v-5.85zm.29-2.37c-.27 0-.5.17-.5.48 0 .28.23.47.5.47s.48-.19.48-.47c0-.31-.22-.48-.48-.48" style="fill:url(#C)"/><path d="M106.83 101.76c-.4.37-.94.67-1.56.67-1.28 0-2.12-1.04-2.12-2.58s.92-2.61 2.12-2.61c.57 0 1.01.27 1.39.62l.31-.38c-.39-.37-.91-.72-1.71-.72-1.42 0-2.67 1.13-2.67 3.09s1.14 3.06 2.65 3.06c.74 0 1.37-.33 1.87-.77z" style="fill:url(#D)"/><path d="M110.59 96.76c-.95 0-1.76.47-2.17.76l.24.4c.4-.3 1.08-.69 1.87-.69 1.15 0 1.4.97 1.38 1.87-2.6.28-3.78.9-3.78 2.21 0 1.09.77 1.6 1.7 1.6.77 0 1.48-.43 2.08-.91h.02l.06.76h.46v-3.74c0-1.25-.47-2.26-1.86-2.26m1.32 4.74c-.72.62-1.32.94-1.99.94s-1.24-.32-1.24-1.16c0-.94.83-1.5 3.23-1.77z" style="fill:url(#E)"/><path d="M117.84 102.28v-7.55h-.56v8.03h4.26v-.48z" style="fill:url(#F)"/><path d="m126.01 93.57-1.64 1.92.3.28 1.75-1.84zm-.93 3.19c-.96 0-1.77.47-2.18.76l.25.4c.39-.3 1.07-.69 1.86-.69 1.15 0 1.4.97 1.38 1.87-2.6.28-3.78.9-3.78 2.21 0 1.09.78 1.6 1.7 1.6.77 0 1.48-.43 2.08-.91h.03l.06.76h.45v-3.74c0-1.25-.47-2.26-1.85-2.26m1.31 4.74c-.72.62-1.31.94-1.98.94s-1.24-.32-1.24-1.16c0-.94.82-1.5 3.22-1.77z" style="fill:url(#G)"/><path d="M130.62 99.47c-.7-.26-1.39-.51-1.39-1.18 0-.54.42-1.07 1.33-1.07.58 0 1 .24 1.4.54l.29-.39c-.43-.35-1.05-.61-1.68-.61-1.22 0-1.88.72-1.88 1.56 0 1 .98 1.36 1.86 1.67.68.25 1.44.57 1.44 1.3 0 .62-.48 1.16-1.4 1.16-.84 0-1.37-.33-1.87-.74l-.31.39c.53.45 1.28.81 2.15.81 1.27 0 1.97-.77 1.97-1.65 0-1.14-1-1.44-1.91-1.79" style="fill:url(#H)"/><path d="M138.5 99.47c0-1.72-.85-2.71-2.24-2.71-1.31 0-2.55 1.18-2.55 3.09s1.21 3.06 2.7 3.06c.86 0 1.39-.29 1.85-.58l-.22-.41c-.44.31-.94.52-1.57.52-1.32 0-2.19-1.05-2.21-2.53h4.21c.03-.15.03-.29.03-.44m-4.24 0c.12-1.4 1.02-2.24 2.01-2.24 1.05 0 1.72.74 1.72 2.24z" style="fill:url(#I)"/><path d="M142.42 96.76c-.7 0-1.27.52-1.67 1.24h-.02l-.06-1.09h-.46v5.85h.54v-3.98c.45-1.11 1.07-1.51 1.6-1.51.22 0 .33.03.53.1l.12-.49c-.19-.09-.37-.12-.58-.12" style="fill:url(#J)"/></svg>