<svg xmlns="http://www.w3.org/2000/svg" xmlns:xlink="http://www.w3.org/1999/xlink" id="Capa_1" viewBox="0 0 188.78 132.36"><defs><linearGradient id="Degradado_sin_nombre_34" x1="-3188.26" x2="-3186.34" y1="-148.4" y2="-148.4" data-name="Degradado sin nombre 34" gradientTransform="translate(-46956.48 -2172.91)scale(-14.76)" gradientUnits="userSpaceOnUse"><stop offset="0" stop-color="#dedd27"/><stop offset=".04" stop-color="#dada26"/><stop offset=".59" stop-color="#a9b720"/><stop offset=".86" stop-color="#96aa1e"/><stop offset="1" stop-color="#96aa1e"/></linearGradient><linearGradient xlink:href="#Degradado_sin_nombre_34" id="Degradado_sin_nombre_341" x1="-3181.07" x2="-3179.15" y1="-180.73" y2="-180.73" data-name="Degradado sin nombre 34" gradientTransform="translate(-43561.59 -2464.49)scale(-13.73)"/><linearGradient xlink:href="#Degradado_sin_nombre_34" id="Degradado_sin_nombre_342" x1="-3163.65" x2="-3161.73" y1="-234.95" y2="-234.95" data-name="Degradado sin nombre 34" gradientTransform="translate(-38000.54 -2794.06)scale(-12.05)"/><linearGradient xlink:href="#Degradado_sin_nombre_34" id="Degradado_sin_nombre_343" x1="-3067.65" x2="-3065.73" y1="282.13" y2="282.13" data-name="Degradado sin nombre 34" gradientTransform="translate(31309.56 -2848.95)scale(10.18)"/><linearGradient xlink:href="#Degradado_sin_nombre_34" id="Degradado_sin_nombre_344" x1="-3067.6" x2="-3065.68" y1="283.03" y2="283.03" data-name="Degradado sin nombre 34" gradientTransform="translate(31342.41 -2859.2)scale(10.18)"/><linearGradient xlink:href="#Degradado_sin_nombre_34" id="Degradado_sin_nombre_345" x1="-3068.58" x2="-3066.66" y1="282.74" y2="282.74" data-name="Degradado sin nombre 34" gradientTransform="translate(31386.36 -2837.46)scale(10.19)"/><linearGradient xlink:href="#Degradado_sin_nombre_34" id="Degradado_sin_nombre_346" x1="-2970.98" x2="-2969.06" y1="-252.82" y2="-252.82" data-name="Degradado sin nombre 34" gradientTransform="rotate(90 -20715.31 17552.23)scale(12.88)"/><linearGradient xlink:href="#Degradado_sin_nombre_34" id="Degradado_sin_nombre_347" x1="-2970.99" x2="-2969.07" y1="-253.59" y2="-253.59" data-name="Degradado sin nombre 34" gradientTransform="matrix(0 12.88 -12.88 0 -3151.88 38271.61)"/><linearGradient xlink:href="#Degradado_sin_nombre_34" id="Degradado_sin_nombre_348" x1="-2981.12" x2="-2979.2" y1="-248.89" y2="-248.89" data-name="Degradado sin nombre 34" gradientTransform="matrix(0 13.25 -13.25 0 -3184.38 39540.15)"/><linearGradient id="Degradado_sin_nombre_37" x1="-3138.46" x2="-3136.54" y1="212.57" y2="212.57" data-name="Degradado sin nombre 37" gradientTransform="matrix(0 -11.97 11.97 0 -2463.47 -37527.74)" gradientUnits="userSpaceOnUse"><stop offset="0" stop-color="#68b725"/><stop offset=".13" stop-color="#68b725"/><stop offset=".99" stop-color="#009839"/><stop offset="1" stop-color="#009839"/></linearGradient><linearGradient xlink:href="#Degradado_sin_nombre_37" id="Degradado_sin_nombre_371" x1="-3138.76" x2="-3136.83" y1="213.56" y2="213.56" data-name="Degradado sin nombre 37" gradientTransform="matrix(0 -11.97 11.97 0 -2450.66 -37520.07)"/><linearGradient xlink:href="#Degradado_sin_nombre_37" id="Degradado_sin_nombre_372" x1="-3139.64" x2="-3137.72" y1="213.19" y2="213.19" data-name="Degradado sin nombre 37" gradientTransform="matrix(0 -11.97 11.97 0 -2447.36 -37522.33)"/><linearGradient id="Degradado_sin_nombre_40" x1="-3110.09" x2="-3108.17" y1="287.99" y2="287.99" data-name="Degradado sin nombre 40" gradientTransform="matrix(0 -9.74 9.74 0 -2698.62 -30233.87)" gradientUnits="userSpaceOnUse"><stop offset="0" stop-color="#47b231"/><stop offset=".11" stop-color="#47b231"/><stop offset=".29" stop-color="#41af31"/><stop offset=".54" stop-color="#30a734"/><stop offset=".81" stop-color="#159a38"/><stop offset=".99" stop-color="#00913c"/><stop offset="1" stop-color="#00913c"/></linearGradient><linearGradient xlink:href="#Degradado_sin_nombre_40" id="Degradado_sin_nombre_401" x1="-3109.98" x2="-3108.06" y1="286.83" y2="286.83" data-name="Degradado sin nombre 40" gradientTransform="matrix(0 -9.74 9.74 0 -2711.01 -30232.82)"/><linearGradient xlink:href="#Degradado_sin_nombre_40" id="Degradado_sin_nombre_402" x1="-3111.31" x2="-3109.39" y1="287.98" y2="287.98" data-name="Degradado sin nombre 40" gradientTransform="matrix(0 -9.73 9.73 0 -2697.58 -30211.69)"/><linearGradient id="Degradado_sin_nombre_45" x1="-2849.87" x2="-2847.95" y1="-286.6" y2="-286.6" data-name="Degradado sin nombre 45" gradientTransform="matrix(0 9.65 -9.65 0 -2701.14 27527.91)" gradientUnits="userSpaceOnUse"><stop offset="0" stop-color="#007e38"/><stop offset=".58" stop-color="#008e37"/><stop offset=".87" stop-color="#009837"/><stop offset="1" stop-color="#009837"/></linearGradient><linearGradient id="Degradado_sin_nombre_46" x1="-3102.01" x2="-3100.09" y1="255.78" y2="255.78" data-name="Degradado sin nombre 46" gradientTransform="matrix(0 -10.8 10.8 0 -2700.15 -33453.16)" gradientUnits="userSpaceOnUse"><stop offset="0" stop-color="#00632e"/><stop offset=".86" stop-color="#00913c"/><stop offset="1" stop-color="#00913c"/></linearGradient><linearGradient xlink:href="#Degradado_sin_nombre_45" id="Degradado_sin_nombre_451" x1="-2748.45" x2="-2746.53" y1="-291.37" y2="-291.37" data-name="Degradado sin nombre 45" gradientTransform="rotate(90 -12106.75 9870.69)scale(7.98)"/><linearGradient xlink:href="#Degradado_sin_nombre_46" id="Degradado_sin_nombre_461" x1="-3102.09" x2="-3100.17" y1="256.84" y2="256.84" data-name="Degradado sin nombre 46" gradientTransform="rotate(-90 -18076.96 -15390.73)scale(10.81)"/><linearGradient xlink:href="#Degradado_sin_nombre_45" id="Degradado_sin_nombre_452" x1="-2726.45" x2="-2724.53" y1="-268.93" y2="-268.93" data-name="Degradado sin nombre 45" gradientTransform="rotate(90 -11920.96 9868.1)scale(7.97)"/><linearGradient xlink:href="#Degradado_sin_nombre_46" id="Degradado_sin_nombre_462" x1="-3103.31" x2="-3101.39" y1="256.84" y2="256.84" data-name="Degradado sin nombre 46" gradientTransform="matrix(0 -10.8 10.8 0 -2685.09 -33440.27)"/><linearGradient id="Degradado_sin_nombre_82" x1="-1907.15" x2="-1905.57" y1="221.1" y2="221.1" data-name="Degradado sin nombre 82" gradientTransform="translate(5031.3 -480.68)scale(2.63)" gradientUnits="userSpaceOnUse"><stop offset="0" stop-color="#007e38"/><stop offset=".52" stop-color="#00843a"/><stop offset=".73" stop-color="#009038"/><stop offset=".94" stop-color="#009837"/><stop offset="1" stop-color="#009837"/></linearGradient><linearGradient xlink:href="#Degradado_sin_nombre_82" id="Degradado_sin_nombre_821" x1="-1989.16" x2="-1987.58" y1="203.32" y2="203.32" data-name="Degradado sin nombre 82" gradientTransform="translate(5671.62 -476.78)scale(2.84)"/><linearGradient xlink:href="#Degradado_sin_nombre_82" id="Degradado_sin_nombre_822" x1="-1987.41" x2="-1985.83" y1="203.52" y2="203.52" data-name="Degradado sin nombre 82" gradientTransform="translate(5667.98 -476.82)scale(2.84)"/><linearGradient xlink:href="#Degradado_sin_nombre_82" id="Degradado_sin_nombre_823" x1="-1270.77" x2="-1269.18" y1="356.81" y2="356.81" data-name="Degradado sin nombre 82" gradientTransform="translate(2170.39 -498.25)scale(1.68)"/><linearGradient xlink:href="#Degradado_sin_nombre_82" id="Degradado_sin_nombre_824" x1="-1117.1" x2="-1115.51" y1="389.48" y2="389.48" data-name="Degradado sin nombre 82" gradientTransform="translate(1767.24 -500.74)scale(1.54)"/><linearGradient xlink:href="#Degradado_sin_nombre_82" id="Degradado_sin_nombre_825" x1="-1311.63" x2="-1310.05" y1="347.64" y2="347.64" data-name="Degradado sin nombre 82" gradientTransform="translate(2303.13 -497.47)scale(1.72)"/><linearGradient xlink:href="#Degradado_sin_nombre_82" id="Degradado_sin_nombre_826" x1="-1886.37" x2="-1884.78" y1="224.57" y2="224.57" data-name="Degradado sin nombre 82" gradientTransform="translate(4938.29 -481.37)scale(2.59)"/><linearGradient xlink:href="#Degradado_sin_nombre_82" id="Degradado_sin_nombre_827" x1="-1023.34" x2="-1021.76" y1="408.8" y2="408.8" data-name="Degradado sin nombre 82" gradientTransform="translate(1564.97 -502.02)scale(1.47)"/><linearGradient xlink:href="#Degradado_sin_nombre_82" id="Degradado_sin_nombre_828" x1="8001.68" x2="8003.26" y1="2335.83" y2="2335.83" data-name="Degradado sin nombre 82" gradientTransform="matrix(.27 0 0 .27 -2078.61 -524.33)"/><linearGradient xlink:href="#Degradado_sin_nombre_82" id="Degradado_sin_nombre_829" x1="-1785.06" x2="-1783.48" y1="245.85" y2="245.85" data-name="Degradado sin nombre 82" gradientTransform="translate(4315.04 -485.22)scale(2.38)"/><linearGradient xlink:href="#Degradado_sin_nombre_82" id="Degradado_sin_nombre_8210" x1="-1885.2" x2="-1883.62" y1="224.33" y2="224.33" data-name="Degradado sin nombre 82" gradientTransform="translate(4956.01 -481.32)scale(2.59)"/><linearGradient xlink:href="#Degradado_sin_nombre_82" id="Degradado_sin_nombre_8211" x1="-1719.87" x2="-1718.29" y1="259.3" y2="259.3" data-name="Degradado sin nombre 82" gradientTransform="translate(3974.78 -487.36)scale(2.27)"/><linearGradient xlink:href="#Degradado_sin_nombre_82" id="Degradado_sin_nombre_8212" x1="-1101.62" x2="-1100.03" y1="390.78" y2="390.78" data-name="Degradado sin nombre 82" gradientTransform="translate(1777.1 -500.83)scale(1.54)"/><linearGradient xlink:href="#Degradado_sin_nombre_82" id="Degradado_sin_nombre_8213" x1="-1882.24" x2="-1880.65" y1="224.32" y2="224.32" data-name="Degradado sin nombre 82" gradientTransform="translate(4969.81 -481.32)scale(2.59)"/><linearGradient xlink:href="#Degradado_sin_nombre_82" id="Degradado_sin_nombre_8214" x1="-1471.38" x2="-1469.8" y1="311.5" y2="311.5" data-name="Degradado sin nombre 82" gradientTransform="translate(2902.47 -493.99)scale(1.91)"/><linearGradient xlink:href="#Degradado_sin_nombre_82" id="Degradado_sin_nombre_8215" x1="-1978.65" x2="-1977.07" y1="203.5" y2="203.5" data-name="Degradado sin nombre 82" gradientTransform="translate(5712.03 -476.82)scale(2.84)"/><linearGradient xlink:href="#Degradado_sin_nombre_82" id="Degradado_sin_nombre_8216" x1="-1297.6" x2="-1296.01" y1="347.92" y2="347.92" data-name="Degradado sin nombre 82" gradientTransform="translate(2336.43 -497.5)scale(1.72)"/><linearGradient xlink:href="#Degradado_sin_nombre_82" id="Degradado_sin_nombre_8217" x1="-1299.84" x2="-1298.25" y1="347.23" y2="347.23" data-name="Degradado sin nombre 82" gradientTransform="translate(2349.3 -497.44)scale(1.72)"/><linearGradient xlink:href="#Degradado_sin_nombre_82" id="Degradado_sin_nombre_8218" x1="-1976.46" x2="-1974.87" y1="203.52" y2="203.52" data-name="Degradado sin nombre 82" gradientTransform="translate(5721.06 -476.82)scale(2.84)"/><linearGradient xlink:href="#Degradado_sin_nombre_82" id="Degradado_sin_nombre_8219" x1="-1526.04" x2="-1524.45" y1="298.69" y2="298.69" data-name="Degradado sin nombre 82" gradientTransform="translate(3154.33 -492.57)scale(1.98)"/><linearGradient xlink:href="#Degradado_sin_nombre_82" id="Degradado_sin_nombre_8220" x1="-1892.28" x2="-1890.69" y1="220.88" y2="220.88" data-name="Degradado sin nombre 82" gradientTransform="translate(5109.98 -480.63)scale(2.63)"/><linearGradient xlink:href="#Degradado_sin_nombre_82" id="Degradado_sin_nombre_8221" x1="-1296.54" x2="-1294.95" y1="346.68" y2="346.68" data-name="Degradado sin nombre 82" gradientTransform="translate(2374.51 -497.39)scale(1.72)"/><linearGradient xlink:href="#Degradado_sin_nombre_82" id="Degradado_sin_nombre_8222" x1="-1092.84" x2="-1091.26" y1="389.36" y2="389.36" data-name="Degradado sin nombre 82" gradientTransform="translate(1830.27 -501.16)scale(1.54)"/><linearGradient xlink:href="#Degradado_sin_nombre_82" id="Degradado_sin_nombre_8223" x1="-1709.53" x2="-1707.95" y1="259.03" y2="259.03" data-name="Degradado sin nombre 82" gradientTransform="translate(4026.63 -487.32)scale(2.27)"/><linearGradient xlink:href="#Degradado_sin_nombre_82" id="Degradado_sin_nombre_8224" x1="8058.89" x2="8060.48" y1="2320.92" y2="2320.92" data-name="Degradado sin nombre 82" gradientTransform="matrix(.27 0 0 .27 -2015.03 -524.3)"/><linearGradient xlink:href="#Degradado_sin_nombre_82" id="Degradado_sin_nombre_8225" x1="-997.51" x2="-995.92" y1="409.03" y2="409.03" data-name="Degradado sin nombre 82" gradientTransform="translate(1625 -502.04)scale(1.47)"/><linearGradient xlink:href="#Degradado_sin_nombre_82" id="Degradado_sin_nombre_8226" x1="-1971.23" x2="-1969.65" y1="203.42" y2="203.42" data-name="Degradado sin nombre 82" gradientTransform="translate(5752.47 -476.8)scale(2.84)"/><linearGradient xlink:href="#Degradado_sin_nombre_82" id="Degradado_sin_nombre_8227" x1="-3040.94" x2="-3039.36" y1="61.25" y2="61.25" data-name="Degradado sin nombre 82" gradientTransform="rotate(-90 -56909.94 -54671.44)scale(36.74)"/><linearGradient xlink:href="#Degradado_sin_nombre_82" id="Degradado_sin_nombre_8228" x1="-3040.96" x2="-3039.38" y1="61.55" y2="61.55" data-name="Degradado sin nombre 82" gradientTransform="matrix(0 -36.7 36.7 0 -2226.87 -111441.48)"/><linearGradient xlink:href="#Degradado_sin_nombre_82" id="Degradado_sin_nombre_8229" x1="-3040.96" x2="-3039.38" y1="61.7" y2="61.7" data-name="Degradado sin nombre 82" gradientTransform="matrix(0 -36.7 36.7 0 -2217.55 -111443.9)"/><linearGradient xlink:href="#Degradado_sin_nombre_82" id="Degradado_sin_nombre_8230" x1="-3040.94" x2="-3039.36" y1="61.78" y2="61.78" data-name="Degradado sin nombre 82" gradientTransform="rotate(-90 -56893.33 -54688.05)scale(36.74)"/><linearGradient xlink:href="#Degradado_sin_nombre_82" id="Degradado_sin_nombre_8231" x1="-3040.94" x2="-3039.36" y1="61.99" y2="61.99" data-name="Degradado sin nombre 82" gradientTransform="matrix(0 -36.74 36.74 0 -2192.25 -111581.38)"/><linearGradient xlink:href="#Degradado_sin_nombre_82" id="Degradado_sin_nombre_8232" x1="-3040.94" x2="-3039.36" y1="62.21" y2="62.21" data-name="Degradado sin nombre 82" gradientTransform="matrix(0 -36.74 36.74 0 -2178.53 -111581.38)"/><linearGradient xlink:href="#Degradado_sin_nombre_82" id="Degradado_sin_nombre_8233" x1="-3040.96" x2="-3039.38" y1="62.55" y2="62.55" data-name="Degradado sin nombre 82" gradientTransform="matrix(0 -36.7 36.7 0 -2164.17 -111441.48)"/><linearGradient xlink:href="#Degradado_sin_nombre_82" id="Degradado_sin_nombre_8234" x1="-3040.94" x2="-3039.36" y1="62.71" y2="62.71" data-name="Degradado sin nombre 82" gradientTransform="matrix(0 -36.74 36.74 0 -2147.03 -111581.38)"/><linearGradient xlink:href="#Degradado_sin_nombre_82" id="Degradado_sin_nombre_8235" x1="-3040.94" x2="-3039.36" y1="62.93" y2="62.93" data-name="Degradado sin nombre 82" gradientTransform="matrix(0 -36.74 36.74 0 -2133.05 -111581.38)"/><clipPath id="clippath"><path d="M90.98 20.5v-5.33c0-3.08 2.51-5.6 5.59-5.6h5.33c3.09 0 5.59 2.52 5.59 5.6v5.33c0 3.09-2.51 5.6-5.59 5.6h-5.33c-3.08 0-5.59-2.51-5.59-5.6m5.55-11.82c-3.55 0-6.45 2.89-6.45 6.45v5.43c0 3.55 2.89 6.45 6.45 6.45h5.43c3.56 0 6.44-2.9 6.44-6.45v-5.43c0-3.56-2.89-6.45-6.44-6.45z" class="st0"/></clipPath><clipPath id="clippath-1"><path d="M110.56 20.5v-5.33c0-3.09 2.51-5.6 5.6-5.6h5.33c3.09 0 5.6 2.51 5.6 5.6v5.33c0 3.09-2.51 5.6-5.6 5.6h-5.33c-3.09 0-5.6-2.51-5.6-5.6m5.55-11.82c-3.55 0-6.45 2.89-6.45 6.45v5.43c0 3.55 2.9 6.45 6.45 6.45h5.42c3.56 0 6.45-2.9 6.45-6.45v-5.43c0-3.56-2.89-6.45-6.45-6.45z" class="st0"/></clipPath><clipPath id="clippath-2"><path d="M110.56 40.38v-5.33c0-3.09 2.51-5.6 5.6-5.6h5.33c3.09 0 5.6 2.51 5.6 5.6v5.33c0 3.09-2.51 5.59-5.6 5.59h-5.33c-3.09 0-5.6-2.51-5.6-5.59m5.55-11.82c-3.55 0-6.45 2.88-6.45 6.44v5.43c0 3.55 2.9 6.43 6.45 6.43h5.42c3.56 0 6.45-2.88 6.45-6.43V35c0-3.56-2.89-6.44-6.45-6.44z" class="st0"/></clipPath><clipPath id="clippath-3"><path d="M89.3 13.33c-3.7 0-6.69 2.99-6.69 6.69v5.97c0 3.7 2.99 6.69 6.69 6.69h5.97c3.7 0 6.69-2.99 6.69-6.69v-5.97c0-3.7-2.99-6.69-6.69-6.69z" class="st0"/></clipPath><clipPath id="clippath-4"><path d="M110.88 13.33c-3.7 0-6.69 2.99-6.69 6.69v5.97c0 3.7 2.99 6.69 6.69 6.69h5.97a6.69 6.69 0 0 0 6.69-6.69v-5.97c0-3.7-2.99-6.69-6.69-6.69z" class="st0"/></clipPath><clipPath id="clippath-5"><path d="M110.88 35.22c-3.7 0-6.69 3-6.69 6.69v5.98a6.69 6.69 0 0 0 6.69 6.69h5.97c3.69 0 6.69-3 6.69-6.69v-5.98a6.69 6.69 0 0 0-6.69-6.69z" class="st0"/></clipPath><clipPath id="clippath-6"><path d="M83.49 26.12V19.9c0-3.12 2.55-5.68 5.69-5.68h6.22c3.13 0 5.68 2.56 5.68 5.68v6.22c0 3.13-2.55 5.68-5.68 5.68h-6.22c-3.14 0-5.69-2.55-5.69-5.68m5.81-12.38c-3.46 0-6.28 2.82-6.28 6.29V26a6.29 6.29 0 0 0 6.28 6.28h5.97c3.47 0 6.29-2.82 6.29-6.28v-5.97c0-3.46-2.82-6.29-6.29-6.29z" class="st0"/></clipPath><clipPath id="clippath-7"><path d="M105.07 26.12V19.9c0-3.12 2.55-5.68 5.68-5.68h6.21c3.14 0 5.69 2.56 5.69 5.68v6.22c0 3.13-2.54 5.68-5.69 5.68h-6.21c-3.14 0-5.68-2.55-5.68-5.68m5.81-12.38c-3.47 0-6.29 2.82-6.29 6.29V26c0 3.46 2.82 6.28 6.29 6.28h5.97c3.47 0 6.28-2.82 6.28-6.28v-5.97c0-3.46-2.82-6.29-6.28-6.29z" class="st0"/></clipPath><clipPath id="clippath-8"><path d="M105.07 48.01v-6.22c0-3.13 2.55-5.67 5.68-5.67h6.21c3.14 0 5.69 2.54 5.69 5.67v6.22c0 3.13-2.54 5.67-5.69 5.67h-6.21a5.68 5.68 0 0 1-5.68-5.67m5.81-12.37c-3.47 0-6.29 2.81-6.29 6.28v5.98c0 3.45 2.82 6.28 6.29 6.28h5.97c3.47 0 6.28-2.83 6.28-6.28v-5.98a6.29 6.29 0 0 0-6.28-6.28z" class="st0"/></clipPath><clipPath id="clippath-9"><path d="M77.91 20.86c-4.09 0-7.4 3.32-7.4 7.4v6.61c0 4.1 3.31 7.41 7.4 7.41h6.62c4.09 0 7.4-3.31 7.4-7.41v-6.61c0-4.09-3.31-7.4-7.4-7.4z" class="st0"/></clipPath><clipPath id="clippath-10"><path d="M101.8 20.86c-4.09 0-7.41 3.32-7.41 7.4v6.61c0 4.1 3.32 7.41 7.41 7.41h6.62c4.09 0 7.4-3.31 7.4-7.41v-6.61c0-4.09-3.31-7.4-7.4-7.4z" class="st0"/></clipPath><clipPath id="clippath-11"><path d="M101.8 45.1c-4.09 0-7.41 3.31-7.41 7.4v6.62c0 4.09 3.32 7.41 7.41 7.41h6.62c4.09 0 7.4-3.32 7.4-7.41V52.5c0-4.09-3.31-7.4-7.4-7.4z" class="st0"/></clipPath><clipPath id="clippath-12"><path d="M95.37 35.01v-6.88c0-3.48 2.82-6.29 6.29-6.29h6.88c3.47 0 6.29 2.82 6.29 6.29v6.88c0 3.48-2.82 6.29-6.29 6.29h-6.88c-3.47 0-6.29-2.82-6.29-6.29m6.43-13.69c-3.83 0-6.96 3.12-6.96 6.94v6.61c0 3.84 3.13 6.96 6.96 6.96h6.61c3.84 0 6.96-3.12 6.96-6.96v-6.61c0-3.83-3.12-6.94-6.96-6.94z" class="st0"/></clipPath><clipPath id="clippath-13"><path d="M71.64 35.01v-6.88c0-3.48 2.82-6.29 6.29-6.29h6.88c3.47 0 6.29 2.82 6.29 6.29v6.88c0 3.48-2.82 6.29-6.29 6.29h-6.88c-3.47 0-6.29-2.82-6.29-6.29m6.43-13.69c-3.84 0-6.96 3.12-6.96 6.94v6.61c0 3.84 3.12 6.96 6.96 6.96h6.61c3.83 0 6.95-3.12 6.95-6.96v-6.61c0-3.83-3.12-6.94-6.95-6.94z" class="st0"/></clipPath><clipPath id="clippath-14"><path d="M95.37 59.25v-6.89c0-3.47 2.82-6.29 6.29-6.29h6.88c3.47 0 6.29 2.82 6.29 6.29v6.89c0 3.46-2.82 6.29-6.29 6.29h-6.88c-3.47 0-6.29-2.83-6.29-6.29m6.43-13.7c-3.83 0-6.96 3.12-6.96 6.94v6.62c0 3.84 3.13 6.95 6.96 6.95h6.61c3.84 0 6.96-3.11 6.96-6.95v-6.62c0-3.82-3.12-6.94-6.96-6.94z" class="st0"/></clipPath><clipPath id="clippath-15"><path d="M59.48 33.53c-4.55 0-8.22 3.68-8.22 8.22v7.34c0 4.53 3.68 8.22 8.22 8.22h7.34a8.22 8.22 0 0 0 8.22-8.22v-7.34c0-4.54-3.69-8.22-8.22-8.22z" class="st0"/></clipPath><clipPath id="clippath-16"><path d="M52.35 49.24V41.6c0-3.85 3.13-6.98 6.98-6.98h7.65c3.84 0 6.98 3.13 6.98 6.98v7.64c0 3.85-3.13 6.98-6.98 6.98h-7.65c-3.85 0-6.98-3.13-6.98-6.98m7.13-15.21c-4.26 0-7.72 3.46-7.72 7.71v7.34c0 4.25 3.47 7.71 7.72 7.71h7.33c4.26 0 7.72-3.46 7.72-7.71v-7.34c0-4.26-3.47-7.71-7.72-7.71z" class="st0"/></clipPath><clipPath id="clippath-17"><path d="M85.98 33.53a8.22 8.22 0 0 0-8.22 8.22v7.34c0 4.53 3.68 8.22 8.22 8.22h7.33c4.54 0 8.23-3.68 8.23-8.22v-7.34c0-4.54-3.68-8.22-8.23-8.22z" class="st0"/></clipPath><clipPath id="clippath-18"><path d="M78.86 49.24V41.6c0-3.85 3.13-6.98 6.98-6.98h7.63c3.85 0 6.98 3.13 6.98 6.98v7.64c0 3.85-3.13 6.98-6.98 6.98h-7.63a6.98 6.98 0 0 1-6.98-6.98m7.12-15.21c-4.25 0-7.71 3.46-7.71 7.71v7.34c0 4.25 3.46 7.71 7.71 7.71h7.33c4.25 0 7.73-3.46 7.73-7.71v-7.34c0-4.26-3.47-7.71-7.73-7.71z" class="st0"/></clipPath><clipPath id="clippath-19"><path d="M85.98 60.42a8.22 8.22 0 0 0-8.22 8.22v7.34c0 4.53 3.68 8.22 8.22 8.22h7.33c4.54 0 8.23-3.68 8.23-8.22v-7.34c0-4.54-3.68-8.22-8.23-8.22z" class="st0"/></clipPath><clipPath id="clippath-20"><path d="M78.86 76.13v-7.64c0-3.85 3.13-6.98 6.98-6.98h7.63c3.85 0 6.98 3.13 6.98 6.98v7.64a6.98 6.98 0 0 1-6.98 6.98h-7.63c-3.86 0-6.98-3.12-6.98-6.98m7.12-15.2c-4.25 0-7.71 3.46-7.71 7.72v7.34c0 4.26 3.46 7.72 7.71 7.72h7.33c4.25 0 7.73-3.47 7.73-7.72v-7.34c0-4.26-3.47-7.72-7.73-7.72z" class="st0"/></clipPath><clipPath id="clippath-21"><path d="M20.35 98.59q-.66.69-.66 1.71c0 .64.18 1.19.55 1.65q.63.81 1.77.81c.39 0 .74-.09 1.06-.24.32-.17.58-.39.79-.68s-.33-.28-.33-.28c-.4.51-.9.76-1.5.76q-.81 0-1.35-.57t-.54-1.41c0-.38.08-.71.24-1.01.16-.29.38-.54.68-.71.29-.18.6-.27.94-.27.31 0 .59.07.85.2s.48.33.67.6l.33-.28c-.2-.31-.46-.55-.79-.72-.32-.17-.68-.26-1.08-.26-.66 0-1.2.24-1.64.7" class="st0"/></clipPath><clipPath id="clippath-22"><path d="M26.68 101.74c-.35-.38-.53-.84-.53-1.4 0-.37.08-.71.24-1.01s.38-.55.66-.72q.42-.27.9-.27c.48 0 .62.09.91.27s.51.42.67.71c.15.29.23.63.23.99s-.08.71-.23 1.01c-.16.3-.38.54-.67.71-.28.18-.59.26-.91.26-.5 0-.92-.19-1.27-.57m.14-3.51c-.34.22-.61.51-.81.89s-.3.79-.3 1.24c0 .66.23 1.23.65 1.7.44.47.97.71 1.6.71s1.16-.23 1.59-.71c.44-.47.66-1.05.66-1.73s-.22-1.26-.66-1.73c-.44-.46-.98-.71-1.62-.71-.4 0-.77.12-1.11.33" class="st0"/></clipPath><clipPath id="clippath-23"><path d="M33.02 101.74c-.35-.38-.52-.84-.52-1.4 0-.37.07-.71.23-1.01s.38-.55.67-.72c.28-.18.58-.27.89-.27.33 0 .63.09.92.27.28.18.51.42.66.71.16.29.24.63.24.99s-.08.71-.24 1.01-.37.54-.66.71c-.28.18-.58.26-.92.26-.49 0-.92-.19-1.27-.57m.15-3.51c-.35.22-.61.51-.81.89s-.3.79-.3 1.24c0 .66.22 1.23.66 1.7.43.47.97.71 1.6.71s1.15-.23 1.59-.71c.43-.47.65-1.05.65-1.73s-.22-1.26-.65-1.73c-.43-.46-.97-.71-1.62-.71-.4 0-.77.12-1.1.33" class="st0"/></clipPath><clipPath id="clippath-24"><path d="M39.02 100.03v-1.57h.75c.29 0 .5.03.62.08.13.05.23.15.31.27.08.13.12.27.12.43s-.03.3-.12.43c-.08.13-.19.22-.32.27-.13.07-.34.09-.64.09zm-.43-2.02v4.63h.42v-2.15h.31c.53 0 .89-.03 1.08-.08.27-.07.47-.2.63-.4.13-.17.21-.4.22-.66v-.2c-.01-.26-.09-.49-.23-.66-.15-.2-.35-.34-.59-.4-.17-.05-.5-.07-.99-.07h-.84Z" class="st0"/></clipPath><clipPath id="clippath-25"><path d="M43.3 98.01v4.63h2.43v-.45h-2.01v-1.82h2.01v-.46h-2.01v-1.45h2.02v-.45z" class="st0"/></clipPath><clipPath id="clippath-26"><path d="M48.12 100.03v-1.57h.75c.3 0 .5.03.63.08s.23.15.31.27q.12.18.12.42c0 .24-.03.31-.11.43-.07.13-.19.23-.32.28-.14.07-.36.09-.64.09h-.73Zm-.43-2.02v4.63h.43v-2.15h.24l1.54 2.15h.52l-1.53-2.15q.54 0 .84-.15c.2-.1.35-.24.47-.43.11-.19.16-.41.16-.67 0-.3-.08-.56-.24-.76-.16-.21-.36-.34-.62-.41-.17-.05-.48-.06-.96-.06z" class="st0"/></clipPath><clipPath id="clippath-27"><path d="m54.15 98.99.73 1.68h-1.45l.73-1.68Zm-.05-.98-2.02 4.63h.47l.67-1.52h1.83l.67 1.52h.46l-1.99-4.63h-.1Z" class="st0"/></clipPath><clipPath id="clippath-28"><path d="M57.13 98.01v.45h.96v4.18h.43v-4.18h.95v-.45z" class="st0"/></clipPath><clipPath id="clippath-29"><path d="M61.21 98.01h.42v4.63h-.42z" class="st0"/></clipPath><clipPath id="clippath-30"><path d="m66.79 98.01-1.44 3.58-1.41-3.58h-.46l1.82 4.63h.1l1.85-4.63z" class="st0"/></clipPath><clipPath id="clippath-31"><path d="m70.12 98.99.73 1.68h-1.46zm-.05-.98-2.02 4.63h.48l.66-1.52h1.84l.67 1.52h.47l-1.99-4.63h-.1Z" class="st0"/></clipPath><clipPath id="clippath-32"><path d="M77.25 98.46h.3c.61 0 1.05.05 1.32.13.36.12.63.33.83.65s.29.7.29 1.15-.09.78-.27 1.08c-.19.29-.43.5-.76.61-.22.08-.63.12-1.22.12h-.5v-3.75Zm-.41-.45v4.63h1.36c.53 0 .94-.08 1.24-.25.29-.17.53-.42.71-.78.19-.35.28-.76.28-1.23 0-.54-.12-1-.35-1.39s-.56-.67-.97-.82c-.29-.11-.75-.17-1.39-.17h-.89Z" class="st0"/></clipPath><clipPath id="clippath-33"><path d="M82.46 98.01v4.63h2.42v-.45h-2v-1.82h2v-.46h-2v-1.45h2.01v-.45z" class="st0"/></clipPath><clipPath id="clippath-34"><path d="m91.34 98.99.72 1.68H90.6l.73-1.68Zm-.05-.98-2.02 4.63h.47l.67-1.52h1.84l.67 1.52h.46l-1.99-4.63h-.11Z" class="st0"/></clipPath><clipPath id="clippath-35"><path d="M97.82 98.01v1.94h-2.17v-1.94h-.43v4.63h.43v-2.24h2.17v2.24h.43v-4.63z" class="st0"/></clipPath><clipPath id="clippath-36"><path d="M101.25 101.74c-.35-.38-.53-.84-.53-1.4 0-.37.08-.71.24-1.01.15-.3.38-.55.66-.72q.42-.27.9-.27c.48 0 .62.09.91.27.28.18.51.42.66.71s.24.63.24.99-.09.71-.24 1.01c-.16.3-.38.54-.66.71-.28.18-.59.26-.91.26-.5 0-.92-.19-1.28-.57m.15-3.51c-.34.22-.61.51-.81.89-.19.38-.3.79-.3 1.24 0 .66.21 1.23.65 1.7.43.47.96.71 1.6.71s1.16-.23 1.59-.71c.43-.47.65-1.05.65-1.73s-.22-1.26-.66-1.73c-.43-.46-.97-.71-1.62-.71-.39 0-.76.12-1.11.33" class="st0"/></clipPath><clipPath id="clippath-37"><path d="M107.27 100.03v-1.57h.75c.29 0 .5.03.62.08.13.05.23.15.31.27q.12.18.12.42c0 .24-.04.31-.12.43-.07.13-.18.23-.32.28-.14.07-.35.09-.63.09zm-.42-2.02v4.63h.43v-2.15h.24l1.54 2.15h.52l-1.53-2.15q.54 0 .84-.15c.2-.1.35-.24.46-.43s.17-.41.17-.67c0-.3-.08-.56-.24-.76-.16-.21-.37-.34-.62-.41-.17-.05-.49-.06-.96-.06z" class="st0"/></clipPath><clipPath id="clippath-38"><path d="M112.06 100.03v-1.57h.76c.29 0 .5.03.62.08.13.05.23.15.31.27q.12.18.12.42c0 .24-.04.31-.12.43-.07.13-.18.23-.32.28-.14.07-.35.09-.63.09zm-.43-2.02v4.63h.42v-2.15h.24l1.54 2.15h.53l-1.53-2.15q.525 0 .84-.15c.2-.1.36-.24.47-.43s.16-.41.16-.67c0-.3-.07-.56-.23-.76-.16-.21-.36-.34-.62-.41-.16-.05-.49-.06-.96-.06h-.85Z" class="st0"/></clipPath><clipPath id="clippath-39"><path d="M117.18 101.74c-.36-.38-.53-.84-.53-1.4 0-.37.08-.71.24-1.01s.38-.55.66-.72c.29-.18.58-.27.9-.27s.62.09.91.27c.28.18.51.42.67.71s.24.63.24.99-.08.71-.24 1.01-.38.54-.66.71c-.28.18-.58.26-.92.26-.49 0-.92-.19-1.27-.57m.14-3.51c-.34.22-.62.51-.81.89-.2.38-.3.79-.3 1.24 0 .66.22 1.23.65 1.7s.97.71 1.6.71 1.15-.23 1.59-.71c.43-.47.65-1.05.65-1.73s-.21-1.26-.65-1.73c-.44-.46-.98-.71-1.62-.71-.4 0-.77.12-1.11.33" class="st0"/></clipPath><clipPath id="clippath-40"><path d="m127.9 98.01-1.07 1.91-1.09-1.91h-.49l1.37 2.42v2.21h.42v-2.21l1.35-2.42z" class="st0"/></clipPath><clipPath id="clippath-41"><path d="M133.57 98.59c-.43.46-.66 1.03-.66 1.71q0 .96.54 1.65c.43.54 1.02.81 1.76.81.4 0 .75-.09 1.07-.24.32-.17.58-.39.79-.68l-.34-.28c-.4.51-.9.76-1.49.76q-.825 0-1.35-.57c-.36-.38-.53-.85-.53-1.41 0-.38.07-.71.23-1.01.16-.29.38-.54.68-.71.29-.18.6-.27.94-.27.32 0 .6.07.86.2q.39.195.66.6l.34-.28c-.2-.31-.46-.55-.79-.72-.32-.17-.68-.26-1.07-.26-.66 0-1.21.24-1.65.7" class="st0"/></clipPath><clipPath id="clippath-42"><path d="M139.58 100.03v-1.57h.75c.29 0 .5.03.62.08.13.05.23.15.31.27q.12.18.12.42c0 .24-.03.31-.11.43-.08.13-.19.23-.32.28-.13.07-.34.09-.63.09h-.73Zm-.43-2.02v4.63h.43v-2.15h.24l1.53 2.15h.54l-1.54-2.15q.54 0 .84-.15c.2-.1.36-.24.47-.43.1-.19.16-.41.16-.67 0-.3-.08-.56-.23-.76-.16-.21-.36-.34-.62-.41-.17-.05-.49-.06-.96-.06h-.85Z" class="st0"/></clipPath><clipPath id="clippath-43"><path d="M143.92 98.01v4.63h2.43v-.45h-2v-1.82h2v-.45h-2v-1.45h2.02v-.45h-2.45Zm1.45-1.34-.64.97h.4l.85-.97h-.62Z" class="st0"/></clipPath><clipPath id="clippath-44"><path d="M148.7 98.46h.3c.62 0 1.06.05 1.33.13.35.12.63.33.83.65s.3.7.3 1.15-.09.78-.28 1.08c-.18.29-.43.5-.75.61q-.345.12-1.23.12h-.49v-3.75Zm-.41-.45v4.63h1.35c.53 0 .95-.08 1.24-.25.3-.17.54-.42.72-.78.18-.35.28-.76.28-1.23 0-.54-.12-1-.35-1.39s-.56-.67-.97-.82c-.29-.11-.75-.17-1.39-.17h-.88Z" class="st0"/></clipPath><clipPath id="clippath-45"><path d="M153.83 98.01h.43v4.63h-.43z" class="st0"/></clipPath><clipPath id="clippath-46"><path d="M156 98.01v.45h.95v4.18h.44v-4.18h.95v-.45z" class="st0"/></clipPath><clipPath id="clippath-47"><path d="M160.92 101.74c-.35-.38-.53-.84-.53-1.4 0-.37.08-.71.24-1.01s.39-.55.66-.72c.28-.18.58-.27.89-.27.33 0 .63.09.91.27.29.18.51.42.67.71s.24.63.24.99-.08.71-.24 1.01-.38.54-.65.71c-.28.18-.59.26-.93.26-.49 0-.91-.19-1.27-.57m.15-3.51c-.35.22-.62.51-.81.89-.2.38-.3.79-.3 1.24 0 .66.22 1.23.66 1.7.43.47.96.71 1.6.71s1.15-.23 1.59-.71c.44-.47.65-1.05.65-1.73s-.21-1.26-.65-1.73c-.43-.46-.97-.71-1.62-.71-.4 0-.76.12-1.11.33" class="st0"/></clipPath><clipPath id="clippath-48"><path d="M6.43 128.79c-.86-.73-1.28-1.7-1.28-2.9v-.54c.18-1.41.98-2.71 2.4-3.88 1.43-1.17 3.9-1.83 7.42-1.99v2.12c0 2.22-.29 4.15-.85 5.81-.58 1.65-2.02 2.48-4.35 2.48-1.37 0-2.47-.37-3.33-1.09m-1.63-19.3c-1.54.89-2.39 1.87-2.57 2.96v.3c0 .57.16.98.46 1.24.31.26.64.43.99.52.13 0 .25 0 .36.03q.165.03.3.03c.53 0 .95-.1 1.25-.31.31-.2.55-.42.73-.66.09-.16.15-.32.2-.48.04-.16.08-.28.13-.36.04-.16.09-.33.13-.52.04-.18.13-.37.26-.57.22-.4.56-.77 1.02-1.12q.69-.51 2.01-.51c2.29 0 3.67.76 4.16 2.27s.72 3.23.72 5.17h-.2c-3.69.24-7.07.9-10.16 1.99-3.08 1.09-4.61 3.27-4.61 6.53 0 1.62.6 3.08 1.81 4.39s3.18 1.97 5.9 1.97c.75 0 1.72-.14 2.93-.4s2.47-.91 3.79-1.96c.18-.12.35-.26.53-.43.18-.16.36-.32.53-.49h.13c.26.9.76 1.66 1.48 2.3.72.65 1.66.97 2.81.97.96 0 1.79-.19 2.47-.58.68-.38 1.26-.9 1.75-1.55l-.46-.66q-.195.06-.42.15c-.15.06-.32.09-.49.09-.09.04-.16.06-.24.06h-.23c-.62.04-1.19-.2-1.71-.73-.53-.52-.79-1.53-.79-3.02v-7.75c0-.56-.02-1.19-.04-1.9s-.1-1.42-.23-2.15c-.36-1.53-1.13-2.94-2.34-4.23s-3.38-1.94-6.49-1.94c-2.37 0-4.33.45-5.87 1.33" class="st0"/></clipPath><clipPath id="clippath-49"><path d="M33.69 109.46q-1.515 1.305-2.64 2.94h-.26v-3.75h-7.71v1.75c1.01.2 1.74.55 2.2 1.02.47.49.69 1.19.69 2.12v12.27c0 1.26-.18 2.26-.53 2.99-.35.75-1.17 1.21-2.45 1.37v1.75h10.75v-1.75c-1.27-.08-2.09-.53-2.44-1.33-.35-.81-.53-1.82-.53-3.03v-6.59c0-1.93.29-3.54.89-4.81.59-1.27 1.26-2.15 2.01-2.63q.33-.18.66-.3c.22-.07.42-.12.59-.12.35 0 .62.06.79.18s.35.28.52.49c.04.04.1.1.16.18q.09.12.24.24c.17.12.41.25.69.36.29.13.65.18 1.09.18.69 0 1.24-.19 1.61-.58.38-.39.61-.82.69-1.3v-.3c0-.76-.26-1.4-.79-1.9-.52-.51-1.34-.76-2.43-.76-1.55 0-2.82.44-3.83 1.3" class="st0"/></clipPath><clipPath id="clippath-50"><path d="M41.67 106.95v1.7h-2.9v1.88h2.9v15.72c0 2.26.5 3.84 1.49 4.75s2.43 1.37 4.31 1.37c.49 0 1.29-.1 2.41-.28 1.12-.19 2.29-.78 3.53-1.78.13-.12.29-.26.46-.42l.52-.49-1.11-1.21c-.54.32-1.1.62-1.69.88s-1.24.4-1.94.4c-1.06 0-1.8-.23-2.24-.67s-.71-.95-.79-1.51c-.04-.2-.07-.42-.1-.63-.03-.23-.03-.42-.03-.58v-15.54h5.47v-1.88h-5.47v-2.99l-4.82 1.29Z" class="st0"/></clipPath><clipPath id="clippath-51"><path d="M60.76 112c.86-.94 1.79-1.54 2.8-1.78q.39-.12.72-.15c.22-.02.44-.02.66-.02 1.41 0 2.47.38 3.17 1.15.7.76 1.16 1.59 1.38 2.48.17.56.28 1.1.3 1.6.02.51.03.94.03 1.3H59.4c.05-2.1.49-3.62 1.35-4.57m-3.55-.55c-2.35 2.2-3.53 5.41-3.53 9.65 0 3.59.94 6.22 2.8 7.89 1.87 1.68 3.95 2.71 6.24 3.11q.645.12 1.38.18c.48.04.94.07 1.38.07 1.94 0 3.8-.48 5.6-1.42a15.5 15.5 0 0 0 4.62-3.66l-1.19-1.03c-1.01.97-2.24 1.83-3.69 2.57-1.46.75-2.95 1.13-4.49 1.13q-4.755 0-6.03-3.39-1.29-3.39-1.08-7.44c0-.13 0-.24.03-.33.02-.11.03-.22.03-.34h15.76c.09-2.66-.71-5.04-2.41-7.14-1.69-2.09-4.15-3.15-7.35-3.15-3.03 0-5.72 1.1-8.08 3.3" class="st0"/></clipPath><clipPath id="clippath-52"><path d="M79.38 109.86c-1.8 1.13-2.7 2.93-2.7 5.39 0 1.37.46 2.63 1.39 3.78.92 1.14 2.92 2.18 6 3.11.17.04.35.09.52.16.18.05.36.11.53.15 1.5.44 2.73.93 3.7 1.48.96.55 1.45 1.43 1.45 2.63 0 .16-.02.32-.03.48-.02.16-.06.33-.1.49-.22.77-.74 1.46-1.55 2.09-.81.62-2.04.93-3.67.93-1.18 0-2.1-.19-2.77-.54-.66-.37-1.1-.77-1.32-1.21a1.7 1.7 0 0 1-.13-.6c0-.12.02-.23.03-.33.03-.1.03-.19.03-.28l.07-.11c.04-.13.07-.27.1-.43q.03-.24.03-.6c0-.49-.21-.93-.63-1.33-.41-.4-1.04-.6-1.88-.6-.74 0-1.32.19-1.74.58-.41.38-.69.82-.83 1.3 0 .12 0 .23-.03.33-.02.1-.03.21-.03.32v.25q0 .12.06.24c.18 1.21 1.03 2.32 2.54 3.33 1.52 1.01 3.62 1.52 6.29 1.52h.4c2.42-.09 4.65-.72 6.69-1.91 2.04-1.2 3.07-2.97 3.07-5.35 0-1.69-.52-3.01-1.59-3.96-1.05-.95-2.21-1.66-3.49-2.15-.74-.28-1.48-.51-2.21-.69-.72-.18-1.33-.34-1.82-.45-.12-.04-.25-.07-.36-.09s-.23-.05-.36-.1c-1.41-.36-2.56-.8-3.46-1.3-.91-.5-1.35-1.4-1.35-2.69 0-1.09.45-1.96 1.35-2.63s2.1-1 3.59-1q1.32 0 1.98.33c.44.23.77.48.99.76.12.2.23.41.29.61.06.19.1.34.1.42 0 .04.03.18.1.42.06.24.16.48.3.73.22.32.49.6.83.84.32.25.78.37 1.34.37q.135 0 .3-.03c.1-.02.21-.03.29-.03.35-.08.68-.26.99-.55.31-.28.46-.68.46-1.21 0-.25-.05-.51-.13-.79-.09-.28-.22-.56-.4-.84-.44-.73-1.23-1.39-2.37-2-1.15-.6-2.75-.91-4.82-.91-2.24 0-4.26.57-6.07 1.69" class="st0"/></clipPath><clipPath id="clippath-53"><path d="M101.44 128.79c-.86-.73-1.29-1.7-1.29-2.9v-.54c.18-1.41.98-2.71 2.41-3.88s3.9-1.83 7.41-1.99v2.12c0 2.22-.29 4.15-.85 5.81-.57 1.65-2.02 2.48-4.35 2.48-1.36 0-2.47-.37-3.33-1.09m-1.61-19.3c-1.54.89-2.39 1.87-2.57 2.96v.3c0 .57.16.98.46 1.24.31.26.64.43.98.52.13 0 .26 0 .37.03.1.02.2.03.29.03.52 0 .94-.1 1.25-.31.31-.2.55-.42.73-.66.09-.16.15-.32.19-.48s.09-.28.14-.36c.04-.16.08-.33.13-.52.05-.18.13-.37.26-.57.23-.4.56-.77 1.03-1.12.46-.34 1.13-.51 2-.51 2.29 0 3.67.76 4.16 2.27s.72 3.23.72 5.17h-.19c-3.69.24-7.08.9-10.16 1.99S95 122.75 95 126.01c0 1.62.61 3.08 1.81 4.39 1.21 1.31 3.17 1.97 5.9 1.97.75 0 1.73-.14 2.94-.4s2.47-.91 3.79-1.96c.18-.12.35-.26.52-.43.18-.16.36-.32.53-.49h.13c.26.9.76 1.66 1.48 2.3.73.65 1.66.97 2.8.97.97 0 1.79-.19 2.48-.58.67-.38 1.26-.9 1.74-1.55l-.46-.66c-.13.04-.27.09-.43.15s-.32.09-.49.09c-.09.04-.16.06-.23.06h-.23c-.61.04-1.19-.2-1.71-.73-.53-.52-.79-1.53-.79-3.02v-7.75c0-.56 0-1.19-.02-1.9-.03-.71-.11-1.42-.23-2.15q-.54-2.295-2.34-4.23c-1.22-1.29-3.38-1.94-6.5-1.94-2.37 0-4.33.45-5.87 1.33" class="st0"/></clipPath><clipPath id="clippath-54"><path d="M132.14 108.44c-.97.18-1.94.51-2.9.99-.57.25-1.13.55-1.68.91s-1.06.79-1.55 1.27h-.19v-2.96h-7.72v1.75c.92.2 1.58.5 1.98.88.39.38.66.77.79 1.18.04.2.08.4.1.58q.03.27.03.51v12.27c0 1.3-.17 2.31-.53 3.03-.35.73-1.16 1.17-2.44 1.33v1.75h10.75v-1.75c-1.24-.13-2.04-.59-2.41-1.39-.37-.81-.56-1.8-.56-2.97v-11.06c.26-.4.55-.77.86-1.09s.61-.6.92-.84c1.14-1.01 2.22-1.61 3.23-1.82q1.515-.3 1.92-.3c1.49 0 2.49.39 3 1.18s.78 1.64.83 2.57c.04.2.06.39.06.58v10.79c0 1.3-.17 2.31-.53 3.03-.35.73-1.17 1.17-2.45 1.33v1.75h10.75v-1.75c-1.27-.08-2.08-.52-2.41-1.3-.32-.79-.51-1.81-.56-3.06v-10.34c0-.41-.01-.87-.03-1.39-.03-.52-.08-1.05-.17-1.58-.27-1.09-.86-2.08-1.78-2.99s-2.53-1.36-4.82-1.36c-.7 0-1.54.09-2.5.28" class="st0"/></clipPath><clipPath id="clippath-55"><path d="M152.02 128.46c-.95-1.39-1.53-2.92-1.75-4.56-.09-.61-.15-1.22-.16-1.85-.03-.62-.04-1.2-.04-1.72 0-.56.01-1.22.04-1.97.02-.75.09-1.53.22-2.33.27-1.49.88-2.87 1.85-4.12s2.59-1.87 4.88-1.87 3.85.61 4.81 1.84a9 9 0 0 1 1.84 4.09c.18.8.27 1.59.3 2.35.02.77.04 1.44.04 2 0 .52-.02 1.1-.04 1.72-.03.62-.08 1.24-.16 1.85a10.7 10.7 0 0 1-1.75 4.56c-.94 1.39-2.63 2.09-5.04 2.09s-4.1-.7-5.04-2.09m-3.23-17.56c-1.91 1.82-3.18 3.83-3.8 6.05-.18.57-.3 1.13-.36 1.7-.06.56-.1 1.11-.1 1.63 0 3.27.85 5.81 2.54 7.62q2.535 2.715 5.64 3.75c.75.25 1.49.43 2.24.55s1.45.19 2.11.19 1.36-.07 2.11-.19 1.5-.3 2.25-.55c2.06-.68 3.94-1.93 5.63-3.75 1.7-1.82 2.54-4.35 2.54-7.62 0-.52-.04-1.07-.1-1.63-.07-.57-.19-1.13-.37-1.7-.61-2.22-1.88-4.23-3.79-6.05s-4.67-2.72-8.28-2.72-6.36.91-8.27 2.72" class="st0"/></clipPath><clipPath id="clippath-56"><path d="M173.28 109.86c-1.81 1.13-2.71 2.93-2.71 5.39q0 2.055 1.38 3.78c.92 1.14 2.93 2.18 6 3.11.18.04.35.09.52.16.18.05.35.11.52.15 1.5.44 2.73.93 3.7 1.48s1.46 1.43 1.46 2.63c0 .16-.02.32-.03.48-.02.16-.06.33-.1.49-.22.77-.74 1.46-1.55 2.09q-1.23.93-3.66.93c-1.19 0-2.12-.19-2.77-.54-.66-.37-1.1-.77-1.32-1.21-.04-.12-.08-.23-.1-.33q-.03-.15-.03-.27 0-.18.03-.33c.02-.1.04-.19.04-.28l.06-.11c.05-.13.08-.27.1-.43.03-.16.03-.36.03-.6 0-.49-.21-.93-.63-1.33s-1.04-.6-1.88-.6c-.75 0-1.33.19-1.75.58-.41.38-.69.82-.82 1.3q0 .18-.03.33c-.02.1-.03.21-.03.32v.25c0 .08.03.16.06.24.18 1.21 1.02 2.32 2.54 3.33s3.62 1.52 6.3 1.52h.39c2.43-.09 4.65-.72 6.7-1.91 2.04-1.2 3.07-2.97 3.07-5.35 0-1.69-.53-3.01-1.58-3.96a11.3 11.3 0 0 0-3.5-2.15c-.75-.28-1.48-.51-2.2-.69-.73-.18-1.33-.34-1.82-.45a3 3 0 0 0-.36-.09c-.11-.02-.23-.05-.36-.1-1.41-.36-2.56-.8-3.47-1.3-.89-.5-1.35-1.4-1.35-2.69 0-1.09.45-1.96 1.35-2.63.91-.67 2.1-1 3.59-1q1.32 0 1.98.33c.44.23.77.48.99.76.13.2.23.41.3.61.07.19.1.34.1.42 0 .04.04.18.1.42.07.24.16.48.3.73.22.32.49.6.82.84.34.25.78.37 1.35.37q.135 0 .3-.03c.11-.02.2-.03.29-.03.35-.08.68-.26.99-.55.3-.28.46-.68.46-1.21 0-.25-.04-.51-.13-.79s-.23-.56-.4-.84c-.44-.73-1.23-1.39-2.37-2-1.15-.6-2.75-.91-4.81-.91-2.25 0-4.27.57-6.07 1.69" class="st0"/></clipPath><style>.st0{fill:none}</style></defs><g style="clip-path:url(#clippath)"><path d="M86.85 5.45h24.77v24.78H86.85z" style="fill:url(#Degradado_sin_nombre_34)" transform="rotate(-28.03 99.244 17.835)"/></g><g style="clip-path:url(#clippath-1)"><path d="M106.05 5.05h25.57v25.57h-25.57z" style="fill:url(#Degradado_sin_nombre_341)" transform="rotate(-35.64 118.845 17.832)"/></g><g style="clip-path:url(#clippath-2)"><path d="M105.88 24.76h25.89v25.89h-25.89z" style="fill:url(#Degradado_sin_nombre_342)" transform="rotate(-46.73 118.822 37.709)"/></g><g style="clip-path:url(#clippath-3)"><path d="M82.28 13h20.02v20.01H82.28z" style="fill:url(#Degradado_sin_nombre_343)" transform="rotate(-88 92.283 23.006)"/></g><g style="clip-path:url(#clippath-4)"><path d="M103.85 13h20.02v20.02h-20.02z" style="fill:url(#Degradado_sin_nombre_344)" transform="rotate(-88 113.86 23.001)"/></g><g style="clip-path:url(#clippath-5)"><path d="M103.85 34.89h20.03v20.02h-20.03z" style="fill:url(#Degradado_sin_nombre_345)" transform="rotate(-88 113.861 44.905)"/></g><g style="clip-path:url(#clippath-6)"><path d="M82.64 13.36h19.29v19.29H82.64z" style="fill:url(#Degradado_sin_nombre_346)" transform="rotate(-2.38 92.236 22.866)"/></g><g style="clip-path:url(#clippath-7)"><path d="M104.22 13.36h19.29v19.29h-19.29z" style="fill:url(#Degradado_sin_nombre_347)" transform="rotate(-2.38 113.664 23.07)"/></g><g style="clip-path:url(#clippath-8)"><path d="M104.59 35.64h18.54v18.54h-18.54z" style="fill:url(#Degradado_sin_nombre_348)"/></g><g style="clip-path:url(#clippath-9)"><path d="M67.97 18.32h26.5v26.5h-26.5z" style="fill:url(#Degradado_sin_nombre_37)" transform="rotate(-16 81.217 31.586)"/></g><g style="clip-path:url(#clippath-10)"><path d="M91.85 18.32h26.5v26.5h-26.5z" style="fill:url(#Degradado_sin_nombre_371)" transform="rotate(-16 105.092 31.567)"/></g><g style="clip-path:url(#clippath-11)"><path d="M91.85 42.56h26.5v26.5h-26.5z" style="fill:url(#Degradado_sin_nombre_372)" transform="rotate(-16 105.096 55.802)"/></g><g style="clip-path:url(#clippath-12)"><path d="M93.93 20.41h22.35v22.34H93.93z" style="fill:url(#Degradado_sin_nombre_40)" transform="rotate(-5.34 105.12 31.55)"/></g><g style="clip-path:url(#clippath-13)"><path d="M70.2 20.41h22.34v22.34H70.2z" style="fill:url(#Degradado_sin_nombre_401)" transform="rotate(-5.34 81.37 31.624)"/></g><g style="clip-path:url(#clippath-14)"><path d="M93.93 44.64h22.35v22.33H93.93z" style="fill:url(#Degradado_sin_nombre_402)" transform="rotate(-5.34 105.17 55.836)"/></g><g style="clip-path:url(#clippath-15)"><path d="M47.63 29.9h31.04v31.04H47.63z" style="fill:url(#Degradado_sin_nombre_45)" transform="rotate(-22.38 63.135 45.425)"/></g><g style="clip-path:url(#clippath-16)"><path d="M50.75 33.02h24.8v24.79h-24.8z" style="fill:url(#Degradado_sin_nombre_46)" transform="rotate(-5.34 63.213 45.391)"/></g><g style="clip-path:url(#clippath-17)"><path d="M73.11 28.87h33.09v33.09H73.11z" style="fill:url(#Degradado_sin_nombre_451)" transform="rotate(-34.73 89.674 45.42)"/></g><g style="clip-path:url(#clippath-18)"><path d="M77.26 33.02h24.8v24.79h-24.8z" style="fill:url(#Degradado_sin_nombre_461)" transform="rotate(-5.34 89.644 45.442)"/></g><g style="clip-path:url(#clippath-19)"><path d="M72.93 55.59h33.45v33.45H72.93z" style="fill:url(#Degradado_sin_nombre_452)" transform="rotate(-39.13 89.656 72.318)"/></g><g style="clip-path:url(#clippath-20)"><path d="M77.26 59.92h24.8v24.8h-24.8z" style="fill:url(#Degradado_sin_nombre_462)" transform="rotate(-5.34 89.68 72.306)"/></g><g style="clip-path:url(#clippath-21)"><path d="M19.69 97.88h4.17v4.87h-4.17z" style="fill:url(#Degradado_sin_nombre_82)"/></g><g style="clip-path:url(#clippath-22)"><path d="M25.71 97.88h4.5v4.87h-4.5z" style="fill:url(#Degradado_sin_nombre_821)"/></g><g style="clip-path:url(#clippath-23)"><path d="M32.06 97.88h4.49v4.87h-4.49z" style="fill:url(#Degradado_sin_nombre_822)"/></g><g style="clip-path:url(#clippath-24)"><path d="M38.59 98.01h2.66v4.63h-2.66z" style="fill:url(#Degradado_sin_nombre_823)"/></g><g style="clip-path:url(#clippath-25)"><path d="M43.3 98.01h2.44v4.63H43.3z" style="fill:url(#Degradado_sin_nombre_824)"/></g><g style="clip-path:url(#clippath-26)"><path d="M47.69 98.01h2.73v4.63h-2.73z" style="fill:url(#Degradado_sin_nombre_825)"/></g><g style="clip-path:url(#clippath-27)"><path d="M52.08 98.01h4.1v4.63h-4.1z" style="fill:url(#Degradado_sin_nombre_826)"/></g><g style="clip-path:url(#clippath-28)"><path d="M57.13 98.01h2.34v4.63h-2.34z" style="fill:url(#Degradado_sin_nombre_827)"/></g><g style="clip-path:url(#clippath-29)"><path d="M61.21 98.01h.42v4.63h-.42z" style="fill:url(#Degradado_sin_nombre_828)"/></g><g style="clip-path:url(#clippath-30)"><path d="M63.48 98.01h3.78v4.63h-3.78z" style="fill:url(#Degradado_sin_nombre_829)"/></g><g style="clip-path:url(#clippath-31)"><path d="M68.05 98.01h4.11v4.63h-4.11z" style="fill:url(#Degradado_sin_nombre_8210)"/></g><g style="clip-path:url(#clippath-32)"><path d="M76.84 98.01h3.59v4.63h-3.59z" style="fill:url(#Degradado_sin_nombre_8211)"/></g><g style="clip-path:url(#clippath-33)"><path d="M82.46 98.01h2.44v4.63h-2.44z" style="fill:url(#Degradado_sin_nombre_8212)"/></g><g style="clip-path:url(#clippath-34)"><path d="M89.27 98.01h4.11v4.63h-4.11z" style="fill:url(#Degradado_sin_nombre_8213)"/></g><g style="clip-path:url(#clippath-35)"><path d="M95.22 98.01h3.02v4.63h-3.02z" style="fill:url(#Degradado_sin_nombre_8214)"/></g><g style="clip-path:url(#clippath-36)"><path d="M100.29 97.88h4.5v4.87h-4.5z" style="fill:url(#Degradado_sin_nombre_8215)"/></g><g style="clip-path:url(#clippath-37)"><path d="M106.85 98.01h2.72v4.63h-2.72z" style="fill:url(#Degradado_sin_nombre_8216)"/></g><g style="clip-path:url(#clippath-38)"><path d="M111.63 98.01h2.73v4.63h-2.73z" style="fill:url(#Degradado_sin_nombre_8217)"/></g><g style="clip-path:url(#clippath-39)"><path d="M116.21 97.88h4.49v4.87h-4.49z" style="fill:url(#Degradado_sin_nombre_8218)"/></g><g style="clip-path:url(#clippath-40)"><path d="M125.25 98.01h3.15v4.63h-3.15z" style="fill:url(#Degradado_sin_nombre_8219)"/></g><g style="clip-path:url(#clippath-41)"><path d="M132.91 97.88h4.17v4.87h-4.17z" style="fill:url(#Degradado_sin_nombre_8220)"/></g><g style="clip-path:url(#clippath-42)"><path d="M139.15 98.01h2.73v4.63h-2.73z" style="fill:url(#Degradado_sin_nombre_8221)"/></g><g style="clip-path:url(#clippath-43)"><path d="M143.92 96.67h2.45v5.96h-2.45z" style="fill:url(#Degradado_sin_nombre_8222)"/></g><g style="clip-path:url(#clippath-44)"><path d="M148.29 98.01h3.59v4.63h-3.59z" style="fill:url(#Degradado_sin_nombre_8223)"/></g><g style="clip-path:url(#clippath-45)"><path d="M153.83 98.01h.43v4.63h-.43z" style="fill:url(#Degradado_sin_nombre_8224)"/></g><g style="clip-path:url(#clippath-46)"><path d="M156 98.01h2.34v4.63H156z" style="fill:url(#Degradado_sin_nombre_8225)"/></g><g style="clip-path:url(#clippath-47)"><path d="M159.95 97.88h4.5v4.87h-4.5z" style="fill:url(#Degradado_sin_nombre_8226)"/></g><g style="clip-path:url(#clippath-48)"><path d="M0 108.16h24.13v24.2H0z" style="fill:url(#Degradado_sin_nombre_8227)"/></g><g style="clip-path:url(#clippath-49)"><path d="M23.01 108.16h17.74v23.77H23.01z" style="fill:url(#Degradado_sin_nombre_8228)"/></g><g style="clip-path:url(#clippath-50)"><path d="M38.77 105.66H54.4v26.71H38.77z" style="fill:url(#Degradado_sin_nombre_8229)"/></g><g style="clip-path:url(#clippath-51)"><path d="M53.67 108.16H75.7v24.2H53.67z" style="fill:url(#Degradado_sin_nombre_8230)"/></g><g style="clip-path:url(#clippath-52)"><path d="M75.83 108.16h19.05v24.2H75.83z" style="fill:url(#Degradado_sin_nombre_8231)"/></g><g style="clip-path:url(#clippath-53)"><path d="M95.01 108.16h24.13v24.2H95.01z" style="fill:url(#Degradado_sin_nombre_8232)"/></g><g style="clip-path:url(#clippath-54)"><path d="M118.03 108.16h26.37v23.77h-26.37z" style="fill:url(#Degradado_sin_nombre_8233)"/></g><g style="clip-path:url(#clippath-55)"><path d="M144.53 108.16h25.06v24.2h-25.06z" style="fill:url(#Degradado_sin_nombre_8234)"/></g><g style="clip-path:url(#clippath-56)"><path d="M169.72 108.16h19.06v24.2h-19.06z" style="fill:url(#Degradado_sin_nombre_8235)"/></g></svg>