<svg xmlns="http://www.w3.org/2000/svg" id="Capa_1" viewBox="0 0 194.78 76.28"><defs><style>.st0{fill:#ff5a00}.st1{fill:#00bfff}.st2{fill:#00cf7b}</style></defs><path d="M63.72 23.52C58.77 6.3 40.73-3.68 23.51 1.27 6.3 6.22-3.68 24.26 1.27 41.48s22.99 27.2 40.21 22.24c17.21-4.95 27.19-22.98 22.24-40.2m-24.09 33.8c-13.68 3.93-28.02-4-31.95-17.69-3.94-13.68 3.99-28.02 17.68-31.95 13.68-3.94 28.02 3.99 31.95 17.68 3.94 13.69-3.99 28.02-17.68 31.96" class="st0"/><path d="M37.24 49.05c-5.89 1.69-12.25.26-17.01-3.85a2.86 2.86 0 0 1-.3-4.02 2.86 2.86 0 0 1 4.02-.3c3.3 2.84 7.68 3.85 11.72 2.69 4.13-1.19 7.33-4.45 8.57-8.73a2.848 2.848 0 0 1 5.47 1.59c-1.79 6.17-6.45 10.89-12.47 12.62M25.42 33.37c-1.13 0-2.18-.74-2.52-1.88l-1.66-5.52c-.42-1.39.37-2.86 1.77-3.28 1.39-.42 2.86.37 3.28 1.77l1.66 5.52a2.632 2.632 0 0 1-2.53 3.39M38.72 29.06c-1.13 0-2.18-.74-2.52-1.88l-1.66-5.52c-.42-1.39.37-2.86 1.77-3.28 1.39-.42 2.86.37 3.28 1.77l1.66 5.52a2.632 2.632 0 0 1-2.53 3.39" class="st0"/><path d="M98.78 5.77c-1.43 0-2.82.89-3.46 2.56l-3.85 9.99-3.88-9.99c-.72-1.82-2.07-2.56-3.82-2.56-1.42 0-2.81.89-3.45 2.56l-3.85 9.99-3.89-9.99c-.64-1.67-2.03-2.56-3.45-2.56-2.11 0-4.14 1.82-4.14 4.16 0 .66.22 1.36.46 2.02l7.35 18.92c.71 1.87 2.06 2.57 3.85 2.57 1.42 0 2.81-.89 3.45-2.57l3.85-9.91 3.85 9.91c.71 1.87 2.07 2.57 3.85 2.57 1.43 0 2.81-.89 3.46-2.57l7.34-18.92c.25-.66.46-1.36.46-2.02 0-2.34-2.03-4.16-4.13-4.16M122.83 27.26l-9.12-18.93c-.86-1.79-2.03-2.56-3.85-2.56-1.43 0-2.67.93-3.46 2.56l-9.12 18.93a4.64 4.64 0 0 0-.46 2.02c0 2.33 2.03 4.16 4.13 4.16 1.42 0 2.67-.93 3.46-2.57l.53-1.08h10.23l.53 1.08c.79 1.64 2.04 2.57 3.46 2.57 2.1 0 4.14-1.83 4.14-4.16 0-.66-.15-1.36-.47-2.02m-14.54-4.47 1.78-3.65 1.75 3.65zM151.48 5.77c-1.42 0-2.81.89-3.45 2.56l-3.85 9.99-3.89-9.99c-.71-1.82-2.06-2.56-3.81-2.56-1.43 0-2.82.89-3.46 2.56l-3.85 9.99-3.88-9.99c-.64-1.67-2.03-2.56-3.46-2.56-2.1 0-4.13 1.82-4.13 4.16 0 .66.21 1.36.46 2.02l7.34 18.92c.72 1.87 2.07 2.57 3.85 2.57 1.43 0 2.82-.89 3.46-2.57l3.85-9.91 3.85 9.91c.71 1.87 2.06 2.57 3.85 2.57 1.42 0 2.81-.89 3.45-2.57l7.35-18.92c.24-.66.46-1.36.46-2.02 0-2.34-2.03-4.16-4.14-4.16M175.54 27.26l-.71-1.48-8.41-17.45c-.86-1.79-2.04-2.56-3.85-2.56-1.43 0-2.68.93-3.46 2.56l-9.12 18.93c-.33.66-.47 1.36-.47 2.02 0 2.33 2.03 4.16 4.14 4.16 1.42 0 2.67-.93 3.45-2.57l.54-1.08h10.23l.53 1.08c.79 1.64 2.03 2.57 3.46 2.57 1.35 0 2.68-.76 3.44-1.93a4 4 0 0 0 .69-2.23c0-.66-.14-1.36-.46-2.02M161 22.79l1.78-3.65 1.75 3.65z" class="st1"/><path d="M185.44 15.95c-1.42-.47-3.13-.89-3.13-1.87s1.1-1.24 2.35-1.24c2.53 0 4.71 2.06 6.91 1.87 1.64-.16 2.89-1.75 2.89-3.54 0-.39-.07-.82-.25-1.2-1.46-3.23-6.2-4.32-9.73-4.32-6.8 0-9.98 3.65-9.98 9.1 0 4.78 2.68 7.38 6.92 8.74 3.95 1.28 5.88 1.28 5.88 2.22s-1.29 1.12-2.96 1.12c-3.39 0-5.56-2.06-7.77-1.86-.66.06-1.26.36-1.74.81-.71.67-1.15 1.66-1.15 2.72 0 .39.07.82.25 1.21.32.7.79 1.3 1.38 1.8 2.12 1.84 5.72 2.51 8.96 2.51 6.77 0 10.51-2.06 10.51-8.86s-4.45-7.54-9.34-9.21" class="st1"/><path d="M82.65 45.43h-4.61c-1.69 0-2.84 1.25-2.84 3.09s1.15 3.16 2.84 3.16h2.67v1.42c0 1.08-1.4 1.81-3.15 1.81-2.83 0-4.46-2.33-4.46-6.28s1.12-6.22 4.55-6.22c2.61 0 3.7 1.84 5.67 1.67 1.46-.14 2.58-1.56 2.58-3.16 0-.35-.07-.73-.23-1.07-1.3-2.89-5.66-3.86-8.68-3.86-7.35 0-11.04 4.83-11.04 12.64s4.13 12.7 11.61 12.7c5.5 0 9.54-3.09 9.54-8.57v-2.47c0-2.91-1.78-4.86-4.45-4.86M110.33 55.29l-8.14-16.9c-.77-1.6-1.82-2.29-3.44-2.29-1.27 0-2.39.83-3.09 2.29l-8.14 16.9c-.29.59-.41 1.21-.41 1.8 0 2.09 1.81 3.72 3.69 3.72 1.27 0 2.38-.84 3.08-2.29l.48-.98h9.13l.48.98c.7 1.45 1.81 2.29 3.08 2.29 1.88 0 3.7-1.63 3.7-3.72 0-.59-.13-1.21-.42-1.8M97.35 51.3l1.59-3.26 1.56 3.26zM129.71 54.66l-3.37-3.29c2.51-1.22 4.04-3.75 4.04-7.05 0-4.75-3.18-7.81-7.96-7.81h-7.89c-2.13.04-3.47 1.57-3.47 3.79v16.72c0 2.26 1.4 3.79 3.47 3.79s3.53-1.53 3.53-3.79v-3.57l6.21 6c.92.91 2 1.36 2.96 1.36 1.78 0 3.47-2.12 3.47-3.99 0-.84-.35-1.57-.99-2.16m-8.4-8.67h-3.25v-3.23h3.25c1.14 0 1.91.63 1.91 1.6s-.77 1.63-1.91 1.63M140.62 36.51h-5.18c-2.13.04-3.47 1.57-3.47 3.79v16.72c0 2.26 1.4 3.79 3.47 3.79h5.18c7.07 0 11.78-4.9 11.78-12.25s-4.71-12.05-11.78-12.05m0 18.05h-1.65v-11.8h1.65c2.77 0 4.62 2.33 4.62 5.8s-1.85 6-4.62 6M168.66 54.56h-7.35v-2.98h4.16c1.69 0 2.84-1.25 2.84-3.09s-1.15-3.16-2.84-3.16h-4.16v-2.57h7.35c1.68 0 2.83-1.25 2.83-3.09s-1.15-3.16-2.83-3.16h-10.82c-2.17 0-3.53 1.53-3.53 3.79v16.72c0 2.29 1.43 3.82 3.53 3.79h10.82c1.68 0 2.83-1.25 2.83-3.09s-1.15-3.16-2.83-3.16M190.04 36.51c-2.17 0-3.53 1.53-3.53 3.79v6.59l-6.94-8.85c-.76-.97-1.75-1.53-2.96-1.53-2.16 0-3.53 1.53-3.53 3.79v16.72c0 2.26 1.4 3.79 3.47 3.79s3.53-1.53 3.53-3.79v-6.59l6.9 8.82c.77.97 1.78 1.56 2.99 1.56 2.17 0 3.54-1.53 3.54-3.79V40.3c0-2.26-1.4-3.79-3.47-3.79" class="st2"/><path d="M91.99 73.13c-.01-.24-.01-.51-.01-.83v-2.23c0-.59-.11-1.07-.32-1.42-.21-.36-.5-.61-.86-.78q-.555-.24-1.29-.24c-.52 0-.96.08-1.32.25s-.63.4-.83.69c-.19.29-.29.62-.31.99h1.61c0-.2.08-.34.21-.43.12-.09.32-.13.58-.13.28 0 .5.06.66.2.15.14.23.39.23.76v.25h-1.57q-1.02 0-1.53.48t-.51 1.38c0 .35.07.68.22.98s.36.53.64.7c.28.16.62.25 1.03.25.47 0 .86-.09 1.15-.25.3-.17.53-.38.7-.62v.36c.01.1.02.22.03.35h1.54a8 8 0 0 1-.06-.71Zm-1.65-1.58c0 .24-.05.45-.15.64-.11.18-.25.32-.43.41-.19.09-.39.14-.62.14-.27 0-.47-.07-.58-.21-.12-.14-.17-.33-.17-.55 0-.18.05-.34.17-.47.11-.14.29-.21.53-.21h1.25zM97.96 68.39c-.4-.51-1-.76-1.78-.76q-.645 0-1.08.3c-.29.21-.51.43-.65.68v-.82h-1.49v8.33h1.61v-3.05c.19.31.43.54.71.69q.42.24.9.24.735 0 1.26-.36c.36-.23.63-.58.83-1.05.19-.46.29-1.04.29-1.72v-.23q0-1.5-.6-2.25m-1.07 2.48c0 .54-.1.95-.31 1.23s-.47.42-.79.42c-.23 0-.43-.05-.62-.17-.18-.11-.33-.28-.44-.51-.1-.22-.16-.49-.16-.8v-.57c0-.31.06-.56.16-.77.11-.2.26-.35.44-.45.19-.1.39-.15.62-.15.33 0 .6.13.8.38.2.26.3.64.3 1.16zM102.56 67.65c-.07-.02-.17-.02-.29-.02-.23 0-.43.05-.62.16-.19.1-.35.23-.48.38-.14.16-.23.3-.29.44v-.82H99.4v6.05h1.61v-3.53c0-.23.03-.43.11-.62.07-.18.19-.32.34-.43.16-.1.36-.15.61-.15a1.9 1.9 0 0 1 .68.11v-1.51a.6.6 0 0 0-.19-.06M108.66 70.64c0-.97-.23-1.71-.7-2.23q-.705-.78-2.07-.78c-.52 0-.99.11-1.41.34s-.76.56-1 1c-.25.44-.37 1-.37 1.67v.23c0 .7.13 1.28.38 1.75.26.46.6.81 1.04 1.03.43.23.92.35 1.46.35.72 0 1.3-.17 1.74-.5s.71-.83.83-1.49h-1.49c-.06.18-.18.31-.36.42q-.27.15-.72.15c-.21 0-.4-.04-.59-.13-.18-.09-.33-.23-.44-.43-.12-.2-.18-.44-.19-.74h3.89zm-3.88-.53q.015-.39.18-.63c.11-.15.25-.27.42-.34a1.74 1.74 0 0 1 1.13-.01c.17.06.31.17.41.33.11.15.16.37.16.65zM114.33 68.21c-.34-.39-.84-.58-1.5-.58-.5 0-.89.09-1.19.28-.29.19-.51.42-.66.7v-.82h-1.48v6.05h1.61V70.3c0-.22.04-.41.11-.59.08-.18.2-.32.37-.43.16-.11.37-.17.63-.17.35 0 .61.1.77.3.15.2.23.49.23.89v3.54h1.61V69.9c0-.73-.16-1.29-.5-1.69M119.61 65.85v2.7c-.19-.3-.43-.52-.71-.68s-.58-.24-.89-.24c-.51 0-.94.11-1.29.34-.36.23-.63.56-.82 1.01-.19.44-.28 1-.28 1.66v.23c0 .68.1 1.26.29 1.72.2.47.47.82.83 1.05.36.24.77.36 1.26.36.42 0 .78-.11 1.08-.31.3-.21.51-.43.65-.68v.83h1.49v-7.99zm0 5.19c0 .31-.06.58-.16.8-.11.23-.26.4-.44.51-.19.12-.39.17-.62.17-.31 0-.57-.14-.79-.41-.21-.28-.32-.69-.32-1.24v-.23c0-.52.11-.9.31-1.16.21-.25.48-.38.8-.38.23 0 .44.05.62.15s.33.25.44.45c.1.21.16.46.16.77zM127.6 70.64c0-.97-.23-1.71-.7-2.23-.46-.52-1.16-.78-2.07-.78-.52 0-.98.11-1.41.34-.42.23-.75.56-1 1-.24.44-.36 1-.36 1.67v.23c0 .7.12 1.28.38 1.75.25.46.6.81 1.03 1.03.43.23.92.35 1.47.35.71 0 1.29-.17 1.73-.5s.72-.83.83-1.49h-1.49c-.05.18-.17.31-.35.42q-.27.15-.72.15c-.21 0-.41-.04-.59-.13s-.33-.23-.45-.43c-.11-.2-.17-.44-.19-.74h3.89zm-3.88-.53q.03-.39.18-.63c.11-.15.25-.27.43-.34a1.68 1.68 0 0 1 1.12-.01q.255.09.42.33c.1.15.15.37.15.65zM132.67 65.64c-.16-.17-.39-.25-.7-.25-.29 0-.52.08-.69.26-.17.17-.25.39-.25.65 0 .28.08.5.25.66.17.17.4.26.7.26s.53-.09.69-.26q.24-.255.24-.66c0-.405-.08-.49-.24-.66m-1.51 2.15v5.88c0 .31-.02.55-.06.71-.04.17-.1.28-.18.34-.08.05-.18.08-.29.08-.06 0-.12-.01-.18-.01-.07 0-.13-.01-.19-.03v1.49c.08.01.17.02.26.02.1.01.19.01.27.01.52 0 .92-.07 1.21-.21s.49-.39.6-.74c.12-.35.18-.85.18-1.49v-6.05zM137.5 67.79v3.52c0 .23-.04.44-.12.61-.08.18-.19.33-.35.43-.16.11-.36.16-.6.16-.33 0-.57-.1-.72-.31-.15-.2-.22-.5-.22-.89v-3.52h-1.62v3.8c0 .8.17 1.41.51 1.81.33.4.82.6 1.45.6.46 0 .83-.1 1.13-.29.29-.19.52-.42.66-.7v.83h1.49v-6.05zM144.06 67.79v.82c-.14-.25-.36-.47-.64-.68-.29-.2-.66-.3-1.09-.3-.49 0-.91.11-1.27.33-.36.23-.64.56-.83 1s-.28.98-.28 1.62v.23c0 .69.09 1.26.29 1.71.19.45.47.79.83 1.02.35.23.77.34 1.25.34.32 0 .62-.08.91-.24.28-.17.51-.39.7-.68v.65c0 .45-.1.78-.32.99-.21.21-.52.32-.94.32-.3 0-.51-.06-.64-.18a.8.8 0 0 1-.23-.39h-1.65c.03.39.13.73.29 1.02.17.29.43.52.79.68.36.15.84.23 1.44.23.99 0 1.71-.24 2.18-.71.46-.48.7-1.19.7-2.13v-5.65zm-.13 3.19c0 .3-.05.56-.16.77-.11.22-.25.38-.44.49-.18.11-.39.17-.61.17-.31 0-.58-.14-.79-.41s-.32-.66-.32-1.19v-.23c0-.5.1-.87.31-1.12.2-.24.47-.36.8-.36.23 0 .43.05.62.15.18.1.32.24.43.44.11.19.16.43.16.72zM151.69 73.13v-3.06c0-.59-.11-1.07-.32-1.42-.2-.36-.49-.61-.86-.78q-.555-.24-1.29-.24c-.52 0-.96.08-1.32.25a2 2 0 0 0-.82.69c-.19.29-.3.62-.32.99h1.61c.01-.2.08-.34.21-.43s.32-.13.59-.13.49.06.65.2.24.39.24.76v.25h-1.57c-.69 0-1.2.16-1.54.48s-.51.78-.51 1.38c0 .35.08.68.22.98.15.3.36.53.64.7.28.16.62.25 1.03.25.47 0 .86-.09 1.16-.25.29-.17.52-.38.69-.62 0 .14 0 .27.01.36 0 .1.02.22.03.35h1.54a8 8 0 0 1-.06-.71Zm-1.64-1.58c0 .24-.06.45-.16.64-.11.18-.25.32-.43.41s-.39.14-.62.14c-.27 0-.46-.07-.58-.21a.88.88 0 0 1-.17-.55c0-.18.06-.34.17-.47.12-.14.29-.21.53-.21h1.26zM157.49 68.21c-.34-.39-.84-.58-1.5-.58-.49 0-.89.09-1.18.28-.3.19-.51.42-.66.7v-.82h-1.49v6.05h1.61V70.3c0-.22.04-.41.12-.59s.2-.32.36-.43.38-.17.63-.17c.36 0 .62.1.77.3.16.2.24.49.24.89v3.54H158V69.9c0-.73-.17-1.29-.51-1.69M162.77 65.85v2.7a1.9 1.9 0 0 0-1.6-.92c-.5 0-.93.11-1.29.34-.35.23-.62.56-.81 1.01-.19.44-.28 1-.28 1.66v.23c0 .68.09 1.26.29 1.72.19.47.47.82.83 1.05.35.24.77.36 1.25.36.43 0 .79-.11 1.08-.31.3-.21.52-.43.66-.68v.83h1.49v-7.99zm0 5.19c0 .31-.05.58-.16.8-.11.23-.25.4-.44.51-.18.12-.39.17-.61.17-.31 0-.58-.14-.79-.41-.21-.28-.32-.69-.32-1.24v-.23c0-.52.1-.9.31-1.16.2-.25.47-.38.8-.38.23 0 .44.05.62.15s.32.25.43.45c.11.21.16.46.16.77zM170.5 69q-.375-.66-1.02-1.02c-.43-.24-.91-.35-1.43-.35s-.99.11-1.42.35c-.44.24-.78.58-1.03 1.02s-.38.99-.38 1.64v.23c0 .7.13 1.28.38 1.75.25.46.59.81 1.03 1.03.43.23.9.35 1.42.35s1-.12 1.43-.36c.43-.23.77-.58 1.02-1.04s.37-1.04.37-1.73v-.23c0-.65-.12-1.2-.37-1.64m-1.28 1.87c0 .33-.04.63-.14.88-.09.25-.22.44-.4.57s-.39.19-.63.19-.47-.06-.64-.19c-.17-.12-.31-.31-.4-.56a2.7 2.7 0 0 1-.13-.89v-.23c0-.3.04-.56.13-.79.09-.24.23-.42.4-.55.17-.12.39-.19.64-.19s.45.07.63.19c.18.13.31.31.4.55.1.23.14.49.14.79z" class="st0"/></svg>