<svg xmlns="http://www.w3.org/2000/svg" viewBox="0 0 210.99 53.22"><path d="M74.79 50.9c-.29.14-.86.32-1.55.32-1.34 0-1.83-.9-1.64-2 .32-1.77 1.91-3.42 3.77-3.42.48 0 .9.14 1.04.24l-.38.69c-.19-.09-.46-.19-.84-.19-1.35 0-2.43 1.33-2.64 2.56-.15.85.19 1.39 1.04 1.39.53 0 .96-.16 1.25-.29l-.04.7ZM78.77 43.76c-.33 0-.64.28-.72.63-.05.33.12.58.43.58h.01c.35 0 .66-.26.74-.63.06-.33-.12-.58-.46-.58m-1.14 2.16-1.89 5.18h.89l1.89-5.18zM81.77 50.9c-.29.14-.86.32-1.55.32-1.34 0-1.83-.9-1.64-2 .32-1.77 1.91-3.42 3.77-3.42.48 0 .9.14 1.04.24l-.38.69c-.18-.09-.46-.19-.84-.19-1.35 0-2.43 1.33-2.65 2.56-.15.85.19 1.39 1.04 1.39.53 0 .96-.16 1.25-.29zM82.72 51.1l2.79-7.6h.89l-2.79 7.6zM88.2 43.76c-.33 0-.64.28-.72.63-.06.33.12.58.43.58h.01c.35 0 .66-.26.74-.63.06-.33-.13-.58-.46-.58m-1.14 2.16-1.9 5.18h.9l1.89-5.18zM87.82 50.21c.21.15.63.32 1.06.32.6 0 1.05-.38 1.13-.84.08-.41-.06-.66-.56-.96-.54-.33-.79-.78-.7-1.32.16-.91 1.06-1.6 2.17-1.6.46 0 .86.13 1.02.26l-.37.67c-.16-.1-.46-.24-.84-.24-.55 0-.99.35-1.07.78-.07.37.14.61.56.87.52.33.83.78.72 1.37-.19 1.09-1.18 1.7-2.28 1.7-.55-.01-1.02-.17-1.22-.35l.37-.66ZM91.61 51.1l1.34-3.67c.21-.58.37-1.08.51-1.51h.78l-.31.98h.03c.61-.73 1.33-1.09 2.01-1.09.79 0 1.08.51 1.01 1.16.59-.75 1.32-1.15 2.1-1.16.6 0 1.2.39 1.02 1.36-.04.23-.14.58-.24.88l-1.12 3.06h-.87l1.08-2.98c.08-.19.16-.46.19-.67.1-.55-.04-.9-.62-.9-.64 0-1.54.75-1.96 1.91l-.96 2.65h-.85l1.11-3.04c.08-.24.14-.43.18-.63.08-.44.04-.89-.62-.89s-1.61.86-2.01 1.96l-.94 2.6h-.87ZM104.12 45.81c-1.68 0-3.14 1.57-3.45 3.28-.2 1.17.36 2.13 1.65 2.13 1.73 0 3.17-1.66 3.44-3.26.2-1.09-.25-2.15-1.65-2.15Zm.72 2.15c-.21 1.2-1.24 2.55-2.29 2.55h-.01c-.73 0-1.1-.61-.95-1.45.21-1.19 1.19-2.55 2.3-2.55.93 0 1.06.85.95 1.45M112.98 45.81c-2.24 0-3.9 1.89-4.22 3.7-.18.98.27 1.71 1.18 1.71.73 0 1.51-.38 2.27-1.46h.02c-.15.54-.29 1.03-.35 1.34h.82c.09-.58.31-1.5.64-2.39l1-2.71c-.33-.11-.86-.19-1.36-.19m-.31 2.34c-.49 1.38-1.54 2.34-2.29 2.34-.67 0-.78-.57-.67-1.14.25-1.45 1.6-2.84 2.93-2.84.3 0 .48.03.6.07zM120.03 44.68l-.45 1.24h1.24l-.26.7h-1.24l-.91 2.53c-.12.29-.21.55-.26.82-.06.31.06.5.4.5.16 0 .3-.01.43-.04l-.16.69c-.17.06-.45.1-.7.1-.78 0-1.01-.47-.91-1.01.05-.3.15-.6.29-.97l.97-2.62h-.74l.25-.7h.74l.35-.95.98-.29ZM123.78 45.81c-1.68 0-3.14 1.57-3.44 3.28-.21 1.17.35 2.13 1.64 2.13h.01c1.74 0 3.16-1.66 3.45-3.26.19-1.09-.26-2.15-1.66-2.15m.73 2.15c-.22 1.2-1.25 2.55-2.3 2.55h-.01c-.73 0-1.1-.61-.95-1.45.21-1.19 1.19-2.55 2.3-2.55.93 0 1.07.85.96 1.45M129.86 45.81c-.72 0-1.47.4-2.05 1.09h-.02l.31-.99h-.81c-.16.53-.39 1.23-.62 1.86l-2 5.45h.89l.81-2.23h.02c.18.11.53.23 1.07.23 1.72 0 3.33-1.71 3.66-3.54.16-.95-.15-1.87-1.26-1.87m.32 1.93c-.23 1.36-1.44 2.78-2.59 2.78-.42 0-.74-.1-.94-.28l.52-1.45c.53-1.45 1.53-2.25 2.23-2.25.76 0 .88.66.78 1.2M136.27 47.14c.13-.75-.3-1.33-1.28-1.33-1.67 0-3.14 1.76-3.42 3.32-.2 1.15.24 2.09 1.61 2.09.69 0 1.36-.19 1.78-.41v-.66c-.36.17-.85.35-1.47.35-.53 0-.91-.22-1.03-.69-.07-.28-.01-.76.07-.99 1.91.04 3.5-.32 3.74-1.68m-1.53-.64c.47 0 .75.24.67.65v.02c-.14.8-1.27.99-2.65.97.35-.82 1.13-1.64 1.98-1.64M116.64 14.7h-14.31l3.45-5.83H92.95l-.8 1.28c.13.68.24 1.37.26 2.09.17 3.56-1.07 6.99-3.48 9.63a13.4 13.4 0 0 1-6.49 3.93l-4.67 7.61c-.29.54-.4 1.13-.32 1.81.35 2.9 4.38 4.36 12.08 4.36h17.94c8.55 0 13.73-1.68 15.52-5.04h-.07l7.69-13.15c3.17-6.15-4.97-6.69-13.97-6.69m-.04 7.81-6.01 9.56s-.69 1.06-2.55 1.07l-14.45-.06c-2.9.01-1.86-1.12-1.81-1.2l5.83-9.38c.86-1.08 3.33-1.13 4.36-1.13h13.44c.81 0 1.32.44 1.19 1.14M123.7 39.51l14.82-24.27h12.76L136.4 39.51zM165.01 21.81c-.72.18-1.49.49-2.3 1.56l-5.42 8.43c-.21.45-1.44 1.41 1.6 1.41h24.73l-3.94 6.37h-24.86c-7.71 0-11.72-1.41-12.06-4.22-.08-.67.02-1.28.32-1.81l7.65-12.18s2.37-3.78 5.03-5.03c1.89-.88 4.51-1.1 7.69-1.1h30.51l-3.61 6.3h-22.71c-1.03 0-1.9.09-2.62.27ZM183.41 39.51l14.82-24.27h12.76l-14.88 24.27z"/><path d="M77.94 0h-.55c-6.6.3-11.7 5.9-11.41 12.49 0 0 .6 1.71-3.99 6.82-1.4 1.57-2.57 2.59-3.51 3.26 5.22.86 9.37 4.7 10.74 9.64.63-.94 1.54-2.13 2.91-3.66 3.89-4.32 5.71-4.67 6.2-4.67.1 0 .14.01.14.01 6.6-.3 11.71-5.89 11.41-12.48C89.59 4.99 84.29-.01 77.94-.01Zm2.64 15.32a4.214 4.214 0 0 1-5.97.27 4.23 4.23 0 0 1-.27-5.97 4.233 4.233 0 0 1 5.97-.27 4.214 4.214 0 0 1 .27 5.97M21.01 15.88c-.62.97-1.59 2.23-3.11 3.83-4.07 4.29-5.73 4.68-6.19 4.68-.11 0-.16-.03-.16-.03C4.95 24.59-.21 30.12 0 36.72c.22 6.47 5.53 11.56 11.95 11.56.14 0 .27 0 .41-.01 6.6-.23 11.77-5.76 11.55-12.36 0 0-.54-2.05 3.99-6.82 1.53-1.61 2.74-2.64 3.68-3.31-5.21-.95-9.32-4.89-10.58-9.9Zm-5.82 23.19a4.224 4.224 0 0 1-5.98.2 4.23 4.23 0 0 1 5.78-6.18c1.71 1.6 1.8 4.27.2 5.98"/><path d="M56.53 24.38s-.04.01-.13.01c-.45 0-2.07-.38-6.11-4.81-4.67-5.14-3.99-6.78-3.99-6.78C46.67 6.21 41.62.56 35.03.19c-.23-.01-.46-.02-.68-.02-6.3 0-11.57 4.92-11.93 11.28-.37 6.6 4.67 12.25 11.27 12.62 0 0 .03-.01.1-.01.45 0 2.31.31 6.28 4.68 4.43 4.86 3.85 6.9 3.85 6.9-.37 6.59 4.67 12.25 11.27 12.61.23.02.46.02.68.02 6.29 0 11.57-4.92 11.93-11.28.37-6.59-4.68-12.25-11.27-12.61m-19.36-9.1c-1.74 1.56-4.41 1.4-5.97-.33a4.247 4.247 0 0 1 .34-5.98 4.236 4.236 0 0 1 5.97.35c1.56 1.73 1.4 4.4-.34 5.96m21.37 24.06a4.244 4.244 0 0 1-5.97-.34 4.235 4.235 0 0 1 .34-5.97 4.225 4.225 0 0 1 5.97.33 4.247 4.247 0 0 1-.34 5.98"/></svg>