<svg xmlns="http://www.w3.org/2000/svg" id="Capa_1" viewBox="0 0 139.38 133.36"><defs><style>.st0{fill:#0074ff}.st1{fill:#fff}</style></defs><path d="M25.59 26.49c-1.57 1.01 1.09.54 4.47-.22 3.51-1.39-5.2 1.69-2.64-.07-.86.23-1.5.38-1.84.29ZM27.45 25.75l5.02-1.04c-4.86.66-6.28.37-8.6.37 2.56-.67 6.71-1.48 5.66-.74l3.61-1.41-11.74 2.59c2.25 0 6.12-.55 6.05.23M57.1 20.86c-3.86.36-7.7.71-6.03-.48l3.99-.71c1.02-.72-2.35-.41-5.17-.2 1.42.73-6.42 3.48 7.21 1.39M49.9 19.46c-.36-.19-1.33-.24-3.43-.05-.12.29 1.53.19 3.43.05M42.31 25.08l1.76-.59-12.1 1.55c1.16.97 5.73-.96 10.34-.96M5.28 114.42c-.08.62-.18 1.25-.29 1.88l2.03-.37q.06-.09.24-.21l5.63-1.35c2.31-1.55-2.47-.81-7.61.05M19.88 115.27c-2.59.15-4.6.16-7.58.38-2.36.36-4.55.65-5.14.49-.68.08-1.4.17-2.18.27-.09.5-.19 1.01-.3 1.51l3.88-1.11c-2.14 1 6.18-.45 11.33-1.54Z" class="st0"/><path d="M131.06 5.84c.08 1.33.34.71.79-1.4.12-1.28.3-2.8.5-4.44-3.35.58-7.05 1.22-9.89 1.72-1.44.26-2.66.5-3.5.71-.42.1-.75.19-.96.28a.35.35 0 0 0-.17.12c-.72.03-1.39.04-1.97 0l-1.84.79-.8.02c.21.04.45.06.7.09-4.76.91-9.9 1.64-13.46 2.72.36-.02.7-.03 1.01-.05-.37.02-.71.04-1.01.05-.4.22-.69.39-.91.54-1.32-.03.75-.42 1.22-.76-3.35.58-5.86 1.02-6.87 1.67l5.5-.8c-.31.22-.41.36-.42.47-1.88.64-3.43 1.16-4.05 1.17-4.45.48-7.85.6-10.97.64.1-.06.21-.12.32-.17 2.26-.27 5.53-.81 6.75-.99l-3.98.1-1.36.53c-.56.07-.85.06-.99 0 0-.04-.05-.07-.13-.11 0-.04 0-.08.02-.12l-.24.05c-.1-.02-.23-.05-.38-.07l-.16.19-1.78.39c-.07.04-.09.08-.08.11-1.7-.13-3.34-.32-6.94.17l-.09.06c-1.83.09-3.8.24-6.04.5-.48.01-2.01.48-3.49 1-.13.02-.25.04-.38.07-1.17.39-1.81.67-2.06.87-.45.19-.74.35-.77.42.98.32 3.61.21 6.4.04l-.67.12h.4c.14-.05.25-.09.36-.12 2.24-.14 4.58-.31 6.26-.34 1.07.25 1.76.35 2.95.51 1.89.26-2.4 1.3-3.5 1.64 1.89.22 4.61.11 7.85-.21l-11.57 2.11.15-.45c-3.35.7-4.02.24-7.73 1.05-.04 0-.07.02-.12.02h.01c.96.4 2.92.06 4.94-.12l-4.05.74 2.05 3.01-.2 5.05h-.27l-45 8.24-.93 7.95c-.11-2.69-.2-5.31-.18-7.95-9.61 1.98-7.11-1.59-6.65 12.78.05 1.65.03 3.67-.16 5.35-.56 2.35-1.14 4.94-1.72 7.71.2 3.63-.12 9.12-.53 14.3-.11.36-.21.73-.32 1.1.02.96-.02 2.33-.09 3.74-.15 1.7-.29 3.29-.41 4.63-1.06 6.52-1.93 12.78-2.7 18.88q-.57 4.575-1.08 9.06c-.12 1.03-.23 2.09-.38 3.16 17.68-3.8 7.76.07 9.08.88 2.47 0 7.28-.61 10.45-.8l-20.23 3.81c-.18.77-.39 1.55-.65 2.32 3.29-.17 7.1-.42 5.91.38l-4.74.74c-2.02 1.37 2.54 1.05 7.12.73-5.84.76-8.35.85-9.26.61-.74 1.58-1.7 3.14-2.98 4.63 4.44-.84 7.61-2.82 15.08-4.02 1-.16 4.1.14 5.1-.05l2.17-.43c1.45-.3 2.9-.59 4.35-.89 2.9-.61 5.8-1.24 8.67-1.9 5.75-1.31 11.43-2.69 16.9-4.05 1.73.23 2.83-1.55 6.49.61 1.03.61 3.41-2.89 3.42-2.89 1.67-.27 1.96-2.49 2.03-4.19l.11-2.64c10.69-1.71 23.28-3.79 30.35-6.68 3.8-.07 7.99-.8 10.19-1.47 1.88-.58 3.83-1.11 5.83-1.6l.38-.09.19-.05.3-.07 1.22-.26c.8-.17 1.59-.34 2.4-.51 1.7-.28 3.4-.56 5.12-.84.57-4.14 1.14-8.34 1.71-12.48.39-3.05.72-6.06.89-8.97-.01.04-.03.09-.04.15.65-4.29 1.29-8.55 1.81-12.69.72-8.1 2.29-16.89 2.65-23.01.14-4.18.55-7.88.95-11.43.3-1.19.59-2.56.74-4-.11.79-.23 1.48-.36 2.12l-.16-.07c.11-.97.21-1.93.31-2.89.33-1.7.66-3.54.97-5.24.13-.67.25-1.32.37-1.92.14-.66.26-1.27.38-1.82.32-1.76.63-3.18.9-4.01-.18-1.53-.46-.65-.76 1.16-.07.45-.15.97-.23 1.54-.07.54-.15 1.13-.23 1.74-.1.76-.2 1.58-.3 2.38.22-2.1.47-4.39.72-6.73.32-2.9.64-5.85.99-8.75-.72.13-1.43.25-2.14.38.8-.18 1.55-.36 2.3-.54-.07 1.51-.18 3.04-.71 5.26Z" class="st0"/><path d="M3.9 120.73c-.07.22-.15.44-.23.65.23-.25.36-.48.23-.65M128.4 26.56c.04-.2.09-.4.13-.58-.04.2-.09.39-.13.58M112.24 129.17c.13-.55.25-1.1.38-1.65 2.23-10.12 3.98-20.34 6.3-31.61 1.7-7.88 3.24-16.96 4.7-24.88-3.67 18.74-7.21 38.5-11.36 56.39.05-1.88.23-4.1.69-6.64 1.23-6.09 2.42-12.1 3.57-18.07.12.02.36.07.48.09 2.76-17.05 6.63-32.72 9.15-49.82-.17.59-.21.22-.26.08 0-.04.01-.08.02-.12 0 .04-.01.08-.02.12-.05-.13-.11-.07-.31.99.19-1.06.26-1.12.31-.99-2.95 16.73-5.94 32.33-9.23 48.97 4.98-25.87 9.34-50.89 14.21-77.44.21-1.13.62-3.4.83-4.53 1.19-4.46 2.14-8.97 2.98-13.5.39 1.24 2.43-3.07.52 5.95.12.02.36.07.48.09 2.26-8.95 4.57-12.04 3.39-2.89-1.39 10.28-4.37 23.78-6.41 36.27-1.54 9.08-3.09 18.16-4.99 27.17-2.65 12.39-5.02 26-7.79 38.36-.95 4.51-2.05 12.5-2.82 14.7-.47 1.59-.74 1.61-.98 1.31 1.41-7.44 2.79-14.86 4.19-22.18 1.79-8.98 3.59-17.95 5.48-26.91-1.95 8.74-3.73 17.75-5.48 26.91-1.45 7.3-2.9 14.61-4.37 21.91-.2-.31-.4-.62-.72-.21 0 0-.42 2.26-.62 3.4-1.43 4.42-2.07 3.13-2.25.76-.02-.6-.03-1.27-.04-2.02Z" class="st0"/><path d="m29.79 66.74-1.16 5.49-5.89 1.13 3.4-16.07 5.89-1.13-1.16 5.49 8.85-1.7 1.16-5.49 5.9-1.13-3.4 16.07-5.9 1.13 1.16-5.49zM63.71 50.08l5.9-1.13-1.83 8.63c-1.26 6.07-6.31 8.71-11.98 9.81-5.66 1.08-9.97.23-8.66-5.85l1.83-8.63 5.89-1.13-1.74 8.24c-.58 2.65 1.36 2.71 3.77 2.28 2.41-.5 4.56-1.35 5.08-3.98zM71.69 48.54l7.38-1.42 4.19 6.9 7.6-9.17 7.36-1.41-3.4 16.07-5.89 1.13 1.82-8.57-7.72 9.71-2.95.57-4.09-7.44-1.82 8.57-5.89 1.13 3.4-16.07Z" class="st1"/><path d="m106.2 41.94 7.01-1.35 4.7 14.51-6.63 1.27-.61-2.52-7.57 1.45-1.77 2.98-6.63 1.27 11.51-17.63Zm-.56 9.12 4.15-.8-1.06-4.35-3.08 5.15ZM37.44 73.64l5.9-1.13-3.4 16.07-6.63 1.27-6.04-8.26-2.08 9.82-5.89 1.13 3.4-16.07 8.11-1.56 4.83 7.24zM52.09 70.82l-3.4 16.07-5.89 1.13 3.4-16.07zM68.08 67.77c4.16-.86 6.46 2.26 5.49 6.65-.89 4.36-4.76 8.68-8.9 9.42l-13.45 2.58 3.4-16.07 13.45-2.58Zm-2.18 5.31-6.45 1.24-1.25 5.88 6.45-1.24c1.53-.29 2.68-1.79 3.02-3.4.34-1.63-.24-2.78-1.77-2.48M81.64 65.17l7.01-1.35 4.7 14.51-6.63 1.27-.61-2.52-7.57 1.45-1.77 2.98-6.63 1.27 11.51-17.63Zm-.56 9.12 4.15-.8-1.06-4.35z" class="st1"/><path d="M110.07 59.71c4.16-.86 6.46 2.26 5.5 6.65-.89 4.36-4.76 8.68-8.9 9.42l-13.45 2.58 3.4-16.07zm-2.18 5.3-6.45 1.24-1.25 5.88 6.45-1.24c1.53-.29 2.68-1.79 3.02-3.4.34-1.63-.24-2.78-1.77-2.48" class="st1"/></svg>