<svg xmlns="http://www.w3.org/2000/svg" xmlns:xlink="http://www.w3.org/1999/xlink" id="Capa_1" viewBox="0 0 126.89 129.96"><defs><linearGradient id="Degradado_sin_nombre_112" x1="81.13" x2="90.35" y1="52.97" y2="73.91" data-name="Degradado sin nombre 112" gradientUnits="userSpaceOnUse"><stop offset="0" stop-color="#e52527"/><stop offset=".61" stop-color="#ab2421"/><stop offset="1" stop-color="#8c241e"/></linearGradient><linearGradient id="Degradado_sin_nombre_137" x1="-3665.86" x2="-3663.72" y1="-484.97" y2="-484.97" data-name="Degradado sin nombre 137" gradientTransform="rotate(14.48 2229.85 520954.068)scale(35.51 -35.51)" gradientUnits="userSpaceOnUse"><stop offset="0" stop-color="#2c3e44"/><stop offset=".11" stop-color="#2c3e44"/><stop offset=".58" stop-color="#859496"/><stop offset=".67" stop-color="#748487"/><stop offset=".83" stop-color="#4b5c60"/><stop offset=".94" stop-color="#2c3e44"/><stop offset="1" stop-color="#2c3e44"/></linearGradient><linearGradient xlink:href="#Degradado_sin_nombre_137" id="Degradado_sin_nombre_1371" x1="-3665.85" x2="-3663.74" y1="-484.96" y2="-484.96" data-name="Degradado sin nombre 137" gradientTransform="rotate(14.48 2229.802 520893.565)scale(35.5 -35.5)"/><linearGradient xlink:href="#Degradado_sin_nombre_137" id="Degradado_sin_nombre_1372" x1="-3665.81" x2="-3663.69" y1="-484.96" y2="-484.96" data-name="Degradado sin nombre 137" gradientTransform="rotate(14.48 2230.664 520680.61)scale(35.49 -35.49)"/><linearGradient xlink:href="#Degradado_sin_nombre_137" id="Degradado_sin_nombre_1373" x1="-3665.81" x2="-3663.7" y1="-484.93" y2="-484.93" data-name="Degradado sin nombre 137" gradientTransform="rotate(14.48 2235.335 520661.34)scale(35.49 -35.49)"/><linearGradient xlink:href="#Degradado_sin_nombre_137" id="Degradado_sin_nombre_1374" x1="-3665.84" x2="-3663.73" y1="-484.91" y2="-484.91" data-name="Degradado sin nombre 137" gradientTransform="rotate(14.48 2237.499 520837.356)scale(35.5 -35.5)"/><linearGradient xlink:href="#Degradado_sin_nombre_137" id="Degradado_sin_nombre_1375" x1="-3665.82" x2="-3663.68" y1="-484.88" y2="-484.88" data-name="Degradado sin nombre 137" gradientTransform="rotate(14.48 2241.544 520633.716)scale(35.48 -35.48)"/><linearGradient xlink:href="#Degradado_sin_nombre_137" id="Degradado_sin_nombre_1376" x1="-3665.81" x2="-3663.7" y1="-484.88" y2="-484.88" data-name="Degradado sin nombre 137" gradientTransform="rotate(194.48 66142.652 -284.75)scale(-35.49 35.49)"/><linearGradient xlink:href="#Degradado_sin_nombre_137" id="Degradado_sin_nombre_1377" x1="-3665.82" x2="-3663.7" y1="-484.86" y2="-484.86" data-name="Degradado sin nombre 137" gradientTransform="rotate(194.48 66145.818 -285.02)scale(-35.49 35.49)"/><linearGradient xlink:href="#Degradado_sin_nombre_137" id="Degradado_sin_nombre_1378" x1="-3666.09" x2="-3663.95" y1="-484.82" y2="-484.82" data-name="Degradado sin nombre 137" gradientTransform="rotate(14.48 2247.521 522087.032)scale(35.58 -35.58)"/><linearGradient xlink:href="#Degradado_sin_nombre_137" id="Degradado_sin_nombre_1379" x1="-3665.9" x2="-3663.79" y1="-484.84" y2="-484.84" data-name="Degradado sin nombre 137" gradientTransform="rotate(14.48 2246.777 521132.647)scale(35.52 -35.52)"/><linearGradient xlink:href="#Degradado_sin_nombre_137" id="Degradado_sin_nombre_13710" x1="-3665.87" x2="-3663.75" y1="-484.82" y2="-484.82" data-name="Degradado sin nombre 137" gradientTransform="rotate(14.48 2248.947 520902.29)scale(35.5 -35.5)"/><linearGradient xlink:href="#Degradado_sin_nombre_137" id="Degradado_sin_nombre_13711" x1="-3665.85" x2="-3663.74" y1="-484.78" y2="-484.78" data-name="Degradado sin nombre 137" gradientTransform="rotate(14.48 2254.762 520778.692)scale(35.49 -35.49)"/><linearGradient xlink:href="#Degradado_sin_nombre_137" id="Degradado_sin_nombre_13712" x1="-3665.83" x2="-3663.72" y1="-484.76" y2="-484.76" data-name="Degradado sin nombre 137" gradientTransform="rotate(14.48 2257.327 520664.146)scale(35.49 -35.49)"/><linearGradient xlink:href="#Degradado_sin_nombre_137" id="Degradado_sin_nombre_13713" x1="-3665.92" x2="-3663.8" y1="-484.74" y2="-484.74" data-name="Degradado sin nombre 137" gradientTransform="rotate(14.48 2259.561 521097.909)scale(35.52 -35.52)"/><linearGradient xlink:href="#Degradado_sin_nombre_137" id="Degradado_sin_nombre_13714" x1="-3665.85" x2="-3663.74" y1="-484.73" y2="-484.73" data-name="Degradado sin nombre 137" gradientTransform="rotate(194.48 66156.564 -287.34)scale(-35.49 35.49)"/><linearGradient xlink:href="#Degradado_sin_nombre_137" id="Degradado_sin_nombre_13715" x1="-3665.96" x2="-3663.81" y1="-484.7" y2="-484.7" data-name="Degradado sin nombre 137" gradientTransform="rotate(14.48 2265.111 521161.433)scale(35.52 -35.52)"/><linearGradient xlink:href="#Degradado_sin_nombre_137" id="Degradado_sin_nombre_13716" x1="-3665.87" x2="-3663.76" y1="-484.7" y2="-484.7" data-name="Degradado sin nombre 137" gradientTransform="rotate(14.48 2265.06 520878.007)scale(35.5 -35.5)"/><linearGradient xlink:href="#Degradado_sin_nombre_137" id="Degradado_sin_nombre_13717" x1="-3665.99" x2="-3663.84" y1="-484.67" y2="-484.67" data-name="Degradado sin nombre 137" gradientTransform="rotate(14.48 2268.42 521268.075)scale(35.53 -35.53)"/><linearGradient xlink:href="#Degradado_sin_nombre_137" id="Degradado_sin_nombre_13718" x1="-3665.85" x2="-3663.74" y1="-484.67" y2="-484.67" data-name="Degradado sin nombre 137" gradientTransform="rotate(14.48 2268.296 520742.299)scale(35.49 -35.49)"/><linearGradient xlink:href="#Degradado_sin_nombre_137" id="Degradado_sin_nombre_13719" x1="-3665.86" x2="-3663.75" y1="-484.65" y2="-484.65" data-name="Degradado sin nombre 137" gradientTransform="rotate(14.48 2270.897 520780.722)scale(35.49 -35.49)"/><linearGradient xlink:href="#Degradado_sin_nombre_137" id="Degradado_sin_nombre_13720" x1="-3818.71" x2="-3816.65" y1="-324.51" y2="-324.51" data-name="Degradado sin nombre 137" gradientTransform="matrix(-16.27228 17.50494 15.18193 13.18999 -57167.93 71196.58)"/><linearGradient xlink:href="#Degradado_sin_nombre_137" id="Degradado_sin_nombre_13721" x1="-3816.64" x2="-3814.58" y1="-329.89" y2="-329.89" data-name="Degradado sin nombre 137" gradientTransform="matrix(-16.89186 18.17144 15.7561 13.68858 -59214.15 73942.2)"/><linearGradient xlink:href="#Degradado_sin_nombre_137" id="Degradado_sin_nombre_13722" x1="-3817.71" x2="-3815.65" y1="-326.53" y2="-326.53" data-name="Degradado sin nombre 137" gradientTransform="matrix(-16.55824 17.81255 15.44637 13.41958 -58106.4 72466.54)"/><linearGradient xlink:href="#Degradado_sin_nombre_137" id="Degradado_sin_nombre_13723" x1="-3818.67" x2="-3816.6" y1="-323.56" y2="-323.56" data-name="Degradado sin nombre 137" gradientTransform="matrix(-16.27228 17.50494 15.18193 13.18999 -57152.82 71205.82)"/><linearGradient xlink:href="#Degradado_sin_nombre_137" id="Degradado_sin_nombre_13724" x1="-3818.5" x2="-3816.43" y1="-323.53" y2="-323.53" data-name="Degradado sin nombre 137" gradientTransform="matrix(-16.31994 17.5562 15.2199 13.22258 -57289.52 71402.22)"/><clipPath id="clippath"><path d="m9.42 120.32-1.23 6.39h1.09l1.23-6.39z" class="st0"/></clipPath><clipPath id="clippath-1"><path d="m11.24 121.92-.92 4.79h1.09l.77-4.02c.19-.03.38-.05.57-.07.18-.02.36-.02.55-.02.73 0 1.03.3.92.91l-.62 3.2h1.09l.62-3.2c.23-1.21-.38-1.82-1.84-1.82-1.08 0-1.83.08-2.23.23" class="st0"/></clipPath><clipPath id="clippath-2"><path d="m17.22 124.66.17-.91c.15-.76.58-1.14 1.31-1.14.19 0 .37 0 .54.02.18.02.36.04.53.07l-.58 3.01c-.19.03-.38.06-.56.07-.18.02-.36.02-.55.02q-1.095 0-.87-1.14m-.91-.92-.18.91c-.26 1.37.33 2.05 1.79 2.05.36 0 .74-.05 1.12-.14l-.07.36c-.12.6-.54.91-1.27.91s-1.25-.08-1.59-.23l-.45.91c.53.15 1.16.23 1.87.23 1.46 0 2.3-.61 2.54-1.82l.96-5.01c-.34-.15-1.05-.23-2.14-.23-1.46 0-2.31.69-2.58 2.05" class="st0"/></clipPath><clipPath id="clippath-3"><path d="M24.28 122.6c.76 0 1.07.39.92 1.18h-2.4c.15-.79.65-1.18 1.48-1.18m-2.62 1.37-.09.45q-.435 2.28 1.74 2.28 1.365 0 1.98-.27l-.04-.84c-.46.13-1.04.2-1.77.2s-1.02-.38-.87-1.14h3.22c.18 0 .31-.23.41-.68q.435-2.28-1.8-2.28c-2.235 0-2.5.76-2.79 2.28" class="st0"/></clipPath><clipPath id="clippath-4"><path d="m27.47 121.92-.92 4.79h1.09l.77-4.02c.19-.03.38-.05.56-.07s.36-.02.55-.02c.73 0 1.03.3.92.91l-.61 3.2h1.09l.62-3.2c.23-1.21-.37-1.82-1.83-1.82-1.08 0-1.83.08-2.23.23" class="st0"/></clipPath><clipPath id="clippath-5"><path d="m32.92 121.69-.96 5.02h1.09l.97-5.02zm.35-1.82-.22 1.14h1.09l.22-1.14z" class="st0"/></clipPath><clipPath id="clippath-6"><path d="M37.23 122.6c.76 0 1.07.39.92 1.18h-2.4c.15-.79.64-1.18 1.48-1.18m-2.61 1.37-.09.45q-.435 2.28 1.74 2.28 1.365 0 1.98-.27l-.05-.84c-.45.13-1.04.2-1.76.2s-1.02-.38-.87-1.14h3.23c.18 0 .31-.23.4-.68.3-1.52-.31-2.28-1.8-2.28q-2.355 0-2.79 2.28" class="st0"/></clipPath><clipPath id="clippath-7"><path d="m40.42 121.92-.92 4.79h1.09l.77-4.02c.19-.03.38-.05.56-.07s.36-.02.55-.02.32.02.43.05l.42-.9c-.2-.04-.42-.06-.68-.06-1.08 0-1.83.08-2.23.23" class="st0"/></clipPath><clipPath id="clippath-8"><path d="m44.01 121.69-.96 5.02h1.09l.97-5.02h-1.09Zm.73-2.05-.54 1.37h.82l.91-1.37h-1.2Z" class="st0"/></clipPath><clipPath id="clippath-9"><path d="M46.57 125.16c.1-.49.87-.73 2.33-.73l-.24 1.28c-.19.03-.38.06-.57.07-.18.02-.36.02-.55.02-.73 0-1.05-.21-.97-.64m-.07-3.17.16.82q.765-.21 1.5-.21c.73 0 1.03.3.92.91-2.19 0-3.39.55-3.6 1.64-.2 1.03.43 1.55 1.89 1.55 1.1 0 1.85-.15 2.28-.46l.53-2.74c.23-1.21-.38-1.82-1.83-1.82-.6 0-1.2.1-1.83.3" class="st0"/></clipPath><clipPath id="clippath-10"><path d="m58.05 121.69-.78 4.01c-.19.03-.38.06-.56.07-.18.02-.36.02-.55.02q-1.095 0-.87-1.14l.57-2.97h-1.09l-.57 2.97c-.26 1.37.33 2.05 1.79 2.05.37 0 .74-.05 1.13-.14l-.07.36c-.12.6-.54.91-1.27.91s-1.25-.08-1.59-.23l-.45.91c.53.15 1.15.23 1.87.23 1.46 0 2.3-.61 2.54-1.82l1.01-5.24h-1.09Z" class="st0"/></clipPath><clipPath id="clippath-11"><path d="M63.23 123.15c-.18.91.42 1.41 1.79 1.51.71.09 1.04.29.98.59-.07.37-.47.55-1.2.55-.81 0-1.44-.06-1.88-.18l-.44.87c.63.15 1.35.23 2.14.23 1.46 0 2.28-.49 2.47-1.46.17-.92-.45-1.41-1.9-1.5-.64-.09-.93-.29-.87-.59.07-.37.43-.55 1.08-.55q.84 0 1.5.18l.44-.86c-.64-.15-1.22-.23-1.76-.23-1.38 0-2.17.49-2.35 1.46" class="st0"/></clipPath><clipPath id="clippath-12"><path d="M70.74 122.6c.76 0 1.07.39.92 1.18h-2.4c.15-.79.65-1.18 1.49-1.18m-2.63 1.37-.09.45q-.45 2.28 1.74 2.28c.92 0 1.57-.09 1.99-.27l-.05-.84c-.46.13-1.05.2-1.76.2s-1.02-.38-.87-1.14h3.22c.19 0 .32-.23.41-.68.3-1.52-.31-2.28-1.8-2.28s-2.5.76-2.79 2.28" class="st0"/></clipPath><clipPath id="clippath-13"><path d="m73.93 121.92-.92 4.79h1.09l.77-4.02c.19-.03.38-.05.56-.07s.37-.02.55-.02.32.02.44.05l.42-.9c-.2-.04-.43-.06-.68-.06-1.08 0-1.83.08-2.23.23" class="st0"/></clipPath><clipPath id="clippath-14"><path d="m80.69 121.69-2 3.88-.52-3.88h-1.19l.83 5.02h1.32l2.76-5.02z" class="st0"/></clipPath><clipPath id="clippath-15"><path d="m82.38 121.69-.97 5.02h1.09l.97-5.02zm.35-1.82-.22 1.14h1.09l.22-1.14z" class="st0"/></clipPath><clipPath id="clippath-16"><path d="m84.08 123.97-.09.45c-.29 1.52.38 2.28 2.02 2.28.72 0 1.28-.08 1.69-.23l-.11-.87c-.38.12-.85.18-1.4.18-.91 0-1.28-.45-1.1-1.37l.09-.45c.18-.91.72-1.37 1.63-1.37.55 0 1 .06 1.33.18l.44-.86c-.35-.15-.88-.23-1.6-.23-1.64 0-2.6.76-2.89 2.28" class="st0"/></clipPath><clipPath id="clippath-17"><path d="m89.38 121.69-.96 5.02h1.09l.97-5.02h-1.09Zm.35-1.82-.22 1.14h1.09l.22-1.14z" class="st0"/></clipPath><clipPath id="clippath-18"><path d="m92.07 124.42.09-.45c.17-.91.72-1.37 1.63-1.37s1.28.46 1.1 1.37l-.09.45c-.17.92-.72 1.37-1.63 1.37s-1.28-.45-1.11-1.37m-.99-.45-.09.45c-.3 1.52.38 2.28 2.02 2.28s2.6-.76 2.89-2.28l.09-.45c.29-1.52-.38-2.28-2.02-2.28s-2.61.76-2.9 2.28" class="st0"/></clipPath><clipPath id="clippath-19"><path d="M97.29 123.15c-.18.91.42 1.41 1.79 1.51.71.09 1.04.29.98.59-.07.37-.47.55-1.2.55-.81 0-1.44-.06-1.88-.18l-.44.87c.64.15 1.35.23 2.14.23 1.46 0 2.28-.49 2.47-1.46.18-.92-.46-1.41-1.9-1.5-.64-.09-.93-.29-.87-.59.07-.37.43-.55 1.08-.55q.84 0 1.5.18l.43-.86c-.64-.15-1.22-.23-1.76-.23-1.38 0-2.17.49-2.36 1.46" class="st0"/></clipPath><clipPath id="clippath-20"><path d="M13.79 95.12c-.03.16.01.48.11.99.1.5.23 1.02.38 1.58.15.54.32 1.03.5 1.47q.255.66.45.66h11.83l-15.44 6.65-1.34 6.98h20.8l.9-4.68H17.82l15.51-6.66 1.34-6.99z" class="st0"/></clipPath><clipPath id="clippath-21"><path d="m36.23 95.19-3.51 18.26h5.57l3.51-18.26z" class="st0"/></clipPath><clipPath id="clippath-22"><path d="m43.39 95.16-.9 4.69h6.82l-2.61 13.6h5.32l2.61-13.6h6.92l.9-4.69z" class="st0"/></clipPath><clipPath id="clippath-23"><path d="m64.03 95.16-3.51 18.29h5.35l2.62-13.64h9.81c.06 0 .12.06.17.18s.08.27.1.47c.01.19.02.4.01.64 0 .23-.02.44-.06.64l-.28 1.44c-.06.33-.19.69-.38 1.1q-.285.6-.57.6h-6.16c-.13 0-.37.2-.74.59-.37.4-.75.85-1.15 1.35q-.6.75-1.11 1.47c-.34.48-.57.83-.66 1.01h6.16l1.82 4.13h6.38l-1.79-4.13h.87c1.05-.28 1.72-.88 2.02-1.77l2.04-10.62a3.3 3.3 0 0 0-.41-1.12c-.19-.32-.5-.53-.94-.64H64.01Z" class="st0"/></clipPath><clipPath id="clippath-24"><path d="M90.45 108.34c-.17-.15-.27-.42-.28-.79l1.25-6.49c.18-.24.34-.45.47-.62.13-.18.42-.37.87-.56h8.41q.465.165.66.48c.12.2.2.44.24.7l-1.25 6.49c-.37.64-.82 1.03-1.34 1.18h-8.41c-.23-.1-.43-.23-.61-.39m-.93-13.18c-.23 0-.51.14-.85.39-.34.27-.68.58-1.02.95s-.65.76-.91 1.16c-.26.41-.42.76-.48 1.03L84 110.5c-.04.2-.01.41.07.65.09.24.2.48.35.7.14.23.29.44.45.62.15.18.27.31.36.38q.165.12.51.36c.23.14.39.22.5.22h15.69c.29 0 .65-.09 1.08-.26.43-.18.84-.4 1.24-.69.39-.28.75-.59 1.05-.94.31-.36.49-.7.56-1.05l2.27-11.81c.05-.28.03-.63-.07-1.04-.09-.42-.24-.81-.43-1.17s-.41-.67-.67-.93q-.375-.39-.78-.39H89.52Z" class="st0"/></clipPath><style>.st0{fill:none}</style></defs><path d="M28.58 39.62c-2.27 0-4.46 1.68-4.86 3.73L20.2 61.59c-.39 2.06.72 2.66 2.49 1.34l28.03-20.89c1.77-1.32 1.35-2.4-.92-2.4z" style="fill:#f27c21"/><path d="m31.38 3.73-3.26 16.84c-.4 2.06 1.14 3.74 3.41 3.74l47.74.06c2.27 0 3.81 1.69 3.41 3.74l-1.23 6.39c-.4 2.06-2.15 4.83-3.9 6.16l-50.97 38.7c-1.75 1.33-1.33 2.42.95 2.42l80.07.08c2.28 0 4.46-1.68 4.86-3.73l14.37-74.3c.4-2.06-1.14-3.74-3.41-3.74L36.25 0c-2.28 0-4.46 1.68-4.86 3.73Z" style="fill:url(#Degradado_sin_nombre_112)"/><g style="clip-path:url(#clippath)"><path d="m8.34 119.81 3.86.91-1.83 6.5-3.86-.91z" style="fill:url(#Degradado_sin_nombre_137)"/></g><g style="clip-path:url(#clippath-1)"><path d="m10.65 120.53 6.22 1.47-1.65 5.87L9 126.39z" style="fill:url(#Degradado_sin_nombre_1371)"/></g><g style="clip-path:url(#clippath-2)"><path d="m15.99 120.5 6.9 1.63-2.2 7.82-6.9-1.63z" style="fill:url(#Degradado_sin_nombre_1372)"/></g><g style="clip-path:url(#clippath-3)"><path d="m21.62 120.52 6.25 1.48-1.65 5.88-6.26-1.49z" style="fill:url(#Degradado_sin_nombre_1373)"/></g><g style="clip-path:url(#clippath-4)"><path d="m26.88 120.53 6.21 1.47-1.65 5.87-6.21-1.48z" style="fill:url(#Degradado_sin_nombre_1374)"/></g><g style="clip-path:url(#clippath-5)"><path d="m32.11 119.33 4.06.96-1.96 6.95-4.06-.96z" style="fill:url(#Degradado_sin_nombre_1375)"/></g><g style="clip-path:url(#clippath-6)"><path d="m34.56 120.52 6.26 1.48-1.65 5.88-6.26-1.49z" style="fill:url(#Degradado_sin_nombre_1376)"/></g><g style="clip-path:url(#clippath-7)"><path d="m39.73 120.84 4.92 1.16-1.57 5.56-4.91-1.17z" style="fill:url(#Degradado_sin_nombre_1377)"/></g><g style="clip-path:url(#clippath-8)"><path d="m43.23 119 4.57 1.08-2.05 7.27-4.57-1.08z" style="fill:url(#Degradado_sin_nombre_1378)"/></g><g style="clip-path:url(#clippath-9)"><path d="m45.6 120.55 6.12 1.45-1.65 5.84-6.12-1.45z" style="fill:url(#Degradado_sin_nombre_1379)"/></g><g style="clip-path:url(#clippath-10)"><path d="m54.07 120.49 6.94 1.64-2.2 7.83-6.95-1.64z" style="fill:url(#Degradado_sin_nombre_13710)"/></g><g style="clip-path:url(#clippath-11)"><path d="m62.79 120.61 5.88 1.39-1.63 5.79-5.88-1.4z" style="fill:url(#Degradado_sin_nombre_13711)"/></g><g style="clip-path:url(#clippath-12)"><path d="m68.07 120.52 6.26 1.48-1.65 5.88-6.26-1.49z" style="fill:url(#Degradado_sin_nombre_13712)"/></g><g style="clip-path:url(#clippath-13)"><path d="m73.25 120.84 4.91 1.16-1.56 5.56-4.92-1.17z" style="fill:url(#Degradado_sin_nombre_13713)"/></g><g style="clip-path:url(#clippath-14)"><path d="m77.28 120.6 5.94 1.4-1.63 5.8-5.94-1.41z" style="fill:url(#Degradado_sin_nombre_13714)"/></g><g style="clip-path:url(#clippath-15)"><path d="m81.57 119.33 4.06.96-1.96 6.95-4.06-.96z" style="fill:url(#Degradado_sin_nombre_13715)"/></g><g style="clip-path:url(#clippath-16)"><path d="m84 120.61 5.89 1.39-1.63 5.79-5.89-1.4z" style="fill:url(#Degradado_sin_nombre_13716)"/></g><g style="clip-path:url(#clippath-17)"><path d="m88.56 119.33 4.06.96-1.95 6.95-4.06-.96z" style="fill:url(#Degradado_sin_nombre_13717)"/></g><g style="clip-path:url(#clippath-18)"><path d="M91.04 120.45 97.6 122l-1.67 5.95-6.56-1.56z" style="fill:url(#Degradado_sin_nombre_13718)"/></g><g style="clip-path:url(#clippath-19)"><path d="m96.84 120.61 5.89 1.39-1.63 5.79-5.88-1.4z" style="fill:url(#Degradado_sin_nombre_13719)"/></g><g style="clip-path:url(#clippath-20)"><path d="M44.93 103.31 23.76 124.2 0 105.26l21.17-20.89z" style="fill:url(#Degradado_sin_nombre_13720)"/></g><g style="clip-path:url(#clippath-21)"><path d="m52.03 103.35-14.29 14.1-15.25-12.16 14.28-14.1z" style="fill:url(#Degradado_sin_nombre_13721)"/></g><g style="clip-path:url(#clippath-22)"><path d="m72.7 103.33-19.17 18.92-21.29-16.97 19.17-18.93z" style="fill:url(#Degradado_sin_nombre_13722)"/></g><g style="clip-path:url(#clippath-23)"><path d="m95.24 103.33-21.18 20.91-23.79-18.96 21.18-20.91z" style="fill:url(#Degradado_sin_nombre_13723)"/></g><g style="clip-path:url(#clippath-24)"><path d="m118.42 103.33-21.07 20.8-23.65-18.85 21.08-20.8z" style="fill:url(#Degradado_sin_nombre_13724)"/></g></svg>