<svg xmlns="http://www.w3.org/2000/svg" id="Capa_1" viewBox="0 0 188.81 78.4"><defs><style>.st0{fill:#501986}.st1{fill:#fff}.st2{fill:#54277f}.st3{fill:#fd7000}.st4{fill:#fd7904}.st5{fill:#09ccfd}</style></defs><path d="M82.37 3.19v4.62l5.17.01-.02 13.05h5.95l.02-13.04h5.18V3.22zM118.44 8.39c-.5-1.12-1.19-2.1-2.08-2.93-.89-.84-1.94-1.48-3.15-1.94q-1.815-.675-3.99-.69c-1.43 0-2.75.23-3.97.68s-2.28 1.09-3.17 1.92c-.9.83-1.59 1.81-2.09 2.93q-.75 1.68-.75 3.69c0 2.01.24 2.56.74 3.69a8.7 8.7 0 0 0 2.07 2.94c.89.84 1.95 1.48 3.17 1.94 1.22.45 2.54.68 3.97.69 1.45 0 2.78-.23 3.99-.68a9.5 9.5 0 0 0 3.16-1.92c.89-.84 1.58-1.81 2.08-2.94s.75-2.35.75-3.68c.01-1.35-.24-2.58-.73-3.7m-5.58 5.54c-.2.55-.48 1.01-.85 1.39q-.54.555-1.26.87c-.48.2-1 .3-1.55.3a4.2 4.2 0 0 1-1.55-.31q-.72-.3-1.26-.87c-.36-.38-.65-.84-.85-1.39q-.3-.825-.3-1.86c0-.69.11-1.3.31-1.85s.49-1.01.85-1.39q.54-.57 1.26-.87c.48-.2 1-.3 1.55-.3s1.08.11 1.56.31c.47.2.89.49 1.25.87.37.38.65.84.85 1.39s.3 1.17.3 1.86-.11 1.3-.31 1.85M138.76 7.4c-.84-1.31-2-2.33-3.5-3.05-1.5-.71-3.23-1.07-5.2-1.08h-8.7l-.03 17.65 8.7.02c1.97 0 3.71-.36 5.21-1.07 1.49-.71 2.66-1.73 3.51-3.05.84-1.31 1.26-2.89 1.27-4.72 0-1.82-.42-3.39-1.26-4.7m-5.28 6.99c-.36.63-.85 1.11-1.48 1.43s-1.37.47-2.21.47h-2.5l.02-8.38h2.49c.85.01 1.58.17 2.21.49s1.12.79 1.48 1.41c.35.63.52 1.38.52 2.28s-.18 1.67-.53 2.3M160.68 8.46c-.5-1.12-1.19-2.1-2.08-2.93-.89-.84-1.94-1.48-3.15-1.94q-1.815-.675-3.99-.69c-1.43 0-2.75.23-3.97.68s-2.28 1.09-3.17 1.92c-.9.83-1.59 1.81-2.09 2.93q-.75 1.68-.75 3.69c0 2.01.24 2.56.74 3.69a8.7 8.7 0 0 0 2.08 2.94c.89.84 1.94 1.48 3.16 1.94 1.22.45 2.54.68 3.97.69 1.45 0 2.78-.23 3.99-.68a9.5 9.5 0 0 0 3.16-1.92c.89-.84 1.59-1.81 2.08-2.94.5-1.13.75-2.35.76-3.68 0-1.35-.25-2.58-.74-3.7M155.1 14c-.2.55-.48 1.01-.84 1.39-.37.37-.79.66-1.27.87-.48.2-.99.3-1.55.3-.55-.01-1.07-.11-1.55-.31s-.9-.49-1.26-.87-.64-.84-.84-1.39q-.315-.825-.3-1.86c0-.69.1-1.3.3-1.85s.49-1.01.85-1.39q.54-.57 1.26-.87t1.56-.3c.84 0 1.07.11 1.55.31s.9.49 1.26.87.64.84.84 1.39q.3.825.3 1.86c0 1.035-.1 1.3-.31 1.85M177.87 13.14c-.36-.62-.82-1.13-1.4-1.51a8.3 8.3 0 0 0-1.91-.94c-.68-.24-1.38-.42-2.08-.56-.69-.14-1.33-.26-1.91-.38s-1.05-.27-1.4-.45c-.36-.17-.53-.41-.53-.72 0-.2.07-.38.21-.55.15-.17.39-.3.72-.4.34-.1.79-.15 1.37-.15.77 0 1.56.11 2.38.33s1.66.55 2.53.99l1.8-4.31q-1.38-.795-3.12-1.17c-1.74-.375-2.34-.38-3.54-.38-1.81-.01-3.33.26-4.55.8-1.22.53-2.14 1.25-2.76 2.15-.61.9-.92 1.89-.92 2.99 0 .94.17 1.73.52 2.36.36.63.82 1.14 1.4 1.53s1.22.7 1.92.93c.7.24 1.39.43 2.08.58.69.14 1.32.27 1.9.4s1.05.29 1.4.47c.36.19.53.44.53.76 0 .2-.07.37-.23.52-.15.14-.39.25-.72.32-.32.08-.77.12-1.35.11-.97 0-1.98-.15-3.01-.44-1.03-.3-1.97-.69-2.81-1.18l-1.93 4.34c.89.54 2.03.98 3.41 1.31 1.38.34 2.81.51 4.29.52 1.83 0 3.35-.27 4.56-.82 1.22-.54 2.13-1.26 2.75-2.16.61-.9.92-1.89.92-2.97 0-.92-.17-1.69-.52-2.32M98.62 33.34c-.35-.58-.81-1.05-1.38-1.42-.57-.36-1.19-.65-1.86-.86-.67-.22-1.35-.4-2.03-.55-.68-.14-1.3-.29-1.86-.42-.56-.14-1.02-.32-1.37-.53-.35-.22-.53-.52-.53-.91q0-.375.27-.72c.17-.22.46-.4.86-.55q.6-.21 1.59-.21c.74 0 1.5.11 2.28.31.79.21 1.58.54 2.38.99l1.45-3.5c-.82-.5-1.76-.87-2.82-1.13-1.07-.25-2.15-.37-3.26-.37-1.65-.01-3.03.24-4.14.74-1.1.49-1.93 1.15-2.48 1.96-.54.82-.82 1.72-.82 2.72 0 .89.17 1.64.52 2.23.34.6.79 1.08 1.35 1.45s1.19.66 1.88.89c.68.23 1.36.41 2.03.54.66.14 1.28.29 1.84.44.57.15 1.03.34 1.39.55.35.22.52.51.52.88q0 .435-.27.75-.285.315-.87.48c-.39.11-.93.16-1.6.16-.98 0-1.96-.16-2.94-.47-.99-.31-1.86-.71-2.61-1.19l-1.57 3.53c.79.53 1.82.96 3.09 1.31s2.61.52 4 .52c1.67.01 3.05-.24 4.16-.73q1.665-.75 2.49-1.98c.56-.83.83-1.73.84-2.71 0-.88-.18-1.61-.53-2.2M118.45 28.75a8.8 8.8 0 0 0-1.96-2.77 9 9 0 0 0-2.95-1.83c-1.14-.43-2.38-.65-3.73-.65-1.34-.01-2.58.21-3.72.64s-2.13 1.04-2.96 1.83c-.84.79-1.49 1.72-1.97 2.78-.47 1.05-.71 2.21-.71 3.46s.23 2.43.7 3.49c.47 1.07 1.12 2 1.96 2.8.83.79 1.82 1.4 2.96 1.84 1.15.43 2.38.65 3.71.65 1.35.01 2.59-.21 3.73-.64a9 9 0 0 0 2.97-1.82c.85-.78 1.5-1.71 1.97-2.77.46-1.07.7-2.24.7-3.52s-.23-2.43-.7-3.49m-4.46 5.49c-.23.58-.55 1.08-.96 1.51-.41.42-.89.75-1.45.97-.55.22-1.15.33-1.79.33s-1.24-.11-1.79-.34a4.28 4.28 0 0 1-2.41-2.49q-.33-.87-.33-1.98c0-1.11.11-1.4.34-1.98.22-.59.54-1.09.96-1.52.42-.42.9-.74 1.46-.97.55-.22 1.15-.33 1.79-.33s1.24.11 1.79.34c.55.22 1.03.55 1.44.97.41.43.73.93.96 1.52.23.58.34 1.25.34 1.98s-.12 1.4-.35 1.99M137.29 23.88l-5.8 9.71-5.88-9.73h-3.92l-.03 16.82h4.37l.02-8.68 4.29 7.03h2.11l4.35-7.26.03 8.93h4.37V23.88h-3.92ZM161.71 28.82a8.6 8.6 0 0 0-1.95-2.77c-.83-.78-1.82-1.39-2.96-1.83-1.13-.43-2.37-.65-3.72-.65s-2.59.21-3.73.64-2.12 1.04-2.96 1.83c-.83.8-1.49 1.72-1.96 2.78-.48 1.05-.71 2.21-.72 3.46 0 1.26.24 2.43.71 3.5a8.8 8.8 0 0 0 1.95 2.79 8.7 8.7 0 0 0 2.97 1.84c1.14.44 2.38.65 3.71.66 1.35 0 2.59-.22 3.73-.65s2.13-1.03 2.97-1.82c.84-.78 1.5-1.71 1.96-2.77.47-1.07.7-2.24.71-3.52 0-1.27-.24-2.43-.71-3.49m-4.45 5.49c-.24.58-.56 1.09-.97 1.51s-.89.75-1.44.97-1.15.34-1.79.33c-.64 0-1.24-.11-1.79-.33-.56-.23-1.04-.56-1.46-.98-.41-.43-.73-.93-.96-1.52q-.33-.87-.33-1.98c0-1.11.12-1.4.34-1.98.23-.59.55-1.09.97-1.52.41-.42.9-.74 1.45-.97.55-.22 1.15-.33 1.79-.33s1.24.11 1.79.34c.56.22 1.04.55 1.44.98.41.42.73.93.96 1.51.23.59.35 1.25.35 1.98s-.12 1.4-.35 1.99M177.77 33.48c-.35-.59-.81-1.06-1.38-1.42q-.855-.555-1.86-.87c-.67-.22-1.35-.4-2.03-.55q-1.02-.21-1.86-.42c-.56-.14-1.02-.32-1.37-.53-.35-.22-.53-.52-.53-.9 0-.26.09-.5.27-.73.17-.22.46-.4.86-.55.41-.14.93-.21 1.59-.21.74 0 1.5.11 2.28.32.79.21 1.58.54 2.38.99l1.45-3.51c-.82-.5-1.76-.87-2.82-1.12-1.07-.25-2.15-.38-3.26-.38-1.65 0-3.03.24-4.13.74-1.11.49-1.94 1.15-2.48 1.96-.55.82-.82 1.72-.83 2.72 0 .9.17 1.64.52 2.23.34.6.79 1.08 1.35 1.45s1.19.67 1.88.89c.69.23 1.36.41 2.03.55.66.13 1.28.28 1.85.43s1.03.34 1.38.56c.35.21.53.51.53.87 0 .29-.1.54-.28.75q-.285.315-.87.48c-.39.11-.92.17-1.6.16-.97 0-1.96-.16-2.94-.47a11 11 0 0 1-2.61-1.19l-1.56 3.53c.78.53 1.81.97 3.08 1.31 1.28.35 2.61.52 4 .53 1.67 0 3.06-.25 4.16-.74q1.665-.75 2.49-1.98.84-1.245.84-2.7c0-.89-.18-1.62-.53-2.2" class="st2"/><path d="M94.69 51.3v4.26l-.01 2.14 4.93.73v-7.12zm-.01 4.26c-.07.04-.13.06-.19.08-.61.22-1.23.32-1.87.32s-1.16-.1-1.65-.3-.91-.49-1.26-.86c-.35-.36-.62-.81-.82-1.33-.19-.52-.28-1.1-.28-1.72 0-.66.1-1.24.29-1.75.19-.52.47-.96.82-1.33.35-.36.78-.64 1.29-.83.5-.2 1.07-.29 1.69-.29.76 0 1.44.16 2.06.47.61.32 1.19.78 1.71 1.39l3.64-3.19c-.85-1.05-1.93-1.85-3.23-2.41-1.31-.57-2.79-.85-4.46-.85-1.39 0-2.67.21-3.83.63a8.8 8.8 0 0 0-3.02 1.81c-.85.78-1.51 1.71-1.98 2.78-.47 1.08-.7 2.26-.7 3.56 0 .92.11 1.78.35 2.58.09.34.2.66.34.98q.69 1.605 1.95 2.79c.51.48 1.08.89 1.7 1.22.4.24.83.43 1.28.6 1.15.43 2.4.64 3.76.64 1.24.01 2.51-.18 3.82-.54 1.32-.37 2.49-.9 3.52-1.58l-3.17-3.9c-.62.47-1.21.82-1.76 1.03M107.39 49.62H107v4.08h.38l7.11.02v-4.09zm-.02 6.3V53.7l.02-4.08v-1.97h8.1v-4.27l-13.68-.02-.03 16.82 13.99.03v-4.28l-8.41-.01ZM128.81 43.4v7.65l-6.39-7.66h-4.66l-.03 16.82h5.53v-7.64l6.38 7.66h4.66l.03-16.82h-5.53ZM136.84 43.42l-.03 16.82h5.67l.03-16.81h-5.67ZM162.61 48.35c-.47-1.06-1.13-2-1.98-2.79a9 9 0 0 0-3-1.84c-1.15-.44-2.42-.66-3.8-.66s-2.62.21-3.78.64a8.9 8.9 0 0 0-3.02 1.84c-.85.79-1.52 1.72-1.99 2.78-.47 1.07-.71 2.24-.71 3.52 0 1.27.23 2.44.7 3.51a8.4 8.4 0 0 0 1.98 2.81c.84.79 1.85 1.41 3.01 1.84s2.42.65 3.79.66c1.37 0 2.64-.22 3.79-.65a8.9 8.9 0 0 0 3.01-1.83c.85-.79 1.51-1.72 1.99-2.8.47-1.07.71-2.24.71-3.51.01-1.28-.23-2.45-.7-3.52m-5.31 5.28q-.285.78-.81 1.32c-.34.36-.74.64-1.2.83s-.95.29-1.48.28c-.53 0-1.02-.09-1.48-.29-.45-.19-.85-.47-1.2-.83-.34-.36-.61-.8-.8-1.32s-.29-1.11-.28-1.77c0-.65.09-1.24.29-1.76.19-.52.46-.97.8-1.33.35-.36.75-.63 1.21-.82.45-.19.95-.29 1.48-.29s1.02.1 1.47.29c.46.2.86.47 1.2.83.35.36.62.81.81 1.33s.28 1.11.28 1.76-.1 1.25-.29 1.77M178.74 52.81c-.33-.59-.78-1.07-1.33-1.44s-1.15-.67-1.81-.89q-.99-.345-1.98-.54-1.005-.195-1.83-.36c-.55-.11-1-.25-1.33-.42q-.51-.255-.51-.69c0-.19.07-.37.21-.53s.36-.28.68-.38.76-.14 1.3-.14c.74 0 1.5.1 2.27.31.78.21 1.59.53 2.42.95l1.71-4.11c-.88-.5-1.87-.87-2.98-1.11-1.1-.24-2.22-.37-3.36-.37-1.73 0-3.18.25-4.34.76-1.17.51-2.04 1.2-2.63 2.05-.58.86-.88 1.81-.88 2.85 0 .9.17 1.65.5 2.25.34.6.78 1.09 1.34 1.46.55.37 1.16.66 1.82.89.67.22 1.33.41 1.98.54.66.14 1.26.27 1.82.39.55.12.99.27 1.33.45.34.17.5.41.5.72 0 .19-.07.36-.21.49-.15.14-.38.24-.69.31s-.74.11-1.29.11c-.92 0-1.88-.15-2.87-.43-.98-.28-1.87-.65-2.68-1.12l-1.83 4.13c.85.52 1.93.93 3.24 1.26 1.32.32 2.68.48 4.09.48 1.75.01 3.2-.25 4.35-.77 1.16-.52 2.03-1.21 2.61-2.06.59-.86.88-1.8.88-2.82 0-.89-.16-1.62-.5-2.22" class="st3"/><path d="m183.65 47.1-2.6 10.42 3.44 1.17 4.32-9.83zm.32 13.58c-.32-.61-.86-1.04-1.62-1.3q-1.14-.39-2.1.03c-.63.28-1.07.76-1.3 1.43-.22.65-.17 1.29.16 1.93.32.63.86 1.08 1.62 1.34s1.46.24 2.1-.07c.63-.31 1.07-.79 1.29-1.44q.345-1.005-.15-1.92" class="st2"/><rect width="95.53" height="13.96" x="83.27" y="63.41" class="st5" rx="6.37" ry="6.37" transform="rotate(.1 126.11 68.645)"/><path d="m93.52 73.1-2.47-6.14a.23.23 0 0 0-.08-.11.2.2 0 0 0-.12-.05h-.55c-.05 0-.09.02-.12.04-.04.03-.07.07-.09.11l-2.49 6.14s-.02.05-.02.08c0 .07.04.11.14.11h.74s.08-.01.12-.04c.03-.03.06-.06.07-.11l.48-1.26h2.86l.48 1.27c0 .05.04.08.07.11s.07.04.11.04h.75s.08-.01.1-.03c.03-.02.04-.05.04-.09 0-.01 0-.04-.02-.07m-4.06-2.08 1.11-2.9 1.09 2.9zM98.08 70.33c-.16-.31-.37-.55-.65-.73s-.6-.27-.95-.27c-.28 0-.54.06-.78.19-.23.12-.43.29-.59.52l-.08-.52c0-.05-.04-.07-.1-.07h-.58s-.07.01-.09.04q-.03.03-.03.09v5.48s0 .07.02.09c.02.03.05.04.09.04h.71s.08-.01.1-.03c.02-.03.03-.06.03-.1v-2.27c.15.2.34.35.57.46.22.1.46.16.73.16.34 0 .66-.09.94-.27.28-.17.5-.42.66-.73s.24-.65.24-1.04-.08-.73-.24-1.04m-.84 1.6c-.1.16-.23.3-.39.39-.17.1-.35.15-.55.15s-.39-.05-.56-.15-.31-.23-.41-.4c-.09-.16-.14-.35-.14-.55s.05-.39.15-.56.23-.3.4-.4.36-.15.56-.15.38.05.55.15c.16.1.29.24.39.41s.15.35.15.56c0 .19-.05.38-.15.55M102.09 69.7c-.11-.12-.26-.21-.43-.27s-.34-.09-.53-.09c-.23 0-.45.05-.67.17-.21.11-.38.26-.52.46l-.08-.44c-.01-.05-.05-.08-.12-.08h-.56s-.07.01-.1.04q-.03.03-.03.09v3.59c-.01.08.03.13.12.13h.71c.08 0 .12-.04.12-.13v-2.04c0-.17.05-.33.14-.48.08-.14.2-.25.35-.34.15-.08.31-.12.49-.12.1 0 .21.01.32.05.11.03.2.08.29.14l.03.03s.03.02.06.02c.04 0 .07-.02.1-.06l.33-.51s.03-.05.03-.08-.02-.06-.05-.08M105.9 70.37c-.16-.31-.39-.56-.69-.74-.3-.19-.63-.28-1-.28s-.72.09-1.03.27-.56.43-.73.74q-.27.465-.27 1.02c0 .555.09.71.27 1.02.19.31.43.56.75.74.31.19.66.28 1.03.28.48 0 .92-.17 1.31-.51.03-.02.05-.05.05-.09q0-.045-.03-.09c-.04-.06-.1-.14-.17-.24l-.16-.21s-.05-.06-.08-.06-.06.01-.09.03q-.435.3-.81.3c-.375 0-.45-.07-.64-.22-.19-.14-.32-.33-.4-.55h2.52c.11 0 .2-.03.28-.1s.12-.17.13-.29q0-.555-.24-1.02m-2.72.68a.94.94 0 0 1 .36-.55q.285-.21.66-.21c.375 0 .45.07.61.21.17.14.28.33.33.56h-1.96ZM110.33 70.17c-.12-.26-.3-.46-.54-.61-.23-.14-.5-.21-.82-.21-.24 0-.47.05-.68.16-.21.1-.39.25-.53.44l-.07-.4c-.01-.06-.06-.08-.13-.08H107s-.07.01-.09.03c-.03.02-.04.05-.04.09v3.59c0 .09.04.13.12.13h.71c.08 0 .12-.04.12-.13v-2.03c0-.17.05-.32.13-.45a.8.8 0 0 1 .32-.32c.14-.07.28-.11.44-.11a.88.88 0 0 1 .73.4c.07.13.11.27.11.42v2.09s0 .07.03.09.05.04.09.04h.71s.07-.01.1-.04q.03-.03.03-.09v-2.09c0-.35-.06-.66-.18-.92M115.25 66.88s-.06-.03-.1-.03h-.71s-.07.01-.09.03-.04.05-.04.09v3.02c-.14-.2-.33-.35-.56-.46-.22-.11-.46-.16-.73-.16-.35 0-.67.08-.95.26-.28.17-.5.42-.66.73-.16.3-.24.65-.24 1.03s.08.74.24 1.05.38.55.66.73.59.26.94.26c.28.01.54-.06.78-.18s.43-.29.59-.52l.08.52s.02.04.04.05c.02.02.04.02.06.02h.58s.07-.01.1-.03c.02-.03.03-.06.03-.1v-6.22s0-.07-.02-.09m-1.09 5.08c-.1.17-.24.3-.41.4s-.35.15-.56.15c-.2-.01-.38-.05-.55-.15-.16-.1-.3-.24-.39-.41-.1-.17-.15-.35-.15-.56s.05-.38.15-.55c.1-.16.23-.3.4-.39q.24-.15.54-.15c.3 0 .39.05.56.15.18.1.31.23.41.39.1.17.15.35.15.56s-.05.39-.15.56M117.23 69.51s-.05-.03-.09-.03h-.72q-.12 0-.12.12v3.61c0 .08.03.12.11.12h.72s.07-.01.09-.03c.02-.03.04-.05.04-.09V69.6s-.01-.06-.03-.09m.07-2.07a.5.5 0 0 0-.22-.22.6.6 0 0 0-.29-.08c-.11 0-.21.03-.3.08s-.16.12-.22.22c-.05.09-.08.19-.08.29 0 .11.03.21.08.3.06.09.13.16.22.21.09.06.19.08.3.08.1 0 .2-.02.29-.08.09-.05.17-.12.22-.21a.6.6 0 0 0 .08-.3c0-.1-.03-.2-.08-.29M121.71 70.4c-.17-.32-.4-.56-.69-.75-.3-.18-.64-.27-1-.27-.38 0-.72.09-1.03.27s-.56.42-.74.73c-.17.31-.26.65-.27 1.03 0 .37.1.71.28 1.02s.43.56.75.74c.31.18.66.28 1.03.28.48 0 .92-.17 1.31-.51.03-.03.05-.06.05-.09s-.01-.06-.03-.09c-.04-.07-.1-.15-.17-.24l-.16-.22s-.05-.05-.09-.05a.3.3 0 0 0-.08.02c-.29.2-.56.3-.82.3q-.345 0-.63-.21c-.19-.14-.32-.33-.4-.55h2.52c.1 0 .2-.03.28-.1s.12-.17.12-.29c0-.37-.07-.71-.23-1.02m-2.72.68c.05-.23.17-.42.36-.56.19-.13.4-.2.66-.2.24 0 .45.07.61.21.17.14.27.32.33.55zM126.14 70.2c-.13-.27-.3-.47-.54-.61-.23-.14-.5-.21-.82-.21-.24 0-.47.05-.68.15-.21.11-.39.26-.53.44l-.08-.4c-.01-.05-.05-.08-.12-.08h-.56s-.07.01-.1.04q-.03.03-.03.09v3.59c-.01.08.04.13.12.13h.71c.08 0 .12-.05.12-.13v-2.04q0-.24.12-.45c.08-.13.19-.24.33-.31.13-.08.28-.11.44-.11.15 0 .29.03.42.1q.195.105.3.3c.08.12.12.26.12.41v2.1s0 .07.03.09q.03.03.09.03h.71s.07-.01.09-.03c.03-.02.04-.05.04-.09v-2.09c0-.35-.06-.66-.18-.92M131.05 66.9s-.05-.03-.09-.03h-.71s-.07.01-.09.04c-.03.02-.04.05-.04.09v3.01c-.15-.19-.33-.35-.56-.46-.22-.1-.47-.16-.73-.16-.36 0-.67.09-.95.26-.28.18-.5.42-.66.73s-.24.66-.24 1.04.08.73.24 1.04.38.56.66.73c.28.18.59.27.94.27q.42 0 .78-.18c.23-.12.43-.3.59-.52l.08.52s.02.03.03.05c.02.01.04.02.07.02h.58s.07 0 .09-.04c.03-.02.04-.05.04-.09V67s0-.07-.03-.1m-1.08 5.08c-.1.17-.24.31-.41.4-.17.1-.35.15-.56.15s-.38-.05-.55-.15-.3-.23-.4-.4c-.09-.17-.14-.36-.14-.56s.05-.38.15-.55c.09-.17.23-.3.39-.4.17-.1.35-.14.55-.14s.39.05.56.14c.17.1.31.23.41.4s.15.35.14.55c0 .21-.05.39-.14.56M135.66 70.42c-.18-.32-.43-.56-.74-.75-.32-.18-.66-.27-1.04-.27s-.72.09-1.04.27-.57.43-.75.74c-.19.31-.28.65-.28 1.02s.09.72.27 1.03c.19.31.44.56.75.74.32.18.67.27 1.04.27s.72-.09 1.04-.27c.31-.18.56-.43.75-.74.18-.31.28-.65.28-1.02s-.09-.71-.28-1.02m-.83 1.57c-.1.17-.23.3-.4.4s-.36.15-.56.15c-.2-.01-.38-.05-.55-.15s-.3-.24-.4-.41c-.1-.16-.15-.35-.15-.54.01-.21.05-.39.15-.56s.23-.3.4-.4.35-.15.55-.15.39.05.56.15.3.23.4.4.15.36.15.56-.05.38-.15.55M141.42 72.27s-.06-.05-.1-.05a.3.3 0 0 0-.08.02 1.2 1.2 0 0 1-.82.31c-.2 0-.38-.05-.54-.16-.17-.1-.3-.23-.4-.4a1.15 1.15 0 0 1 0-1.1c.1-.17.23-.3.4-.4.16-.1.34-.15.54-.14.29 0 .57.1.83.31.03.02.05.03.08.03.04 0 .07-.02.1-.06l.35-.54s.03-.06.03-.09 0-.06-.05-.09c-.18-.16-.39-.28-.62-.37-.23-.08-.48-.13-.73-.13-.37 0-.72.09-1.03.27s-.56.43-.75.74q-.27.465-.27 1.02c0 .555.09.71.27 1.02.19.31.43.56.75.74.31.19.66.28 1.03.28.25 0 .49-.04.72-.13s.43-.21.62-.37c.04-.03.06-.07.06-.1s0-.06-.03-.08zM146.08 70.43c-.19-.31-.44-.56-.75-.74-.32-.18-.66-.27-1.04-.27s-.72.09-1.04.27c-.31.18-.57.43-.75.74-.19.31-.28.65-.28 1.02s.09.71.28 1.03a2.05 2.05 0 0 0 1.79 1.01c.38 0 .72-.09 1.03-.27s.56-.43.75-.74c.18-.31.28-.65.28-1.02s-.09-.72-.27-1.03m-.84 1.58c-.1.16-.23.3-.4.4-.17.09-.36.14-.56.14s-.38-.05-.55-.15-.3-.23-.4-.4-.14-.35-.14-.55.05-.38.14-.55c.1-.17.23-.31.4-.41.17-.09.36-.14.56-.14s.38.05.55.15.3.23.4.4.15.36.15.56-.05.38-.15.55M150.54 70.24c-.13-.26-.3-.47-.54-.61-.23-.14-.5-.21-.82-.21-.24 0-.47.05-.68.16-.21.1-.39.25-.53.43l-.08-.4c-.01-.05-.05-.08-.12-.08h-.56s-.07.01-.1.04q-.03.03-.03.09v3.59c0 .08.04.13.12.13h.71c.08 0 .12-.04.12-.13v-2.04q0-.24.12-.45c.08-.13.19-.24.33-.31.13-.08.28-.11.44-.11.15 0 .29.03.42.1.13.08.23.17.3.3.08.12.12.26.12.41v2.1s0 .07.03.09q.03.03.09.03h.71s.07 0 .1-.03q.03-.03.03-.09v-2.09c0-.35-.06-.66-.18-.92M159.24 73.21l-2.47-6.15s-.04-.08-.08-.1a.2.2 0 0 0-.12-.05h-.55s-.09.02-.12.04c-.04.03-.07.07-.09.11l-2.49 6.14s-.02.05-.02.08c0 .07.05.11.14.11h.74s.08-.02.12-.04c.03-.03.06-.06.07-.11l.48-1.26h2.86l.48 1.27c0 .05.04.08.07.11s.07.04.11.04h.75s.08-.01.1-.03c.03-.02.04-.05.04-.09 0-.01 0-.04-.02-.07m-4.06-2.08 1.11-2.9 1.09 2.9zM165.68 70.25c-.11-.26-.28-.46-.49-.6-.21-.13-.47-.2-.76-.2s-.52.06-.75.2c-.22.13-.39.32-.5.56q-.165-.375-.48-.57c-.21-.13-.46-.2-.75-.2-.23 0-.44.05-.63.16-.19.1-.35.24-.48.43l-.08-.39c-.01-.06-.05-.08-.12-.08h-.56s-.07.01-.1.03q-.03.03-.03.09v3.59c0 .08.03.13.12.13h.71c.08 0 .12-.04.12-.13v-2.03c0-.17.04-.32.1-.45.07-.14.16-.24.29-.31.12-.08.25-.12.41-.12.13 0 .25.04.36.1.11.07.19.16.25.29q.09.18.09.42v2.1s0 .07.03.1q.045.03.09.03h.71s.08-.01.1-.03c.02-.03.03-.06.03-.1v-2.05c0-.18.04-.33.11-.45.07-.13.17-.23.29-.3s.26-.1.42-.1c.13 0 .25.03.36.1.1.06.18.16.25.28.06.13.09.27.09.43v2.1s0 .07.03.09c.02.02.05.04.09.04h.71s.07 0 .09-.04c.03-.02.04-.05.04-.09v-2.09c0-.36-.05-.68-.16-.94M170.35 70.47a2 2 0 0 0-.74-.74c-.32-.18-.67-.27-1.04-.27s-.72.09-1.04.27-.57.43-.75.74c-.19.31-.28.65-.28 1.02s.09.72.27 1.03c.19.31.44.55.75.74.32.18.67.27 1.04.27s.72-.09 1.04-.27c.31-.18.56-.43.75-.74.18-.31.28-.65.28-1.02s-.1-.72-.28-1.03m-.83 1.58c-.1.16-.23.3-.4.4-.17.09-.36.14-.56.14s-.38-.05-.55-.15-.3-.23-.4-.4-.15-.35-.15-.55.05-.38.15-.55.23-.31.4-.41c.17-.09.35-.14.55-.14s.39.05.56.15.3.23.4.4.14.36.14.56-.04.38-.14.55M174.4 69.82c-.11-.12-.26-.21-.43-.27s-.35-.09-.53-.09c-.23 0-.46.05-.67.17-.21.11-.38.26-.52.46l-.08-.44c0-.05-.05-.08-.12-.08h-.56s-.08.01-.1.04q-.03.03-.03.09v3.59c-.01.08.03.13.12.13h.7c.09 0 .13-.04.13-.13v-2.04c0-.17.05-.33.13-.47.09-.15.21-.26.36-.35.15-.08.31-.12.49-.12.1 0 .21.01.32.05.11.03.2.08.28.14l.04.03s.03.02.06.02q.06 0 .09-.06l.34-.51s.02-.05.02-.08-.01-.06-.04-.08" class="st1"/><path d="M43.7 78.4c-15.12-.03-27.35-12.3-27.32-27.41l.04-24.25c.02-12.69 10.33-22.97 23.02-22.95h8.76c12.69.04 22.97 10.34 22.95 23.04l-.04 24.25C71.08 66.2 58.81 78.43 43.7 78.4" class="st0"/><path d="M48.93 3.81s11.84.05 15.06-3.74c0 0 1.29 6.43-7.54 8.75zM39.02 3.79S27.18 3.81 23.97 0c0 0-1.31 6.42 7.51 8.77l7.54-4.99Z" class="st0"/><circle cx="28.57" cy="33.67" r="16.72" class="st5"/><circle cx="58.31" cy="33.71" r="16.72" class="st5"/><circle cx="28.57" cy="33.67" r="8.76" class="st1"/><circle cx="28.57" cy="33.67" r="5.02" class="st0"/><circle cx="31.61" cy="30.93" r="1.39" class="st1"/><circle cx="58.31" cy="33.71" r="8.76" class="st1"/><circle cx="58.31" cy="33.71" r="5.02" class="st0"/><circle cx="61.35" cy="30.98" r="1.39" class="st1"/><path d="m49.53 41.1-5.79 9.99-5.76-10.01s4.7-5.63 11.55.02" class="st4"/><path d="M16.38 46.83S5.51 50.17 0 59.78c0 0 1.36 5.22 13.74.02 0 0-1.66 6.32.81 8.79 0 0 3.73-1.65 7.33-7.96zM71.26 46.92s10.86 3.38 16.34 13c0 0-1.38 5.22-13.74-.02 0 0 1.64 6.32-.84 8.79 0 0-3.73-1.66-7.31-7.99l5.54-13.78Z" class="st0"/><path d="M34.96 57.74a3.585 3.585 0 1 1-7.17-.01h7.17ZM46.22 57.76a3.585 3.585 0 1 1-7.17-.01h7.17ZM57.48 57.78a3.585 3.585 0 1 1-7.17-.01h7.17ZM34.94 64.95a3.585 3.585 0 1 1-7.17-.01h7.17ZM46.21 64.97a3.585 3.585 0 1 1-7.17-.01h7.17ZM57.47 64.99a3.585 3.585 0 1 1-7.17-.01h7.17Z" class="st4"/></svg>