<svg xmlns="http://www.w3.org/2000/svg" id="Capa_1" viewBox="0 0 155.48 129.11"><defs><style>.st0{fill:#00c2ff}.st1{fill:#ffc900}.st2{fill:#006ada}</style></defs><path d="M44.49 36.58c-1.05-2.22-2.6-3.84-4.63-4.87s-4.53-1.54-7.5-1.54c-4.48 0-7.85 1.15-10.13 3.44-2.27 2.3-3.41 6.2-3.41 11.69q0 7.56 3.39 11.37c2.25 2.55 5.64 3.82 10.15 3.82s7.8-1.28 10.16-3.84 3.54-6.34 3.54-11.35c0-3.59-.52-6.49-1.57-8.72M36.97 49.7c-.42 1.17-1.01 2.04-1.79 2.6q-1.155.84-2.82.84c-1.72 0-2.99-.62-3.82-1.87s-1.24-3.24-1.24-5.97c0-2.06.18-3.65.54-4.79s.92-1.94 1.68-2.41 1.71-.7 2.84-.7 2.05.22 2.82.67c.78.45 1.37 1.24 1.79 2.38.41 1.14.62 2.76.62 4.85 0 1.76-.21 3.22-.62 4.4M65.29 31.23v16.81c0 1.57-.32 2.75-.98 3.53-.65.79-1.7 1.18-3.15 1.18s-2.51-.39-3.18-1.18c-.67-.78-1.01-1.96-1.01-3.53V31.23h-8.53v17.49c0 2.76.54 5.01 1.63 6.75a9.55 9.55 0 0 0 4.47 3.81c1.9.8 4.08 1.21 6.57 1.21 3.72 0 6.67-.94 8.86-2.81 2.19-1.86 3.28-4.85 3.28-8.96V31.23zM93.26 30.78c-1.07-.29-2.55-.44-4.45-.44-1.55 0-3.12.23-4.73.7-1.6.46-3.02 1.01-4.26 1.62q-1.86.93-2.64 1.71v25.27h8.53V38.13c.55-.08 1.27-.13 2.15-.17s1.81-.04 2.81 0 1.95.11 2.85.22c.89.11 1.62.25 2.17.39v-6.66c-.55-.45-1.36-.83-2.43-1.13" class="st2"/><path d="M37.6 93.42v7.91c-.29-.19-.59-.35-.9-.47-.84-.32-1.64-.53-2.39-.61s-1.34-.12-1.76-.12c-3.69 0-6.46 1.17-8.29 3.52-1.84 2.35-2.76 5.54-2.76 9.58 0 2.58.3 4.72.88 6.43.59 1.71 1.43 3.07 2.53 4.08s2.41 1.74 3.95 2.18c1.53.44 3.26.66 5.18.66 1.44 0 2.82-.16 4.13-.49s2.47-.81 3.49-1.44c1.02-.64 1.83-1.44 2.42-2.4.58-.96.88-2.06.88-3.3V93.42zm0 24.65c0 .62-.29 1.08-.87 1.37-.59.29-1.38.44-2.37.44-1.26 0-2.3-.24-3.09-.73-.8-.49-1.38-1.21-1.74-2.15-.36-.95-.54-2.11-.54-3.47q0-2.745.63-4.23c.42-1 1.05-1.69 1.9-2.08.84-.39 1.86-.59 3.06-.59.48 0 .99.08 1.51.22.53.15 1.03.37 1.51.66zM67.91 105.12c-.48-1.05-1.12-1.89-1.92-2.55a8.4 8.4 0 0 0-2.57-1.46c-.91-.33-1.82-.55-2.7-.66-.89-.12-1.65-.17-2.28-.17-2.17 0-4.08.22-5.75.68s-2.86.95-3.59 1.47v7.09c.79-.69 1.85-1.31 3.21-1.86 1.35-.56 2.7-.83 4.05-.83 1.57 0 2.78.31 3.64.95.85.64 1.28 1.67 1.28 3.1v1.21q-.255-.15-.54-.3c-.78-.41-1.65-.73-2.62-.98-.96-.24-1.94-.37-2.93-.37-1.86 0-3.4.33-4.6.98-1.2.66-2.08 1.53-2.64 2.64-.55 1.11-.83 2.4-.83 3.86 0 1.64.25 3.02.77 4.16.51 1.14 1.23 2.04 2.16 2.69s2.02 1.12 3.27 1.39q1.875.42 4.08.42c2.44 0 4.48-.21 6.14-.61 1.65-.41 2.9-1.05 3.76-1.93q1.29-1.32 1.29-3.33l.04-11.63q0-2.4-.72-3.96m-6.63 14.37c0 .62-.26 1.03-.79 1.22-.52.2-1.51.29-2.95.29-.54 0-1.05-.12-1.51-.39-.47-.26-.85-.6-1.13-1.02-.29-.43-.43-.88-.43-1.37 0-.95.31-1.62.92-2.03.62-.41 1.62-.61 3-.61.82 0 1.6.1 2.35.32.18.05.36.11.54.17zM86.85 93.42v7.91c-.29-.19-.59-.35-.9-.47-.84-.32-1.64-.53-2.39-.61s-1.34-.12-1.76-.12c-3.7 0-6.46 1.17-8.3 3.52-1.83 2.35-2.75 5.54-2.75 9.58 0 2.58.29 4.72.88 6.43s1.43 3.07 2.53 4.08c1.09 1.01 2.41 1.74 3.94 2.18 1.54.44 3.26.66 5.19.66 1.44 0 2.82-.16 4.12-.49 1.31-.33 2.48-.81 3.5-1.44 1.02-.64 1.83-1.44 2.41-2.4.59-.96.88-2.06.88-3.3V93.42zm0 24.65c0 .62-.29 1.08-.88 1.37-.58.29-1.37.44-2.37.44-1.26 0-2.29-.24-3.08-.73-.8-.49-1.38-1.21-1.74-2.15-.36-.95-.54-2.11-.54-3.47q0-2.745.63-4.23c.42-1 1.05-1.69 1.89-2.08s1.87-.59 3.07-.59a5.93 5.93 0 0 1 3.02.88z" class="st1"/><path d="M31.69 62.2 27.5 79.39 23.47 62.2h-6.15L13.4 78.97 9.25 62.2H0l8.84 28.41h7.6l3.9-14.32 4.06 14.32h7.65l8.74-28.41zM64.98 66.85c-.55-1.2-1.28-2.17-2.2-2.92q-1.365-1.11-2.94-1.68a15.3 15.3 0 0 0-3.1-.75c-1.02-.13-1.89-.2-2.62-.2-2.48 0-4.67.26-6.59.79q-2.865.78-4.11 1.68v8.12c.9-.78 2.12-1.49 3.67-2.13 1.55-.63 3.11-.95 4.66-.95 1.79 0 3.18.37 4.16 1.09.98.73 1.47 1.92 1.47 3.56v1.39c-.2-.12-.4-.24-.62-.35-.9-.47-1.9-.84-3-1.12q-1.65-.42-3.36-.42c-2.13 0-3.89.37-5.27 1.12s-2.39 1.75-3.02 3.02c-.64 1.27-.96 2.75-.96 4.43 0 1.87.29 3.46.88 4.76.58 1.31 1.41 2.34 2.48 3.09 1.07.74 2.32 1.28 3.75 1.59q2.145.48 4.68.48c2.79 0 5.13-.23 7.03-.7 1.89-.47 3.33-1.21 4.31-2.21.98-1.01 1.48-2.28 1.48-3.81l.05-13.34c0-1.83-.28-3.35-.83-4.54m-7.6 16.47q0 1.065-.9 1.41-.915.33-3.39.33c-.62 0-1.2-.15-1.73-.45q-.81-.45-1.29-1.17c-.33-.49-.5-1.01-.5-1.57 0-1.09.36-1.86 1.07-2.33.7-.46 1.85-.7 3.43-.7.93 0 1.83.12 2.69.37.21.06.42.12.62.2zM85.66 62.2l-4.94 17.67-5.04-17.67h-9.77l10.47 27.97c-.38.74-.82 1.27-1.34 1.6-.62.39-1.33.59-2.12.59-.52 0-1.03-.06-1.53-.17s-1.07-.28-1.73-.5v7.45q1.035.51 2.4.78c.92.19 1.84.28 2.77.28 1.31 0 2.59-.35 3.83-1.06s2.41-1.88 3.51-3.5c1.1-1.63 2.14-3.79 3.1-6.48l9.59-26.96z" class="st0"/><circle cx="117.94" cy="22.71" r="16.83" class="st1"/><path d="M117.26 22.73c.02-.14.62-.18.62-.18s-.11-.08-.09-.18c.02-.11.83-.57.83-.57s.66-.03.82.06c.15.09.51.2.51.2l.51-.83s.08-.3.16-.3 1.01-.08 1.01-.08 2.09-1.01 2.32-1.17.37-.49.37-.49.37.05.46-.02.09-.79.09-.79-.16-2.63.14-3.14c.05-.76.28-1.23.37-1.5.09-.28.39-.97.92-1.2s.65-.3.65-.3l-.62-.44s-.83-.25-1.06-.49-.42-.72-.4-.97c.01-.25-.45-.51-.45-.51l-.55-.35s-.6-.92-.76-1.55c-.03-.11-.06-.24-.08-.38-.22-.1-.7-.37-.98-.82-.39-.6-.37-1.43-.27-1.6.1-.18.25-.36.26-.42 0-.05-.35-.23-.62-.15 0-.05.2-.36.44-.49-.14-.08-.28-.16-.34-.19-.14-.08 0-.27 0-.27s.42.01.63 0 .15-.29.2-.46-.2-.39-.29-.45-.42.02-.36.2c-.09-.03-.17-.2-.17-.2-.06-.16.31-.23.38-.23s.57 0 .57-.24-.57-.44-.57-.44.43.06.84.32c.42.27.15.44.29.68s.58.25.72.15c.12-.09.09-.27-.18-.94.16.21.43.32.43.32s.31.14.6-.27c-.03-.51.4-.94.4-.94s-.22.36-.08.7c.14.35.64.22.7.17s.17-.51.44-.49.77-.39.77-.39.02.18-.13.4-.43.22-.46.42 1.15.1 1.19.09c.18-.08.15-.2.43-.17.38.05.42-.18.42-.18s.15-.81.52-1.08c.37-.28 1.23-.65 1.39-.55.15.09.15.68.15.68s.86.46.99.74c.12.28.55.59.55 1.02s.15.65.15.77-.49 1.08-.89.89c-.03.46-.06.68-.25.8-.18.12-.03.52-.03.52s.4.46.55.83c.4-.59.46-.77.46-.77s.25 1.11-.06 1.39c-.18.28-.49.46-.49.46s.22.65.12.74-.37.43-.4.55-.15.68.05 1.03c0 0 .22.03.55 0 .34-.03.89-.28 1.14-.52.25-.25.26-.43.6-.57s1.25.29 1.62.42c.37.12 1.51.26 1.83.37s.83.43 1.03.45.6.03.71.14.11-.17.28-.34.18-.85.18-.85-.15-.49-.18-.8-.32-.76-.39-.86c-.06-.11-.42-.57-.35-.77.06-.2.23-.37.45-.23s.55.8.66.83.29-.26.35-.45c.06-.18.2-.85.19-1.16 0-.32.02-.45.19-.49.18-.05.45.25.45.25s.09-.07.21-.05.44.15.49.67c0 .04.01.09.01.13.02-.16.05-.33.13-.35.15-.05.41-.12.52.2.12.32.04.75 0 1s-.08.63-.08.63.42-.6.63-.62.25.32.2.52-.89 1.02-.92 1.14-.03.29-.03.29.45.42.48.52c.03.11.18.63-.08.81s-.42.24-.42.24-.02.94-.05 1-.17.14-.17.14-.14.77-.37 1.02c-.22.25-.77.78-1.65.9s-1.2.06-1.51 0-.84-.55-.99-.57-.78-.03-.78-.03l.04.57s1.03.51 1.08.69-.37.42-.34.53c.04.12.11.22.52.3s.75.03.96.13.32.24.32.32-.49.72-1.01.98c-.26.1-.07.39-.07.39s.67.37.76.4c.15-.02.52.03.55.1s0 .29.08.33c.08.05 1.09 1.16 1.13 1.29.05.14.07.3.28.46s.51.12.62.18c.12.07.81.83 1.13 1.66s.92 1.43.99 1.64.34.66.3.76c.37.25.6.36.6.36v.35s.79.73 1.19 1.23.76 1.01.76 1.01.22.52-.12.7c.01.13.12.3.12.3s.73.66 1.19.94 1.29.76 1.8 1.13 3.03 3.49 3.03 3.49.05-.08.1-.08.9 1.03.9 1.03l.58.23 1.04 1.25.37.65s.51.67.55 1.41c.05.74-.42.98-.42.98s-1.27 1.28-1.46 1.35c-.18.07-.56.08-.87-.21s-1.02-1.71-1.02-1.71h-.16l-.42-.79.02-.58-.2-.38-.59-1.02-.23-.25.06-.35s-1.45-1.28-1.76-1.49c-.32-.22-1.38-.92-1.61-1.19-.23-.26-.71-.54-.91-.57s-.92-.17-1.33-.43c-.4-.26-1.09-1-1.09-1s-.4-.54-.63-.59-.94.45-1.39.54-.62-.02-.62-.02l-.51-1.02s-.79-1.36-.96-1.53-.25-.23-.25-.23.09.39.02.51c-.08.12-.28.45-.29.63-.02.18.11.51.11.55s-.17.2-.15.26.12.26.12.26-.18.18-.12.28c.06.09.52.35.52.48s-.09.48 0 .55c.09.08.42.52.37.77s-.18.52-.51.52c.03.37.18.57.2 1.48s-.06 1.34.02 1.54.54.78.61 1.47.04 2.26.18 2.86c.02.09.07.26.07.26l.21.03.05.38.22.41.31.42-.05.3s.27.02.35.12c.08.09.24.28.24.28s-.08.24 0 .29.37.25.44.36.3.4.34.55c.03.15.3.32.3.32s.02.09-.1.3c-.13.21-.35.43-.44.69s-.05.55-.27.72c-.22.16-1.88 1.54-1.88 1.54s-.49.09-.69-.18c-.21-.28-.23-.55-.25-.92s-.18-1.06-.18-1.06l-.12-.08-.12-.03s-.15-1.16-.08-1.35.18-.28.18-.28l-.09-.29-.74-1.41.02-.17.15-.25s-1.02-2.29-1.18-2.92c-.16-.64-.28-2.1-.28-2.2-.23-.32-.67-1.13-.67-1.27s-.02-.42-.05-.51-.16-.28-.16-.28-.32.06-.44-.01-.34-.12-.35-.23c-.01-.12-.02-.81-.02-.81l-.39-.66.03-.23-.12-.06-.05-.32-.23-.12s-.05-.64-.08-.69c-.03-.06-.58-.47-.58-.47l.07-.18-.29-.3s-.15-.37-.01-.53.05-.2.05-.2l-.18-.27.03-.21s-.61-.23-.82-.39-.51-.72-.51-.72-.23-.37-.32-.44c.05-.42 0-.58.08-.73s.24-.3.22-.35l-.28-.69-1.29-2.53-.28-.9-.21-.14-1.39.88c-.18-.07-.28-.37-.28-.37v-1.46l-.25-.46s.02.79-.14 1.04-.32.97-.72 1.23c-.39.25-2.5 1.34-3.03 1.48s-1.76.62-2.1.88c-.35.25-.51.35-.69.32s-.55-.3-.55-.3-.69.07-.9 0-.59-.15-.59-.15-.74-.1-.97-.1-.3-.05-.31-.12c0-.06.03-.18.03-.18l.16-.09s-.21-.02-.35.06-.36.07-.38.02-.08-.24-.05-.33-.03-.18 0-.32Z" class="st2"/><path d="m127.02 32.22-.47-1.07s-.35-.4-.35-.45-.01-1.07-.07-1.35 0-.62-.1-.72c-.1-.09-.25-.31-.31-.35-.06-.03-.13-.35-.08-.38s.51-.14.64 0 .57.47.61.61l.14.4.1-.72s1.38-1.39 1.5-1.4c.13-.01 1.28-.08 1.4 0s.2.28.2.28l.12.13s.67.23.72.42c.16.12.72.31.83.4.12.09.45.28.46.37s-.22.32-.5.29-.64-.01-.75.02c-.12.03-.59.23-.6.3s.07.24.07.24.46-.27.64-.35c.17-.08.51.02.6.13.09.1.27.39.22.46s.03.22-.22.26c-.25.03-.58.05-.58.05s-.03.77-.24 1.29-.75 1.28-.88 1.53-.31.55-.35 1.02c-.03.46-.2 4.38-.2 4.81s-.25 1.82-.28 2.16-.51 2.88-.62 3.11-.11.55-.18.66c-.08.11-.68.62-.88.89-.2.28-2.14 2.88-2.45 3.25s-1.57 2.22-1.94 2.53-2.1 1.85-2.19 1.97 0 1.39 0 1.39-.68.05-.68.14.96 1.63 1.22 1.98c.25.35 1.27 1.57 1.27 1.73s.16 2.2.3 2.57.07.65.23.99c.16.35.23 2.69.21 3.02s-.08 1.37-.02 1.59.22.99.33 1.21.02.54.13.86c.12.32.53 1.87.53 2.24s-.21.65-.21.86 1 4.97 1 4.97l-1.56.79s.16.92.12 1.39c-.05.46-.2.76-.2.76l-.63.12-.25.35s-.02.29.06.36c.08.08.27-.07.27-.07s.24-.18.32-.14-.12 2.24-.12 2.24-.55-.12-.55 0 .28.62.3.74.88 2.57.88 3.63-.18 4.35-.18 4.95.39 1.99.29 2.76c-.09.77-1.08 9.31-1.03 9.49-.42-.05-.62 0-.62 0s-.3 1.02-.35 1.11-.92.94-.97 1.09-.11.83-.22 1.09-1 1.54-1.83 2.62-1.57 1.91-1.73 2.19c-.15.28-1.68 3.91-2.19 4.75s-1.76 2.63-2.13 3.28-1.34 3.19-1.39 3.63.42 1.18.42 1.18l.02.25s1.39.97 1.53.95.97-.35 1.2-.35 1.55.58 1.55.58v.39s1.29.58 1.39.81.18.65.18.65l-.07.44s-5.11.45-6.53.27-2.86 0-3.17.18-4.33-.09-4.33-.09-.28-1.55-.22-1.64.26-.17.26-.17l.65-1.33-.09-.28s.09-1.11.4-1.33.59-.4.59-.4l.28-.15s1.76-3.08 2.06-3.7c.31-.62 1.54-3.39 1.79-4.25s1.39-4.19 1.39-4.96.4-1.63.71-2.06 1.6-1.79 1.6-1.79l.09-.77-.25-.09s-.28-.71-.18-.96.31-.62.15-1.02-.37-2.16-.37-2.5.15-1.2.09-1.48-.34-1.05-.34-1.05-.96-1.26-.92-1.51c.03-.25.03-.77.03-.77l-.34-.4s0-1.17-.15-1.29-.34-.12-.34-.34-.06-.71-.06-.71-.34-.12-.46-.28c-.12-.15-.25-.55-.18-.8.06-.25-.25-.31-.25-.31s.15-1.29.03-1.76c-.12-.46-.37-1.54-.34-1.91s-.09-.68-.09-.68-.18-3.3-.09-3.82 1.2-2.68 1.36-2.8c.15-.12.15-.34.15-.34s-.37-.31-.34-.55c.03-.25-.34-2.76-.31-2.88.03-.11.31-.85.31-.85l.22-2.96.06-.89s.59-.74.65-1.02-.31-.22-.31-.43.09-.31.22-.43c.12-.12-1.51-4.96-1.6-6.01s0-1.33 0-1.33-.68-.62-.8-1.11-.18-1.14-.18-1.14-.83-.89-.89-1.14.03-2.77.18-2.96c.15-.18 1.23-1.48 1.26-1.57s.03-.59.03-.59-.65-.8-.86-.96c-.22-.15-1.26-.89-1.48-.99-.22-.09-1.39-1.06-1.54-1.37s-.11.31-.11.31l.06.26s-.4-.4-.4-.6c-.12.4.02.6.02.6s-.46-.62-.51-.89c-.05-.28.05-.49.05-.49s-.42.35-.74.31c.02-.18.37-.69.37-.8s-.03-.26-.03-.26-.32.12-.65.06c-.32-.06-1.05-.68-1.05-.68s.83-.05.83-.12c-.43-.34-.66-.54-.66-.54l.91.14s-.63-.79-.66-1.16c.65.51 1.11.74 1.11.74s-.43-.72-.51-1.09c.63.34.8.39.8.39s.09-1.03.23-1.29.26-.37.26-.37l.23.48.03-.96.25.11.05-.74s1.03-.49 1.2-.68c.17-.18.31-.46.48-.54s1.9-.71 1.9-.71.65-.28.85-.37.65-.4.86-.45c.22-.05.42-.02.66.12s1 .57 1.11.71.14.46.18.51.76.26.89.39c.14.12.55.69.55.69s-.08.06.02.11c.09.05 1.22.11 1.36.15.14.05.48.15.55.15s.4 0 .49.05.31.2.31.29 0 .54-.06.6-.32.26-.32.26l.63.49c.05.03.03.34.06.42s.39.05.39.05 0-1.29.23-1.98 1.76-5.06 1.76-5.06 1.27-3.94 1.31-4.55c.03-.61.08-1.26.05-1.46s-.35-2.16-.43-2.39-.17-.63-.14-.85 1.51-1.54 1.51-1.54l.76-.52s.05-.34.14-.37.52-.06.59.03c.06.09.62-.28.8-.26s.51-.12.65.02.11.46.03.55c.46-.02.91 0 .99.11s.02.43-.02.49c.39.05.54.06.54.18s-.11.49-.29.59c.17.25.06.68-.06.77s-1.66.94-1.71.99-.42.22-.59.59.03 1.14.03 1.14.12.66.06.91-.62.88-.68 1.31-.39 2.63-.36 3.97.05 4.46-.02 4.6c.62-.79 1.43-1.73 1.53-2.15.09-.42.32-1.73.55-2.43.23-.69 1.57-3.86 1.57-3.86s.39-1.16.51-1.83.21-2.43.37-2.55Z" class="st2"/></svg>