<svg xmlns="http://www.w3.org/2000/svg" xmlns:xlink="http://www.w3.org/1999/xlink" viewBox="0 0 113.03 115.89"><defs><linearGradient id="a" x1="73.48" x2="37.83" y1="10.23" y2="41.83" gradientUnits="userSpaceOnUse"><stop offset=".06" stop-color="#0800df"/><stop offset=".54" stop-color="#005eff"/><stop offset=".94" stop-color="#00a5ff"/></linearGradient><linearGradient xlink:href="#a" id="b" x1="92.84" x2="57.19" y1="32.07" y2="63.67"/><linearGradient xlink:href="#a" id="c" x1="61.13" x2="25.47" y1="-2.77" y2="28.83"/><linearGradient xlink:href="#a" id="d" x1="91.96" x2="56.31" y1="32.02" y2="63.62"/><linearGradient xlink:href="#a" id="e" x1="96.37" x2="60.72" y1="36.99" y2="68.59"/><linearGradient xlink:href="#a" id="f" x1="65.53" x2="29.88" y1="2.2" y2="33.8"/><linearGradient xlink:href="#a" id="g" x1="57.1" x2="21.45" y1="-7.31" y2="24.29"/><linearGradient xlink:href="#a" id="h" x1="65.91" x2="30.26" y1="2.63" y2="34.23"/><linearGradient xlink:href="#a" id="i" x1="83.53" x2="47.88" y1="22.51" y2="54.11"/><linearGradient xlink:href="#a" id="j" x1="87.94" x2="52.28" y1="27.48" y2="59.08"/><linearGradient xlink:href="#a" id="k" x1="92.34" x2="56.69" y1="32.45" y2="64.05"/><linearGradient xlink:href="#a" id="l" x1="61.5" x2="25.85" y1="-2.34" y2="29.26"/><linearGradient xlink:href="#a" id="m" x1="61.88" x2="26.23" y1="-1.92" y2="29.68"/><linearGradient xlink:href="#a" id="n" x1="66.29" x2="30.64" y1="3.05" y2="34.65"/><linearGradient xlink:href="#a" id="o" x1="62.55" x2="26.9" y1="-1.16" y2="30.44"/><linearGradient xlink:href="#a" id="p" x1="70.69" x2="35.04" y1="8.02" y2="39.62"/><linearGradient xlink:href="#a" id="q" x1="67.04" x2="31.39" y1="3.91" y2="35.51"/><linearGradient xlink:href="#a" id="r" x1="75.1" x2="39.45" y1="12.99" y2="44.59"/><linearGradient xlink:href="#a" id="s" x1="79.5" x2="43.85" y1="17.96" y2="49.56"/><linearGradient xlink:href="#a" id="t" x1="83.91" x2="48.26" y1="22.93" y2="54.53"/><linearGradient xlink:href="#a" id="u" x1="57.48" x2="21.83" y1="-6.89" y2="24.71"/><linearGradient xlink:href="#a" id="v" x1="57.86" x2="22.2" y1="-6.46" y2="25.14"/><linearGradient xlink:href="#a" id="w" x1="58.24" x2="22.59" y1="-6.03" y2="25.57"/><linearGradient xlink:href="#a" id="x" x1="62.26" x2="26.61" y1="-1.49" y2="30.11"/><linearGradient xlink:href="#a" id="y" x1="66.67" x2="31.01" y1="3.48" y2="35.08"/><linearGradient xlink:href="#a" id="z" x1="71.07" x2="35.42" y1="8.45" y2="40.05"/><linearGradient xlink:href="#a" id="A" x1="75.48" x2="39.83" y1="13.42" y2="45.02"/><linearGradient xlink:href="#a" id="B" x1="79.88" x2="44.23" y1="18.39" y2="49.99"/><linearGradient xlink:href="#a" id="C" x1="53.45" x2="17.8" y1="-11.43" y2="20.17"/><linearGradient xlink:href="#a" id="D" x1="113.68" x2="18.22" y1="80.31" y2="102.61"/><linearGradient xlink:href="#a" id="E" x1="113.14" x2="17.61" y1="77.66" y2="99.98"/><linearGradient xlink:href="#a" id="F" x1="114.53" x2="19.06" y1="83.85" y2="106.16"/><linearGradient xlink:href="#a" id="G" x1="114.69" x2="19.22" y1="84.52" y2="106.83"/><linearGradient xlink:href="#a" id="H" x1="116.64" x2="21.15" y1="92.83" y2="115.14"/><linearGradient xlink:href="#a" id="I" x1="116.47" x2="21.05" y1="92.18" y2="114.47"/><linearGradient xlink:href="#a" id="J" x1="112.24" x2="29.75" y1="91.25" y2="110.52"/><linearGradient xlink:href="#a" id="K" x1="112.91" x2="30.5" y1="94.18" y2="113.43"/></defs><path d="m77.71 26.45 13.77-9.3A38.9 38.9 0 0 0 59.22 0v16.61c7.42 0 14.33 3.68 18.49 9.84" style="fill:url(#a)"/><path d="M60.14 31.32v16.61h19.77c-3.3 8.19-11.33 13.99-20.69 13.99v16.61c21.45 0 38.91-17.45 38.91-38.91v-8.31H60.15Z" style="fill:url(#b)"/><rect width="7.58" height="7.58" x="49.93" rx="3.06" ry="3.06" style="fill:url(#c)"/><rect width="7.58" height="7.58" x="49.93" y="62.12" rx="3.06" ry="3.06" style="fill:url(#d)"/><rect width="7.58" height="7.58" x="49.93" y="71" rx="3.06" ry="3.06" style="fill:url(#e)"/><rect width="7.58" height="7.58" x="49.93" y="8.87" rx="3.06" ry="3.06" style="fill:url(#f)"/><rect width="7.58" height="7.58" x="40.78" rx="3.06" ry="3.06" style="fill:url(#g)"/><rect width="7.58" height="7.58" x="40.78" y="17.75" rx="3.06" ry="3.06" style="fill:url(#h)"/><rect width="7.58" height="7.58" x="40.78" y="53.25" rx="3.06" ry="3.06" style="fill:url(#i)"/><rect width="7.58" height="7.58" x="40.78" y="62.12" rx="3.06" ry="3.06" style="fill:url(#j)"/><rect width="7.58" height="7.58" x="40.78" y="71" rx="3.06" ry="3.06" style="fill:url(#k)"/><rect width="7.58" height="7.58" x="40.78" y="8.87" rx="3.06" ry="3.06" style="fill:url(#l)"/><rect width="7.58" height="7.58" x="31.62" y="17.75" rx="3.06" ry="3.06" style="fill:url(#m)"/><rect width="7.58" height="7.58" x="31.62" y="26.62" rx="3.06" ry="3.06" style="fill:url(#n)"/><rect width="7.58" height="7.58" x="13.32" y="35.33" rx="3.04" ry="3.04" style="fill:url(#o)"/><rect width="7.58" height="7.58" x="31.62" y="35.5" rx="3.04" ry="3.04" style="fill:url(#p)"/><rect width="7.58" height="7.58" x="13.32" y="44.37" rx="3.04" ry="3.04" style="fill:url(#q)"/><rect width="7.58" height="7.58" x="31.62" y="44.37" rx="3.06" ry="3.06" style="fill:url(#r)"/><rect width="7.58" height="7.58" x="31.62" y="53.25" rx="3.06" ry="3.06" style="fill:url(#s)"/><rect width="7.58" height="7.58" x="31.62" y="62.12" rx="3.06" ry="3.06" style="fill:url(#t)"/><rect width="7.58" height="7.58" x="31.62" y="8.87" rx="3.06" ry="3.06" style="fill:url(#u)"/><rect width="7.58" height="7.58" x="22.47" y="17.75" rx="3.03" ry="3.03" style="fill:url(#v)"/><rect width="7.58" height="7.58" x="13.36" y="26.59" rx="3.03" ry="3.03" style="fill:url(#w)"/><rect width="7.58" height="7.58" x="22.47" y="26.62" rx="3.03" ry="3.03" style="fill:url(#x)"/><rect width="7.58" height="7.58" x="22.47" y="35.5" rx="3.06" ry="3.06" style="fill:url(#y)"/><rect width="7.58" height="7.58" x="22.47" y="44.37" rx="3.06" ry="3.06" style="fill:url(#z)"/><rect width="7.58" height="7.58" x="22.47" y="53.25" rx="3.06" ry="3.06" style="fill:url(#A)"/><rect width="7.58" height="7.58" x="22.47" y="62.12" rx="3.06" ry="3.06" style="fill:url(#B)"/><rect width="7.58" height="7.58" x="22.47" y="8.87" rx="3.03" ry="3.03" style="fill:url(#C)"/><path d="m12.61 94.52-.37 1.81a6.2 6.2 0 0 0-2.07-1.58Q9 94.18 7.5 94.18c-1.38 0-2.64.35-3.78 1.07-1.15.71-2.05 1.67-2.72 2.87s-1 2.49-1 3.87.33 2.69.99 3.83a7 7 0 0 0 2.71 2.67q1.71.96 3.78.96 1.395 0 2.52-.48c.76-.31 1.42-.76 2-1.34v.36c0 .86-.17 1.62-.5 2.31-.34.68-.85 1.22-1.54 1.62s-1.56.6-2.59.6c-1.66 0-3.27-.43-4.83-1.27l-1.42 2.97c.77.5 1.78.9 3.02 1.21 1.23.31 2.43.46 3.6.46 1.76 0 3.24-.34 4.45-1.02 1.2-.68 2.09-1.63 2.69-2.83.59-1.21.88-2.59.88-4.16V94.52zm-1 9.53a4 4 0 0 1-1.5 1.5c-.63.37-1.35.55-2.16.55s-1.51-.18-2.15-.56c-.63-.37-1.12-.87-1.48-1.51-.35-.64-.53-1.35-.53-2.14s.18-1.49.53-2.14c.36-.66.85-1.17 1.48-1.55.64-.38 1.35-.57 2.15-.57s1.52.19 2.16.58q.96.57 1.5 1.56c.36.66.54 1.38.54 2.18s-.18 1.47-.54 2.1" style="fill:url(#D)"/><path d="M19.89 87.81v22.39h3.8V87.81z" style="fill:url(#E)"/><path d="M42.27 98.3a8.15 8.15 0 0 0-3-3c-1.26-.74-2.66-1.11-4.18-1.11s-2.92.37-4.19 1.1a8.05 8.05 0 0 0-2.99 3c-.73 1.26-1.1 2.65-1.1 4.15s.37 2.87 1.1 4.12 1.73 2.24 2.99 2.97c1.26.74 2.64 1.1 4.16 1.1s2.94-.36 4.21-1.09 2.27-1.72 3-2.97c.73-1.26 1.1-2.63 1.1-4.13s-.37-2.88-1.1-4.14m-3.3 6.47c-.39.71-.93 1.27-1.62 1.67-.68.4-1.43.61-2.26.61s-1.58-.21-2.27-.61c-.68-.4-1.22-.96-1.62-1.66s-.59-1.48-.59-2.35.19-1.66.59-2.36q.6-1.065 1.62-1.68c.69-.41 1.44-.61 2.27-.61s1.57.2 2.26.61c.68.41 1.23.97 1.62 1.68.4.7.6 1.49.6 2.36s-.2 1.64-.6 2.34" style="fill:url(#F)"/><path d="M61.73 98.27a8.1 8.1 0 0 0-2.88-2.98c-1.2-.73-2.51-1.1-3.93-1.1-1.83 0-3.36.65-4.57 1.93v-7.97h-3.84v22.05h3.33l.27-1.84c.6.69 1.3 1.23 2.11 1.62.8.4 1.71.59 2.7.59 1.42 0 2.73-.36 3.94-1.1a8.05 8.05 0 0 0 2.88-2.97c.7-1.25 1.06-2.62 1.06-4.12s-.36-2.86-1.07-4.11m-3.3 6.47c-.38.7-.91 1.25-1.59 1.63-.67.39-1.42.59-2.25.59s-1.58-.2-2.27-.59c-.69-.4-1.23-.94-1.63-1.63q-.6-1.05-.6-2.34c0-1.29.2-1.65.6-2.36.4-.7.94-1.25 1.63-1.65s1.45-.6 2.27-.6 1.57.2 2.24.6c.68.4 1.22.95 1.6 1.65.39.71.59 1.49.59 2.36s-.2 1.65-.59 2.34" style="fill:url(#G)"/><path d="m77.89 94.54-.24 1.9c-.59-.7-1.3-1.25-2.11-1.65s-1.73-.6-2.74-.6c-1.42 0-2.73.37-3.93 1.1-1.21.73-2.17 1.73-2.88 2.98s-1.07 2.62-1.07 4.11.35 2.87 1.06 4.12 1.67 2.24 2.88 2.97c1.21.74 2.52 1.1 3.94 1.1.99 0 1.9-.19 2.7-.59.81-.39 1.51-.93 2.11-1.62l.27 1.84h3.33V94.54zm-.86 10.2c-.4.69-.94 1.23-1.63 1.63-.69.39-1.45.59-2.27.59s-1.58-.2-2.25-.59c-.68-.38-1.21-.93-1.6-1.63-.38-.69-.58-1.48-.58-2.34s.2-1.65.58-2.36c.39-.7.93-1.25 1.6-1.65q1.02-.6 2.25-.6c1.23 0 1.58.2 2.27.6s1.23.95 1.63 1.65c.4.71.59 1.49.59 2.36s-.19 1.64-.59 2.34" style="fill:url(#H)"/><path d="M85.34 87.81v22.39h3.79V87.81z" style="fill:url(#I)"/><path d="M97.22 90.1v-2.96l-3.01.72v2.24h-1.74v2.75h1.75v9.53h3v-9.53h2.71V90.1z" style="fill:url(#J)"/><path d="m109.74 90.1-3.17 8.89-3.16-8.89h-3.27l4.97 12.28h2.92l5-12.28z" style="fill:url(#K)"/></svg>