<svg xmlns="http://www.w3.org/2000/svg" id="Capa_1" viewBox="0 0 146.41 147.51"><defs><clipPath id="clippath"><path d="M43.75 106.79V45.91c0-4.61 3.73-8.34 8.34-8.34h21.58c7.54 0 14.45 1.68 20.73 5.05 6.27 3.37 11.23 8 14.88 13.91 3.64 5.91 5.47 12.49 5.47 19.74s-1.81 13.89-5.44 19.82-8.56 10.58-14.79 13.97c-6.24 3.39-13.13 5.08-20.67 5.08H52.1c-4.61 0-8.34-3.73-8.34-8.34Z" style="fill:none"/></clipPath><style>.st1{fill:#fd012c}.st2{fill:#fff}</style></defs><path d="M12.91 59.58c-.31-1.1-.87-2.01-1.67-2.74q-1.2-1.08-3.06-1.41c-1.22-.22-2.33-.12-3.33.29a5.75 5.75 0 0 0-2.5 2Q1.345 59.1 1 61.08l-1 5.69 12.03 2.12 1.01-5.69c.23-1.32.19-2.53-.13-3.62m-2.62 3.31-.37 2.12-6.61-1.17.38-2.11c.12-.7.36-1.28.71-1.75.35-.46.8-.79 1.34-.99s1.15-.24 1.85-.12c.68.12 1.24.37 1.69.74s.76.84.93 1.4c.18.55.2 1.18.08 1.88M11.53 43.35l-2.09 5.01-.09.23 2.37.99.1-.23 2.08-5.01zm4.8.96-2.45 5.9-2.06-.86-2.38-.99-1.88-.78 2.36-5.69-2.48-1.03-3.67 8.84 11.29 4.68 3.76-9.04zM22.84 34.02l-3.2 4.85-7.92-5.21-1.9 2.88 10.21 6.73 5.1-7.75zM27.6 22.96l-3.74 3.86-.18.19 1.92 1.86.18-.19 3.74-3.86zm-1.82 5.72-1.92-1.86-1.92-1.86 4.26-4.39-1.94-1.87-6.66 6.87 8.78 8.51 2.41-2.48zM30.2 14.13l-2.75 2.1 7.41 9.72 2.75-2.09zM50.25 16.61 44.61 5.76l-3 1.56 3 5.79-7.78-3.31-2.52 1.31 5.63 10.85 2.99-1.55-3-5.78 7.79 3.29zM59.56 6.14l-5.24 1.41-.24.07.67 2.48.24-.06 5.24-1.42zm2.18 4.38-6.17 1.67-.58-2.15-.67-2.49-.53-1.97 5.95-1.61-.71-2.59-9.23 2.5 3.19 11.8 9.46-2.56zM73.77 6.87c-.28-.4-.64-.73-1.07-.96s-.89-.41-1.39-.53c-.5-.13-1-.23-1.5-.29-.5-.08-.96-.15-1.37-.22s-.75-.18-1.02-.32c-.26-.13-.41-.34-.43-.62-.01-.19.04-.37.16-.54s.32-.32.6-.44c.28-.13.66-.2 1.14-.24.54-.03 1.09.01 1.67.12q.87.165 1.77.6l.88-2.62c-.62-.32-1.32-.54-2.1-.67a10 10 0 0 0-2.38-.11c-1.2.08-2.19.33-2.96.74-.78.42-1.35.93-1.7 1.55-.36.62-.51 1.29-.46 2.01.04.65.2 1.18.48 1.6.28.41.63.74 1.06.97.42.25.89.43 1.4.56s1.01.22 1.5.29.94.14 1.36.22c.42.09.77.2 1.03.34.27.14.41.34.43.61 0 .2-.04.39-.16.55-.13.16-.33.29-.61.39s-.66.17-1.15.2c-.71.05-1.43-.02-2.16-.2-.73-.17-1.38-.42-1.95-.73l-.95 2.64c.59.34 1.36.61 2.3.8.94.18 1.91.24 2.92.18 1.21-.09 2.21-.33 2.98-.75q1.17-.615 1.71-1.56c.36-.62.52-1.29.47-2-.05-.64-.21-1.16-.5-1.57M95.97 6.48c-.34-1.02-.95-1.9-1.82-2.63-.88-.73-1.96-1.26-3.26-1.59L85.28.87l-2.96 11.86 5.61 1.39c1.3.33 2.51.37 3.62.13a5.74 5.74 0 0 0 2.85-1.47c.78-.75 1.32-1.74 1.62-2.96.3-1.2.29-2.32-.05-3.34M92.63 9c-.17.66-.45 1.21-.86 1.63-.4.42-.89.7-1.46.83-.56.14-1.19.12-1.88-.05l-2.08-.52 1.62-6.51 2.08.52c.69.17 1.25.45 1.69.83q.66.585.9 1.41c.17.55.16 1.17-.01 1.86M102.97 11.57l-.22-.11-1.15 2.3.22.11 4.86 2.42 1.14-2.3zm0 0 .91-1.83 5.51 2.75 1.2-2.4-8.56-4.28-5.46 10.94 8.77 4.38 1.2-2.41-5.72-2.85 1-2zM117.51 14.88l-2.75-2.1-7.43 9.71 7.37 5.63 1.67-2.18-4.62-3.53zM136.59 35.98l-8.2.47 3.46-7.51-1.6-2.36-10.13 6.84 1.78 2.63 5.22-3.52-2.48 5.44.86 1.27 6.14-.34-5.36 3.65 1.78 2.64 10.12-6.85zM136.2 52.88l-1.06-2.96-.56-1.56h-2.68l.51 1.45 1.74 4.88.35.98 2.09-1.69zm5.78-5.51-13.32-.98 1.18 3.32 2.57.1 2.73.11 4.21.17-3.15 2.79-2.05 1.81-1.93 1.7 1.21 3.39 9.7-9.2zM138.5 65.11l-1.1.96-2.96 2.59.43 3.67 3.51-3.08.55-.48zm7.84.14-.66-5.53-12.14 1.45.41 3.43 3.23-.39.22 1.86.03.24q.195 1.665.87 2.82c.02.04.05.08.08.12.43.71.99 1.23 1.66 1.56.71.36 1.53.48 2.47.37.91-.11 1.68-.42 2.31-.94.62-.51 1.06-1.2 1.33-2.05.26-.85.32-1.83.19-2.94m-2.96-1.77.23 1.89c.08.71-.01 1.27-.29 1.66-.27.4-.68.63-1.22.7-.57.07-1.03-.06-1.38-.38-.36-.32-.58-.84-.67-1.56l-.23-1.89-1.19.14-.4.05.19-.23 1.22-1.5.18 1.54zl-.18-1.55 1.76 1.36zM12.25 91.87l-10.76-.76.6 1.91 2.05.09 1.25 4-1.63 1.25.6 1.9 8.4-6.76zm-2.24 1.69-3.23 2.48-.89-2.84 4.07.18h.35zM13.75 102.91c-.06-.52-.19-.99-.38-1.42-.26-.56-.58-1-.95-1.33s-.75-.53-1.16-.6q-.6-.12-1.17.15c-.53.24-.88.65-1.03 1.21-.16.56-.17 1.22-.02 1.97.08.43.13.77.14 1.03 0 .26-.01.46-.06.6-.05.15-.15.25-.29.32q-.315.15-.63-.06c-.2-.14-.38-.37-.53-.7-.18-.38-.29-.8-.33-1.27s-.02-.9.05-1.28l-1.53-.25c-.13.57-.16 1.15-.1 1.75.05.6.22 1.19.49 1.77.24.53.55.95.92 1.28q.57.48 1.2.6c.43.07.84.02 1.24-.17.4-.18.7-.44.88-.76.18-.33.28-.7.29-1.12 0-.42-.03-.9-.14-1.46q-.105-.615-.12-.96c-.02-.24 0-.42.05-.54.06-.13.14-.22.27-.28.18-.09.36-.07.54.05s.35.34.5.66c.14.3.23.65.27 1.04q.075.585 0 1.05l1.55.24c.1-.49.12-.99.05-1.52M17.14 108.47a3.93 3.93 0 0 0-1.5-1.42c-.61-.32-1.27-.48-1.97-.45-.7.02-1.35.22-1.96.6-.61.37-1.07.87-1.39 1.48a3.83 3.83 0 0 0-.46 1.96c.03.7.23 1.35.61 1.97.39.62.89 1.1 1.5 1.43.62.33 1.27.49 1.97.47q1.035-.03 1.95-.6c.61-.38 1.07-.87 1.4-1.49.33-.61.48-1.27.46-1.97s-.22-1.36-.61-1.98m-1.4 3.06c-.19.34-.45.62-.81.84-.34.22-.71.33-1.1.35-.38.02-.75-.06-1.08-.24-.34-.17-.61-.43-.82-.76-.21-.34-.32-.7-.32-1.07-.01-.38.07-.74.26-1.08.18-.34.45-.62.8-.84s.72-.33 1.11-.35.75.06 1.09.24c.34.17.61.42.82.76.2.33.31.69.32 1.07 0 .38-.08.74-.27 1.08M23.18 117.18c-.14-.48-.39-.92-.73-1.35-.46-.56-1.01-.96-1.66-1.2s-1.32-.3-2-.19q-1.02.165-1.86.84c-.55.45-.95 1-1.2 1.64s-.32 1.3-.22 1.99c.1.68.38 1.31.85 1.88.33.41.72.74 1.16.99.43.25.89.4 1.36.47l.43-1.52a3 3 0 0 1-.88-.32c-.27-.14-.51-.34-.72-.61-.25-.3-.4-.64-.46-1.03-.06-.38 0-.76.13-1.13s.37-.69.69-.95c.33-.27.69-.44 1.09-.5.39-.07.77-.03 1.14.1.36.14.67.36.92.67.21.26.36.53.44.82.09.28.13.6.11.94l1.59-.12c.03-.47-.03-.95-.18-1.42M28.55 117.89c-.05-.19-.15-.37-.3-.53s-.33-.26-.52-.31c-.2-.05-.39-.06-.58-.01q-.285.075-.48.27c-.14.13-.23.28-.28.47s-.05.38-.01.57c.05.2.15.37.3.53.16.16.33.26.52.32a1.14 1.14 0 0 0 1.06-.26c.13-.13.22-.29.28-.48.05-.19.05-.38.01-.58Zm-3.42 1.22-5.38 5.21 1.27 1.3 5.38-5.21zM32.29 125.71l-.67.62c0-.44-.09-.86-.27-1.25-.17-.4-.44-.75-.82-1.07a3.5 3.5 0 0 0-1.77-.8 3.76 3.76 0 0 0-1.96.2c-.65.24-1.2.63-1.66 1.18a3.9 3.9 0 0 0-.74 3.8c.22.64.58 1.18 1.1 1.61.36.31.75.51 1.17.62.42.1.84.12 1.27.05l-.47.76 1.22 1.02 4.81-5.72zm-2.01 1.74c-.07.38-.24.73-.5 1.05-.27.31-.58.54-.94.67s-.72.16-1.1.09c-.37-.06-.71-.22-1.01-.48-.3-.25-.51-.56-.64-.9-.13-.35-.15-.71-.08-1.09.07-.37.24-.72.51-1.03q.39-.48.93-.69c.36-.13.72-.17 1.09-.11s.71.22 1.01.47c.3.26.52.56.64.92.13.36.16.72.09 1.1M39.4 130.74c-.29-.41-.66-.75-1.12-1.05-.61-.39-1.26-.6-1.96-.62-.68-.03-1.34.12-1.95.44s-1.11.78-1.5 1.38c-.38.6-.59 1.24-.63 1.93s.1 1.34.41 1.96.77 1.12 1.39 1.52c.45.29.92.48 1.41.58.5.1.98.11 1.44.02l-.06-1.58c-.33.04-.64.03-.94-.02q-.45-.075-.87-.36c-.33-.21-.58-.49-.76-.83a2.4 2.4 0 0 1-.24-1.12c.02-.4.14-.77.37-1.12.23-.36.52-.63.87-.82.36-.18.73-.27 1.12-.25.39.01.75.13 1.08.34.28.18.51.4.68.64.17.25.31.54.4.86l1.47-.6c-.12-.47-.32-.9-.61-1.3M44.72 129.74c-.11-.18-.26-.31-.45-.42-.2-.1-.39-.14-.6-.13-.2.01-.38.07-.55.18-.16.1-.29.23-.37.4-.09.16-.13.34-.12.53.01.2.07.38.17.55.11.17.26.31.45.41.2.1.4.15.6.14s.38-.07.54-.17c.17-.1.29-.24.38-.4.09-.17.12-.35.12-.54-.01-.2-.07-.38-.17-.55m-2.87 2.22-3.47 6.63 1.61.85 3.47-6.64zM50.19 132.55l-1.63 1.47 1.24.49 2.12-1.27zm.98 5.55c-.1-.69-.36-1.31-.8-1.86-.42-.56-.98-.97-1.65-1.24-.68-.27-1.36-.36-2.05-.26s-1.31.37-1.86.8q-.825.645-1.23 1.65c-.26.66-.35 1.33-.25 2.02.11.68.37 1.3.8 1.85.43.54.98.95 1.65 1.22.68.28 1.37.36 2.06.27.69-.1 1.31-.36 1.86-.79.55-.42.95-.97 1.22-1.63.27-.67.35-1.34.25-2.03m-1.93 1.35c-.15.38-.38.69-.68.93q-.45.375-1.02.45c-.37.06-.74.02-1.11-.13s-.66-.37-.89-.67-.38-.64-.43-1.03c-.05-.38 0-.76.16-1.15.15-.38.38-.69.68-.94q.45-.36 1.02-.45c.37-.06.74-.02 1.11.13.36.15.66.37.89.67.23.31.37.65.43 1.04.05.38-.01.76-.16 1.15M60.22 140.03c-.12-.52-.37-.96-.74-1.32-.37-.35-.84-.6-1.43-.75-.45-.11-.92-.12-1.42-.02-.49.09-.91.27-1.26.53l.11-.97-1.51-.38-1.8 7.26 1.76.44 1-4.03c.08-.32.24-.6.46-.82q.345-.345.81-.48c.465-.135.63-.09.96-.01.5.12.85.38 1.05.76.21.38.23.86.09 1.43l-.99 3.99 1.78.44 1.06-4.3c.16-.65.19-1.24.07-1.77M72.16 136.89l-.22 3.8q-.81-.975-2.13-1.05c-.67-.04-1.31.1-1.9.42-.6.31-1.08.76-1.45 1.34-.38.57-.59 1.22-.63 1.93s.09 1.38.39 1.99q.465.93 1.29 1.5c.56.38 1.18.59 1.85.63.48.03.91-.04 1.31-.2q.585-.255 1.05-.72l.08.88 1.59.1.6-10.51zm-.62 7.9c-.21.32-.48.56-.82.73s-.71.24-1.1.22c-.39-.03-.75-.14-1.06-.34-.31-.21-.55-.48-.71-.82-.17-.35-.24-.72-.21-1.14.02-.41.13-.78.34-1.1q.3-.495.81-.75c.33-.17.69-.24 1.08-.22a2.13 2.13 0 0 1 1.8 1.18c.17.35.24.72.22 1.14-.03.41-.14.78-.35 1.1M80 145.68c-.53.04-1.01-.07-1.42-.34-.42-.27-.71-.66-.88-1.18l5.49-.48c.01-.2.01-.41 0-.64-.06-.75-.27-1.4-.61-1.96q-.51-.84-1.38-1.26c-.59-.28-1.26-.39-2.02-.32q-1.035.09-1.83.69c-.53.39-.92.9-1.18 1.53q-.39.93-.3 2.01c.06.7.28 1.34.67 1.91.38.57.88 1 1.5 1.3.61.3 1.28.41 2.01.35a4.2 4.2 0 0 0 1.49-.4c.45-.22.84-.51 1.16-.87l-.97-1.18c-.46.5-1.03.78-1.72.84Zm-1.81-4.1c.32-.3.71-.47 1.19-.51.48-.05.9.05 1.24.29.35.24.59.6.75 1.09l-3.77.32c.07-.49.27-.89.59-1.19M96.13 140.84c-.15-.54-.41-.95-.77-1.25a3.06 3.06 0 0 0-1.3-.6c-.5-.12-1.11-.19-1.84-.21h-.17c-.49-.02-.86-.04-1.12-.07s-.48-.09-.66-.19a.79.79 0 0 1-.37-.48.9.9 0 0 1 .04-.63c.08-.2.23-.38.43-.54.21-.15.46-.27.75-.35.42-.12.85-.15 1.3-.1.46.06.86.17 1.22.35l.7-1.58a4.9 4.9 0 0 0-1.8-.53c-.64-.07-1.3-.01-1.97.18-.71.2-1.27.49-1.7.87-.43.39-.71.82-.85 1.3-.13.49-.13.98.01 1.49q.24.87.84 1.32c.39.3.83.49 1.3.58s1 .14 1.57.13c.57 0 1.02.02 1.35.07.33.04.59.12.78.25.19.12.32.31.39.56q.15.555-.21.99c-.24.3-.62.52-1.13.67-.5.13-1.01.17-1.53.09s-1.02-.26-1.49-.55l-.86 1.54c.65.43 1.36.69 2.12.8.76.1 1.52.05 2.28-.16.68-.19 1.25-.49 1.72-.88q.705-.585.96-1.38c.18-.53.18-1.09 0-1.69ZM103.2 132.95l-1.46.63.26.88a2.95 2.95 0 0 0-2.55-.06c-.62.27-1.13.68-1.51 1.23-.39.55-.62 1.17-.69 1.85-.08.69.03 1.36.31 2.01.29.66.71 1.19 1.26 1.6.54.41 1.15.66 1.82.75s1.32 0 1.94-.27c.43-.19.79-.45 1.07-.77.28-.33.48-.7.61-1.12l.47.76 1.46-.64zm-.29 6.28c-.22.31-.52.54-.88.7-.36.15-.73.21-1.1.17-.36-.04-.7-.18-1-.41-.31-.23-.54-.53-.71-.91-.16-.38-.23-.76-.19-1.15.03-.38.16-.72.38-1.02q.33-.465.87-.69.54-.24 1.11-.18c.38.05.72.18 1.03.42.31.23.54.53.71.91q.24.57.18 1.14c-.06.57-.17.72-.4 1.02M105.15 128.12l-1.57.89 5.26 9.31 1.58-.89zM114.4 125.82l-1.64 1.15 1.51 5.55-4.68-3.35-1.64 1.14 6.77 4.42 1.46-1.02zM120.62 120.26l-1.17 1.07.52.74c-.43-.05-.86-.02-1.27.1-.42.12-.8.34-1.16.67-.5.45-.85 1-1.04 1.65-.19.64-.21 1.3-.06 1.97.14.67.46 1.27.94 1.8s1.04.9 1.69 1.12c.66.21 1.31.26 1.98.13.66-.13 1.24-.42 1.74-.88.35-.32.61-.67.77-1.07s.23-.82.22-1.25l.69.56 1.18-1.07zm1.74 6.05c-.12.36-.32.67-.61.94-.29.26-.62.44-.98.51-.37.08-.73.06-1.09-.06a2.3 2.3 0 0 1-.96-.64c-.28-.31-.46-.65-.55-1.02-.09-.38-.07-.74.04-1.1q.165-.54.6-.93a2.094 2.094 0 0 1 2.1-.46c.37.12.69.34.97.64q.405.465.54 1.02c.08.37.06.74-.06 1.1M126.63 113.3l-1.29 1.53 2.9 4.97-5.39-2.02-1.29 1.52 7.68 2.51 1.15-1.36zM128.38 110.65l-1.04 1.49 6.15 4.28 1.04-1.5zm-1.45-1.13a1.02 1.02 0 0 0-.87-.6c-.19-.02-.38.02-.56.1-.19.08-.35.21-.47.39s-.19.37-.21.58c-.01.2.02.39.11.56.08.18.2.32.35.43.15.1.32.16.52.18.19.01.38-.02.56-.11.18-.08.34-.21.46-.39q.195-.27.21-.57c.02-.2-.01-.39-.1-.57M139.75 106.09l-9.21-5.1-.89 1.61 3.33 1.84c-.82.21-1.44.7-1.87 1.46-.32.6-.47 1.23-.45 1.9a3.956 3.956 0 0 0 2.05 3.29c.63.35 1.28.52 1.97.51.68-.01 1.32-.18 1.91-.52.58-.33 1.04-.8 1.37-1.39.23-.41.35-.84.37-1.26.03-.43-.04-.85-.18-1.26l.83.31zm-3.23 2.63c-.19.34-.45.61-.76.8-.32.2-.67.29-1.05.29s-.76-.1-1.12-.3-.64-.46-.85-.78c-.2-.33-.31-.68-.31-1.05-.01-.38.07-.74.26-1.08q.285-.525.78-.81c.32-.2.68-.3 1.07-.3s.76.09 1.12.3c.36.2.64.46.84.79q.285.48.3 1.05c0 .38-.09.74-.28 1.09M143.71 96.28l-7-2.64-.56 1.48.81.43c-.41.15-.78.37-1.09.66-.32.3-.56.67-.73 1.13-.24.63-.3 1.28-.18 1.94.13.66.41 1.26.85 1.79s.99.92 1.66 1.17c.66.25 1.34.33 2.01.22.68-.1 1.29-.36 1.82-.78s.92-.94 1.15-1.58c.17-.44.24-.88.2-1.3-.04-.43-.17-.84-.37-1.22l.87.19zm-2.82 3.07c-.14.37-.35.67-.64.9-.28.24-.61.38-.99.44-.38.05-.76.01-1.15-.14-.39-.14-.7-.36-.95-.66-.25-.29-.41-.62-.47-.99s-.03-.74.11-1.1c.14-.37.36-.67.65-.91q.45-.36 1.02-.45c.38-.06.76-.02 1.15.13.39.14.7.36.94.66.24.29.39.63.45 1 .06.38.02.75-.12 1.12M145.43 89.17c-.09-.49-.28-.89-.56-1.21-.29-.33-.65-.54-1.08-.64-.43-.11-.82-.09-1.16.05-.35.14-.65.37-.92.69-.27.33-.54.74-.8 1.24-.2.36-.36.64-.5.83s-.26.32-.38.39-.25.08-.38.05a.53.53 0 0 1-.4-.38c-.06-.2-.06-.48.03-.82.07-.32.22-.65.42-.98.21-.34.43-.61.66-.83l-1.07-1.15c-.38.32-.7.71-.98 1.16s-.47.9-.58 1.35c-.14.6-.17 1.15-.09 1.63q.135.735.54 1.2c.405.465.61.51 1.01.61.57.13 1.1.03 1.57-.31.47-.35.88-.86 1.24-1.54.2-.39.37-.68.52-.89s.29-.36.42-.44.27-.1.43-.07c.22.06.37.2.45.44.07.24.07.53-.01.88q-.15.615-.54 1.2c-.25.39-.53.71-.83.98l1.05 1.14c.45-.37.84-.81 1.16-1.31.33-.5.57-1.07.72-1.69.13-.57.16-1.09.06-1.58" class="st1"/><g style="clip-path:url(#clippath)"><path d="M83.66 44.82c-4.42 0-9.68-.62-15.55-2.48-16.3-5.17-24.56-.4-24.64-.35l-3.69-5.91c.43-.27 10.77-6.61 30.43-.38 15 4.75 25.08.21 25.17.16l.23-.1c.57-.22 14.24-5.27 28.87-.02l-2.35 6.55c-11.64-4.18-22.97-.4-23.99-.04-1.03.45-6.35 2.57-14.5 2.57Z" class="st1"/><path d="M83.66 55.61c-4.42 0-9.68-.62-15.55-2.48-16.3-5.16-24.56-.4-24.64-.35l-3.69-5.91c.43-.27 10.77-6.61 30.43-.38 15 4.75 25.08.21 25.17.16l.23-.1c.57-.22 14.24-5.27 28.87-.02l-2.35 6.55c-11.64-4.18-22.97-.4-23.99-.04-1.03.45-6.35 2.57-14.5 2.57Z" class="st1"/><path d="M83.66 66.39c-4.42 0-9.68-.62-15.55-2.48-16.3-5.16-24.56-.4-24.64-.35l-3.69-5.91c.43-.27 10.77-6.61 30.43-.38 14.83 4.7 25.09.2 25.19.15l.22-.09c.57-.22 14.24-5.27 28.87-.02l-2.35 6.55c-11.64-4.18-22.97-.4-23.99-.04-1.03.45-6.35 2.57-14.5 2.57Z" class="st1"/><path d="M83.66 77.18c-4.42 0-9.68-.62-15.55-2.48-16.3-5.16-24.56-.4-24.64-.35l-3.69-5.91c.43-.27 10.77-6.61 30.43-.38 15 4.75 25.08.21 25.17.16l.23-.1c.57-.22 14.24-5.27 28.87-.02l-2.35 6.55c-11.64-4.18-22.97-.4-23.99-.04-1.03.45-6.35 2.57-14.5 2.57Z" class="st1"/><path d="M83.66 87.96c-4.42 0-9.68-.62-15.55-2.48-16.3-5.16-24.56-.4-24.64-.35l-3.69-5.91c.43-.27 10.77-6.61 30.43-.38 14.83 4.7 25.09.2 25.19.15l.22-.09c.57-.22 14.24-5.27 28.87-.02l-2.35 6.55c-11.64-4.18-22.97-.4-23.99-.04-1.03.45-6.35 2.57-14.5 2.57Z" class="st1"/><path d="M83.66 98.75c-4.42 0-9.68-.62-15.55-2.48-16.3-5.17-24.56-.4-24.64-.35l-3.69-5.91c.43-.27 10.77-6.61 30.43-.38 15 4.75 25.08.21 25.17.16l.23-.1c.57-.22 14.24-5.27 28.87-.02l-2.35 6.55c-11.64-4.18-22.97-.4-23.99-.04-1.03.45-6.35 2.57-14.5 2.57Z" class="st1"/><path d="M83.66 109.54c-4.42 0-9.68-.62-15.55-2.48-16.3-5.16-24.56-.4-24.64-.35l-3.69-5.91c.43-.27 10.77-6.61 30.43-.38 15 4.75 25.08.21 25.17.16l.23-.1c.57-.22 14.24-5.27 28.87-.02l-2.35 6.55c-11.64-4.18-22.97-.4-23.99-.04-1.03.45-6.35 2.57-14.5 2.57Z" class="st1"/><path d="M83.66 120.32c-4.42 0-9.68-.62-15.55-2.48-16.3-5.16-24.56-.4-24.64-.35l-3.69-5.91c.43-.27 10.77-6.61 30.43-.38 14.83 4.7 25.09.2 25.19.15l.22-.09c.57-.22 14.24-5.27 28.87-.02l-2.35 6.55c-11.64-4.18-22.97-.4-23.99-.04-1.03.45-6.35 2.57-14.5 2.57Z" class="st1"/><path d="M83.66 131.11c-4.42 0-9.68-.62-15.55-2.48-16.3-5.17-24.56-.4-24.64-.35l-3.69-5.91c.43-.27 10.77-6.61 30.43-.38 15 4.75 25.08.21 25.17.16l.23-.1c.57-.22 14.24-5.27 28.87-.02l-2.35 6.55c-11.64-4.18-22.97-.4-23.99-.04-1.03.45-6.35 2.57-14.5 2.57Z" class="st1"/></g><path d="M135.25 75.08c-1.54-.11-3.08-.22-4.62-.32-.35-.02-.71-.05-1.02-.22-.4-.22-.64-.63-.91-1-1.49-1.97-4.14-2.57-6.59-2.88-8.71-1.11-17.5-.23-26.29.33-1.87-.98-3.35-3.26-4.66-4.85-2.08-2.53-4.47-4.35-7-6.24-2.03-1.51-4.22-2.93-6.16-2.93-1.75 0-1.85 0-1.16 1.4 1.55 3.14 3.14 6.06 3.33 9.75.06 1.2-.06 2.48-.62 3.47-5.99.1-14.91 0-21.08-1.28-7.73-1.6-17.49.44-24.85 3.29-2.99 1.16-8.16 2.41-11.33 2.69-3.99.35-7.59-.64-11.61.52-1.23.35-2.42.82-3.57 1.38-.44.21-1.11.44-1.48.76-.28.25-.55.99-.84 1.12 1.66-.75 3.51-1.51 5.25-.97 1.52.47 2.59 1.81 3.98 2.57 1.43.78 3.2.9 4.72.32-1.12.5-1.1 2.21-.33 3.16.76.96 1.96 1.44 2.98 2.12 1.75 1.19 3.04 3.29 2.67 5.37.06-.34 1.63-1.46 1.92-1.91.58-.9.95-1.96 1.05-3.03.19-1.88-.74-3.47-.43-5.38.53-3.2 5.32-2.54 8.26-2.4 1.83.09 3.6.59 5.36 1.11 7.27 2.18 14.36 4.87 21.56 7.26 3.62 1.2 7.28 2.33 10.98 3.28 1.85.47 3.71.9 5.58 1.27 1.58.31 2.97.86 4.6 1.02 2.33.22 4.67.2 6.99-.05-.01.05-.03.1-.04.15-.98 3.67-4.12 6.28-6.71 9.06-.28.3-.57.63-.61 1.04-.06.58.45 1.11 1.01 1.27s1.17.05 1.74-.08c3.85-.87 7.57-2.54 10.48-5.21 2.44-2.24 4.26-5.23 4.92-8.46 1.56-.31 3.08-1.02 4.49-1.7 0 0 7-3.36 9.59-4.53 2.88-1.3 5.86-2.37 8.85-3.4 3-1.03 6.01-1.99 9-3.05 1.25-.44 3.2-.8 4.25-1.61.1-.08.19-.15.26-.23 1.05-1.09-.76-1.94-1.92-2.02Z" class="st2"/><path d="M136.59 75.3c-.42-.19-.87-.3-1.34-.34l-5.06-.39c-.86-.05-1.15-.98-1.78-1.59-.59-.64-1.35-1.11-2.13-1.47-1.59-.7-3.31-.97-5-1.17-1.69-.21-3.39-.35-5.09-.45-4.16-.24-8.31-.16-12.46.02q-.39 0-.78.03c-.67.02-1.34.06-2 .09-.31.01-.61.02-.91.04l-4.02.18c-1.19-.72-2.15-1.97-3.09-3.22-.96-1.33-2.08-2.73-3.31-3.91-1.23-1.2-2.56-2.27-3.88-3.3-1.31-1.02-2.66-2.1-4.25-2.93-.81-.41-1.67-.78-2.68-.94-.25-.04-.51-.06-.77-.07h-.65c-.24.01-.46 0-.82.06-.19.06-.46.06-.88.46-.2.23-.31.51-.34.73-.03.25 0 .36.02.51.09.44.2.63.3.85l.28.59.55 1.12c.36.74.72 1.47 1.04 2.2.65 1.47 1.16 2.96 1.39 4.48.18 1.27.24 2.61-.09 3.64-6.12.11-12.29.14-18.31-.66-1.53-.21-3.15-.58-4.8-.69-1.63-.12-3.27-.12-4.89-.03-3.25.21-6.44.77-9.57 1.57-3.13.75-6.21 1.86-9.16 2.98-3 .98-6.12 1.77-9.25 2.17-3.12.38-6.31-.25-9.59.05-1.64.13-3.25.59-4.75 1.18-.77.28-1.5.67-2.22.96-.38.19-.79.3-1.19.79-.14.2-.24.38-.34.54-.08.15-.26.32-.18.26.26-.12.53-.24.79-.35.62-.28 1.25-.53 1.93-.69-.21.1-.42.2-.64.29-.34.15-.72.34-.81.5-.06.08-.11.18-.18.29-.03.06-.07.12-.11.19-.13.18-.16.38-.59.64 1.14-.49 2.29-.95 3.43-1.04 1.16-.1 2.15.34 3.1 1.11.93.72 1.96 1.71 3.33 2.13.76.24 1.57.34 2.37.29-.02.1-.03.21-.04.31-.06.74.11 1.45.5 2.08.83 1.21 2 1.72 2.9 2.31.88.54 1.6 1.26 2.09 2.12.48.85.69 1.81.52 2.69.03-.12.07-.24.12-.35l.1-.14c.07-.11.1-.14.16-.2l.25-.28.26-.24.22-.2c.17-.15.35-.31.51-.46-.15-.6-.4-1.17-.71-1.67-.66-1.1-1.64-2-2.71-2.61-1.02-.59-2-1.07-2.49-1.77-.46-.64-.41-1.74.09-1.96.01 0 .02-.01.03-.01l-.52-1.25s-.02.01-.03.01c-1.01.39-2.18.44-3.24.12-1.08-.28-1.97-1.07-3.02-1.85-.52-.38-1.11-.77-1.78-1-.68-.24-1.41-.3-2.1-.23-.34.03-.68.1-1 .18.51-.24 1.01-.48 1.53-.68 1.46-.58 2.95-1.03 4.51-1.17 3.1-.33 6.33.28 9.59-.14 3.21-.41 6.35-1.13 9.43-2.1 3.05-1.11 6.01-2.14 9.12-2.84 6.21-1.38 12.57-1.8 18.77-.21 6.42 1.06 12.87 1.26 19.3 1.21h.63l.29-.55c1.03-1.92.84-3.84.63-5.57-.26-1.78-.85-3.47-1.53-5.04-.35-.79-.71-1.56-1.09-2.3l-.56-1.12v-.03l-.51.01c-.13 0-.28.01-.37.02.05-.03.13-.08.26-.2.29-.35.22-.62.22-.65 0 .01.06.18.13.32l.26.5h.09c.15.01.31.02.47.04.65.09 1.34.36 2.02.7 1.36.7 2.66 1.65 4 2.64 1.33.98 2.62 1.97 3.81 3.06 1.21 1.09 2.24 2.25 3.28 3.57 1.07 1.28 2.18 2.68 3.88 3.58l.19.1.2-.02 2.35-.21c.14-.01.28-.02.41-.04.15-.01.29-.02.43-.04 1.57-.14 3.14-.28 4.7-.41.19-.02.38-.03.57-.05.21-.02.41-.03.62-.05 3.74-.3 7.47-.5 11.22-.44a57 57 0 0 1 5.06.3c1.68.16 3.37.38 4.92 1.02.76.33 1.48.78 2.05 1.38.29.29.51.63.78.98.26.36.71.64 1.16.68l5.1.36c.42.04.85.15 1.24.33.37.18.77.45.85.81.06.36-.27.7-.61.94-.35.24-.75.42-1.16.58-.83.31-1.69.52-2.55.78l-2.55.84-10.19 3.33c-1.7.58-3.39 1.2-5.05 1.89l-4.91 2.17-4.9 2.18c-1.63.73-3.23 1.46-4.85 1.75l-.51.09-.13.55c-.67 2.92-2.36 5.55-4.52 7.6-2.18 2.04-4.91 3.5-7.8 4.41-.72.23-1.45.43-2.2.59-.76.21-1.41.24-1.52.13 0 0 0-.01-.02-.01-.11.14-.03.08-.07-.05.02.01.04.03.07.05 0-.01.03-.04.05-.06.42-.47 1.04-1.1 1.57-1.64 1.12-1.13 2.27-2.29 3.31-3.63 1.04-1.33 1.94-2.92 2.39-4.66l.47-1.82-1.87.19c-1.56.16-3.12.21-4.68.16-.77-.03-1.59-.09-2.31-.17-.05-.01-.09-.01-.14-.02-.12-.01-.25-.03-.38-.06 0 0 0 .01 0 0-.09-.02-.18-.03-.27-.05-.34-.07-.7-.16-1.06-.26l-.34-.09c-.49-.13-1.05-.27-1.59-.39-.3-.07-.59-.13-.86-.18l-2.01-.44-.11-.02h-.04l-.18-.05-.12-.03c-.1-.02-.21-.04-.31-.07-1.42-.32-2.82-.69-4.23-1.07-6.21-1.68-12.32-3.8-18.47-5.91-3.08-1.05-6.16-2.1-9.28-3.07-1.57-.48-3.1-.96-4.73-1.39-.82-.2-1.66-.38-2.53-.49-.43-.06-.88-.09-1.3-.11l-1.21-.05c-1.64-.06-3.35-.2-5.21.35-.91.27-1.98.92-2.48 2-.48 1.08-.43 2.05-.33 2.96.12.9.34 1.68.44 2.4.1.71.06 1.35-.12 2.05-.08.34-.2.67-.34.99-.07.16-.15.32-.24.47l-.13.22-.07.1c-.09.1-.21.2-.33.31.1.35.16.71.17 1.07.03.37.02.74-.04 1.11a.5.5 0 0 1-.07.2c0-.01.02-.01.02-.02l.17-.16.43-.37c.31-.27.62-.51.97-.86.09-.08.21-.22.31-.37l.19-.3c.12-.2.23-.4.32-.61.2-.42.36-.85.48-1.3a7 7 0 0 0 .21-2.77c-.1-.9-.31-1.69-.38-2.4-.09-.69-.03-1.42.18-1.82.21-.42.63-.71 1.26-.9 1.27-.36 2.88-.27 4.46-.16l1.23.08c.39.02.74.06 1.12.11.74.1 1.49.27 2.25.47 1.5.41 3.06.92 4.59 1.41 3.07 1 6.13 2.07 9.18 3.15 6.12 2.17 12.25 4.42 18.58 6.16 1.46.41 2.93.78 4.41 1.12l.36.09 2.42.52s.06.01.08.02c.78.14 1.42.31 2.2.52.79.22 1.65.44 2.56.56.9.1 1.7.14 2.55.17 1 .03 2 .01 2.99-.05-.97 1.93-2.62 3.66-4.32 5.4-.56.6-1.07 1.1-1.7 1.82-.17.21-.36.47-.51.85-.14.37-.19.87-.08 1.31.23.87.81 1.38 1.43 1.68 1.38.57 2.39.14 3.13-.01.81-.2 1.6-.44 2.38-.71 3.13-1.09 6.1-2.77 8.49-5.14 2.27-2.23 3.92-5.11 4.6-8.23 1.67-.46 3.15-1.25 4.59-1.97l4.79-2.39 4.79-2.37c1.61-.75 3.25-1.43 4.91-2.08 3.32-1.3 6.72-2.42 10.08-3.63l2.53-.88c.84-.26 1.71-.48 2.56-.81.42-.16.84-.36 1.22-.63.34-.26.8-.64.71-1.22-.14-.54-.61-.8-1.01-1Zm-118.1 6.07s-.02.01-.03.01l.26.63.26.62s.02-.01.03-.01z" class="st1"/><path d="m56.66 89.8-.28-.08c-.19-.06-.39-.09-.59-.11-1.38-.17-2.75-.25-4.05-.25-1.74 0-3.45.15-5.08.44-2.27.42-4.03 1.02-5.54 1.88-2.29 1.31-4.69 2.52-7.01 3.69l-.51.26c-1.06.53-2.13 1.06-3.2 1.59-.84.41-1.67.82-2.5 1.23-1.76.88-2.98 2.19-3.62 3.88-1.2 3.15.09 6.77 3.01 8.41 1.08.61 2.27.93 3.44.93 1.02 0 2.02-.23 2.96-.7.81-.4 1.62-.83 2.42-1.26.52-.28 1.03-.55 1.56-.82l2.35-1.23c2.2-1.14 4.39-2.29 6.61-3.38 2.22-1.08 4.09-2.44 5.73-4.15 1.81-1.89 3.39-4.07 4.83-6.69.09-.16.18-.32.27-.49.15-.28.31-.57.4-.91.05-.17.08-.36.09-.56 0-.2-.02-1.21-1.29-1.68m-30.13 13.77c-.05 1.09.26 2.17.92 3.31q.705 1.2 1.74 1.86c.08.05.16.11.24.17l.14.1c-.3-.05-.6-.18-.95-.38-1.73-.95-2.61-3.13-2.09-5.06m6.04-4.32c-.11-.13-.08-.17-.05-.23.08-.14.2-.21.4-.31l1.51-.76c1.17-.59 2.35-1.18 3.51-1.79 1.82-.94 3.63-1.91 5.44-2.87l.63-.34c.15-.08.27-.11.36-.11v-.4l.02.4c.19.01.21.06.22.1l-.09.14-.57.33c-.46.27-.91.54-1.38.8-2.57 1.43-5.62 3.09-8.78 4.55-.14.07-.27.14-.41.21-.21.1-.42.21-.64.3zm3.89 7.44s-.09 0-.14-.01c-.05-.06-.06-.17-.04-.28.03-.14.12-.28.23-.35.31-.21.63-.39.96-.57l.44-.25c1.75-1 3.83-2.17 5.98-3.21l4.09-1.93c.09-.05.15-.06.18-.06l.11.05c.17.1.24.21.24.28 0 .09-.09.17-.15.21-.35.24-.74.43-1.13.63l-6.74 3.48-3.67 1.92c-.11.05-.21.09-.36.09" class="st1"/><path d="m56.85 89.44-.05-.02h-.04c-.05-.02-.09-.03-.14-.05l-.13-.04a5 5 0 0 0-.65-.11c-1.4-.17-2.78-.26-4.11-.26-1.76 0-3.49.15-5.14.45-2.31.43-4.11 1.04-5.67 1.93-2.27 1.29-4.66 2.5-6.97 3.66l-.53.27c-1.07.54-2.15 1.07-3.23 1.6-.82.41-1.65.82-2.47 1.23-1.85.92-3.14 2.3-3.81 4.09-1.27 3.34.1 7.16 3.18 8.9 1.14.64 2.4.98 3.64.98 1.09 0 2.14-.25 3.13-.74.82-.41 1.62-.83 2.43-1.26.52-.28 1.04-.56 1.56-.83.78-.41 1.57-.81 2.35-1.22 2.16-1.13 4.39-2.29 6.61-3.38 2.25-1.11 4.16-2.49 5.83-4.24 1.85-1.93 3.46-4.15 4.9-6.78.08-.14.16-.28.24-.43.17-.31.34-.63.44-.97.08-.22.12-.45.13-.71.03-.69-.35-1.64-1.5-2.07m.7 2.03v.02c0 .12-.02.24-.05.35-.08.35-.25.65-.42.97-.08.15-.16.3-.24.44-1.32 2.39-2.87 4.62-4.77 6.6-1.63 1.7-3.5 3.04-5.62 4.08-3.01 1.48-5.98 3.06-8.97 4.6-1.32.69-2.63 1.42-3.97 2.09-.89.44-1.83.66-2.78.66-1.1 0-2.21-.3-3.25-.89-2.76-1.55-3.96-4.93-2.83-7.92.64-1.69 1.83-2.87 3.42-3.66 1.9-.95 3.82-1.87 5.71-2.83 2.53-1.28 5.07-2.55 7.54-3.95 1.69-.97 3.52-1.49 5.41-1.83 1.67-.31 3.33-.45 5-.45 1.34 0 2.68.09 4.02.26.17.02.35.04.53.09.09.03.19.06.29.08.97.37.99 1.14.98 1.29m-9.09 8.27c-.09-.07-.19-.1-.3-.1s-.23.03-.35.09c-1.36.65-2.73 1.28-4.09 1.94-2.05.98-4.04 2.08-6.01 3.22-.47.27-.96.52-1.42.83-.41.27-.53.85-.3 1.18.09.14.25.21.44.21.17 0 .37-.05.57-.16 1.23-.64 2.45-1.28 3.67-1.92 2.13-1.1 4.27-2.2 6.41-3.31.5-.26 1.03-.51 1.51-.82.47-.32.4-.86-.13-1.16m-4.81 2.86-2.97 1.53c1.06-.58 2.19-1.17 3.34-1.72zm1.07-9.18c.24-.14.36-.33.26-.61-.09-.27-.31-.36-.57-.37h-.04c-.19 0-.37.07-.54.16-2.02 1.07-4.04 2.15-6.07 3.21-1.66.86-3.35 1.7-5.02 2.55-.22.11-.43.22-.57.47-.13.23-.09.46.1.68.12.13.23.18.36.18.08 0 .17-.02.26-.05.37-.15.71-.35 1.07-.51 3.01-1.4 5.92-2.96 8.81-4.58.65-.37 1.3-.75 1.95-1.13M29.8 108.7c-.13-.1-.26-.21-.4-.3-.69-.43-1.2-1.03-1.6-1.72-.65-1.1-1.02-2.28-.82-3.59.03-.14 0-.28-.16-.35-.04-.02-.07-.02-.1-.02-.09 0-.17.05-.25.11-.11.09-.18.21-.23.34-.74 2.16.16 4.7 2.19 5.81.31.18.67.35 1.07.42.04.01.07.01.11.01.16 0 .3-.07.37-.23.11-.21 0-.36-.18-.48m0 0c-.13-.1-.26-.21-.4-.3-.69-.43-1.2-1.03-1.6-1.72-.65-1.1-1.02-2.28-.82-3.59.03-.14 0-.28-.16-.35-.04-.02-.07-.02-.1-.02-.09 0-.17.05-.25.11-.11.09-.18.21-.23.34-.74 2.16.16 4.7 2.19 5.81.31.18.67.35 1.07.42.04.01.07.01.11.01.16 0 .3-.07.37-.23.11-.21 0-.36-.18-.48m18.66-8.96c-.09-.07-.19-.1-.3-.1s-.23.03-.35.09c-1.36.65-2.73 1.28-4.09 1.94-2.05.98-4.04 2.08-6.01 3.22-.47.27-.96.52-1.42.83-.41.27-.53.85-.3 1.18.09.14.25.21.44.21.17 0 .37-.05.57-.16 1.23-.64 2.45-1.28 3.67-1.92 2.13-1.1 4.27-2.2 6.41-3.31.5-.26 1.03-.51 1.51-.82.47-.32.4-.86-.13-1.16m-4.81 2.86-2.97 1.53c1.06-.58 2.19-1.17 3.34-1.72zm1.33-9.79c-.09-.27-.31-.36-.57-.37h-.04c-.19 0-.37.07-.54.16-2.02 1.07-4.04 2.15-6.07 3.21-1.66.86-3.35 1.7-5.02 2.55-.22.11-.43.22-.57.47-.13.23-.09.46.1.68.12.13.23.18.36.18.08 0 .17-.02.26-.05.37-.15.71-.35 1.07-.51 3.01-1.4 5.92-2.96 8.81-4.58.65-.37 1.3-.75 1.95-1.13.24-.14.36-.33.26-.61m3.48 6.93c-.09-.07-.19-.1-.3-.1s-.23.03-.35.09c-1.36.65-2.73 1.28-4.09 1.94-2.05.98-4.04 2.08-6.01 3.22-.47.27-.96.52-1.42.83-.41.27-.53.85-.3 1.18.09.14.25.21.44.21.17 0 .37-.05.57-.16 1.23-.64 2.45-1.28 3.67-1.92 2.13-1.1 4.27-2.2 6.41-3.31.5-.26 1.03-.51 1.51-.82.47-.32.4-.86-.13-1.16m-4.81 2.86-2.97 1.53c1.06-.58 2.19-1.17 3.34-1.72zm1.07-9.18c.24-.14.36-.33.26-.61-.09-.27-.31-.36-.57-.37h-.04c-.19 0-.37.07-.54.16-2.02 1.07-4.04 2.15-6.07 3.21-1.66.86-3.35 1.7-5.02 2.55-.22.11-.43.22-.57.47-.13.23-.09.46.1.68.12.13.23.18.36.18.08 0 .17-.02.26-.05.37-.15.71-.35 1.07-.51 3.01-1.4 5.92-2.96 8.81-4.58.65-.37 1.3-.75 1.95-1.13M29.8 108.7c-.13-.1-.26-.21-.4-.3-.69-.43-1.2-1.03-1.6-1.72-.65-1.1-1.02-2.28-.82-3.59.03-.14 0-.28-.16-.35-.04-.02-.07-.02-.1-.02-.09 0-.17.05-.25.11-.11.09-.18.21-.23.34-.74 2.16.16 4.7 2.19 5.81.31.18.67.35 1.07.42.04.01.07.01.11.01.16 0 .3-.07.37-.23.11-.21 0-.36-.18-.48" class="st2"/><path d="M80.26 93.22c-.65 0-1.18-.32-1.64-.85-.84-.97-3.74-.81-2.77-1.65l23.64-19.98c.97-.84 3.34-1.34 4.18-.37s1.95 1.2.99 2.04L83.63 91.83c-.44.38-1.28.55-3.37 1.39" class="st1"/><path d="M105.31 71.3c-.12-.15-.24-.27-.36-.37-.22-.19-.43-.31-.62-.48l-.02-.02c-.14-.11-.24-.21-.39-.36-.06-.06-.12-.11-.19-.16-.14-.1-.29-.19-.44-.24-.91-.31-1.77-.14-2.57.11-.23.08-.46.17-.68.29-.16.08-.31.17-.46.27-.2.15-.36.29-.52.43-.13.12-.26.24-.4.36-.15.13-.29.27-.44.39-.45.4-.9.79-1.35 1.18-1.2 1.04-2.4 2.08-3.63 3.07-2.44 2.03-4.98 3.93-7.45 5.93-2.46 1.99-4.84 4.09-7.24 6.17-.6.51-1.18 1.05-1.77 1.58l-.88.8c-.14.15-.3.2-.49.53-.02.03-.04.06-.05.1-.04.19.06.47.19.53.13.11.24.15.35.2.79.26 1.53.3 2.18.61.03 0 .05.02.08.03.3.14.53.51.91.72.08.05.16.1.25.14.05.02.11.05.17.06.14.05.28.08.43.09.11.03.23.03.35.02.77-.27 1.51-.5 2.28-.73l.1-.03c.35-.12.69-.21 1.05-.45.35-.26.62-.51.93-.77l3.61-3.11c2.38-2.09 4.76-4.18 7.08-6.34 2.36-2.12 4.65-4.31 6.95-6.49l1.72-1.65.86-.82c.13-.14.32-.28.48-.53.08-.14.17-.31.16-.53 0-.23-.1-.41-.18-.53m-.76.55c-.06.08-.18.19-.34.32l-.89.79-1.77 1.59c-2.36 2.12-4.72 4.23-7.02 6.41-2.34 2.14-4.62 4.36-6.89 6.56l-3.39 3.35-.83.83c-.25.21-.63.37-.99.52-.15.06-.29.12-.44.19-.59.24-1.18.49-1.74.75-.18-.01-.36-.05-.53-.13 0 .01-.01 0-.01 0-.17-.07-.33-.17-.48-.29-.27-.18-.43-.5-.75-.75l-.12-.09c-.72-.45-1.56-.59-2.23-.85s-.06-.03-.08-.04c0 0-.02.01-.03.02-.02.01-.03.03-.03.03v-.04c0-.02 0-.05-.01-.07.01 0 .04.03.08.06.07-.07.2-.17.29-.25l.94-.74c.62-.49 1.25-.97 1.86-1.48 2.45-2.01 4.91-4.01 7.29-6.11s4.67-4.29 7.08-6.35c1.19-1.05 2.41-2.06 3.63-3.07.61-.51 1.23-1.01 1.85-1.5a.5.5 0 0 0 .08-.07c.28-.22.57-.48.83-.64.06-.04.13-.07.19-.1 0-.01 0-.02.02 0 .25-.15.53-.26.8-.34.71-.2 1.52-.26 2.11-.01q.135.06.24.15c.04.03.08.06.11.1.11.12.26.29.4.43 0 .01.02.02.03.03.28.29.66.57.78.75 0 0-.01.01-.02.04Z" class="st2"/><path d="M70.16 95.75c-10.03.58-14.52-3.28-14.71-3.45l1.02-1.16s4.27 3.6 13.6 3.06h.1c9.24-.57 11.45-5.12 11.54-5.31l1.41.63c-.1.23-2.6 5.59-12.85 6.21h-.11Z" class="st2"/></svg>