<svg xmlns="http://www.w3.org/2000/svg" xmlns:xlink="http://www.w3.org/1999/xlink" id="Capa_1" viewBox="0 0 158.48 83.83"><defs><linearGradient id="Degradado_sin_nombre_6" x1="106.31" x2="115.9" y1="27.29" y2="41.27" data-name="Degradado sin nombre 6" gradientUnits="userSpaceOnUse"><stop offset="0" stop-color="#1f3f8f"/><stop offset=".06" stop-color="#17519e"/><stop offset=".19" stop-color="#0a72bb"/><stop offset=".3" stop-color="#0286cc"/><stop offset=".38" stop-color="#008ed3"/><stop offset=".66" stop-color="#1f3f8f"/></linearGradient><linearGradient xlink:href="#Degradado_sin_nombre_6" id="Degradado_sin_nombre_61" x1="124.17" x2="154.37" y1="25.55" y2="69.56" data-name="Degradado sin nombre 6"/><linearGradient xlink:href="#Degradado_sin_nombre_6" id="Degradado_sin_nombre_62" x1="2.42" x2="36.44" y1="59.27" y2="59.27" data-name="Degradado sin nombre 6"/><linearGradient id="Degradado_sin_nombre_5" x1="76.62" x2="46.02" y1="-2.04" y2="12.43" data-name="Degradado sin nombre 5" gradientUnits="userSpaceOnUse"><stop offset=".32" stop-color="#00a9ce"/><stop offset=".44" stop-color="#00a5cb"/><stop offset=".56" stop-color="#009ac4"/><stop offset=".68" stop-color="#0087b9"/><stop offset=".77" stop-color="#0072ac"/></linearGradient><linearGradient xlink:href="#Degradado_sin_nombre_6" id="Degradado_sin_nombre_63" x1="13.43" x2="25.27" y1="79.4" y2="79.4" data-name="Degradado sin nombre 6"/><linearGradient xlink:href="#Degradado_sin_nombre_6" id="Degradado_sin_nombre_64" x1="11.19" x2="27.79" y1="74.12" y2="74.12" data-name="Degradado sin nombre 6"/><linearGradient xlink:href="#Degradado_sin_nombre_6" id="Degradado_sin_nombre_65" x1="8.13" x2="31.42" y1="68.22" y2="68.22" data-name="Degradado sin nombre 6"/><linearGradient xlink:href="#Degradado_sin_nombre_6" id="Degradado_sin_nombre_66" x1="6.78" x2="33.07" y1="62.51" y2="62.51" data-name="Degradado sin nombre 6"/><linearGradient xlink:href="#Degradado_sin_nombre_6" id="Degradado_sin_nombre_67" x1="5.39" x2="34.83" y1="56.44" y2="56.44" data-name="Degradado sin nombre 6"/><linearGradient xlink:href="#Degradado_sin_nombre_6" id="Degradado_sin_nombre_68" x1="86.32" x2="120.83" y1="34.98" y2="85.27" data-name="Degradado sin nombre 6"/><style>.st2{fill:#fff}</style></defs><path d="M112.59 40.32a13.7 13.7 0 0 1-2.82 3.36c-.22.19-.44.37-.67.56l-4.25-9.36c-.91-1.91-1.18-3.68-.83-5.23.37-1.57 1.18-2.82 2.41-3.71s2.75-1.35 4.54-1.35c.93 0 1.77.1 2.51.29.13.32.25.64.35.98.59 1.77.88 3.73.88 5.9 0 3.32-.71 6.17-2.12 8.57Z" style="fill:url(#Degradado_sin_nombre_6)"/><path d="m157.6 30.57-19.58 43.04c-.78 1.7-1.74 2.97-2.85 3.78-1.13.81-2.61 1.2-4.47 1.2s-3.24-.39-4.4-1.2c-1.18-.81-2.16-2.07-2.93-3.78L110.5 45.28c1.43-1.16 2.61-2.53 3.54-4.1 1.57-2.65 2.36-5.82 2.36-9.43 0-1.62-.15-3.14-.46-4.55.84.88 1.55 2.04 2.14 3.51l12.9 29.87 12.9-29.93c2.34-4.42 7.39-5.68 10.86-5.68 2.04 0 3.52.44 3.63.93.27 1.32.02 2.88-.78 4.69Z" style="fill:url(#Degradado_sin_nombre_61)"/><path d="M106.94 26.61c1.08-.77 2.41-1.18 4.03-1.18 1.11 0 2.06.14 2.87.43-.1-.34-.22-.66-.36-.98-.13-.32-.27-.64-.42-.95-.64-.13-1.35-.18-2.09-.18-1.97 0-3.66.5-5.02 1.5-1.42 1.03-2.33 2.44-2.75 4.21-.41 1.74-.1 3.7.89 5.79l4.3 9.48c.24-.17.47-.32.71-.49.24-.19.45-.37.67-.56l-4.14-9.14c-.85-1.77-1.1-3.34-.78-4.7.32-1.37 1.01-2.45 2.09-3.23" class="st2"/><path d="M36.5 6.43c-.54-.29-1.07-.58-1.61-.87.52.27 1.04.55 1.55.84z" style="fill:none"/><path d="M36.44 53.26c-3.39 1.32-4.2 5.4-5.1 8.5-1.26 4.31-2.32 8.68-3.76 12.94-.11.32-.21.65-.34.96-1.25 2.97-3.85 3.71-6.48 1.81-1.7-1.22-3.02-2.81-4.21-4.51-2.6-3.72-4.74-7.7-6.61-11.83-3.1-6.85-5.74-13.84-7.52-21.1 10.77 19.71 34.02 13.23 34.02 13.23" style="fill:url(#Degradado_sin_nombre_62)"/><path d="M70.04 63.22c.17.96.49 1.84.96 2.61-2.01 4.18-4.23 8.23-7.2 11.82-.73.89-1.53 1.74-2.45 2.41l-.05.05c-.25.19-.52.34-.81.51-.07.03-.12.08-.19.12h-.03s-.08.07-.12.08c-2.18 1.11-4.22.47-5.38-1.64 0-.02-.02-.03-.02-.03v-.02s-.02-.03-.03-.05c-.24-.44-.42-.89-.57-1.37-.02-.05-.03-.1-.05-.15-.46-1.25-4.42-13.44-9.38-19.76-1.91-2.43-5.45-4.13-8.28-4.55 0 0-.02 0-.05.02-.03 0-.07.02-.12.03-.1.02-.24.05-.44.1-.94.22-2.97.61-5.62.79-.49.03-.99.05-1.52.07-1.52.03-3.19 0-4.96-.2-.73-.07-1.47-.17-2.23-.32-2.53-.44-5.19-1.23-7.79-2.53-.46-.24-.91-.47-1.37-.76-.2-.1-.42-.24-.62-.37-.46-.27-.89-.56-1.33-.88-.54-.39-1.08-.79-1.6-1.23l-.02-.02c-.39-.34-.78-.67-1.16-1.06-.13-.1-.25-.22-.37-.35-.25-.25-.51-.51-.76-.78-1.48-1.6-2.87-3.51-4.08-5.73Q1.14 34.3.73 31.36C.26 28.02.06 24.67.6 21.29c.94-5.9 3.52-10.96 8.2-14.72C14.14 2.28 19.92.62 26.11 1.99c2.85.91 4.55 1.5 8.77 3.58.54.25 1.1.49 1.57.84.02.02.03.02.05.03 18.42 14.12 31.42 7.49 35.28 1.21.03-.07.08-.15.12-.22.19-.29.32-.57.46-.86.24.19.46.39.67.61.08.05.17.13.25.22 1.96 1.82 3.56 4.01 4.79 6.48-.32 0-.64.02-.93.05-2.06.2-3.73.93-4.99 2.18-1.53 1.48-2.31 3.63-2.31 6.32v38.65c0 .76.07 1.47.2 2.14" class="st2"/><path d="M79.32 39.81c-1.35 7.17-4.25 16.93-7.39 24-.27-.81-.4-1.72-.4-2.73V22.43c0-2.24.61-3.95 1.8-5.13 1.1-1.08 2.63-1.65 4.59-1.74.17-.02.34-.02.51-.02h.44c.05.12.12.25.17.39.88 2.14 2.77 10.81.29 23.88Z" class="st2"/><path d="M79.69 15.55h-1.27c-.17 0-.33 0-.5.02 1.43 3.4 1.92 7.23 1.85 11.4-.08 11.38-3.72 22.55-8.24 32.93v1.18c0 1.02.13 1.93.4 2.74.25.82.66 1.53 1.22 2.14.21-.53.43-1 .62-1.45 4.5-12.04 7.52-24.67 7.55-37.56-.01-4.13-.43-7.92-1.63-11.4m-6.58-9.88-.28-.24a.6.6 0 0 0-.11-.11q-.21-.21-.42-.39c-.05-.05-.11-.1-.16-.15l-.12-.11v.02l-.76 1.4C66.42 14.3 54.98 14 47.24 10.27c-1.63-.72-3.25-1.6-4.84-2.56 0 0-.03-.02-.05-.02-1.62-.98-3.19-2.04-4.69-3.08-3.47-1.91-7.33-3.33-11.18-4.3C13.73-1.99 1.88 9.03.36 21.27c-.84 5.29-.07 10.77.81 16.09.35 2.09 1.06 4.09 2.11 5.93v.01c.16.31.33.62.53.9 3.65 5.48 8.89 9.14 14.85 11.02.02.01.04.01.05.01 4.45 1.42 9.29 1.82 14.17 1.25h.09c.07 0 .12-.02.17-.03 1.1-.14 2.18-.31 3.27-.54 1.82.37 3.76 1.31 5.15 2.49 1.63 1.5 2.66 3.44 3.77 5.37 2.65 4.78 4.69 10.15 6.65 15.38.94 2.79 3.72 5.09 6.83 4.62 5.92-.91 10.71-9.82 13.57-16.14-.11-.1-.23-.21-.33-.32-.43-.44-.8-.93-1.07-1.47q-.705-1.17-.96-2.61c-2.14 4.33-4.48 8.6-7.42 12.21-1.09 1.36-2.06 2.41-3.44 3.17-1.01.59-1.73.3-2.22-.7l-.26-.65-.13-.34c-1.77-5.38-3.71-10.64-6.49-15.75-1.39-2.41-2.89-5.06-5.08-6.87-.51-.42-1.03-.79-1.57-1.14-3-1.91-6.64-2.46-10.13-1.86-2.16.39-4.41.56-6.56.58-8.5.18-15.84-2.89-20.93-8.55-1.64-1.84-2.8-4.07-3.43-6.45C1.05 31.83.06 26.48.87 21.35 2.01 12.47 8.83 5.1 17.55 3.31c2.74-.56 5.54-.37 8.19.35 1.23.53 3.96 1.57 5.63 2.48 1.23.66 2.68 1.3 3.88 2.08.68.48 2.06 1.51 2.73 2 4.24 2.97 9.04 5.25 14.15 6.19 7.61 1.45 16.55-1.04 20.59-7.97 1.91 1.66 3.34 3.5 4.42 5.49.29-.03.61-.05.93-.05h.96c-1.26-2.96-3.17-5.69-5.92-8.2Z" style="fill:#00a9ce"/><path d="M41.27 7.34c1.05.51 1.91.51 2.87 0 .11-.06.21-.13.32-.19 1.46-.93 2.93-1.84 4.42-2.72a61 61 0 0 1 3.07-1.7c5.29-2.7 10.64-2.77 16.03-.44 1.45.63 3.21 1.49 4.85 3.13-1.19 4.08-13.57 17.38-33.74.88.62.51 1.45.69 2.17 1.05Z" style="fill:url(#Degradado_sin_nombre_5)"/><path d="M13.43 76.14s5.29 9.54 11.85 2.91z" class="st2"/><path d="M13.43 76.14c1.1.97 2.1 1.81 3.08 2.49s1.92 1.13 2.83 1.33c.91.18 1.84.19 2.82-.03.49-.08.96-.29 1.51-.39.5-.18 1.01-.38 1.61-.5-.2.59-.5 1.1-.8 1.62-.39.43-.77.89-1.27 1.21-.98.67-2.34.97-3.79.65-1.46-.32-2.87-1.29-3.89-2.45-1.02-1.17-1.78-2.52-2.09-3.93Z" style="fill:url(#Degradado_sin_nombre_63)"/><path d="M11.19 70.13s7.33 11.39 16.6 3.68z" class="st2"/><path d="M11.19 70.13c1.53 1.19 2.92 2.19 4.3 2.97 1.37.78 2.69 1.32 4 1.54.33.11.65.08.98.13.16.02.33.06.5.06.16 0 .32-.02.49-.02.33-.02.67.04 1-.02.33-.05.66-.09 1.01-.12.36 0 .68-.12 1.02-.19s.7-.14 1.07-.19c.69-.19 1.41-.39 2.23-.5-.34.73-.79 1.38-1.27 2-.28.26-.57.52-.87.77-.31.24-.59.51-.97.66-1.37.79-3.15 1.06-5 .73-1.87-.33-3.75-1.41-5.23-2.82-1.48-1.42-2.67-3.16-3.25-5.02Z" style="fill:url(#Degradado_sin_nombre_64)"/><path d="M8.13 63.91s10.12 11.75 23.29 4.59z" class="st2"/><path d="M8.13 63.91c2.06 1.31 4.01 2.36 5.96 3.18 1.94.81 3.84 1.41 5.74 1.72.47.1.94.11 1.42.18.24.03.48.08.71.09.23 0 .47 0 .7.01.47.01.95.06 1.43.05.47-.03.94-.05 1.42-.06.24-.02.49 0 .72-.02l.71-.09c.48-.05.97-.09 1.46-.13.97-.13 1.93-.31 3.02-.35-.66.75-1.39 1.43-2.19 2.02-.42.25-.86.5-1.3.73-.44.24-.9.46-1.4.59-.49.15-.99.3-1.49.42-.51.12-1.06.13-1.59.2-.27.03-.54.04-.81.06-.28 0-.56-.03-.84-.04-.56-.06-1.12-.07-1.69-.17-2.28-.38-4.62-1.38-6.71-2.81-2.08-1.44-4-3.33-5.25-5.6Z" style="fill:url(#Degradado_sin_nombre_65)"/><path d="M6.78 58.22s11.35 11.71 26.3 4.56z" class="st2"/><path d="M6.78 58.22c2.31 1.35 4.52 2.39 6.73 3.19 2.2.8 4.36 1.37 6.52 1.69.54.08 1.07.11 1.61.17.27.03.54.08.81.09.27 0 .53 0 .8.01.53.01 1.08.06 1.61.05.53-.03 1.06-.05 1.61-.06.27-.02.55 0 .81-.02l.8-.09c.54-.05 1.08-.1 1.64-.13 1.09-.11 2.16-.32 3.36-.34-.78.76-1.66 1.43-2.58 2.03-.49.25-.98.5-1.49.73-.5.24-1.02.46-1.57.59-.55.15-1.1.29-1.66.42s-1.16.13-1.75.2c-1.17.15-2.42-.01-3.65-.12-2.49-.37-5.04-1.3-7.41-2.71-2.35-1.42-4.59-3.31-6.19-5.7" style="fill:url(#Degradado_sin_nombre_66)"/><path d="M5.39 52.21S18 63.81 34.84 56.56c0 0-9.82-.38-14.72-1.11-4.9-.72-14.72-3.24-14.72-3.24Z" class="st2"/><path d="M5.39 52.21c2.58 1.37 5.07 2.38 7.54 3.16s4.91 1.3 7.33 1.61l1.81.15c.61.09 1.2.07 1.8.08.6 0 1.21.05 1.81.03.59-.04 1.19-.06 1.8-.07.3-.02.61 0 .91-.03l.89-.09c.6-.06 1.21-.1 1.83-.14 1.22-.12 2.41-.33 3.72-.36-.92.77-1.92 1.45-2.98 2.06-.55.26-1.11.5-1.67.74s-1.14.47-1.75.6c-.61.15-1.22.3-1.84.43-.62.14-1.28.14-1.92.21-1.28.16-2.64.01-3.98-.07-2.72-.35-5.5-1.2-8.15-2.57-2.63-1.38-5.2-3.25-7.15-5.74" style="fill:url(#Degradado_sin_nombre_67)"/><path d="m113.69 59.18-3.6-6.61c-1.08-2.04-2.41-3.58-4.03-4.57-.77-.49-1.6-.86-2.48-1.1.98-.29 1.91-.62 2.77-1.03.73-.33 1.4-.72 2.04-1.14.24-.17.47-.32.71-.49.24-.19.45-.37.67-.56 1.13-.96 2.06-2.09 2.82-3.36 1.42-2.39 2.12-5.24 2.12-8.56 0-2.18-.28-4.13-.87-5.9-.1-.34-.22-.66-.36-.98-.13-.32-.27-.64-.42-.95a13.6 13.6 0 0 0-3.1-4.09c-3.19-2.85-7.69-4.29-13.49-4.29H78.42c-.17 0-.33 0-.5.02q-2.94.12-4.59 1.74c-1.2 1.18-1.8 2.88-1.8 5.12v38.65c0 1.02.13 1.93.4 2.74.25.82.66 1.53 1.22 2.14.03.07.1.13.15.18 1.16 1.22 2.85 1.82 5.06 1.82s3.79-.6 4.94-1.82c1.14-1.23 1.72-2.91 1.72-5.06V47.95h4.03c1.18 0 2.22.22 3.12.62.91.42 1.65 1.15 2.24 2.18l6.66 12.37c.93 1.67 2.01 2.89 3.21 3.68 1.19.78 2.71 1.16 4.57 1.16.38 0 .87.02 1.45.02 2.42 0 6.03-.1 6.1-1.18.07-1.31-1.89-6.15-2.71-7.62m-13.82-22.3c-1.34 1.03-3.32 1.54-5.9 1.54h-8.95V25.89h8.95c2.58 0 4.56.51 5.9 1.53 1.34 1.03 2.01 2.62 2.01 4.78s-.67 3.66-2.01 4.68" style="fill:url(#Degradado_sin_nombre_68)"/></svg>