<svg xmlns="http://www.w3.org/2000/svg" id="Capa_1" viewBox="0 0 113.01 127.25"><defs><style>.st0{fill:#030404}</style></defs><g id="j2yp1y"><path d="M36.36 110.61c-7.77-3.66-15.53-7.32-23.3-10.99-2.67-1.26-3.28-2.79-2.03-5.48C14.8 86.06 18.61 78 22.44 69.95c1.26-2.64 2.89-3.17 5.55-1.91 15.62 7.36 31.24 14.73 46.85 22.1 2.72 1.28 3.22 2.72 1.92 5.46-3.82 8.11-7.65 16.22-11.48 24.32-1.21 2.56-2.66 3.08-5.25 1.86-7.9-3.71-15.79-7.44-23.68-11.17Zm2.26-4.33c7.12 3.36 14.25 6.7 21.36 10.1 1.09.52 1.65.4 2.18-.75 2.91-6.29 5.89-12.55 8.86-18.82.45-.94.46-1.33-.79-1.25-8.47.56-16.94 1.02-25.41 1.63-1.54.11-2.38-.37-3.24-1.58-4.87-6.84-9.82-13.61-14.75-20.4-.88-1.21-.92-1.21-1.58.19-2.9 6.14-5.8 12.28-8.7 18.43-.79 1.67-.78 1.68.95 2.5 7.04 3.32 14.08 6.64 21.11 9.96ZM33.5 76.12c.25.38.31.5.39.61 3.6 4.96 7.2 9.91 10.78 14.89.44.61.94.66 1.59.62 3.86-.24 7.72-.46 11.57-.7 2.27-.14 4.54-.3 6.8-.45 0-.09.01-.18.02-.26-10.28-4.85-20.55-9.7-31.15-14.7Z" class="st0"/><path d="M19.42 42.31C25.66 29.08 31.9 15.86 38.14 2.63c1.31-2.78 2.6-3.24 5.4-1.92l60.03 28.32c2.69 1.27 3.24 2.75 1.97 5.46-4.13 8.8-8.3 17.57-12.42 26.38-.55 1.17-1.13 1.4-2.29.81-3.24-1.62-3.01-1.07-1.52-4.24 3.55-7.56 7.1-15.12 10.71-22.65.61-1.27.45-1.86-.86-2.48C80.62 23.61 62.11 14.87 43.6 6.1c-1.22-.58-1.78-.4-2.36.84-11.69 24.9-23.42 49.77-35.19 74.63-.62 1.3-.46 1.96.89 2.45 1.06.39 2.05.96 3.07 1.44.71.34.98.85.61 1.6-.02.04-.04.09-.06.13-1.8 3.85-1.22 3.25-4.44 1.8-1.21-.54-2.39-1.12-3.59-1.69C-.1 86.05-.59 84.7.64 82.1l18.78-39.81Z" class="st0"/><path d="M101.62 102.01c-3.58 7.59-7.16 15.19-10.75 22.78-1.23 2.6-2.46 3.04-5.07 1.81-4.48-2.11-8.94-4.26-13.45-6.31-1.24-.57-1.64-1.11-.94-2.44 1.55-2.95.9-2.99 4.16-1.46 3.37 1.58 6.75 3.15 10.1 4.78 1.02.5 1.57.38 2.08-.71 6.43-13.71 12.89-27.4 19.38-41.08.49-1.04.22-1.48-.75-1.94-10.16-4.77-20.32-9.55-30.46-14.37-1.07-.51-1.57-.3-2.05.75-1.62 3.56-6.7 14.12-8.32 17.68-.53 1.16-1.1 1.43-2.28.84-3.2-1.61-3.04-1.06-1.55-4.24 1.78-3.8 6.91-14.64 8.72-18.43 1.27-2.67 2.69-3.26 5.34-2.01C87.4 63.1 99 68.58 110.59 74.08c2.56 1.21 2.97 2.58 1.76 5.15-3.58 7.59-7.16 15.19-10.75 22.78ZM49.92 30.77c-3.03-1.46-4.39-5.33-2.93-8.31 1.48-3.02 5.31-4.39 8.32-2.97 3.06 1.44 4.44 5.37 2.95 8.44-1.46 3.01-5.3 4.31-8.34 2.84" class="st0"/><path d="M85.66 70.97c2.71 1.29 3.93 4.59 2.69 7.29-1.27 2.75-4.68 4.02-7.43 2.75-2.76-1.28-3.97-4.65-2.67-7.43s4.6-3.94 7.41-2.6ZM35.66 97.8c-1.32 2.84-4.56 4.05-7.36 2.73-2.77-1.31-4-4.67-2.7-7.43 1.27-2.7 4.76-3.92 7.47-2.63 2.68 1.28 3.85 4.61 2.58 7.33Z" class="st0"/></g></svg>