<svg xmlns="http://www.w3.org/2000/svg" id="Capa_1" viewBox="0 0 177.49 57.01"><defs><style>.st0{fill:#ff0031}.st1{fill:#606060}</style></defs><path d="M0 31.46h25.34V56.8H0z" class="st0"/><path d="M19.7.59c-.13-.14-.32-.21-.56-.21H2.09c-.25 0-.44.07-.58.22q-.21.225-.21.6v4.25c0 .2.07.38.21.56s.34.27.6.27h11.14v4.26H4.66c-.22 0-.4.05-.55.15-.14.11-.21.28-.21.52v3.71c0 .16.06.31.19.46.12.15.31.23.55.23h8.61v4.4H1.7c-.52 0-.77.26-.77.78v4.32c0 .12.04.22.13.31.05.32.28.48.71.48h17.37c.23 0 .42-.06.55-.18.14-.12.21-.31.21-.56V1.17a.85.85 0 0 0-.2-.58M42.55 22.94l-2.93-4.22c-.14-.19-.28-.29-.42-.31-.13-.03-.31.03-.51.15-.56.43-1.19.76-1.88.99-.68.24-1.4.35-2.16.35-.94 0-1.8-.17-2.6-.53-.79-.36-1.47-.84-2.04-1.45-.57-.62-1.02-1.33-1.34-2.15s-.48-1.7-.48-2.64.16-1.82.48-2.64c.32-.83.77-1.55 1.34-2.17a6.1 6.1 0 0 1 2.04-1.46c.8-.36 1.66-.53 2.6-.53.76 0 1.47.11 2.15.34a6.7 6.7 0 0 1 1.85.98c.21.13.38.17.53.15.14-.03.28-.14.4-.34l2.91-4.12c.12-.26.14-.47.05-.66a1.07 1.07 0 0 0-.43-.44C41.03 1.51 39.88.96 38.66.58 37.44.19 36.14 0 34.77 0c-1.22 0-2.38.16-3.5.48-1.12.31-2.16.75-3.13 1.32-.98.56-1.86 1.25-2.66 2.05-.79.8-1.48 1.69-2.05 2.67-.58.98-1.02 2.03-1.33 3.15-.3 1.12-.46 2.28-.46 3.5s.16 2.38.46 3.49c.31 1.12.75 2.16 1.33 3.13.57.97 1.26 1.85 2.05 2.65.8.79 1.68 1.48 2.66 2.05.97.57 2.01 1.02 3.13 1.32 1.12.31 2.28.47 3.5.47 1.37 0 2.68-.2 3.93-.59q1.86-.6 3.48-1.68c.19-.11.33-.26.43-.43.09-.17.07-.38-.06-.64M68.28.61c-.15-.15-.35-.23-.62-.23h-5.02c-.24 0-.43.08-.57.22-.15.15-.22.33-.22.54v14.58c0 .76-.11 1.43-.33 2.02-.23.58-.53 1.07-.91 1.47-.39.39-.84.69-1.35.89s-1.05.3-1.63.3c-.55 0-1.08-.08-1.59-.26-.51-.17-.96-.44-1.34-.81-.39-.38-.7-.86-.93-1.45-.24-.59-.35-1.31-.35-2.16V1.14c0-.22-.1-.4-.29-.54-.19-.15-.37-.22-.54-.22h-5.14c-.19 0-.36.08-.49.23-.13.16-.2.33-.2.53v14.48c0 1.97.3 3.64.89 5 .59 1.35 1.38 2.45 2.38 3.3 1 .84 2.15 1.45 3.47 1.82s2.7.56 4.14.56 2.82-.18 4.14-.55c1.31-.36 2.46-.95 3.46-1.78s1.79-1.93 2.38-3.29c.59-1.37.88-3.05.88-5.06V1.14c0-.2-.07-.37-.22-.53M95.45 25.13 86.43 1.86 86 .88c-.07-.09-.17-.2-.31-.32s-.31-.18-.5-.18h-4.4c-.09 0-.19.02-.29.06s-.2.1-.29.16c-.1.07-.17.15-.24.23-.06.08-.1.15-.11.22l-9.33 24.16c-.09.23-.06.4.08.52.14.11.32.17.54.17h5.07c.44 0 .73-.21.88-.64q.315-.87.66-1.74l.66-1.74h9.12l.66 1.74c.22.58.44 1.16.67 1.74.08.23.19.4.33.49.15.1.35.15.61.15h4.93q.465 0 .66-.21c.12-.15.14-.33.05-.56m-15.11-8.87c.22-.59.44-1.21.67-1.88q.33-1.005.66-2.04c.21-.69.44-1.37.66-2.04q.33-1.02.66-1.89l2.63 7.85zM120.5 9.71c-.32-1.1-.76-2.12-1.33-3.07-.56-.96-1.25-1.81-2.05-2.58s-1.69-1.43-2.65-1.98a13.43 13.43 0 0 0-6.61-1.72h-8.47c-.27 0-.47.08-.6.23a.85.85 0 0 0-.2.58v24.01c0 .3.08.49.24.58s.35.14.56.14h8.47c1.2 0 2.36-.15 3.49-.44 1.12-.29 2.16-.7 3.13-1.24s1.85-1.2 2.65-1.96c.79-.77 1.48-1.63 2.05-2.57.58-.95 1.02-1.97 1.33-3.06.3-1.09.46-2.25.46-3.46s-.16-2.36-.47-3.46m-6.62 5.95c-.32.77-.75 1.43-1.31 2a6.5 6.5 0 0 1-1.95 1.38c-.74.34-1.54.55-2.4.62-.25.02-.51.05-.76.06-.25.02-.51.03-.77.03h-1.44V6.53h2.26c.94 0 1.83.17 2.66.49a6.588 6.588 0 0 1 3.64 3.47c.36.81.54 1.7.54 2.66 0 .9-.15 1.74-.47 2.51M150.09 9.67q-.48-1.68-1.32-3.15c-.57-.98-1.26-1.87-2.06-2.67s-1.69-1.49-2.66-2.05Q142.58.945 140.9.48c-1.13-.32-2.29-.48-3.49-.48s-2.39.16-3.5.48c-1.12.31-2.17.75-3.14 1.32-.98.56-1.86 1.25-2.66 2.05-.79.8-1.48 1.69-2.05 2.67-.58.98-1.02 2.03-1.33 3.15s-.46 2.28-.46 3.5.15 2.38.46 3.49c.31 1.12.75 2.16 1.33 3.13.57.97 1.26 1.85 2.05 2.65.8.79 1.68 1.48 2.66 2.05.97.57 2.02 1.02 3.14 1.32 1.11.31 2.28.47 3.5.47s2.36-.16 3.49-.47c1.12-.3 2.17-.75 3.15-1.32.97-.57 1.86-1.26 2.66-2.05.8-.8 1.49-1.68 2.06-2.65.56-.97 1-2.01 1.32-3.13.31-1.11.47-2.28.47-3.49s-.16-2.38-.47-3.5m-6.66 6.14q-.48 1.245-1.35 2.16a6.2 6.2 0 0 1-2.06 1.44c-.79.35-1.66.53-2.61.53s-1.82-.18-2.61-.53-1.48-.83-2.05-1.44a6.5 6.5 0 0 1-1.35-2.16c-.32-.82-.48-1.71-.48-2.66s.16-1.83.48-2.66.77-1.55 1.35-2.17a6.1 6.1 0 0 1 2.05-1.46c.79-.36 1.66-.53 2.61-.53s1.82.17 2.61.53c.8.35 1.49.84 2.06 1.46.58.62 1.03 1.34 1.35 2.17s.48 1.72.48 2.66-.16 1.84-.48 2.66M175.6 24.77c-.13-.22-.23-.41-.31-.57l-4.42-8.32c.62-.35 1.19-.78 1.71-1.28.53-.5.98-1.05 1.35-1.67.38-.61.68-1.27.89-1.97.21-.71.32-1.45.32-2.23 0-1.14-.22-2.22-.67-3.24a8.3 8.3 0 0 0-1.81-2.65q-1.155-1.14-2.7-1.8c-1.545-.66-2.13-.66-3.31-.66h-11.1q-.39 0-.57.21c-.13.15-.19.34-.19.58v23.99c0 .25.07.44.21.56.13.12.32.18.55.18h5.1c.53 0 .79-.25.79-.74v-7.75h2.78l4.18 7.85c.05.2.15.35.3.47.15.11.33.17.52.17h5.9c.21 0 .37-.05.49-.15q.18-.135.18-.42c0-.16-.06-.35-.19-.56m-7.53-14.9c-.11.35-.28.67-.5.95-.21.28-.48.52-.8.7q-.48.285-1.08.36c-.2.02-.38.04-.54.05s-.34.02-.55.02h-3.16V5.64h2.37c.33 0 .64.01.92.03.28.01.58.03.9.05.39.06.75.19 1.07.38.32.2.59.44.82.72.23.29.41.61.54.95.12.34.19.69.19 1.03 0 .37-.06.73-.18 1.07" class="st1"/><path d="M17.5 46.08c.73-.19 1.35-.52 1.87-.97.66-.58 1.17-1.27 1.51-2.08s.51-1.63.51-2.47c0-2.03-.6-3.54-1.82-4.54q-1.83-1.5-5.04-1.5H5.26v19.01h4.62v-6.56h2.84l3.77 6.56h5.87zm-1.81-3.15c-.47.43-1.12.65-1.93.65H9.88v-5.5h4.08c.77 0 1.38.23 1.81.69.42.45.64 1.12.64 1.99 0 1.01-.24 1.73-.72 2.17" style="fill:#fff"/><path d="M51.47 34.96v-3.5H35v25.13h16.47v-3.5H39.15v-7.31h10.74v-3.55H39.18v-7.27zM80.28 33.45c-1.57-1.33-3.79-1.99-6.65-1.99h-9.95v25.13h4.14v-9h5.81c2.86 0 5.08-.71 6.65-2.11 1.57-1.41 2.35-3.43 2.35-6.07s-.78-4.62-2.35-5.96m-2.19 7.77c-.14.52-.39 1.01-.77 1.45s-.9.78-1.58 1.02-1.56.35-2.64.35h-5.28v-9.08h5.28c1.08 0 1.96.13 2.64.38s1.2.6 1.58 1.03c.38.44.63.94.77 1.49.14.56.21 1.12.21 1.7s-.07 1.13-.21 1.66M115.25 36.79c-.92-1.92-2.24-3.36-3.98-4.32-1.73-.95-3.85-1.43-6.36-1.43-3.8 0-6.69 1.1-8.69 3.28q-3 3.285-3 9.72c0 2.92.46 5.33 1.36 7.24.91 1.91 2.23 3.34 3.98 4.3 1.74.95 3.86 1.43 6.35 1.43 3.81 0 6.72-1.09 8.72-3.28s3-5.41 3-9.69c0-2.91-.46-5.33-1.38-7.25m-3.73 12.64c-.54 1.39-1.36 2.4-2.45 3.04s-2.48.96-4.16.96-3.04-.32-4.15-.96c-1.1-.64-1.93-1.65-2.47-3.04-.54-1.38-.81-3.18-.81-5.39s.27-4 .81-5.37 1.37-2.38 2.47-3.03c1.11-.65 2.49-.98 4.15-.98s3.07.32 4.16.96 1.91 1.65 2.45 3.02.81 3.16.81 5.37-.27 4.04-.81 5.42M141.93 46.4c.89-.2 1.69-.54 2.4-1.04 1-.7 1.77-1.6 2.29-2.71.53-1.11.8-2.31.8-3.62q0-3.765-2.1-5.67c-1.39-1.27-3.39-1.9-6.01-1.9h-11.15v25.13h4.14V47.1h5.32l5.88 9.49h5.16zm-9.63-11.44h6.52c1.56 0 2.66.38 3.3 1.13.64.76.96 1.82.96 3.21 0 1.48-.41 2.58-1.22 3.31-.82.73-2.06 1.09-3.71 1.09h-5.85zM157.06 31.46v3.5h8.14v21.63h4.15V34.96h8.14v-3.5z" class="st0"/></svg>