<svg xmlns="http://www.w3.org/2000/svg" id="Capa_1" viewBox="0 0 101.01 179.13"><defs><style>.st0{fill:#fd0100}.st1{fill:#0072fd}</style></defs><path d="M20.93 102.11c.66-.34 1.27-.75 1.85-1.22a6.7 6.7 0 0 0 1.5-1.74c.43-.68.76-1.53 1.01-2.53s.38-2.17.38-3.52c0-2.14-.26-3.91-.78-5.32s-1.25-2.54-2.18-3.37c-.93-.84-2.05-1.43-3.33-1.78-1.28-.36-2.69-.52-4.22-.52H.27v32.68h9.11v-11.26h3.47l4.88 11.26h9.25zm-4.55-7.31c-.13.45-.33.82-.6 1.12-.26.29-.58.5-.96.64-.37.12-.81.19-1.31.19H9.38v-6.99h4.13c.5 0 .94.06 1.31.18.38.11.7.29.96.55.27.24.47.59.6 1.03.12.43.18.98.18 1.62s-.06 1.2-.18 1.66M30.31 82.11v32.68h9.11V82.11zM67.23 98.93c-.73-1.33-1.83-2.39-3.28-3.17-1.46-.78-3.28-1.16-5.47-1.16h-3.1c-1.03 0-1.8-.2-2.3-.57-.5-.39-.75-.95-.75-1.67v-.45c0-.68.19-1.19.56-1.54.38-.35.91-.58 1.6-.7.68-.12 1.47-.18 2.35-.18 1.46 0 3.1.04 4.91.11 1.79.08 3.41.17 4.84.29v-6.78c-.9-.2-1.92-.39-3.06-.59-1.15-.19-2.37-.36-3.66-.48-1.3-.14-2.69-.2-4.17-.2-3.87 0-6.84.8-8.91 2.39-2.06 1.6-3.1 4.01-3.1 7.24v1.46c0 3.52.94 6.02 2.82 7.51 1.88 1.51 4.63 2.26 8.26 2.26h2.49c.66 0 1.23.15 1.71.48.48.32.73.8.73 1.44v.53c0 .57-.18 1-.52 1.32-.35.33-.86.56-1.55.71s-1.54.22-2.57.22c-1.11 0-2.29-.01-3.56-.04-1.25-.03-2.51-.08-3.74-.14-1.24-.06-2.39-.13-3.46-.22v6.78c.82.2 1.66.38 2.54.52.88.15 1.79.29 2.75.4a49.511 49.511 0 0 0 5.93.35c2.66 0 4.95-.25 6.85-.77q2.865-.765 4.41-2.97c1.03-1.46 1.56-3.59 1.56-6.37v-1.46c0-1.7-.38-3.21-1.11-4.55M92.56 98.55l8.02-16.44h-9.67l-5.58 12.71h-3.62V82.11h-9.1v32.68h9.1v-12.32h3.62l6.01 12.32h9.67zM49.32 77.88c-2.33 0-4.66-.76-6.6-2.28l-11.37-8.89c-.28-.22-.49-.51-.61-.84L26.58 54.2c-.43-.29-.97-.71-1.63-1.32-1.97-1.81-3.01-3.8-3.01-5.74 0-4.31 2.62-7.68 5.97-7.68 1.03 0 1.87.84 1.87 1.87s-.84 1.87-1.87 1.87-2.23 1.69-2.23 3.95c0 1.69 2.37 3.6 3.25 4.12.43.21.78.58.95 1.06l4.2 11.79 10.95 8.55a6.98 6.98 0 0 0 8.59.01l11.97-9.29 3.13-10.95c.24-.86 1.05-1.42 1.95-1.35l-.04 1.87.15-1.86c.99 0 2.17-1.69 2.17-3.95s-1.18-3.95-2.24-3.95-1.87-.84-1.87-1.87.84-1.87 1.87-1.87c3.35 0 5.97 3.37 5.97 7.68 0 3.75-1.99 6.8-4.72 7.52l-2.95 10.33c-.11.38-.34.72-.65.96l-12.45 9.67a10.75 10.75 0 0 1-6.58 2.26Z" class="st0"/><path d="m51.14 1.6-1.21-.13h1.2z" class="st1"/><path d="M48.61 1.47h.33v-.03zm1.04-.03v.03h.28zm1.48.03h-1.2l1.21.13v-.13Z" class="st1"/><path d="M75.1 30.1c-.72-7.68-4.41-14.82-10.18-19.51-1.47-1.21-3.1-2.24-4.83-3.08l-.54-3.47-.71-.34c-2.01-.93-4.1-1.57-6.2-1.91L52.49 0h-6.38l-.14 1.74c-3.83.57-6.23 1.97-6.34 2.03l-.58.35-.61 3.39c-6.17 3.07-11.04 8.7-13.43 15.55-.79 2.27-1.3 4.63-1.51 7.05-1.9.53-4.08 2.4-4.05 6.3v2.91h59.68l.02-2.91c.03-3.92-2.15-5.79-4.05-6.31M48.82 2.93h.96l.74 8.98h-2.44zm-21.03 21.1c1.9-5.45 5.54-10.03 10.18-12.89l-.69 3.89 2.8.51 1.5-8.89.12-.64c.72-.33 2.13-.9 4.02-1.26l-.84 10.1h8.83l-.83-10.03q2.04.405 4.02 1.23l.09.6.32 2.05.08.48.07.35 1.06 6.01 2.8-.51-.69-3.89c.86.52 1.67 1.09 2.43 1.72 5.06 4.11 8.33 10.35 9.07 17.08H26.47c.2-2.03.65-4.02 1.32-5.91m-5.4 12.36c0-1.59.47-2.46.98-2.93.59-.55 1.23-.58 1.23-.58h49.43s.62.03 1.2.56c.51.47.99 1.35.98 2.95z" class="st1"/><path d="m56.99 6.65.32 2.05-.37-2.04zM57.46 9.53l-.02-.01-.05-.34z" class="st1"/><path d="m57.39 9.18.05.34h.02zm0 0 .05.34h.02z" class="st1"/><path d="M32.01 121.06h-5.64l-8.35 26-8.4-26H3.98L0 153.53h5.57l2.78-23.06 6.89 23.06h5.45l6.86-23.23 2.9 23.23h5.64z" class="st0"/><path d="M58.01 121.06h-7.32l-11.27 32.47h5.97l2.62-7.7h12.53l2.68 7.7h6.05zm-8.64 19.89 4.89-15.23 4.88 15.23zM72.87 153.53h5.82v-23.18l.02.04V129h-5.84z" class="st1"/><path d="M94.34 121.06v21.06l-12.02-16.44v10.13l13.2 17.72h4.64v-32.47z" class="st0"/><path d="M72.87 121.06h5.84v5.19h-5.84zM2.53 163.17c.12-.16.27-.28.45-.34.2-.06.42-.09.69-.09.24 0 .48.01.7.03.23.01.44.03.62.05.17.02.32.04.41.06v-.82c-.15-.05-.33-.09-.53-.14-.21-.04-.43-.07-.67-.1-.25-.03-.5-.05-.75-.05q-.555 0-.99.15c-.29.09-.54.25-.74.49s-.35.57-.45.99q-.15.645-.15 1.62c0 .7.05 1.27.14 1.69.1.44.25.77.44 1 .2.23.44.39.73.48.28.08.62.13.99.13.28 0 .53-.01.77-.03.23-.03.45-.05.66-.09.2-.03.39-.07.55-.12v-.83c-.17.03-.39.05-.67.07s-.63.03-1.07.03c-.29 0-.52-.03-.71-.1a.8.8 0 0 1-.44-.34c-.11-.17-.19-.4-.24-.7s-.08-.69-.08-1.17.03-.87.08-1.17c.06-.3.14-.54.26-.7M7.94 167.39c-.18-.08-.3-.2-.37-.38-.06-.17-.1-.4-.11-.69h1.36c.3 0 .56-.03.77-.11.22-.07.39-.2.51-.38.11-.18.17-.41.17-.71 0-.42-.06-.74-.19-.97-.12-.23-.32-.39-.59-.48s-.63-.13-1.07-.13c-.51 0-.91.06-1.21.21-.29.13-.5.38-.63.72-.13.35-.19.83-.19 1.46s.06 1.1.2 1.44c.13.35.35.59.65.73q.435.21 1.2.21c.36 0 .67-.02.94-.05.26-.04.51-.08.75-.13v-.63H8.72c-.34 0-.6-.04-.78-.11m-.4-2.55c.06-.2.16-.33.3-.41.14-.07.33-.11.58-.11.21 0 .39.02.52.07s.23.13.29.25c.05.12.08.28.08.48 0 .21-.05.35-.14.43q-.15.12-.45.12H7.45c0-.36.03-.64.09-.83M14.15 163.55c-.06-.01-.13-.01-.19-.01-.32 0-.59.07-.82.23-.22.16-.43.35-.61.58l-.25-.75h-.83v4.66h1.08v-3.05c.13-.12.25-.23.38-.31.13-.09.26-.15.41-.19s.32-.06.5-.06c.08 0 .17 0 .27.01.09.01.18.01.26.03v-1.1c-.06-.02-.12-.03-.2-.04M17.93 164.47v-.87h-1.19v-1.31h-.84l-.16 1.31-.77.17v.7h.74l-.04 2.19c-.01.39.04.7.14.94.09.24.25.41.46.51.22.1.5.15.83.15h.78v-.79l-.59-.06c-.07-.01-.13-.02-.2-.04a.6.6 0 0 1-.18-.12.7.7 0 0 1-.12-.22c-.03-.1-.05-.23-.05-.38v-2.18zM18.94 163.6v4.66h1.08v-4.66zm1.07-1.81s-.06-.06-.12-.06h-.81c-.11 0-.17.06-.17.18v.79c0 .1.06.16.17.16h.81c.11 0 .16-.06.16-.16v-.79s-.01-.09-.04-.12M24.75 163.6v4.66h1.08v-4.66zm1.07-1.81s-.06-.06-.11-.06h-.82c-.12 0-.17.06-.17.18v.79c0 .1.05.16.17.16h.82c.1 0 .15-.06.15-.16v-.79s-.01-.09-.04-.12m-3.15 1.81v-.39c0-.17.02-.31.06-.43.04-.1.11-.19.2-.25.1-.05.23-.08.4-.08.12 0 .25 0 .38.01.14.01.26.02.36.02v-.77c-.13-.05-.28-.08-.47-.11q-.285-.03-.63-.03c-.32 0-.58.05-.78.14-.21.11-.36.26-.45.47q-.15.33-.15.87v.55l-.68.17v.7h.68v3.79h1.08v-3.79h2.6v-.87zM29.3 167.5c-.29 0-.51-.04-.69-.12s-.31-.23-.4-.45c-.08-.22-.13-.55-.13-.98s.05-.77.13-1c.09-.23.22-.4.4-.48.17-.09.4-.13.68-.13h1.27v-.62c-.27-.07-.53-.12-.81-.15-.26-.02-.52-.03-.79-.03-.31 0-.58.03-.82.1-.24.08-.44.2-.61.38s-.3.43-.39.74c-.09.32-.13.71-.13 1.19s.04.85.14 1.16c.09.31.23.55.4.72.18.18.38.31.62.38.23.07.49.11.77.11.2 0 .41-.01.61-.03.21-.02.4-.04.59-.07s.35-.07.49-.11v-.61zM35.13 164.14a1.06 1.06 0 0 0-.6-.47c-.27-.1-.59-.14-.98-.13-.4 0-.74.02-1.03.06s-.55.09-.76.15v.63h1.41c.31 0 .54.03.69.08.15.06.25.14.31.25s.09.25.09.41v.41h-1.33c-.52 0-.9.11-1.14.34-.25.23-.37.52-.37.88v.39c0 .37.11.66.33.86.22.21.51.32.85.32.2 0 .39-.03.58-.07s.37-.1.52-.17q.24-.09.39-.18c.11-.06.18-.1.22-.14l.19.5h.84v-3.21c0-.38-.07-.68-.21-.91m-.87 3.12s-.05.02-.1.05c-.06.02-.13.05-.21.07-.09.03-.18.05-.27.08-.1.02-.2.05-.3.07-.09.02-.18.03-.25.03a1.4 1.4 0 0 1-.31-.06.5.5 0 0 1-.24-.19.63.63 0 0 1-.09-.35v-.19c0-.2.06-.35.18-.47.12-.11.31-.18.58-.2l1.01-.06zM38.77 167.5c-.28 0-.5-.04-.68-.12s-.31-.23-.4-.45c-.08-.22-.13-.55-.13-.98s.05-.77.13-1c.09-.23.22-.4.39-.48.18-.09.4-.13.68-.13h1.28v-.62q-.405-.105-.81-.15c-.26-.02-.53-.03-.79-.03-.31 0-.58.03-.82.1-.24.08-.45.2-.62.38-.16.18-.29.43-.38.74-.09.32-.14.71-.14 1.19s.05.85.15 1.16c.09.31.22.55.4.72.17.18.38.31.61.38.24.07.5.11.77.11.21 0 .41-.01.62-.03s.4-.04.59-.07c.18-.03.34-.07.48-.11v-.61zM41.11 163.6v4.66h1.09v-4.66zm1.08-1.81s-.07-.06-.12-.06h-.82c-.11 0-.16.06-.16.18v.79c0 .1.05.16.16.16h.82c.11 0 .16-.06.16-.16v-.79s-.02-.09-.04-.12M45.91 161.56l-.77 1.21h.62l1.04-1.21zm1.54 3.18c-.07-.31-.2-.55-.37-.73-.17-.17-.38-.29-.65-.37-.27-.07-.59-.1-.96-.1s-.67.03-.94.1q-.405.09-.66.36c-.17.18-.3.42-.38.73s-.12.71-.12 1.19.04.85.12 1.16.21.55.38.73.38.31.65.38c.27.08.58.12.95.12s.7-.04.97-.11c.26-.07.48-.2.65-.37.17-.18.29-.43.37-.74q.12-.465.12-1.17c0-.705-.04-.87-.13-1.18m-1.01 2c-.04.2-.11.36-.19.46s-.19.17-.32.2-.28.05-.46.05-.33-.02-.45-.05a.57.57 0 0 1-.32-.2c-.08-.1-.14-.26-.18-.46-.05-.21-.07-.48-.07-.83 0-.33.02-.61.07-.81q.06-.3.18-.45c.08-.11.19-.17.32-.21.12-.03.27-.04.45-.04s.33.01.46.04c.13.04.24.1.32.21.08.1.15.25.19.45s.06.48.06.81c0 .35-.02.62-.06.83M52.7 164.34q-.135-.375-.45-.6c-.21-.15-.49-.22-.86-.22-.3 0-.58.06-.86.17-.27.12-.51.25-.7.39l-.2-.48h-.88v4.66h1.08v-3.38c.12-.09.24-.15.36-.21s.24-.11.37-.13c.13-.03.27-.05.42-.05.16 0 .3.03.42.1.11.06.2.15.26.27.07.11.1.26.1.43v2.97h1.08v-3.11c0-.29-.05-.56-.14-.81M58.04 167.39c-.18-.08-.3-.2-.36-.38q-.105-.255-.12-.69h1.37c.29 0 .55-.03.77-.11.21-.07.38-.2.5-.38.11-.18.17-.41.17-.71 0-.42-.06-.74-.19-.97-.12-.23-.32-.39-.59-.48s-.63-.13-1.07-.13c-.51 0-.91.06-1.2.21-.3.13-.51.38-.64.72-.13.35-.19.83-.19 1.46s.06 1.1.2 1.44c.13.35.35.59.65.73.29.14.7.21 1.2.21.36 0 .68-.02.94-.05.27-.04.51-.08.75-.13v-.63h-1.41c-.34 0-.6-.04-.78-.11m-.4-2.55c.06-.2.16-.33.3-.41.14-.07.33-.11.58-.11.21 0 .39.02.52.07s.23.13.29.25c.05.12.08.28.08.48 0 .21-.04.35-.14.43q-.15.12-.45.12h-1.27c0-.36.03-.64.09-.83M65.5 164.34q-.135-.375-.45-.6c-.21-.15-.5-.22-.86-.22-.3 0-.58.06-.86.17-.28.12-.51.25-.7.39l-.2-.48h-.88v4.66h1.08v-3.38c.12-.09.24-.15.36-.21.11-.06.23-.11.37-.13.13-.03.27-.05.42-.05.16 0 .3.03.41.1q.18.09.27.27c.06.11.09.26.09.43v2.97h1.09v-3.11c0-.29-.05-.56-.14-.81M73.66 164.68h-1.01l-.52.03c-.16.01-.3.03-.42.04v.84h1.3v1.48c-.16.06-.37.11-.61.16s-.48.07-.74.07q-.36 0-.6-.09a.82.82 0 0 1-.4-.36c-.09-.17-.16-.41-.2-.7s-.07-.66-.07-1.11c0-.57.05-1.02.12-1.36.08-.33.22-.58.42-.73.2-.14.49-.22.88-.22.26 0 .52.01.77.03.25.01.48.03.69.04.2.02.37.04.49.05v-.82c-.22-.06-.44-.1-.66-.14-.23-.04-.47-.07-.71-.09s-.5-.04-.77-.04c-.47 0-.85.08-1.15.22s-.53.35-.7.63c-.17.27-.29.61-.35 1.02-.07.41-.1.87-.1 1.4s.03.98.09 1.39c.06.4.16.75.31 1.02.15.29.35.5.61.64s.59.22 1 .22c.36 0 .7-.06 1.02-.17.31-.11.56-.21.74-.32l.14.44h.82v-3.56c-.12-.01-.25-.01-.39-.02ZM76.81 167.39c-.18-.08-.3-.2-.36-.38q-.105-.255-.12-.69h1.37c.29 0 .55-.03.77-.11.21-.07.38-.2.5-.38.11-.18.17-.41.17-.71 0-.42-.06-.74-.18-.97q-.195-.345-.6-.48c-.405-.135-.63-.13-1.07-.13-.51 0-.91.06-1.2.21-.3.13-.51.38-.64.72-.13.35-.19.83-.19 1.46s.06 1.1.2 1.44c.13.35.35.59.65.73.29.14.7.21 1.2.21.36 0 .68-.02.94-.05.27-.04.51-.08.75-.13v-.63h-1.41c-.34 0-.6-.04-.78-.11m-.4-2.55c.06-.2.16-.33.3-.41.14-.07.33-.11.58-.11.21 0 .39.02.52.07s.23.13.29.25.09.28.09.48c0 .21-.05.35-.15.43q-.15.12-.45.12h-1.27c0-.36.03-.64.09-.83M83.47 165.82c-.22-.21-.56-.32-1.02-.32h-.72c-.15 0-.27-.01-.37-.03a.46.46 0 0 1-.24-.13.48.48 0 0 1-.08-.29v-.17c0-.19.06-.33.17-.4a.96.96 0 0 1 .49-.11h1.9v-.64c-.11-.03-.27-.06-.47-.09-.19-.02-.4-.04-.62-.06q-.315-.03-.6-.03-.66 0-1.05.15-.405.165-.57.45c-.11.19-.17.44-.17.73v.27c0 .31.06.55.18.73s.29.31.5.38c.21.08.46.12.73.12h.7q.36 0 .51.12c.09.09.14.2.14.34v.17c0 .14-.03.24-.08.32-.05.06-.13.11-.23.13-.1.03-.22.04-.37.04h-2.01v.63c.09.03.21.06.35.08q.225.03.48.06l.52.03c.16.01.32.02.45.02.38 0 .7-.04.97-.11s.48-.2.63-.38c.14-.18.21-.43.21-.74v-.38c0-.39-.11-.68-.33-.89M87.44 164.47v-.87h-1.18v-1.31h-.85l-.15 1.31-.77.17v.7h.73l-.03 2.19c0 .39.03.7.13.94s.25.41.47.51c.21.1.49.15.82.15h.78v-.79l-.58-.06a1 1 0 0 1-.2-.04.44.44 0 0 1-.18-.12.54.54 0 0 1-.13-.22c-.03-.1-.04-.23-.04-.38v-2.18zM88.45 163.6v4.66h1.09v-4.66zm1.08-1.81s-.06-.06-.12-.06h-.82c-.11 0-.16.06-.16.18v.79c0 .1.05.16.16.16h.82c.11 0 .16-.06.16-.16v-.79s-.01-.09-.04-.12M93.26 161.56l-.78 1.21h.63l1.03-1.21zm1.54 3.18c-.08-.31-.21-.55-.38-.73-.17-.17-.38-.29-.65-.37-.27-.07-.59-.1-.96-.1s-.67.03-.94.1q-.405.09-.66.36c-.17.18-.29.42-.38.73-.08.31-.12.71-.12 1.19s.04.85.12 1.16c.09.31.21.55.38.73s.39.31.65.38c.27.08.58.12.95.12s.7-.04.97-.11c.26-.07.48-.2.65-.37.17-.18.29-.43.37-.74q.12-.465.12-1.17c0-.705-.04-.87-.12-1.18m-1.02 2c-.04.2-.11.36-.19.46s-.19.17-.32.2-.28.05-.46.05c-.17 0-.32-.02-.45-.05a.57.57 0 0 1-.32-.2c-.08-.1-.14-.26-.18-.46-.05-.21-.07-.48-.07-.83 0-.33.02-.61.07-.81q.06-.3.18-.45c.08-.11.19-.17.32-.21.13-.03.28-.04.45-.04.18 0 .33.01.46.04.13.04.24.1.32.21.08.1.15.25.19.45s.06.48.06.81c0 .35-.02.62-.06.83M100.04 164.34q-.135-.375-.45-.6c-.2-.15-.49-.22-.86-.22-.29 0-.58.06-.86.17-.27.12-.51.25-.7.39l-.2-.48h-.88v4.66h1.08v-3.38c.12-.09.24-.15.36-.21s.24-.11.37-.13c.13-.03.27-.05.42-.05.16 0 .3.03.42.1.11.06.2.15.26.27.07.11.1.26.1.43v2.97h1.08v-3.11c0-.29-.05-.56-.14-.81M14.61 170.33v2.15c-.17-.06-.36-.12-.59-.17-.23-.04-.45-.06-.69-.06-.43 0-.78.08-1.04.24-.26.17-.44.43-.55.79s-.17.83-.17 1.4.06 1 .19 1.35c.13.34.31.6.56.76q.375.24.93.24c.16 0 .33-.03.51-.08q.255-.075.48-.18c.16-.08.28-.16.37-.25l.19.46h.89v-6.65zm0 5.52c-.12.07-.26.14-.43.21-.17.06-.36.1-.57.1-.23 0-.41-.05-.55-.14s-.25-.25-.31-.47-.1-.53-.1-.92c0-.42.04-.74.1-.96q.105-.345.33-.48c.15-.09.35-.13.59-.13.18 0 .35.02.5.06s.3.08.44.14zM18.4 176.1c-.18-.08-.3-.2-.37-.38-.07-.16-.1-.4-.12-.69h1.37c.3 0 .55-.03.77-.11.22-.07.39-.2.51-.38.11-.17.17-.41.17-.71 0-.42-.07-.74-.19-.97s-.32-.39-.59-.48-.63-.13-1.08-.13c-.5 0-.9.06-1.2.21q-.45.21-.63.72c-.13.35-.2.84-.2 1.46s.07 1.1.2 1.44c.14.35.35.59.65.73s.7.21 1.21.21c.36 0 .67-.02.93-.05.27-.04.52-.08.76-.13v-.63h-1.41c-.34 0-.6-.04-.78-.11m-.4-2.55c.06-.2.16-.33.3-.41.14-.07.33-.11.57-.11.22 0 .39.02.52.07.14.05.23.13.29.25q.09.18.09.48c0 .21-.05.35-.14.43q-.15.12-.45.12h-1.27c0-.36.03-.64.09-.83M23.53 176.16c-.11-.02-.21-.05-.29-.1s-.15-.14-.19-.25c-.05-.12-.06-.28-.06-.49v-4.99H21.9v5.14c0 .36.06.66.16.88s.25.38.46.49c.2.1.46.15.77.15h.64v-.78zM30.64 174.35q.195-.075.39-.18c.13-.08.25-.18.35-.31.11-.14.19-.31.25-.52.07-.21.1-.48.1-.8 0-.41-.05-.74-.15-1-.09-.26-.22-.47-.39-.61-.16-.14-.35-.25-.56-.3-.21-.06-.44-.08-.68-.08h-2.61v6.43h1.07v-2.49h.3c.12 0 .23.01.35.01h.61l1.12 2.48h1.09zm-.24-.93c-.09.08-.18.14-.28.17a1 1 0 0 1-.35.05h-1.36v-2.13h1.36c.12 0 .24.02.35.05.1.03.19.08.28.15.08.07.14.18.19.31.04.14.06.32.06.53s-.02.4-.06.54a.9.9 0 0 1-.19.33M32.9 172.31v4.67h1.08v-4.67zm1.08-1.81s-.07-.06-.12-.06h-.82c-.11 0-.16.06-.16.18v.79c0 .1.05.16.16.16h.82c.11 0 .16-.06.16-.16v-.79s-.02-.09-.04-.12M36.72 176.1c-.18-.08-.31-.2-.37-.38-.07-.16-.11-.4-.12-.69h1.37c.29 0 .55-.03.77-.11.22-.07.39-.2.5-.38.11-.17.17-.41.17-.71 0-.42-.06-.74-.18-.97q-.195-.345-.6-.48c-.405-.135-.62-.13-1.07-.13-.51 0-.91.06-1.2.21-.3.14-.51.38-.64.72-.13.35-.19.84-.19 1.46s.06 1.1.2 1.44c.13.35.35.59.65.73q.45.21 1.2.21c.37 0 .68-.02.94-.05.27-.04.51-.08.76-.13v-.63h-1.42c-.34 0-.6-.04-.77-.11m-.41-2.55c.06-.2.16-.33.3-.41.14-.07.33-.11.58-.11.21 0 .39.02.52.07.14.05.23.13.29.25q.09.18.09.48c0 .21-.05.35-.15.43q-.135.12-.45.12h-1.27c0-.36.03-.64.09-.83M43.38 174.53c-.23-.21-.57-.32-1.03-.32h-.72c-.14 0-.27-.01-.37-.03a.46.46 0 0 1-.24-.13c-.05-.06-.08-.16-.08-.29v-.16c0-.2.06-.34.17-.41.12-.07.28-.11.5-.11h1.89v-.63c-.11-.04-.27-.07-.47-.09-.19-.03-.4-.05-.62-.07q-.315-.03-.6-.03c-.44 0-.79.05-1.05.16-.27.1-.46.25-.57.44s-.17.44-.17.74v.26c0 .31.06.55.18.73.13.18.29.31.5.38.21.08.46.12.73.12h.71c.24 0 .4.04.5.12.09.09.14.2.14.35v.16c0 .14-.02.25-.08.32-.05.06-.12.11-.23.14-.1.02-.22.03-.37.03h-2.01v.63c.09.03.21.06.36.08.14.03.3.04.47.06.17.01.34.03.52.03.17.01.32.02.45.02.38 0 .7-.04.97-.11s.48-.2.63-.38c.14-.18.22-.43.22-.74v-.38c0-.39-.12-.68-.33-.89M49.15 172.3h-2.52c-.41 0-.76.05-1.04.16s-.49.27-.63.5c-.15.22-.22.51-.22.86 0 .18.02.35.07.52.05.16.12.32.24.47.11.14.27.26.47.36q-.375.075-.57.3-.21.225-.21.57c0 .28.12.5.35.68.04.03.08.06.13.08-.21.08-.39.21-.52.38-.15.18-.22.39-.22.65v.16c0 .25.06.45.2.63.13.17.31.3.54.38.23.09.5.13.79.13h1.37q.885 0 1.32-.39c.29-.25.43-.6.43-1.05v-.15c0-.32-.06-.58-.19-.78s-.32-.34-.57-.44c-.24-.09-.54-.14-.9-.14h-1.38c-.1 0-.2-.02-.3-.07-.09-.04-.13-.13-.13-.24 0-.14.05-.24.17-.3q.165-.09.45-.09h.8c.4 0 .74-.06.98-.19.24-.12.42-.29.53-.51.1-.22.16-.45.16-.72 0-.21-.03-.38-.07-.52-.05-.13-.11-.24-.17-.32-.07-.08-.13-.15-.19-.21l.83-.11zm-1.84 4.69c.2 0 .36.03.47.08.11.04.2.12.25.2.06.09.08.2.08.33v.14c0 .21-.08.37-.23.47s-.37.15-.63.15h-.95c-.26 0-.45-.05-.59-.14-.14-.1-.21-.25-.21-.46v-.14c0-.14.03-.25.1-.35a.67.67 0 0 1 .28-.21c.12-.04.25-.07.39-.07zm.4-2.68c-.05.11-.13.2-.25.27-.12.06-.28.1-.5.1h-.5c-.24 0-.43-.07-.55-.19-.13-.12-.19-.33-.19-.61s.06-.47.2-.59.34-.17.6-.17H47c.17 0 .3.02.42.08.11.05.2.13.26.25q.09.18.09.48c0 .13-.02.26-.06.38M54.02 173.45c-.07-.31-.2-.55-.37-.73-.17-.17-.38-.29-.65-.36-.27-.08-.59-.11-.96-.11s-.67.03-.94.1c-.27.06-.49.19-.66.36-.17.18-.3.42-.38.73s-.12.71-.12 1.19.04.85.12 1.16.21.55.38.73.38.31.65.38c.27.08.58.12.95.12s.7-.04.97-.11c.26-.07.48-.2.65-.37.17-.18.29-.42.37-.74q.12-.465.12-1.17c0-.705-.04-.87-.13-1.18m-1.01 2c-.04.2-.11.36-.19.46s-.19.17-.32.2-.28.05-.46.05-.33-.02-.45-.05c-.13-.03-.24-.1-.32-.2s-.14-.26-.18-.46c-.05-.21-.07-.48-.07-.83 0-.33.02-.6.07-.81q.06-.3.18-.45a.52.52 0 0 1 .32-.2c.12-.03.27-.05.45-.05s.33.02.46.05.24.09.32.2c.08.1.15.25.19.45q.06.315.06.81c0 .35-.02.62-.06.83M57.87 170.55v6.43h1.08v-6.43zM64.27 173.05q-.135-.375-.45-.6c-.21-.15-.5-.22-.86-.22-.3 0-.59.06-.86.17-.28.12-.51.25-.7.39l-.2-.48h-.88v4.67h1.08v-3.39c.12-.09.24-.15.36-.21.11-.06.23-.1.36-.13s.28-.05.43-.05c.16 0 .3.03.41.1q.165.09.27.27c.06.12.09.26.09.43v2.98h1.08v-3.11c0-.3-.04-.57-.13-.82M68.23 173.18v-.87h-1.19V171h-.85l-.15 1.31-.77.17v.7H66l-.03 2.19c0 .39.04.7.13.94.1.24.26.41.47.51s.49.16.83.16h.77v-.8l-.58-.06c-.07 0-.14-.02-.2-.04s-.12-.06-.18-.12a.6.6 0 0 1-.12-.22c-.03-.1-.05-.23-.05-.38v-2.18zM70.64 176.1c-.18-.08-.3-.2-.37-.38-.06-.16-.1-.4-.11-.69h1.37c.29 0 .55-.03.77-.11.21-.07.38-.2.5-.38.11-.17.17-.41.17-.71 0-.42-.06-.74-.19-.97a.99.99 0 0 0-.59-.48c-.27-.09-.63-.13-1.07-.13-.51 0-.91.06-1.21.21q-.435.21-.63.72c-.13.35-.19.84-.19 1.46s.06 1.1.2 1.44c.13.35.35.59.65.73q.435.21 1.2.21c.36 0 .67-.02.94-.05.26-.04.51-.08.75-.13v-.63h-1.41c-.34 0-.6-.04-.78-.11m-.4-2.55c.06-.2.16-.33.3-.41.14-.07.33-.11.58-.11.21 0 .39.02.52.07s.23.13.29.25c.05.12.08.28.08.48 0 .21-.05.35-.14.43q-.15.12-.45.12h-1.27c0-.36.03-.64.09-.83M78.48 172.3h-2.52c-.41 0-.76.05-1.04.16s-.49.27-.63.5c-.15.22-.22.51-.22.86 0 .18.02.35.07.52.04.16.12.32.24.47.11.14.27.26.47.36-.25.05-.44.15-.58.3-.13.15-.2.34-.2.57 0 .28.12.5.35.68.04.03.08.06.13.08-.21.08-.39.21-.52.38-.15.18-.22.39-.22.65v.16c0 .25.06.45.19.63.14.17.32.3.55.38.23.09.49.13.79.13h1.37q.885 0 1.32-.39c.29-.25.43-.6.43-1.05v-.15c0-.32-.06-.58-.19-.78s-.32-.34-.57-.44c-.24-.09-.54-.14-.9-.14h-1.38c-.1 0-.2-.02-.3-.07-.09-.04-.14-.13-.14-.24q0-.21.18-.3.165-.09.45-.09h.79c.41 0 .74-.06.99-.19.24-.12.42-.29.52-.51.11-.22.17-.45.17-.72 0-.21-.03-.38-.08-.52-.04-.13-.1-.24-.16-.32-.07-.08-.13-.15-.19-.21l.83-.11zm-1.84 4.69c.2 0 .35.03.47.08.11.04.2.12.25.2.06.09.08.2.08.33v.14c0 .21-.08.37-.23.47q-.24.15-.63.15h-.95c-.26 0-.45-.05-.59-.14-.14-.1-.21-.25-.21-.46v-.14c0-.14.03-.25.1-.35a.67.67 0 0 1 .28-.21c.12-.04.25-.07.39-.07zm.4-2.68c-.05.11-.13.2-.25.27-.12.06-.28.1-.5.1h-.51c-.23 0-.42-.07-.54-.19-.13-.12-.2-.33-.2-.61s.07-.47.21-.59.34-.17.59-.17h.49c.16 0 .3.02.42.08.11.05.2.13.26.25q.09.18.09.48c0 .13-.02.26-.06.38M82.13 172.26c-.07-.01-.14-.01-.2-.01-.32 0-.59.08-.81.23-.23.16-.44.35-.62.58l-.25-.75h-.83v4.67h1.08v-3.05c.13-.13.25-.24.38-.32.13-.09.27-.15.42-.19.14-.04.31-.06.49-.06h.27c.09.01.18.01.26.03v-1.1c-.06-.02-.12-.03-.19-.04ZM86.61 172.86c-.14-.23-.34-.38-.61-.48-.26-.1-.59-.14-.97-.13-.4 0-.75.02-1.04.06-.29.05-.54.09-.76.15v.63h1.41c.31 0 .54.03.69.08.15.06.26.14.32.25.05.11.08.25.08.41v.41H84.4c-.51 0-.89.11-1.14.34-.24.23-.37.52-.37.88v.39c0 .37.11.66.33.86.22.21.51.32.86.32.19 0 .39-.02.58-.07.19-.04.36-.1.52-.16.15-.07.28-.13.39-.19.1-.06.17-.1.21-.14l.19.51h.84v-3.22c0-.38-.07-.68-.2-.9m-.88 3.11s-.04.03-.1.05c-.05.02-.12.05-.21.07-.08.03-.17.06-.27.08s-.2.05-.29.07c-.1.02-.18.03-.26.03-.11 0-.21-.03-.31-.06a.47.47 0 0 1-.23-.19.54.54 0 0 1-.1-.35v-.19c0-.19.06-.35.18-.47.12-.11.31-.18.58-.2l1.01-.05zM89.73 176.16a.8.8 0 0 1-.29-.1.45.45 0 0 1-.19-.25c-.05-.12-.07-.28-.07-.49v-4.99H88.1v5.14c0 .36.05.66.16.88.1.22.25.38.46.49.2.1.46.15.77.15h.63v-.78z" class="st1"/></svg>