<svg xmlns="http://www.w3.org/2000/svg" id="Capa_1" viewBox="0 0 1345.11 584.41"><defs><style>.st0{fill:#acacac}</style></defs><path d="M133.95 144.59V10.94h30.68c5.32 0 9.73.81 13.25 2.43s6.29 4.02 8.31 7.21 3.47 7.13 4.33 11.81 1.29 10.09 1.29 16.21v2.81c0 8.61-.75 15.94-2.24 21.98-1.49 6.05-4.17 10.64-8.01 13.78-3.85 3.14-9.26 4.71-16.25 4.71H154.3v52.7h-20.35ZM154.3 75.1h6.99c2.99 0 5.21-.76 6.68-2.28s2.44-4.04 2.92-7.56.72-8.21.72-14.09v-2.58c-.05-7.24-.68-12.72-1.9-16.44q-1.815-5.58-8.28-5.58h-7.14v48.52ZM234.11 146.11c-6.94 0-12.58-1.3-16.93-3.91q-6.525-3.915-9.57-11.85c-2.03-5.29-3.04-11.98-3.04-20.09V10.94h20.35v98.95c0 3.75.16 7.04.49 9.87.33 2.84 1.13 5.04 2.39 6.61s3.34 2.35 6.23 2.35 4.97-.77 6.26-2.32c1.29-1.54 2.09-3.73 2.39-6.57.3-2.83.46-6.15.46-9.95V10.94h20.35v99.33c0 8.1-1 14.8-3 20.09s-5.16 9.24-9.49 11.85-9.96 3.91-16.9 3.91ZM282.49 144.59V10.94h28.93c6.73 0 12.1 1.02 16.1 3.08q6 3.075 8.7 9.72t2.7 17.43v4.1c0 6.94-.9 12.64-2.7 17.12s-4.8 7.61-9 9.38c3.49 1.17 6.29 3.25 8.39 6.27 2.1 3.01 3.61 6.68 4.52 11.01s1.37 9.07 1.37 14.24v3.42c-.05 8.91-1.09 16.16-3.11 21.76-2.03 5.59-5.19 9.68-9.49 12.26q-6.45 3.87-16.86 3.87H282.5ZM302.84 65h7.52c1.77 0 3.21-.25 4.33-.76 1.11-.51 1.97-1.38 2.58-2.62s1.03-2.97 1.25-5.2c.23-2.23.34-5.06.34-8.51v-8.05c0-3.59-.33-6.33-.99-8.2s-1.66-3.14-3-3.8-3.08-.99-5.2-.99h-6.83v38.12Zm0 63.79h7.21c2.68 0 4.82-.59 6.42-1.78 1.59-1.19 2.75-3.18 3.46-5.96s1.06-6.58 1.06-11.39V98.88q0-9.72-1.86-14.16t-7.71-4.44h-8.58v48.52ZM357.21 144.59V10.94h20.35v116.34h25.74v17.31zM414.77 144.59V10.94h20.35v133.65zM482.96 146.11c-6.48 0-11.87-1.49-16.17-4.48s-7.53-7.35-9.68-13.1-3.23-12.69-3.23-20.85V49.43c0-6.12.5-11.64 1.52-16.55 1.01-4.91 2.66-9.11 4.94-12.61 2.28-3.49 5.32-6.18 9.11-8.05 3.8-1.87 8.48-2.81 14.05-2.81 5.06 0 9.38.82 12.95 2.47s6.48 4.01 8.73 7.1 3.9 6.82 4.94 11.2 1.56 9.3 1.56 14.77v18.38h-19.67V46.24c0-6.58-.56-11.43-1.67-14.54s-3.34-4.67-6.68-4.67c-3.7 0-6.16 1.68-7.4 5.05s-1.86 8.06-1.86 14.09v62.42c0 4.66.27 8.47.8 11.43s1.43 5.14 2.7 6.53 3.04 2.09 5.32 2.09q5.16 0 6.99-4.86c1.21-3.24 1.82-8.38 1.82-15.42V89.22H512v18.91c0 8.46-.99 15.5-2.96 21.15s-5.1 9.86-9.38 12.64-9.83 4.18-16.67 4.18ZM529.59 144.59V10.94h20.35v133.65zM570.37 144.59V10.94h30c6.78 0 12.23 1.35 16.33 4.06s7.07 6.62 8.92 11.73 2.77 11.29 2.77 18.53l.08 60.3c0 8.76-.95 16.04-2.85 21.83-1.9 5.8-4.95 10.11-9.15 12.95s-9.8 4.25-16.78 4.25h-29.31Zm20.35-15.8h6.68c2.38 0 4.37-.48 5.96-1.44q2.385-1.44 3.57-5.13c.78-2.45 1.18-5.94 1.18-10.44l-.08-65.99c0-6.83-.83-11.74-2.51-14.73-1.67-2.99-4.61-4.48-8.81-4.48h-6v102.21ZM639.02 144.59l19.06-133.65h26.88l20.28 133.65h-18.98l-3.19-23.84H661.5l-2.89 23.84zm24.45-40.17h17.47l-8.96-67.13h-.3l-8.2 67.13ZM717.31 144.59V10.94h30c6.78 0 12.23 1.35 16.33 4.06s7.07 6.62 8.92 11.73 2.77 11.29 2.77 18.53l.08 60.3c0 8.76-.95 16.04-2.85 21.83-1.9 5.8-4.95 10.11-9.15 12.95s-9.8 4.25-16.78 4.25h-29.31Zm20.36-15.8h6.68c2.38 0 4.37-.48 5.96-1.44q2.385-1.44 3.57-5.13c.78-2.45 1.18-5.94 1.18-10.44l-.08-65.99c0-6.83-.83-11.74-2.51-14.73-1.67-2.99-4.61-4.48-8.81-4.48h-6v102.21ZM244.98 535.2V401.55h25.29l18.98 97.66 17.85-97.66h25.44V535.2h-18.15v-49.82l.76-45.71-18 94.92h-16.18l-18.76-94.92.76 45.71v49.82h-18ZM344.77 535.2l19.06-133.65h26.88l20.28 133.65h-18.98l-3.19-23.84h-21.57l-2.89 23.84zm24.45-40.17h17.47l-8.96-67.13h-.3l-8.2 67.13ZM423.06 535.2V401.55h33.64c6.99 0 12.2 1.37 15.64 4.1s5.71 6.73 6.8 12 1.63 11.69 1.63 19.29-.8 14.01-2.39 18.49-4.85 7.48-9.76 9q3.495.615 5.85 2.85c1.57 1.49 2.83 3.67 3.8 6.53.96 2.86 1.66 6.53 2.09 11.01s.65 9.96.65 16.44v4.25c0 2.33.01 5.08.04 8.24.03 3.17.06 6.32.11 9.45.05 3.14.13 5.82.23 8.05s.23 3.54.38 3.95h-20.35c-.15-.25-.27-1.56-.34-3.91s-.15-5.35-.23-9c-.08-3.64-.13-7.57-.15-11.77-.03-4.2-.04-8.34-.04-12.42v-10.82c0-4-.29-7.02-.87-9.07s-1.65-3.48-3.19-4.29-3.76-1.29-6.64-1.44l-6.53-.38v63.11h-20.35Zm20.43-78.9h8.13c2.48 0 4.37-.56 5.66-1.67s2.18-3.16 2.66-6.15.72-7.29.72-12.91v-.84c0-4.71-.23-8.33-.68-10.86-.46-2.53-1.41-4.28-2.85-5.24q-2.16-1.44-6.72-1.44h-6.91v39.11ZM498.31 535.2V401.55h20.35v61.51l20.35-61.51h21.04l-22.17 65.91 23.92 67.74h-21.49l-21.49-62.42v62.42h-20.5ZM572.81 535.2V401.55h44.8v17.54h-24.45v38.88h23.24v17.16h-23.24v42.53h25.36v17.54zM640.55 535.2V419.16h-15.64v-17.62h50.96v17.62h-15.04V535.2zM687.71 535.2V401.55h20.35V535.2zM728.49 535.2V401.55h15.95l28.33 80.19-1.44-36.45v-43.74h18.3V535.2H775.2l-29.08-83 1.14 35.08v47.92H728.5ZM834.8 536.56c-8.05 0-14.53-3.18-19.44-9.53s-7.37-16.67-7.37-30.94V438q0-8.955 1.71-16.02c1.14-4.71 2.91-8.69 5.32-11.96 2.4-3.27 5.53-5.75 9.38-7.44 3.85-1.7 8.48-2.54 13.9-2.54 5.87 0 10.66.87 14.35 2.62s6.54 4.28 8.54 7.59c2 3.32 3.38 7.38 4.14 12.19s1.14 10.25 1.14 16.33v9.49h-18.98v-13.97c0-6.02-.62-10.3-1.86-12.83s-3.58-3.8-7.02-3.8c-3.8 0-6.43 1.48-7.9 4.44s-2.2 8.21-2.2 15.76v57.94c0 8.4.62 14.42 1.86 18.04s3.83 5.43 7.78 5.43 6.57-1.86 8.16-5.58 2.39-9.93 2.39-18.64v-18h-10.25v-14.81h28.02v72.98h-9.11l-3.11-13.14c-1.11 4.61-3.48 8.18-7.1 10.71s-7.73 3.8-12.34 3.8Z"/><path d="M912.82 535.2v-54.85h12.31c2.78 0 5.02.56 6.7 1.67s2.9 2.72 3.66 4.81c.76 2.1 1.14 4.63 1.14 7.6l.03 24.74c0 3.59-.39 6.58-1.17 8.96s-2.03 4.15-3.76 5.31c-1.72 1.16-4.02 1.75-6.89 1.75h-12.03Zm8.35-6.48h2.74c.98 0 1.79-.2 2.45-.59.65-.39 1.14-1.09 1.46-2.1s.48-2.44.48-4.28l-.03-27.08c0-2.8-.34-4.82-1.03-6.05s-1.89-1.84-3.62-1.84h-2.46v41.95ZM945.79 484.15v-7.17h8.32v7.17zm.04 51.05v-46.74h8.26v46.74zM974.4 542.21c-2.58.04-4.77-.2-6.57-.73-1.81-.53-3.45-1.4-4.92-2.6l2.9-5.2c1.1.71 2.3 1.28 3.6 1.73s2.71.66 4.22.64c1.58-.02 2.79-.57 3.62-1.65s1.25-2.52 1.25-4.33v-3.71c-.54 1.56-1.37 2.63-2.48 3.21s-2.46.87-4.04.87c-2.2 0-3.93-.58-5.19-1.75s-2.14-2.75-2.66-4.77c-.52-2.01-.78-4.3-.78-6.86v-15.05c0-2.72.27-5.15.81-7.28s1.46-3.81 2.77-5.03 3.11-1.83 5.39-1.81c1.6 0 2.92.41 3.97 1.22s1.78 1.97 2.2 3.49v-4.14h8.26v40.98c0 1.85-.21 3.55-.62 5.09-.42 1.55-1.1 2.89-2.06 4.02s-2.22 2.02-3.8 2.65-3.53.97-5.86 1.01Zm.85-18.04c.75 0 1.36-.22 1.84-.67s.83-1.22 1.06-2.31.34-2.61.34-4.57v-15.3q0-3.09-.75-4.92c-.5-1.23-1.4-1.84-2.71-1.84-1 0-1.73.29-2.21.87s-.79 1.38-.93 2.38c-.15 1.01-.22 2.17-.22 3.47v15.39c0 2.31.22 4.13.65 5.47.44 1.34 1.41 2.01 2.93 2.01ZM996.31 484.15v-7.17h8.32v7.17zm.03 51.05v-46.74h8.26v46.74zM1022.84 535.51c-1.99 0-3.52-.25-4.58-.76s-1.79-1.31-2.18-2.42c-.39-1.1-.59-2.52-.59-4.27V495.4h-3.8v-5.98h3.8v-9.07h8.26v9.07h4.55v5.98h-4.55v31.22c0 .73.12 1.28.34 1.65s.68.62 1.36.75c.67.12 1.68.19 3.01.19v6.29h-5.61ZM1043.38 535.67c-3.2 0-5.42-1.16-6.65-3.49s-1.88-5.41-1.92-9.26v-2.99c0-2.49.36-4.52 1.08-6.08s1.74-2.82 3.07-3.8q1.995-1.47 4.77-2.55c1.85-.73 3.91-1.51 6.17-2.34v-4.08c0-1.58-.06-2.84-.19-3.79s-.41-1.64-.84-2.07-1.11-.65-2.03-.65-1.57.22-2.04.67-.79 1.13-.95 2.06c-.17.92-.25 2.1-.25 3.54v2.09h-8.17v-1.4c0-2.14.18-4.05.55-5.73.36-1.68.98-3.11 1.85-4.29s2.06-2.07 3.57-2.68 3.4-.92 5.69-.92c2.01 0 3.74.29 5.17.86s2.6 1.42 3.49 2.55 1.55 2.55 1.96 4.25c.42 1.7.62 3.69.62 5.95v33.69h-8.32v-4.64c-.25.89-.67 1.73-1.28 2.51-.6.78-1.36 1.41-2.26 1.89s-1.94.72-3.1.72Zm2.86-6.36c1.04 0 1.87-.37 2.49-1.12s1.01-1.51 1.15-2.27v-16.08c-1.25.56-2.3 1.09-3.15 1.57s-1.54 1.02-2.06 1.6-.89 1.27-1.12 2.06-.34 1.76-.34 2.9v5.24c0 2.14.22 3.69.67 4.66s1.23 1.45 2.35 1.45ZM1067.47 535.2v-55.31h8.23v55.31zM925.35 460.89c-2.85 0-5.17-.6-6.96-1.81-1.8-1.2-3.12-2.99-3.97-5.36s-1.28-5.3-1.28-8.79v-25.09c0-3.16.42-5.86 1.25-8.1s2.15-3.97 3.96-5.17c1.81-1.21 4.18-1.81 7.11-1.81 2.2 0 4.06.34 5.58 1.03s2.74 1.68 3.68 2.98q1.41 1.95 2.04 4.74c.63 2.79.64 3.97.64 6.34v25.09q0 5.235-1.23 8.79c-1.23 3.555-2.11 4.16-3.88 5.36-1.77 1.21-4.07 1.81-6.92 1.81Zm0-7.23q1.56 0 2.34-.93c.78-.93.87-1.57 1.04-2.85.18-1.28.26-2.89.26-4.85v-25.55c0-2.39-.22-4.23-.67-5.53q-.675-1.95-2.88-1.95c-2.205 0-2.54.63-3.09 1.89s-.81 3.11-.81 5.56v25.58c0 1.99.09 3.63.27 4.91s.54 2.22 1.09 2.82 1.37.9 2.45.9M946.23 460.27v-38.95h-3.61v-5.95h3.64v-2.43c0-2.62.68-4.65 2.03-6.09s3.28-2.17 5.79-2.17c1.29 0 2.4.1 3.35.3s1.54.35 1.79.45v5.2c-.6-.08-1.23-.12-1.87-.12-1.06 0-1.8.22-2.23.65-.43.44-.64 1.11-.64 2.03v2.18h11.62v-2.43c0-1.77.18-3.3.54-4.6s1.25-2.31 2.65-3.02 3.65-1.08 6.75-1.08c.97 0 2.06.04 3.24.11s2.47.19 3.86.34c1.39.16 2.9.35 4.54.59 1.63.24 3.39.53 5.28.86v54.13h-8.23v-49.64q-2.085-.465-3.66-.69c-1.575-.225-1.95-.22-2.7-.22-1.43 0-2.43.2-2.99.59s-.88.86-.95 1.39-.11 1.02-.11 1.48v2.18h4.74v5.95h-4.74v38.95h-8.26v-38.95h-11.59v38.95h-8.26ZM1001.39 409.23v-7.17h8.32v7.17zm.03 51.04v-46.74h8.26v46.74zM1018 460.27v-46.74h8.26v5.36c.42-1.6 1.29-2.99 2.62-4.16s2.96-1.76 4.89-1.76c2.7 0 4.72.9 6.08 2.7 1.35 1.8 2.03 4.4 2.03 7.81v36.8h-8.26v-36.3c0-1.35-.31-2.41-.92-3.18s-1.45-1.15-2.51-1.15c-.85 0-1.57.23-2.17.7s-1.03 1.11-1.32 1.93-.44 1.78-.44 2.88v35.12H1018ZM1060.69 460.83c-2.35 0-4.28-.37-5.78-1.12-1.51-.75-2.68-1.83-3.52-3.24s-1.43-3.11-1.76-5.09-.5-4.2-.5-6.65v-17.42c0-2.18.22-4.16.67-5.92s1.14-3.27 2.09-4.52 2.18-2.21 3.69-2.88c1.52-.67 3.34-1.01 5.48-1.01s4 .33 5.45 1c1.46.67 2.6 1.63 3.44 2.9s1.44 2.79 1.81 4.57q.54 2.67.54 6.03v10h-14.87v9.19c0 2.26.18 4.08.53 5.45s1.32 2.06 2.9 2.06c1.06 0 1.81-.32 2.26-.97.45-.64.72-1.53.81-2.66s.14-2.42.14-3.88v-4.11h8.16v2.49c0 2.51-.15 4.75-.45 6.7q-.45 2.925-1.68 4.95c-.82 1.35-1.99 2.38-3.51 3.08s-3.49 1.06-5.92 1.06Zm-3.27-28.2h6.67v-5.98c0-1.56-.07-2.87-.22-3.94-.14-1.07-.44-1.87-.87-2.42-.44-.54-1.1-.81-1.99-.81-1.1 0-1.91.32-2.41.97-.51.64-.83 1.52-.97 2.63s-.2 2.37-.2 3.79v5.77ZM275.43 251.75V196.9h10.38l7.79 40.07 7.32-40.07h10.44v54.85h-7.45v-20.44l.31-18.76-7.38 38.95h-6.64l-7.7-38.95.31 18.76v20.44h-7.39ZM327.22 252.22c-3.2 0-5.42-1.16-6.65-3.49-1.24-2.33-1.88-5.41-1.92-9.25v-2.99c0-2.49.36-4.52 1.08-6.08s1.74-2.83 3.07-3.8c1.33-.98 2.92-1.83 4.77-2.56s3.91-1.51 6.17-2.34v-4.08c0-1.58-.06-2.84-.19-3.79-.12-.94-.41-1.64-.84-2.07-.44-.44-1.11-.65-2.03-.65s-1.57.22-2.04.67-.78 1.13-.95 2.06c-.17.92-.25 2.1-.25 3.54v2.09h-8.17v-1.4c0-2.14.18-4.05.55-5.73.36-1.68.98-3.11 1.85-4.28s2.06-2.07 3.57-2.68 3.4-.92 5.69-.92c2.01 0 3.74.29 5.17.86s2.6 1.42 3.49 2.56c.89 1.13 1.55 2.55 1.96 4.25.42 1.7.62 3.69.62 5.95v33.69h-8.32v-4.64c-.25.89-.67 1.73-1.28 2.51-.6.78-1.36 1.41-2.26 1.89s-1.94.72-3.1.72Zm2.87-6.36c1.04 0 1.87-.37 2.49-1.12s1.01-1.51 1.15-2.27v-16.08a38 38 0 0 0-3.15 1.57c-.85.49-1.54 1.02-2.06 1.6s-.89 1.27-1.12 2.06-.34 1.76-.34 2.9v5.24c0 2.14.22 3.69.67 4.66s1.23 1.45 2.35 1.45ZM349.84 251.75v-46.74h8.32v5.2c.54-1.81 1.48-3.22 2.82-4.24s3.05-1.53 5.13-1.53c.04 0 .07.35.08 1.06s.02 1.52.02 2.43v3.49c-.96 0-1.99.11-3.1.34s-2.12.58-3.02 1.04c-.9.47-1.54 1.09-1.92 1.85v37.08h-8.32ZM382.84 252.32c-2.39 0-4.36-.37-5.92-1.11s-2.78-1.8-3.66-3.19-1.5-3.09-1.85-5.08-.53-4.25-.53-6.76v-15.15c0-3.45.32-6.41.97-8.88q.96-3.705 3.57-5.7c1.73-1.33 4.24-1.99 7.53-1.99 2.02 0 3.72.31 5.11.94 1.39.62 2.51 1.52 3.37 2.7.85 1.17 1.47 2.59 1.85 4.25s.58 3.53.58 5.61v5.14h-7.98v-5.42c0-1.35-.06-2.51-.19-3.47-.12-.97-.41-1.7-.84-2.21-.44-.51-1.13-.76-2.09-.76s-1.66.26-2.18.78-.88 1.27-1.08 2.26q-.3 1.485-.3 3.54v21.07c0 1.41.09 2.62.26 3.61.18 1 .51 1.76 1 2.29s1.21.79 2.17.79 1.64-.28 2.1-.83c.47-.55.77-1.32.92-2.32.14-1 .22-2.17.22-3.52v-5.55h7.98v4.74c0 2.14-.19 4.09-.56 5.84-.37 1.76-.99 3.26-1.84 4.5-.85 1.25-1.98 2.21-3.4 2.88-1.41.67-3.15 1.01-5.2 1.01ZM408.4 252.22c-3.2 0-5.42-1.16-6.65-3.49-1.24-2.33-1.88-5.41-1.92-9.25v-2.99c0-2.49.36-4.52 1.08-6.08s1.74-2.83 3.07-3.8c1.33-.98 2.92-1.83 4.77-2.56s3.91-1.51 6.17-2.34v-4.08c0-1.58-.06-2.84-.19-3.79-.12-.94-.41-1.64-.84-2.07-.44-.44-1.11-.65-2.03-.65s-1.57.22-2.04.67-.78 1.13-.95 2.06c-.17.92-.25 2.1-.25 3.54v2.09h-8.17v-1.4c0-2.14.18-4.05.55-5.73.36-1.68.98-3.11 1.85-4.28s2.06-2.07 3.57-2.68 3.4-.92 5.69-.92c2.01 0 3.74.29 5.17.86s2.6 1.42 3.49 2.56c.89 1.13 1.55 2.55 1.96 4.25.42 1.7.62 3.69.62 5.95v33.69h-8.32v-4.64c-.25.89-.67 1.73-1.28 2.51-.6.78-1.36 1.41-2.26 1.89s-1.94.72-3.1.72Zm2.86-6.36c1.04 0 1.87-.37 2.49-1.12s1.01-1.51 1.15-2.27v-16.08a38 38 0 0 0-3.15 1.57c-.85.49-1.54 1.02-2.06 1.6s-.89 1.27-1.12 2.06-.34 1.76-.34 2.9v5.24c0 2.14.22 3.69.67 4.66s1.23 1.45 2.35 1.45ZM440.68 252.35c-3.76 0-6.55-1.07-8.38-3.21s-2.74-5.64-2.74-10.5v-3.02h7.76v3.77c0 2.04.25 3.58.75 4.64q.75 1.59 2.43 1.59c1.68 0 1.88-.36 2.4-1.09s.78-1.98.78-3.77c0-1.04-.15-2.05-.45-3.02-.3-.98-.77-1.94-1.4-2.88s-1.45-1.86-2.45-2.76l-4.21-3.8c-1.93-1.75-3.38-3.63-4.33-5.66-.96-2.03-1.43-4.26-1.43-6.72 0-3.97.93-6.87 2.79-8.71s4.62-2.76 8.27-2.76c2.37 0 4.33.44 5.89 1.32s2.72 2.31 3.49 4.28S451 214.67 451 218v2.56h-7.39v-3.09c0-2.06-.23-3.61-.7-4.67s-1.26-1.59-2.38-1.59-1.91.31-2.43.92-.8 1.69-.84 3.23c-.02.83.08 1.65.31 2.45s.59 1.58 1.08 2.34 1.13 1.5 1.92 2.23l4.42 4.02c2.33 2.1 4.05 4.29 5.16 6.58s1.67 4.76 1.67 7.42c0 3.93-.89 6.9-2.68 8.93s-4.6 3.04-8.45 3.04ZM182.29 342c-2.66 0-4.87-.61-6.64-1.84-1.77-1.22-3.09-3.02-3.97-5.38q-1.32-3.54-1.32-8.55v-23.9c0-2.51.21-4.78.62-6.79.42-2.01 1.09-3.74 2.03-5.17.93-1.43 2.18-2.53 3.74-3.3s3.48-1.15 5.76-1.15c2.08 0 3.85.34 5.31 1.01s2.66 1.65 3.58 2.91c.92 1.27 1.6 2.8 2.03 4.6.42 1.8.64 3.82.64 6.06v7.54H186v-7.01q0-4.05-.69-5.97c-.46-1.28-1.37-1.92-2.74-1.92-1.52 0-2.53.69-3.04 2.07s-.76 3.31-.76 5.78v25.62c0 1.91.11 3.47.33 4.69s.59 2.11 1.11 2.68 1.25.86 2.18.86c1.41 0 2.37-.67 2.87-1.99q.75-1.995.75-6.33v-7.85h8.2v7.76c0 3.47-.4 6.36-1.21 8.68s-2.09 4.05-3.85 5.19-4.04 1.71-6.84 1.71ZM212.27 341.94c-2.24 0-4.12-.35-5.64-1.04-1.52-.7-2.72-1.7-3.6-3.02s-1.52-2.93-1.9-4.83-.58-4.07-.58-6.5v-17.48c0-2.93.38-5.52 1.14-7.78.76-2.25 2-4.02 3.72-5.3s4.01-1.92 6.86-1.92c2.16 0 3.98.36 5.47 1.09 1.48.73 2.68 1.76 3.58 3.1s1.56 2.92 1.98 4.75.62 3.84.62 6.05v17.48c0 2.39-.18 4.53-.55 6.42-.36 1.89-.99 3.51-1.87 4.85s-2.07 2.36-3.57 3.07-3.39 1.06-5.67 1.06Zm0-6.67c.94 0 1.64-.29 2.12-.86s.8-1.37.97-2.38c.17-1.02.25-2.19.25-3.52V307.6c0-1.41-.09-2.63-.28-3.65s-.52-1.81-1-2.37-1.16-.84-2.06-.84-1.65.28-2.13.84c-.49.56-.82 1.35-1 2.37s-.26 2.23-.26 3.65v20.91c0 1.33.09 2.5.26 3.52s.51 1.81 1 2.38 1.2.86 2.13.86M231.46 341.38v-46.74h8.32v5.2c.54-1.81 1.48-3.22 2.82-4.24s3.05-1.53 5.13-1.53c.04 0 .07.35.08 1.06s.02 1.52.02 2.43v3.49c-.96 0-1.99.11-3.1.34s-2.12.58-3.02 1.04c-.9.47-1.54 1.09-1.92 1.85v37.08h-8.32ZM253.18 350.26v-55.62h8.26v4.21c.6-1.54 1.55-2.7 2.84-3.49s2.59-1.18 3.9-1.18c2.39 0 4.2.64 5.42 1.92q1.845 1.92 2.49 5.22c.44 2.2.65 4.67.65 7.42v17.05c0 2.99-.21 5.71-.62 8.16-.42 2.45-1.29 4.4-2.63 5.84s-3.38 2.17-6.12 2.17c-1.27 0-2.42-.34-3.46-1.03s-1.86-1.47-2.46-2.37v11.72h-8.26Zm11.91-15.02c1.39 0 2.29-.68 2.71-2.04s.62-3.31.62-5.84v-19.38c0-1.35-.07-2.57-.2-3.66-.14-1.09-.43-1.96-.89-2.6s-1.18-.97-2.18-.97c-.77 0-1.43.2-1.98.59-.55.4-.98 1.11-1.28 2.15s-.45 2.52-.45 4.46v19.76c0 2.39.23 4.24.69 5.56s1.44 1.98 2.96 1.98ZM295.31 341.94c-2.24 0-4.12-.35-5.64-1.04-1.52-.7-2.72-1.7-3.6-3.02s-1.52-2.93-1.9-4.83-.58-4.07-.58-6.5v-17.48c0-2.93.38-5.52 1.14-7.78.76-2.25 2-4.02 3.72-5.3s4.01-1.92 6.86-1.92c2.16 0 3.98.36 5.47 1.09 1.48.73 2.68 1.76 3.58 3.1s1.56 2.92 1.98 4.75.62 3.84.62 6.05v17.48c0 2.39-.18 4.53-.55 6.42-.36 1.89-.99 3.51-1.87 4.85s-2.07 2.36-3.57 3.07-3.39 1.06-5.67 1.06Zm0-6.67c.94 0 1.64-.29 2.12-.86s.8-1.37.97-2.38c.17-1.02.25-2.19.25-3.52V307.6c0-1.41-.09-2.63-.28-3.65s-.52-1.81-1-2.37-1.16-.84-2.06-.84-1.65.28-2.13.84c-.49.56-.82 1.35-1 2.37s-.26 2.23-.26 3.65v20.91c0 1.33.09 2.5.26 3.52s.51 1.81 1 2.38 1.2.86 2.13.86M314.51 341.38v-46.74h8.32v5.2c.54-1.81 1.48-3.22 2.82-4.24s3.05-1.53 5.13-1.53c.04 0 .07.35.08 1.06s.02 1.52.02 2.43v3.49c-.96 0-1.99.11-3.1.34s-2.12.58-3.02 1.04c-.9.47-1.54 1.09-1.92 1.85v37.08h-8.32ZM343.83 341.85c-3.2 0-5.42-1.16-6.65-3.49s-1.88-5.41-1.92-9.26v-2.99c0-2.49.36-4.52 1.08-6.08s1.74-2.82 3.07-3.8q1.995-1.47 4.77-2.55c2.775-1.08 3.91-1.51 6.17-2.34v-4.08c0-1.58-.06-2.84-.19-3.79s-.41-1.64-.84-2.07c-.44-.44-1.11-.65-2.03-.65s-1.57.22-2.04.67-.78 1.13-.95 2.06c-.17.92-.25 2.1-.25 3.54v2.09h-8.17v-1.4c0-2.14.18-4.05.55-5.73.36-1.68.98-3.11 1.85-4.29.87-1.17 2.06-2.07 3.57-2.68s3.4-.92 5.69-.92c2.01 0 3.74.29 5.17.86s2.6 1.42 3.49 2.55 1.55 2.55 1.96 4.25c.42 1.7.62 3.69.62 5.95v33.69h-8.32v-4.64c-.25.89-.67 1.73-1.28 2.51s-1.36 1.41-2.26 1.89-1.94.72-3.1.72Zm2.87-6.36c1.04 0 1.87-.37 2.49-1.12s1.01-1.51 1.15-2.27v-16.08a38 38 0 0 0-3.15 1.57c-.85.49-1.54 1.02-2.06 1.6s-.89 1.27-1.12 2.06-.34 1.76-.34 2.9v5.24c0 2.14.22 3.69.67 4.66s1.23 1.45 2.35 1.45ZM374.87 341.69c-1.99 0-3.52-.25-4.58-.76s-1.79-1.31-2.18-2.42c-.39-1.1-.59-2.52-.59-4.27v-32.66h-3.8v-5.98h3.8v-9.07h8.26v9.07h4.55v5.98h-4.55v31.22c0 .73.11 1.28.34 1.65s.68.62 1.36.75c.67.12 1.68.19 3.01.19v6.29h-5.61ZM386.43 290.34v-7.17h8.32v7.17zm.03 51.04v-46.74h8.26v46.74zM407.19 341.38l-6.76-46.74h7.79l3.02 24.87 1.03 11.19h.62l.87-11.22 2.59-24.84h7.73l-6.76 46.74zM440.66 341.94c-2.24 0-4.12-.35-5.64-1.04-1.52-.7-2.72-1.7-3.6-3.02s-1.52-2.93-1.9-4.83-.58-4.07-.58-6.5v-17.48c0-2.93.38-5.52 1.14-7.78.76-2.25 2-4.02 3.72-5.3s4.01-1.92 6.86-1.92c2.16 0 3.98.36 5.47 1.09 1.48.73 2.68 1.76 3.58 3.1s1.56 2.92 1.98 4.75.62 3.84.62 6.05v17.48c0 2.39-.18 4.53-.55 6.42-.36 1.89-.99 3.51-1.87 4.85s-2.07 2.36-3.57 3.07-3.39 1.06-5.67 1.06Zm0-6.67c.94 0 1.64-.29 2.12-.86s.8-1.37.97-2.38c.17-1.02.25-2.19.25-3.52V307.6c0-1.41-.09-2.63-.28-3.65s-.52-1.81-1-2.37-1.16-.84-2.06-.84-1.65.28-2.13.84c-.49.56-.82 1.35-1 2.37s-.26 2.23-.26 3.65v20.91c0 1.33.09 2.5.26 3.52s.51 1.81 1 2.38 1.2.86 2.13.86M14.62 69.84c-4.26 0-7.21-1.27-8.87-3.82-1.65-2.54-2.48-6.4-2.48-11.58v-3.58h7.82v3.8c0 1.85.08 3.37.25 4.55s.52 2.06 1.06 2.62q.81.84 2.49.84c1.68 0 1.93-.34 2.49-1.01s.94-1.69 1.14-3.05q.3-2.04.3-5.1c0-2.39-.14-4.33-.41-5.81-.27-1.49-.77-2.57-1.5-3.26s-1.78-1.03-3.15-1.03h-2.37v-6.36h2.31c1.33 0 2.36-.3 3.1-.89s1.26-1.54 1.56-2.84q.45-1.95.45-5.13c0-1.95-.15-3.45-.44-4.49s-.72-1.76-1.28-2.17-1.24-.61-2.03-.61c-.94 0-1.67.24-2.21.73q-.81.735-1.14 2.34c-.22 1.07-.33 2.49-.33 4.25v1.65H3.33v-1.71c0-4.9.86-8.54 2.59-10.91 1.72-2.37 4.72-3.55 8.97-3.55s7.2 1.21 9.13 3.61c1.93 2.41 2.9 6.03 2.9 10.84 0 2.89-.45 5.38-1.34 7.46s-2.33 3.5-4.3 4.22c1.45.67 2.6 1.64 3.43 2.93s1.42 2.83 1.78 4.63c.35 1.8.53 3.83.53 6.09q0 8.01-2.82 12.15c-1.88 2.76-5.07 4.14-9.58 4.14ZM45.47 69.87c-2.53 0-4.61-.39-6.23-1.17s-2.88-1.91-3.77-3.38-1.51-3.27-1.85-5.38-.51-4.49-.51-7.15V30.26c0-4.18.46-7.47 1.37-9.88s2.29-4.12 4.13-5.14q2.76-1.53 6.96-1.53c2.43 0 4.43.45 6 1.34q2.355 1.335 3.51 4.38c.77 2.03 1.16 4.74 1.18 8.15v2.84h-7.79V29.3c0-2.06-.06-3.69-.19-4.91-.12-1.21-.42-2.09-.89-2.62s-1.21-.79-2.23-.79-1.85.28-2.38.83-.88 1.45-1.06 2.71-.26 2.97-.26 5.13v7.82q.9-1.245 2.55-1.92c1.1-.45 2.32-.68 3.65-.7 2.49-.04 4.45.54 5.86 1.76 1.41 1.21 2.41 3.04 2.99 5.47s.87 5.45.87 9.07v3.02c0 3.43-.34 6.31-1.01 8.65-.68 2.34-1.87 4.1-3.58 5.28s-4.15 1.78-7.31 1.78Zm0-7.26c1 0 1.78-.21 2.34-.62q.84-.63 1.17-2.13c.22-1.01.33-2.39.33-4.16v-5.2q0-3.06-.33-4.89c-.22-1.23-.6-2.12-1.14-2.68s-1.28-.84-2.21-.84q-1.185 0-2.07.42c-.59.28-1.07.64-1.43 1.08s-.59.91-.67 1.43v9.91c0 1.77.12 3.21.36 4.35.24 1.13.65 1.97 1.25 2.52.59.55 1.4.83 2.42.83ZM75.16 69.87c-2.99 0-5.4-.61-7.21-1.84-1.82-1.23-3.14-2.99-3.96-5.3s-1.23-5.08-1.23-8.32V28.2c0-3.16.42-5.81 1.26-7.96s2.18-3.78 4-4.88q2.745-1.65 7.14-1.65c4.395 0 5.3.55 7.12 1.65s3.15 2.73 4 4.88 1.28 4.8 1.28 7.96v26.21q0 3.645-.69 6.51c-.69 2.865-1.17 3.53-2.15 4.86s-2.25 2.34-3.83 3.04-3.49 1.04-5.73 1.04Zm-.03-7.2q.9 0 1.65-.3t1.29-1.14c.36-.56.64-1.38.84-2.45s.3-2.48.3-4.22V27.85c0-2.04-.19-3.55-.56-4.53q-.555-1.485-1.5-1.95c-.62-.31-1.3-.47-2.03-.47s-1.37.15-1.98.44-1.11.92-1.5 1.9c-.38.98-.58 2.5-.58 4.58v26.74c0 1.77.09 3.18.26 4.25.18 1.07.44 1.88.79 2.45.35.56.78.93 1.28 1.12s1.07.28 1.71.28ZM105.48 51.92c-2.39 0-4.28-.49-5.67-1.46-1.39-.98-2.38-2.38-2.96-4.22s-.87-4.05-.87-6.62v-13.9c0-2.33.3-4.39.89-6.19s1.58-3.21 2.98-4.24c1.39-1.03 3.27-1.54 5.64-1.54s4.36.51 5.72 1.53 2.32 2.43 2.87 4.22c.55 1.8.83 3.87.83 6.22v13.9c0 2.51-.28 4.7-.84 6.54-.56 1.85-1.53 3.27-2.9 4.27s-3.26 1.5-5.67 1.5Zm0-5.3c.98.02 1.67-.45 2.09-1.42s.62-2.3.62-4V24.53c0-1.68-.18-3.01-.55-3.99s-1.09-1.46-2.17-1.46-1.86.49-2.23 1.46c-.36.98-.55 2.31-.55 3.99V41.2c0 1.64.21 2.95.62 3.93.42.98 1.13 1.48 2.15 1.5Z" class="st0"/><path d="M481.66 368.99V165.25h44.1c10.26 0 18.44 1.56 24.54 4.69 6.09 3.13 10.51 8.07 13.25 14.82s4.11 15.61 4.11 26.57v6.25q0 15.855-4.11 26.1c-2.74 6.83-7.31 11.6-13.72 14.3 5.32 1.78 9.59 4.96 12.79 9.55s5.5 10.19 6.89 16.79 2.08 13.83 2.08 21.7v5.21c-.08 13.58-1.66 24.64-4.75 33.17s-7.91 14.76-14.47 18.7-15.13 5.9-25.7 5.9h-45.03Zm31.02-121.31h11.46c2.7 0 4.9-.39 6.6-1.16s3.01-2.1 3.94-3.99 1.56-4.53 1.91-7.93.52-7.72.52-12.97v-12.27c0-5.48-.5-9.65-1.5-12.5s-2.53-4.78-4.57-5.79c-2.05-1-4.69-1.5-7.93-1.5h-10.42v58.11Zm0 97.24h11c4.09 0 7.35-.91 9.78-2.72s4.18-4.84 5.27-9.09c1.08-4.24 1.62-10.03 1.62-17.36v-16.44c0-9.88-.95-17.07-2.84-21.59-1.89-4.51-5.81-6.77-11.75-6.77h-13.08zM595.57 368.99V165.25h51.28c10.65 0 18.6 2.08 23.85 6.25s8.7 10.26 10.36 18.29q2.49 12.045 2.49 29.4c0 17.355-1.22 21.36-3.65 28.19s-7.39 11.4-14.88 13.72c3.55.62 6.52 2.07 8.91 4.34q3.585 3.42 5.79 9.96c1.46 4.36 2.53 9.96 3.18 16.79s.98 15.18.98 25.06v6.48c0 3.55.02 7.74.06 12.56s.1 9.63.17 14.41c.08 4.79.19 8.88.35 12.27.15 3.4.35 5.4.58 6.02h-31.02c-.23-.39-.4-2.37-.52-5.96s-.23-8.16-.35-13.72-.19-11.54-.23-17.94q-.06-9.6-.06-18.93v-16.49c0-6.1-.45-10.71-1.33-13.83q-1.335-4.695-4.86-6.54c-2.35-1.23-5.73-1.97-10.13-2.2l-9.96-.58V369h-31.02Zm31.14-120.27h12.39c3.78 0 6.66-.85 8.62-2.55 1.97-1.7 3.32-4.82 4.05-9.38.73-4.55 1.1-11.11 1.1-19.68v-1.27c0-7.18-.35-12.69-1.04-16.55s-2.14-6.52-4.34-7.99-5.61-2.2-10.25-2.2h-10.53zM698.24 368.99l29.06-203.74h40.98l30.91 203.74h-28.94l-4.86-36.35h-32.88l-4.4 36.35zm37.28-61.23h26.62l-13.66-102.33h-.46zM817.59 368.99V165.25h24.31l43.18 122.24-2.2-55.56v-66.68h27.9v203.74h-21.99l-44.34-126.52 1.74 53.48v73.04H817.6ZM941.34 368.99V165.25h45.72c10.34 0 18.64 2.07 24.89 6.19 6.25 4.13 10.78 10.09 13.6 17.88 2.82 7.8 4.23 17.21 4.23 28.25l.12 91.91c0 13.35-1.45 24.44-4.34 33.28q-4.335 13.26-13.95 19.74c-6.41 4.32-14.93 6.48-25.58 6.48h-44.68Zm31.02-24.07h10.19c3.63 0 6.66-.73 9.09-2.2 2.43-1.46 4.24-4.07 5.44-7.81s1.79-9.05 1.79-15.92l-.12-100.59c0-10.42-1.27-17.9-3.82-22.46-2.55-4.55-7.02-6.83-13.43-6.83h-9.14zM1058.72 368.99V165.25h31.02v203.74zM1120.88 368.99V165.25h24.31l43.18 122.24-2.2-55.56v-66.68h27.9v203.74h-21.99l-44.34-126.52 1.74 53.48v73.04h-28.59ZM1282.94 371.08c-12.27 0-22.15-4.84-29.63-14.53-7.49-9.68-11.23-25.41-11.23-47.17v-88.56c0-9.11.87-17.25 2.6-24.43s4.44-13.25 8.1-18.23 8.43-8.76 14.3-11.34c5.86-2.58 12.93-3.88 21.18-3.88 8.95 0 16.24 1.33 21.88 3.99q8.445 3.99 13.02 11.58c3.05 5.06 5.15 11.25 6.31 18.58s1.74 15.63 1.74 24.89v14.47h-28.94v-21.3c0-9.18-.95-15.7-2.84-19.56q-2.835-5.79-10.71-5.79c-5.79 0-9.8 2.26-12.04 6.77s-3.36 12.52-3.36 24.02v88.32c0 12.81.94 21.98 2.84 27.49 1.89 5.52 5.85 8.28 11.87 8.28s10.01-2.84 12.44-8.51 3.65-15.14 3.65-28.42v-27.44h-15.63v-22.57h42.71v111.24h-13.89l-4.75-20.03c-1.7 7.02-5.31 12.46-10.82 16.32q-8.28 5.79-18.81 5.79Z"/></svg>