<svg xmlns="http://www.w3.org/2000/svg" xmlns:xlink="http://www.w3.org/1999/xlink" id="Capa_1" viewBox="0 0 241.16 105.42"><defs><radialGradient id="Degradado_sin_nombre_3" cx="-3275.38" cy="46.04" r="1.67" data-name="Degradado sin nombre 3" fx="-3275.38" fy="46.04" gradientTransform="translate(10547.47 -139.46)scale(3.16)" gradientUnits="userSpaceOnUse"><stop offset="0" stop-color="#fae90d"/><stop offset=".36" stop-color="#f8d810"/><stop offset="1" stop-color="#f5b21a"/></radialGradient><radialGradient xlink:href="#Degradado_sin_nombre_3" id="Degradado_sin_nombre_31" cx="-3399.03" cy="39.27" r="1.68" data-name="Degradado sin nombre 3" fx="-3399.03" fy="39.27" gradientTransform="matrix(3.45 0 0 3.52 11914.04 -123.1)"/><radialGradient xlink:href="#Degradado_sin_nombre_3" id="Degradado_sin_nombre_32" cx="-3410.86" cy="38.97" r="1.67" data-name="Degradado sin nombre 3" fx="-3410.86" fy="38.97" gradientTransform="matrix(3.47 0 0 3.54 11981.52 -122.1)"/><radialGradient xlink:href="#Degradado_sin_nombre_3" id="Degradado_sin_nombre_33" cx="-3265.76" cy="46.64" r="1.67" data-name="Degradado sin nombre 3" fx="-3265.76" fy="46.64" gradientTransform="translate(10429.7 -140.02)scale(3.14)"/><radialGradient xlink:href="#Degradado_sin_nombre_3" id="Degradado_sin_nombre_34" cx="-3335.39" cy="43.99" r="1.68" data-name="Degradado sin nombre 3" fx="-3335.39" fy="43.99" gradientTransform="matrix(3.3 0 0 3.37 11206.9 -119.81)"/><radialGradient xlink:href="#Degradado_sin_nombre_3" id="Degradado_sin_nombre_35" cx="-3341.39" cy="44.09" r="1.67" data-name="Degradado sin nombre 3" fx="-3341.39" fy="44.09" gradientTransform="matrix(3.3 0 0 3.37 11169.87 -119.49)"/><radialGradient xlink:href="#Degradado_sin_nombre_3" id="Degradado_sin_nombre_36" cx="-4282.96" cy="4.65" r="1.67" data-name="Degradado sin nombre 3" fx="-4282.96" fy="4.65" gradientTransform="matrix(9.45 0 -.00825 9.66 40659.79 -20.2)"/><radialGradient id="Degradado_sin_nombre_24" cx="-4530.96" cy="-17.07" r="1.67" data-name="Degradado sin nombre 24" fx="-4530.96" fy="-17.07" gradientTransform="matrix(18.57 0 0 18.98 84334.01 361.37)" gradientUnits="userSpaceOnUse"><stop offset="0" stop-color="#ede889"/><stop offset=".11" stop-color="#d4d87e"/><stop offset=".42" stop-color="#98b362"/><stop offset=".68" stop-color="#6c984e"/><stop offset=".88" stop-color="#528742"/><stop offset="1" stop-color="#48813e"/></radialGradient><radialGradient xlink:href="#Degradado_sin_nombre_24" id="Degradado_sin_nombre_241" cx="-4530.95" cy="-17.07" r="1.67" data-name="Degradado sin nombre 24" fx="-4530.95" fy="-17.07" gradientTransform="matrix(18.57 0 0 18.98 84331.16 361.33)"/><radialGradient xlink:href="#Degradado_sin_nombre_24" id="Degradado_sin_nombre_242" cx="-4612.21" cy="-21.34" r="1.67" data-name="Degradado sin nombre 24" fx="-4612.21" fy="-21.34" gradientTransform="matrix(27.14 0 0 27.73 125348.53 626.9)"/><clipPath id="clippath"><path d="m179.58 9.58 9.59 2.73L187.28 0z" class="st0"/></clipPath><clipPath id="clippath-1"><path d="m187.63 13.34.06.33 6.77 7.67 5.18-12.28z" class="st0"/></clipPath><clipPath id="clippath-2"><path d="m150.1 9.99 5.72 11.82 6.85-8.1z" class="st0"/></clipPath><clipPath id="clippath-3"><path d="m167.81 12.52 9.51-2.96-8.31-9.28z" class="st0"/></clipPath><clipPath id="clippath-4"><path d="m195.68 23.17 1.6 10.57 10.91-7.38z" class="st0"/></clipPath><clipPath id="clippath-5"><path d="m142.57 27.74 11.15 6.64 1.34-10.61z" class="st0"/></clipPath><clipPath id="clippath-6"><path d="M175.01 12.41c-10.46.2-18.79 9.02-18.58 19.71.02 1.78.29 3.5.77 5.13 15.73-3.4 29.1-2.49 36.67-1.39.3-1.43.45-2.92.42-4.45-.19-10.56-8.63-19-18.93-19z" class="st0"/></clipPath><clipPath id="clippath-7"><path d="M117.72 50.67c1.53-.55 3.04-1.05 4.53-1.52-2.9.81-4.53 1.52-4.53 1.52m4.53-1.51c13.03-3.63 51.65-9.5 83.09 35.73l8.89-1.7s-21.4-38.21-65.75-38.21c-8 0-16.74 1.24-26.24 4.17" class="st0"/></clipPath><clipPath id="clippath-8"><path d="M117.5 50.93c1.6-.79 3.19-1.54 4.77-2.24-3.07 1.27-4.77 2.24-4.77 2.24m4.77-2.24c13.81-5.71 55.5-17.58 96.46 24.39l9.54-3.09s-24.24-30.38-65.8-30.38c-12.01 0-25.46 2.53-40.2 9.08" class="st0"/></clipPath><clipPath id="clippath-9"><path d="M117.45 51.04c1.68-1.03 3.34-2 5-2.93-3.25 1.71-5 2.93-5 2.93m5.01-2.92c14.57-7.71 59.09-25.55 108.56 10.96l10.14-4.45s-24.34-22.15-62.65-22.15c-16.39 0-35.36 4.06-56.06 15.64" class="st0"/></clipPath><style>.st0{fill:none}.st21{fill:#338140}</style></defs><g style="clip-path:url(#clippath)"><path d="M179.58 0h9.59v12.31h-9.59z" style="fill:url(#Degradado_sin_nombre_3)"/></g><g style="clip-path:url(#clippath-1)"><path d="M187.63 9.06h12.01v12.28h-12.01z" style="fill:url(#Degradado_sin_nombre_31)"/></g><g style="clip-path:url(#clippath-2)"><path d="M150.1 9.99h12.57v11.82H150.1z" style="fill:url(#Degradado_sin_nombre_32)"/></g><g style="clip-path:url(#clippath-3)"><path d="M167.81.28h9.52v12.23h-9.52z" style="fill:url(#Degradado_sin_nombre_33)"/></g><path d="M56.85 104.97v-1.08c.78.39 1.45.58 2.02.58.35 0 .63-.09.85-.27s.34-.42.34-.69c0-.4-.31-.74-.94-1l-.69-.3c-1.03-.42-1.54-1.03-1.54-1.83 0-.57.2-1.01.61-1.33.4-.33.96-.49 1.66-.49.37 0 .82.05 1.36.15l.25.04v.99q-1.005-.3-1.59-.3c-.35 0-.62.08-.83.22a.7.7 0 0 0-.3.6c0 .36.28.66.87.9l.57.24c.65.27 1.11.56 1.38.86s.4.68.4 1.12c0 .57-.22 1.05-.68 1.41-.45.37-1.04.56-1.74.56q-.81 0-1.98-.39ZM67.73 104.52c-.1.01-.17.01-.23.01-.42 0-.62-.33-.62-1v-2.95c0-.69-.18-1.2-.53-1.53-.35-.31-.89-.49-1.61-.49s-1.47.16-2.26.48v.98c.72-.39 1.4-.57 2.01-.57.8 0 1.19.38 1.19 1.13v.78h-.28c-1.12 0-1.99.19-2.59.58-.6.38-.91.92-.91 1.63 0 .52.18.95.54 1.28.37.34.81.51 1.36.51.66 0 1.34-.33 2.06-.98.14.65.5.98 1.06.98.33 0 .63-.07.9-.19zm-2.05-.78c-.54.44-1.05.65-1.54.65-.3 0-.54-.1-.74-.29-.2-.2-.3-.43-.3-.72 0-.4.19-.72.6-.97.41-.24.94-.36 1.6-.36h.38zM68.37 105.2v-6.5h1.19v1.22c.47-.91 1.15-1.36 2.05-1.36.12 0 .25 0 .38.03v1.11c-.2-.08-.38-.11-.54-.11-.75 0-1.39.45-1.89 1.33v4.28zM72.51 105.2v-6.5h1.19v1.22c.47-.91 1.15-1.36 2.05-1.36.12 0 .24 0 .38.03v1.11c-.21-.08-.39-.11-.54-.11-.75 0-1.38.45-1.89 1.33v4.28zM81.54 99.48c-.56-.61-1.33-.91-2.29-.91s-1.72.3-2.28.91c-.56.6-.85 1.43-.85 2.48s.29 1.86.85 2.48c.56.61 1.32.92 2.28.92s1.73-.31 2.29-.92c.56-.62.84-1.45.84-2.48s-.28-1.88-.84-2.48m-.92 4.33c-.32.44-.79.66-1.37.66s-1.05-.22-1.37-.66c-.33-.43-.49-1.05-.49-1.85s.16-1.42.49-1.86c.32-.44.78-.66 1.37-.66s1.05.22 1.37.66c.33.44.48 1.05.48 1.86s-.15 1.42-.48 1.85M83.31 95.76h1.19v9.44h-1.19zM85.96 95.76h1.19v9.44h-1.19zM93.51 99.48c-.57-.61-1.33-.91-2.29-.91s-1.73.3-2.29.91c-.56.6-.84 1.43-.84 2.48s.28 1.86.84 2.48c.56.61 1.32.92 2.29.92s1.72-.31 2.29-.92c.55-.62.84-1.45.84-2.48s-.29-1.88-.84-2.48m-.93 4.33c-.32.44-.77.66-1.36.66s-1.06-.22-1.37-.66c-.33-.43-.49-1.05-.49-1.85s.16-1.42.49-1.86c.31-.44.78-.66 1.37-.66s1.04.22 1.36.66c.33.44.5 1.05.5 1.86s-.17 1.42-.5 1.85M101.78 101.05c.57-.22 1.02-.56 1.34-1.01.32-.44.47-.94.47-1.5 0-.71-.22-1.26-.68-1.63s-1.12-.57-1.97-.57h-2.72v8.86h1.26v-3.74h1.18l2.56 3.74h1.56zm-1.88-.53h-.42v-3.24h.81c1.33 0 2.01.46 2.01 1.38 0 .61-.21 1.07-.61 1.38-.41.32-1.01.48-1.79.48M109.27 105.2v-1.22c-.64.91-1.4 1.37-2.3 1.37-.58 0-1.03-.18-1.36-.54-.34-.36-.51-.85-.51-1.45V98.7h1.19v4.28c0 .49.07.83.21 1.04s.38.31.71.31c.73 0 1.41-.47 2.06-1.42V98.7h1.19v6.5zM111.91 105.2v-6.5h1.19v1.22c.47-.91 1.15-1.36 2.05-1.36.12 0 .25 0 .38.03v1.11c-.2-.08-.39-.11-.55-.11-.75 0-1.38.45-1.89 1.33v4.28h-1.19ZM121.31 104.52c-.1.01-.18.01-.23.01-.42 0-.63-.33-.63-1v-2.95c0-.69-.17-1.2-.52-1.53-.35-.31-.89-.49-1.61-.49s-1.47.16-2.26.48v.98c.72-.39 1.39-.57 2.01-.57.79 0 1.19.38 1.19 1.13v.78h-.28c-1.13 0-1.99.19-2.59.58-.61.38-.91.92-.91 1.63 0 .52.18.95.54 1.28.36.34.81.51 1.36.51.65 0 1.34-.33 2.05-.98.15.65.51.98 1.07.98.33 0 .63-.07.9-.19zm-2.05-.78c-.54.44-1.05.65-1.55.65-.29 0-.53-.1-.74-.29-.2-.2-.3-.43-.3-.72 0-.4.2-.72.61-.97.4-.24.94-.36 1.6-.36h.38zM121.95 95.76h1.19v9.44h-1.19zM127 105.04v-1.25c1.01.47 1.83.7 2.49.7q.75 0 1.2-.39c.3-.27.46-.6.46-1.03 0-.34-.1-.64-.3-.88-.19-.25-.56-.52-1.1-.82l-.62-.35c-.76-.43-1.3-.84-1.6-1.22a1.98 1.98 0 0 1-.47-1.32c0-.69.25-1.25.75-1.69s1.14-.66 1.91-.66c.69 0 1.42.12 2.18.35v1.15c-.94-.37-1.64-.56-2.11-.56-.43 0-.8.12-1.08.35-.29.23-.43.52-.43.88 0 .29.1.56.31.79.2.23.59.5 1.14.81l.64.36q1.155.645 1.62 1.23c.3.39.45.85.45 1.4 0 .77-.29 1.39-.86 1.86s-1.33.69-2.27.69c-.6 0-1.37-.12-2.31-.39ZM133.32 98.7v6.5h1.19v-6.5zm0-2.36v1.18h1.19v-1.18zM140.8 101.79c0-1.03-.21-1.83-.65-2.39-.43-.55-1.04-.83-1.84-.83s-1.52.3-2.05.94c-.55.63-.82 1.44-.82 2.41 0 1.02.32 1.84.92 2.48q.915.96 2.37.96c.57 0 1.25-.13 2.05-.36v-.94q-1.08.39-1.83.39c-1.35 0-2.11-.76-2.28-2.3h4.13zm-4.08-.53c.11-1.21.61-1.82 1.53-1.82s1.36.61 1.36 1.82zM141.93 105.2v-6.5h1.19v1.22c.47-.91 1.15-1.36 2.05-1.36.12 0 .25 0 .38.03v1.11a1.5 1.5 0 0 0-.55-.11c-.75 0-1.38.45-1.88 1.33v4.28zM146.06 105.2v-6.5h1.19v1.22c.48-.91 1.16-1.36 2.06-1.36.12 0 .24 0 .38.03v1.11c-.2-.08-.39-.11-.54-.11-.75 0-1.38.45-1.89 1.33v4.28h-1.19ZM155.47 104.52c-.11.01-.19.01-.24.01-.42 0-.63-.33-.63-1v-2.95c0-.69-.17-1.2-.52-1.53-.34-.31-.88-.49-1.61-.49s-1.46.16-2.26.48v.98c.73-.39 1.4-.57 2.01-.57.8 0 1.19.38 1.19 1.13v.78h-.28c-1.12 0-1.99.19-2.59.58-.6.38-.9.92-.9 1.63 0 .52.18.95.53 1.28.36.34.82.51 1.36.51.66 0 1.35-.33 2.06-.98.15.65.51.98 1.06.98.33 0 .62-.07.9-.19zm-2.06-.78c-.53.44-1.05.65-1.54.65-.3 0-.54-.1-.74-.29-.2-.2-.31-.43-.31-.72 0-.4.21-.72.61-.97.41-.24.95-.36 1.6-.36h.38zM159.05 105.2v-8.86h1.25l4.5 6.83v-6.83h1.09v8.86h-1.24l-4.5-6.83v6.83zM172.2 99.48c-.57-.61-1.32-.91-2.28-.91s-1.73.3-2.29.91c-.56.6-.84 1.43-.84 2.48s.28 1.86.84 2.48c.56.61 1.32.92 2.29.92s1.71-.31 2.28-.92c.56-.62.84-1.45.84-2.48s-.28-1.88-.84-2.48m-.92 4.33c-.32.44-.78.66-1.37.66s-1.05-.22-1.37-.66c-.32-.43-.48-1.05-.48-1.85s.16-1.42.48-1.86.78-.66 1.37-.66 1.05.22 1.37.66c.33.44.49 1.05.49 1.86s-.16 1.42-.49 1.85M173.97 105.2v-6.5h1.2v1.22c.47-.91 1.15-1.36 2.05-1.36.12 0 .24 0 .37.03v1.11c-.21-.08-.38-.11-.54-.11-.75 0-1.38.45-1.89 1.33v4.28h-1.2Z" class="st21"/><path d="M181.03 105.2c-.37.1-.68.15-.96.15-.6 0-1.08-.18-1.41-.52-.34-.34-.51-.82-.51-1.43v-3.83h-.82v-.88h.82v-1.18l1.19-.11v1.29h1.72v.88h-1.72v3.61c0 .86.37 1.27 1.11 1.27.15 0 .35-.02.57-.07v.81ZM186.64 101.79c0-1.03-.21-1.83-.65-2.39-.43-.55-1.04-.83-1.84-.83s-1.52.3-2.06.94c-.53.63-.81 1.44-.81 2.41 0 1.02.32 1.84.92 2.48.61.64 1.4.96 2.36.96.57 0 1.26-.13 2.06-.36v-.94c-.73.26-1.33.39-1.83.39-1.35 0-2.11-.76-2.29-2.3h4.14zm-4.08-.53c.1-1.21.62-1.82 1.53-1.82s1.36.61 1.36 1.82z" class="st21"/><g style="clip-path:url(#clippath-4)"><path d="M195.68 23.17h12.51v10.57h-12.51z" style="fill:url(#Degradado_sin_nombre_34)"/></g><g style="clip-path:url(#clippath-5)"><path d="M142.57 23.77h12.49v10.6h-12.49z" style="fill:url(#Degradado_sin_nombre_35)"/></g><g style="clip-path:url(#clippath-6)"><path d="M156 12.05h38.53v25.56H156z" style="fill:url(#Degradado_sin_nombre_36)" transform="rotate(-1.08 174.845 24.992)"/></g><g style="clip-path:url(#clippath-7)"><path d="M117.72 39.66h96.52v45.23h-96.52z" style="fill:url(#Degradado_sin_nombre_24)"/></g><g style="clip-path:url(#clippath-8)"><path d="M117.5 31.11h110.77v41.98H117.5z" style="fill:url(#Degradado_sin_nombre_241)"/></g><g style="clip-path:url(#clippath-9)"><path d="M117.45 22.57h123.71v36.51H117.45z" style="fill:url(#Degradado_sin_nombre_242)"/></g><path d="M157.19 81.44c.36 1.07 1.5 3.59 3.86 3.59 1.69 0 2.75-1.16 2.75-2.93 0-1.94-1.44-2.73-2.87-3.44-.73-.36-3.74-1.44-3.74-4.17 0-2.25 1.68-4.19 4.6-4.19.61 0 1.37.14 1.84.3.3.08.61.19.85.25.09.79.23 1.7.41 3.07l-.56.07c-.38-1.34-1-2.93-3.04-2.93-1.58 0-2.4 1.18-2.4 2.52 0 1.68 1.18 2.44 2.87 3.21 1.48.67 3.81 1.59 3.81 4.41 0 2.64-2.12 4.58-4.94 4.58-.8 0-1.56-.16-2.12-.34s-.96-.37-1.23-.48c-.18-.59-.42-2.21-.64-3.44l.55-.09ZM166.26 84.33c0-.8.58-1.37 1.31-1.37s1.33.57 1.33 1.37-.58 1.38-1.33 1.38-1.31-.55-1.31-1.38M182.79 85.6h-.58l-9.67-12h-.04v5.81c0 2.38.09 3.62.18 4.32.11.8.72 1.12 2.18 1.19v.52h-5.35v-.52c1.23-.05 1.81-.39 1.92-1.19.09-.7.18-1.94.18-4.32v-4.94c0-1.65-.03-2.01-.42-2.53-.42-.55-1.03-.71-1.96-.78v-.52h3.25l9.38 11.47h.05v-5.45c0-2.39-.09-3.62-.18-4.32-.12-.79-.72-1.12-2.19-1.18v-.52h5.35v.52c-1.23.05-1.81.39-1.92 1.18-.09.71-.18 1.94-.18 4.32v8.93ZM185.21 84.33c0-.8.58-1.37 1.32-1.37s1.34.57 1.34 1.37-.59 1.38-1.34 1.38-1.32-.55-1.32-1.38M14.88 83.86v.86H0v-.86h5.16V61.95H0v-.86h9.73v5.49c.34-1.27 1.25-2.55 2.76-3.83 1.98-1.67 4.35-2.51 7.1-2.51 1.25 0 2.35.38 3.3 1.15.97.85 1.46 1.89 1.46 3.11q0 3.15-2.82 3.15c-1.59 0-2.4-.76-2.4-2.29 0-1.32.43-2.19 1.29-2.58 0-.82-.85-1.24-2.54-1.24s-3.4.83-5.18 2.48c-1.98 1.82-2.97 3.82-2.97 6.01v13.81h5.16ZM101.9 83.86V48.33h-9.82v.86h5.25v14.32c-3.72-2.17-5.59-3.27-8.58-3.27-3.65 0-6.84 1.17-9.54 3.51-2.91 2.47-4.36 5.59-4.36 9.35s1.47 6.78 4.4 9.14c2.76 2.22 6.07 3.34 9.92 3.34 2.71 0 4.44-1.1 8.16-3.3v2.44h9.72v-.86zm-4.57-2.91c-2.68 1.94-3.95 2.91-6.77 2.91-3.13 0-5.73-.94-7.83-2.82-2.2-1.99-3.3-4.65-3.3-7.96s1.11-6.09 3.35-8.17c2.09-1.97 4.71-2.96 7.86-2.96 2.77 0 4.01.96 6.69 2.88zM53.43 91.96V61.95h-4.7v-.86h4.7v-1.74c0-3.51.99-6.34 2.96-8.51 1.88-2.02 4.23-3.04 7.07-3.04 1.89 0 3.54.54 4.94 1.61s2.94 2.76 2.94 4.41c0 .89-.24 1.67-.72 2.37-.48.71-1.11 1.05-1.86 1.05-1.66 0-2.97-1.11-2.97-2.69 0-.77.36-1.43 1.06-1.95.71-.53 1.06-.92 1.06-1.14 0-.84-.46-1.51-1.39-2.03-.93-.51-1.92-.77-2.94-.77-3.71 0-5.57 2.77-5.57 8.31v4.12h6.38v.86h-6.38v30.01h-4.57Z" class="st21"/><path d="M76.88 83.86v.85H62.01v-.85h5.14V61.95h-5.14v-.86h9.72v22.77zM129.05 76.76s-.47.68-1.41 1.94c-1.16 1.51-2.35 2.73-3.6 3.65-1.82 1.31-3.72 1.97-5.72 1.97-2.35 0-4.44-1.06-6.24-3.16-1.96-2.25-2.93-5-2.93-8.21 0-1 .09-1.86.31-2.57h20.5c-1.57-7.11-5.51-10.67-11.81-10.67-3.72 0-6.8 1.23-9.22 3.68-2.44 2.46-3.65 5.63-3.65 9.51s1.17 6.93 3.5 9.41c2.34 2.48 5.16 3.73 8.45 3.73s6.17-1.35 8.88-4.06c2.15-2.13 3.22-3.7 3.22-4.7 0-.34-.09-.52-.28-.52M112 64.08c1.72-2.35 3.77-3.51 6.15-3.51s4.33 1.13 5.84 3.38c1.06 1.58 1.78 3.44 2.16 5.57h-16.59c.3-1.87 1.12-3.69 2.44-5.44M49.44 76.76s-.47.68-1.41 1.94c-1.16 1.51-2.36 2.73-3.6 3.65-1.81 1.31-3.72 1.97-5.72 1.97-2.35 0-4.43-1.06-6.24-3.16-1.96-2.25-2.94-5-2.94-8.21 0-1 .11-1.86.32-2.57h20.51c-1.58-7.11-5.53-10.67-11.82-10.67-3.73 0-6.8 1.23-9.23 3.68-2.42 2.46-3.64 5.63-3.64 9.51s1.17 6.93 3.5 9.41 5.15 3.73 8.46 3.73 6.16-1.35 8.87-4.06c2.15-2.13 3.22-3.7 3.22-4.7 0-.34-.09-.52-.28-.52M32.39 64.08c1.72-2.35 3.77-3.51 6.15-3.51s4.33 1.13 5.84 3.38c1.06 1.58 1.78 3.44 2.16 5.57H29.95c.3-1.87 1.12-3.69 2.44-5.44M145.12 83.86v.86h-14.88v-.86h5.15V61.95h-5.15v-.86h9.72v5.49c.33-1.27 1.25-2.55 2.76-3.83 1.97-1.67 4.34-2.51 7.1-2.51 1.25 0 2.35.38 3.3 1.15.96.85 1.46 1.89 1.46 3.11 0 2.1-.94 3.15-2.81 3.15-1.6 0-2.4-.76-2.4-2.29 0-1.32.43-2.19 1.29-2.58 0-.82-.85-1.24-2.55-1.24s-3.39.83-5.17 2.48c-1.98 1.82-2.96 3.82-2.96 6.01v13.81h5.15Z" class="st21"/></svg>