<svg xmlns="http://www.w3.org/2000/svg" id="Capa_1" viewBox="0 0 231.39 62.65"><defs><style>.st0{fill:#464646}.st1{fill:#ff4700}</style></defs><path d="M78.06 25.12 69.82 9.29C67.12 4.1 61.2.75 54.73.75H16.62C7.45.75 0 7.36 0 15.48v32.43c0 8.13 7.45 14.74 16.62 14.74h38.11c6.47 0 12.39-3.35 15.09-8.54l8.24-15.84a14.27 14.27 0 0 0 0-13.15m-8.64 8.66-8.23 15.84c-1.03 1.97-3.63 3.3-6.46 3.3H16.62c-3.74 0-6.89-2.29-6.89-5.01V15.48c0-2.71 3.15-5 6.89-5h38.11c2.83 0 5.43 1.32 6.46 3.3l8.23 15.83c.68 1.31.68 2.87 0 4.17M101.78 7.06H84.59v21.72h17.19c5.3.08 9.24-4.96 9.2-10.86.04-5.93-3.9-10.94-9.2-10.86m-1.41 14.84h-8.25v-7.95h8.25c1.95 0 3.06 1.77 3.06 3.97s-1.11 3.98-3.06 3.98M135.81 12.62V7.06H113.2v21.72h22.61v-5.57h-15.08v-2.78h15.08V15.4h-15.08v-2.78zM151.21 22.4c-3.08-.05-5.7-.7-5.65-4.24v-.53c-.05-3.57 2.57-4.19 5.65-4.23 2.58 0 4.72.5 5.43 2.63h7.72c-.48-7.32-6.2-9.52-13.15-9.54-7.25.04-13.23 2.4-13.2 10.61v1.58c-.03 8.23 5.95 10.59 13.2 10.61 6.95 0 12.67-2.2 13.15-9.54h-7.72c-.69 2.13-2.85 2.65-5.43 2.65M179.4 6.49c-7.27.02-13.22 2.38-13.2 10.61v1.58c-.02 8.21 5.93 10.59 13.2 10.61 7.26-.02 13.21-2.4 13.18-10.61V17.1c0-8.21-5.91-10.61-13.18-10.61m5.65 11.66c.04 3.55-2.58 4.2-5.65 4.25-3.09-.05-5.71-.7-5.66-4.25v-.54c-.05-3.54 2.57-4.18 5.66-4.23 3.07.05 5.69.69 5.65 4.23zM219.55 19.7c.78-1.33 1.16-2.81 1.16-4.45.06-4.49-3.32-8.26-7.3-8.21H194.8v21.73h7.53v-5.3h6.73l3.63 5.3h8.02l-4.21-6.1c1.27-.66 2.29-1.66 3.05-2.97m-6.87-3.14q-.48.54-1.17.54h-9.18v-3.7h9.18c.92 0 1.66.82 1.66 1.85 0 .51-.16.94-.49 1.31" class="st1"/><path d="M99.62 49.76c-3.5-.05-6.47-.79-6.42-4.81v-.6c-.05-4.06 2.92-4.76 6.42-4.82 2.94 0 5.37.57 6.17 3h8.77c-.54-8.32-7.04-10.82-14.94-10.84-8.23.04-15.03 2.72-14.99 12.05v1.8c-.04 9.35 6.76 12.03 14.99 12.05 7.9 0 14.4-2.5 14.94-10.84h-8.77c-.78 2.43-3.23 3.01-6.17 3.01M134.16 31.69c-8.26.02-15.03 2.7-14.99 12.05v1.8c-.04 9.33 6.73 12.03 14.99 12.05 8.25-.02 15.01-2.72 14.97-12.05v-1.8c0-9.33-6.71-12.05-14.97-12.05m6.42 13.24c.05 4.04-2.93 4.78-6.42 4.83-3.51-.05-6.48-.79-6.44-4.83v-.6c-.04-4.02 2.93-4.76 6.44-4.81 3.49.05 6.47.79 6.42 4.81zM175.58 32.3v13.07l-9.64-13.07h-11.77v24.68h8.55V41.9l11.79 15.08h9.64V32.3zM204.63 41.85c-3.45-.19-6.11-.33-6.11-1.42 0-1.96 3.27-2.4 5.93-2.4s4.95.46 5.93 2.4h8.96c-.81-7.71-7.2-8.68-14.89-8.74-7.71 0-14.89 1.69-14.89 8.74-.02 6.17 8.59 6.65 14.71 7 3.45.18 6.11.35 6.11 1.43 0 1.91-3.27 2.41-5.93 2.41s-4.95-.5-5.93-2.41h-8.96c.81 7.66 7.2 8.71 14.89 8.73 7.71 0 14.89-1.68 14.89-8.73.02-6.19-8.59-6.66-14.71-7.01" class="st0"/><path d="M227.41 0c-2.19 0-3.98 1.79-3.98 3.98s1.79 3.98 3.98 3.98 3.98-1.78 3.98-3.98S229.61 0 227.41 0m0 6.94c-1.63 0-2.96-1.33-2.96-2.96s1.33-2.96 2.96-2.96 2.96 1.33 2.96 2.96-1.33 2.96-2.96 2.96" class="st1"/><path d="M229.03 5.48c-.02-.06-.02-.18-.02-.36v-.26c0-.28-.04-.48-.12-.61-.07-.14-.2-.24-.38-.31.22-.08.37-.2.46-.38.1-.18.14-.36.14-.55 0-.15-.02-.29-.07-.41s-.12-.23-.2-.33a1 1 0 0 0-.37-.27c-.15-.06-.36-.09-.63-.1h-1.92v3.9h.8V4.27h.84c.24 0 .4.04.49.13.09.08.13.24.14.49v.36c0 .12.02.23.04.34.01.05.02.12.05.21h.9v-.1a.32.32 0 0 1-.15-.22m-.98-1.92c-.09.04-.22.07-.41.07h-.92V2.58h.95c.17 0 .3.02.39.07.16.08.24.24.24.47s-.08.37-.25.44" class="st1"/></svg>